<svg id="Слой_1" xmlns="http://www.w3.org/2000/svg" viewBox="-292 384 26 26"><style>.st0{fill:#fff}</style><path class="st0" d="M-279 410c-7.2 0-13-5.8-13-13s5.8-13 13-13 13 5.8 13 13-5.8 13-13 13zm0-24c-6.1 0-11 4.9-11 11s4.9 11 11 11 11-4.9 11-11-4.9-11-11-11zm1 12.5v1.7c0 .6-.5 1-1 1s-1-.5-1-1v-2.5c0-.6.5-1 1-1 1.1 0 2-.9 2-2s-.9-2-2-2-2 .9-2 2c0 .6-.5 1-1 1s-1-.5-1-1c0-2.2 1.8-4.1 4.1-4.1s4.1 1.8 4.1 4.1c-.1 1.8-1.4 3.4-3.2 3.8zm-1 3.5c.7 0 1.3.6 1.3 1.3 0 .7-.6 1.3-1.3 1.3s-1.3-.6-1.3-1.3c0-.8.6-1.3 1.3-1.3z"/></svg>