<svg id="Слой_1" xmlns="http://www.w3.org/2000/svg" xmlns:xlink="http://www.w3.org/1999/xlink" viewBox="-213.3 323.2 75.6 83.1"><style>.st0{clip-path:url(#SVGID_2_);fill:#fdb933}.st1{clip-path:url(#SVGID_4_);fill:#110043}.st2{clip-path:url(#SVGID_6_);fill:#00aeef}.st3{clip-path:url(#SVGID_8_)}.st3,.st4,.st5{fill:#ed1651}.st4{clip-path:url(#SVGID_10_)}.st5{clip-path:url(#SVGID_12_)}</style><defs><path id="SVGID_1_" d="M-213.1 323.2h75.3v83.1h-75.3z"/></defs><clipPath id="SVGID_2_"><use xlink:href="#SVGID_1_" overflow="visible"/></clipPath><path class="st0" d="M-162.7 372.1v-15.4l-13.5-7.8-13.4 7.8v15.4l13.4 7.8z"/><defs><path id="SVGID_3_" d="M-213.1 323.2h75.3v83.1h-75.3z"/></defs><clipPath id="SVGID_4_"><use xlink:href="#SVGID_3_" overflow="visible"/></clipPath><path class="st1" d="M-168.2 356.1c-3 .7-7.3 3.3-10.8 6l-2.6-.5c-.1-.1-.2 0-.3 0l-4.5 3.8c-.1.1-.1.3.1.4l1.4.8c.4.2 1 .3 1.4.2l.8.8-.4.4c-.2.2-.2.6 0 .8l2.7 2.7c.2.2.6.2.8 0l.4-.4.8.8c-.1.5-.1 1 .2 1.4l.8 1.5c.1.1.3.2.4.1l3.8-4.5c.1-.1.1-.2 0-.3l-.5-2.6c2.6-3.6 5.2-7.8 6-10.8.2-.3-.1-.6-.5-.6m-3.7 6.1c-.3.3-.6.4-.9.4s-.7-.1-.9-.4c-.5-.5-.5-1.3 0-1.8.3-.3.6-.4.9-.4s.7.1.9.4c.3.3.4.6.4.9 0 .3-.1.7-.4.9"/><defs><path id="SVGID_5_" d="M-213.1 323.2h75.3v83.1h-75.3z"/></defs><clipPath id="SVGID_6_"><use xlink:href="#SVGID_5_" overflow="visible"/></clipPath><path class="st2" d="M-149.6 364.7c2.1-2 3.9-4 5.4-5.9-1.1-.1-2-.6-2.7-1.4-1.3 1.7-3 3.5-4.9 5.3-2.7-2.4-5.7-4.7-8.9-6.9-.3-3.9-.9-7.6-1.6-11.2 2-.6 3.9-1 5.8-1.4 7.1-1.3 12.1-.5 13.7 2.2.7 1.3.7 3.1-.1 5.2 1.1.3 2 .9 2.5 1.8 1.4-3.2 1.5-6.1.2-8.5-2.3-3.9-8.2-5.2-16.8-3.7-1.9.3-3.9.8-5.9 1.4-2.7-10.6-7.2-18.4-13.3-18.4s-10.6 7.8-13.3 18.6c-2.2-.6-4.3-1.1-6.3-1.5.2.4.2.9.2 1.4 0 .6-.1 1.1-.3 1.6 1.8.3 3.7.8 5.7 1.4-.7 3.5-1.3 7.3-1.6 11.1-3.2 2.2-6.2 4.6-8.9 6.9-7.6-7.3-10.9-14-9-17.3.9-1.5 3-2.5 5.9-2.7-.1-.3-.1-.7-.1-1.1 0-.7.2-1.4.5-2-4.2.2-7.3 1.5-8.9 4.2-3 5.2 1.5 13.1 9.4 20.8-8 7.7-12.5 15.5-9.4 20.8 1.7 3 5.4 4.3 10.2 4.3 3.6 0 7.9-.8 12.5-2.1 2.6 10.7 7.2 18.6 13.3 18.6 2.9 0 5.5-1.9 7.7-5-1-.2-2-.7-2.6-1.5-1.6 2.2-3.4 3.5-5.1 3.5-3.8 0-7.9-6.2-10.4-16.5 3.4-1.1 6.9-2.5 10.4-4.2 3.6 1.7 7.1 3.1 10.5 4.2-.5 1.8-1 3.6-1.5 5.1 1.1.1 2 .5 2.7 1.2.6-1.7 1.1-3.5 1.6-5.4 2 .6 4 1.1 5.9 1.4 2.4.4 4.5.6 6.5.6 5.1 0 8.7-1.5 10.4-4.3 3-5-1.5-12.9-9.4-20.6m-4.4 0c-1.9 1.7-4.1 3.4-6.4 5.1.1-1.7.1-3.4.1-5.1s0-3.4-.1-5.1c2.4 1.7 4.5 3.4 6.4 5.1m-35.1 0c0-2.5.1-5 .2-7.3 2-1.3 4-2.6 6.2-3.9 2.1-1.2 4.3-2.4 6.4-3.4 2.1 1 4.3 2.2 6.5 3.4 2.2 1.3 4.3 2.6 6.2 3.9.2 2.3.2 4.8.2 7.3s-.1 5-.2 7.3c-2 1.3-4 2.6-6.2 3.9-2.2 1.3-4.3 2.4-6.5 3.4-2.1-1.1-4.3-2.2-6.4-3.4-2.2-1.3-4.3-2.6-6.2-3.9-.1-2.3-.2-4.7-.2-7.3m25.3-11c-1.4-.9-2.9-1.8-4.4-2.7-1.5-.9-3-1.7-4.5-2.5 2.6-1.2 5.2-2.2 7.7-3 .4 2.5.9 5.3 1.2 8.2m-12.4-27.5c3.8 0 7.9 6.2 10.4 16.4-3.4 1.1-6.9 2.6-10.5 4.2-3.5-1.6-7-3.1-10.4-4.2 2.6-10.2 6.7-16.4 10.5-16.4m-11 19.3c2.4.8 5 1.8 7.7 3-1.5.8-3 1.6-4.5 2.5-1.5.9-2.9 1.8-4.4 2.7.2-2.9.6-5.7 1.2-8.2m-4.7 14.1c-.1 1.7-.1 3.4-.1 5.1s0 3.4.1 5.1c-2.4-1.7-4.5-3.4-6.4-5.1 1.9-1.7 4-3.4 6.4-5.1m-17.6 24.4c-1.9-3.3 1.4-10 9-17.3 2.7 2.4 5.7 4.7 8.9 6.9.3 3.9.9 7.6 1.6 11.1-10.2 3.1-17.6 2.6-19.5-.7m22.3 0c-.5-2.5-.9-5.2-1.2-8.1 1.4.9 2.9 1.8 4.4 2.7s3 1.7 4.5 2.5c-2.7 1-5.3 2-7.7 2.9m14.5-3c1.5-.8 3-1.6 4.5-2.5 1.5-.9 2.9-1.8 4.4-2.7-.3 2.9-.7 5.6-1.2 8.2-2.6-.9-5.1-1.9-7.7-3m29.9 3c-1.6 2.7-6.5 3.5-13.7 2.2-1.8-.3-3.8-.8-5.8-1.4.7-3.5 1.3-7.3 1.6-11.2 3.2-2.2 6.2-4.6 8.9-6.9 7.6 7.3 10.9 14 9 17.3"/><defs><path id="SVGID_7_" d="M-213.1 323.2h75.3v83.1h-75.3z"/></defs><clipPath id="SVGID_8_"><use xlink:href="#SVGID_7_" overflow="visible"/></clipPath><path class="st3" d="M-143.8 360.7c-3.4 0-6.1-2.7-6.1-6.1s2.7-6.1 6.1-6.1c3.4 0 6.1 2.7 6.1 6.1 0 3.3-2.8 6.1-6.1 6.1m0-9.2c-1.7 0-3.1 1.4-3.1 3.1 0 1.7 1.4 3.1 3.1 3.1s3.1-1.4 3.1-3.1c0-1.7-1.4-3.1-3.1-3.1"/><defs><path id="SVGID_9_" d="M-213.1 323.2h75.3v83.1h-75.3z"/></defs><clipPath id="SVGID_10_"><use xlink:href="#SVGID_9_" overflow="visible"/></clipPath><path class="st4" d="M-167.6 403.7c-3.9 0-7-3.1-7-7s3.1-7 7-7 7 3.1 7 7-3.2 7-7 7m0-11c-2.2 0-4 1.8-4 4s1.8 4 4 4 4-1.8 4-4-1.8-4-4-4"/><defs><path id="SVGID_11_" d="M-213.1 323.2h75.3v83.1h-75.3z"/></defs><clipPath id="SVGID_12_"><use xlink:href="#SVGID_11_" overflow="visible"/></clipPath><path class="st5" d="M-199.6 346.8c-2.8 0-5.1-2.3-5.1-5.1s2.3-5.1 5.1-5.1 5.1 2.3 5.1 5.1-2.3 5.1-5.1 5.1m0-7.3c-1.2 0-2.2 1-2.2 2.2s1 2.2 2.2 2.2c1.2 0 2.2-1 2.2-2.2-.1-1.2-1-2.2-2.2-2.2"/></svg>