<svg xmlns="http://www.w3.org/2000/svg" viewBox="-284 375 42 43"><path d="M-250.3 410.2v-5.1c-.3-1.2-.7-2.3-.6-3.6 0-.2-.2-.3-.4-.3-.4 0-.7.3-.7.6.1.3.2.7.1 1-.2.6-.3 1.2-.4 1.8-.1.7-.4 1.5-.4 2.2 0 1.4 0 2.9.1 4.3.1 1.3-.2 2.4-.5 3.6-.1.4-.6.7-1 .4-.6-.3-1.2-.3-1.8-.3-1 0-2.1-.1-3.1-.1h-4.5c-1.4 0-2.8.1-4.2.2-.3 0-.5 0-.8.1-1 .2-2.1.2-3.1.2-.2 0-.4-.1-.3-.4 0-.1.1-.3.1-.4v-.3c0-.3-.4-.4-.6-.3-.5.4-.9.8-1.4 1.2-.5.4-.9.2-1.1-.4-.1-.2-.1-.5-.4-.6-.3-.1-.6 0-.8.3-.1.1-.1.2-.2.3-.2.6-.6.7-1.2.7-.4 0-.6-.2-.4-.5.3-.7.6-1.3.7-2 0-.2-.1-.4-.1-.6-.1-.2-.4-.1-.7.2-.6.5-1.1 1.1-1.4 1.8-.2.3-.3.7-.4 1-.1.2-.3.2-.5.2-.6-.2-.8-.4-.5-1 .3-.7.5-1.3.7-2 .1-.3 0-.6-.4-.6s-.5-.2-.5-.6v-1.7c-.1-1.3.1-2.5.3-3.8.2-.9.1-1.9.1-2.9 0-.1 0-.3-.1-.4-.4-.5-.3-1.1-.3-1.6 0-2.7.1-5.5.1-8.2 0-2 0-4.1-.1-6.1 0-.4.1-.5.6-.6 1.5-.1 2.9-.2 4.4-.3.7-.1 1.4-.3 2.1-.5.2-.1.4-.3.5-.5.1-.3.2-.6.2-.9-.3-1.5-.3-3.1-.8-4.6l-.3-1.2c-.1-.5.1-.8.6-.8.8-.1 1.7-.1 2.5-.1 1.5 0 2.9.1 4.4.1h1.4c2.3.2 4.6.3 6.8.5 1.6.1 3.2-.1 4.8.3.2.1.5 0 .8 0 0 .3.1.6.1.9v1.5c0 .4 0 .8.3 1.1.3.3.3.7.4 1.1l.3 2.4.2.1c.3-.3.8-.6.9-1 .3-.9.5-1.9.4-2.8-.2-1.4-.3-2.7-.6-4.1-.1-.4-.3-.8-.4-1.1-.1-.3-.4-.5-.8-.4-.5.1-1 .1-1.5-.1-.2-.1-.5-.1-.8-.1-2-.1-3.9-.1-5.9-.1-4.9 0-9.8-.1-14.7-.1-1.6 0-1.3-.2-2.4 1.2-.1.2-.3.3-.3.5 0 .5-.4.8-.7 1.1-1.3 1.5-2.6 2.9-3.4 4.7-.2.5-.5.9-.8 1.3-.2.3-.5.5-.7.8-.1.2-.3.5-.3.7 0 1.3 0 2.6.2 4 .1.7.2 1.3.2 2-.1 3.1-.2 6.1-.2 9.2-.1 4.4-.1 8.9-.1 13.3v1.4c0 .7.2 1.4-.1 2.1-.1.4.2.8.7.9.6 0 1.1 0 1.7-.1 1.7-.3 3.4-.5 5.1-.5h2c2.5 0 5 0 7.5-.1.9 0 1.8-.2 2.6-.2h8.1c.2 0 .4 0 .6.1.8.1 1.7.2 2.5.2.6 0 1.3.2 1.8-.2.5-.3.4-.9.6-1.4.4-.6.4-1.2.4-1.9-.2-1.5-.2-2.8-.2-4.1zm-27.3-30.3c.2.1.3.1.3.2.3.3.6.7.8 1.1.1.2.2.6.2.8 0 .1 0 .2-.1.3 0 0-.2 0-.3-.1-.4-.4-.8-.9-1.2-1.3-.1-.1-.2-.3-.2-.4.2-.3.4-.4.5-.6zm-1.1 2s.1.1 0 0c.1.1.1.2.1.2l.2.2h.1v.1c.2.1.2.3.2.5h.1l.3.3s0 .1.1.1l.1.1h-.1s-.1 0-.1-.1l-.3-.3v-.1c-.2-.1-.2-.3-.2-.5h-.1s-.1 0-.1-.1c-.1 0-.1-.1-.2-.2 0 0-.1 0-.1-.1v-.1s-.1 0 0 0c-.1 0 0 0 0 0zm-1.9 1.7c.1-.1.2-.2.3-.4l.1-.1c.2-.1.3 0 .4.1.1.2.2.3.2.5l-.4.2c-.1 0-.2 0-.4.1 0 0-.2 0-.3-.1 0-.1 0-.2.1-.3zm38.5 5.6c0-.2-.1-.4-.2-.6-.8-1.7-1.8-3.3-2.7-5-.2-.3-.4-.5-.8-.4h-.4c-.6 0-1 0-1.4.3-.2.1-.5.2-.7.2-.5-.1-.8.2-1.1.5l-12.3 11.7-2.7 2.7c-.3.3-.5.6-.7 1-.4 1-.8 2.1-1 3.2-.1.5-.3 1.1-.5 1.6l-1.2 3c-.2.5-.3 1-.2 1.5 0 .2.2.3.4.4.6.2 1.2-.1 1.8-.4.7-.3 1.4-.7 2.1-1l3.9-1.5c.6-.2 1-.5 1.3-1 .2-.3.5-.7.8-.9 1.5-1.3 3-2.6 4.5-4 1.6-1.4 3.1-2.7 4.6-4.1.5-.5 1-1 1.6-1.5.5-.4 1.1-.8 1.5-1.3 1-1.1 2.1-2.1 3.2-3.1.3-.5.3-.9.2-1.3zm-4.5-3.6c.1 0 .1 0 0 0 .1 0 .1 0 0 0 .1.1.1.2.1.2l.2.2h.1v.1c.3.2.4.6.5.9 0 0 0 .1-.1.1 0 0-.1 0-.1-.1-.3-.3-.4-.6-.3-1l-.1-.1c-.1 0-.1-.1-.2-.2 0 0-.1 0-.1-.1.1.1.1 0 0 0zm-14.8 19.4c-.8.4-1.7.8-2.6 1.1-.6.2-1.3-.3-1.3-.9v-.5c.2-.8.4-1.7.6-2.5.1-.2.3-.3.5-.1l.4.4c.6.9 1.4 1.6 2.4 2.1l.1.1c0 .1 0 .3-.1.3zm16.4-14.7c-.3.4-.6.8-1 1.2l-3.6 3.6c-1.2 1.2-2.5 2.2-3.8 3.4-1.8 1.6-3.6 3.1-5.3 4.7-.5.4-.8.4-1.4.2-1.1-.3-1.8-1.1-2.4-1.9-.3-.4-.9-.7-.9-1.3.4-.4.7-.8 1.1-1.1.9-.9 1.8-1.7 2.7-2.6.9-.8 1.8-1.6 2.7-2.5 1-.9 1.9-1.8 2.9-2.8.5-.5 1-1 1.6-1.4.4-.3.8-.7 1.1-1 .7-.6 1.3-1.3 2-1.9.4-.3.6-.3.9.1.1.2.3.3.4.5.4.5.8 1 1.5 1.3.5.2 1 .7 1.5 1.1.1.1.1.2.1.3-.1-.1-.1 0-.1.1zm-1.5-.4c-.5.3-.9.6-1.4 1-.6.4-1.1.9-1.7 1.4-1.6 1.3-3.1 2.5-4.7 3.8-1.3 1.1-2.6 2.1-3.9 3.2-.5.4-1 .9-1.5 1.4-.2.2-.2.4-.3.7 0 .1.1.2.2.4.2-.1.4-.1.6-.2 1.1-.9 2.3-1.7 3.4-2.6 1.6-1.2 3.1-2.5 4.7-3.7 1.6-1.3 3.2-2.6 4.6-4 .2-.2.4-.4.4-.6.1-.2 0-.4-.1-.6.1-.5-.1-.3-.3-.2zm-8.9 6c1.6-1.3 3.2-2.5 4.7-4 .2-.3.5-.5.8-.7.6-.5 1.2-.9 1.8-1.4.2-.2.4-.5.6-.7-.1-.2-.2-.3-.3-.4-.1-.1-.3-.1-.4 0l-2.1 1.5-3.9 3.3c-1.1 1-2.4 1.8-3.4 2.8-1.1 1.1-2.3 2.2-3.5 3.3-.1.1-.2.2-.3.4-.1.2-.1.5.1.5.1.1.3.1.4 0 .4-.2.8-.5 1.1-.8 1.5-1.3 3-2.6 4.4-3.8z"/></svg>