<svg xmlns="http://www.w3.org/2000/svg" viewBox="-291 366 29 61"><path d="M-265.8 405.6c-.7-1.2-1.7-2.3-2.6-3.4-.3-.4-.8-.7-1.3-.9-1.6-.9-3.4-1.2-5.3-1.2-1.7 0-3.3.6-4.7 1.8-.8.7-1.5 1.5-2.3 2.2-.2.2-.4.4-.7.5-.1 0-.2-.1-.3-.1-.1-.1-.1-.3-.1-.3l.9-.9c.3-.3.5-.6.6-1.1.2-1.6-.1-3.1-.8-4.5-.3-.6-.8-.7-1.3-.3l-2.4 1.8c-.7.6-1.2 1.4-1.2 2.5 0 1.9 0 1.9-1.8 1.9h-.7c-.2 0-.3.1-.5.2-.4.2-.5.7-.4 1.3.1.4.4.6.7.6 1-.1 2 .2 3 .1.5 0 1 .1 1.5.5.1.1.1.2.1.3-.1.1-.3.2-.4.3-2.2 1.1-3.5 2.9-4.3 5.2-.1.4-.3.8-.4 1.2-.2.8-.5 1.6-.3 2.5.2 1.5.6 2.9 1.5 4.1.9 1.3 1.9 2.6 3 3.7 2.5 2.5 5.6 3.4 8.9 3.5 1.9.1 3.7-.5 5.2-1.8.7-.6 1.4-1.3 1.6-2.2.3-1.2 1.1-1.9 2.3-2.2.3-.1.7-.1 1-.3 1.1-.9 2.2-1.9 2.7-3.4.4-1.5.9-3 .7-4.4.1-2.8-.6-5.1-1.9-7.2zm-19.8-2.1c-.2 0-.4-.3-.4-.5-.2-1-.1-1.9.8-2.5.3-.2.6-.5 1-.8.8-.7 1-.6 1.2.3.1.4.1.8.1 1 0 1.3-.6 2.2-1.6 2.5-.4.1-.7.1-1.1 0zm19 12.9c-.7 1-1.8 1.5-3 1.7-.3.1-.7-.2-1-.2-.5-.1-.9.2-1 .7-.1.5 0 1-.3 1.5-.5.7-1 1.3-1.8 1.6-.3.1-.5.1-.8-.1-.7-.3-.8-.2-1.3.5-.1.1-.1.3-.2.3-.1.1-.4.1-.4 0l-.9-1.5c-.2-.4-.4-.8-.7-1.2-.3-.4-.8-.3-1 .1-.2.4-.3.8-.2 1.2.1.5.2.9.3 1.4 0 .1-.1.2-.2.3-.1-.1-.2-.1-.3-.2-.7-1.1-1-2.3-1.3-3.5-.1-.3-.2-.7-.3-1-.3-.7-.8-.8-1.3-.2-.1.2-.3.4-.4.6 0 0-.3 0-.3-.1-.1-.3-.1-.6-.2-.9-.1-.5-.2-.9-.4-1.4-.2-.5-.7-.6-1.2-.3-.2.1-.3.2-.5.4 0-.2-.1-.5-.1-.7 0-.5.2-.9.2-1.4 0-.3-.1-.6-.2-.8-.2-.5-1-.6-1.3-.1-.2.3-.4.7-.5 1.1 0 .1-.1.1-.1.1 0-.1-.1-.1-.1-.2 0-.9-.1-1.8 0-2.7 0-.5.3-1 .6-1.5.8-1.1 1.9-1.7 3-2.5.1-.1.5 0 .6.1.2.1.3.3.5.5s.1.5 0 .6c-.4.3-.9.6-1.3 1-.1.1-.2.3-.3.4-.2.2 0 .5.2.6.4.1.8.1 1.2-.1 1.9-1 3.4-2.3 4.2-4.4.2-.4.1-.7-.1-1-.1-.2-.5-.3-.6-.1l-1.5 1.8c-.1.1-.3.3-.4.1-.1-.1-.3-.3-.3-.4.1-.6.2-1.3.7-1.7.8-.6 1.6-1.2 2.3-1.9.8-.7 1.8-1 2.9-1.1 2.5-.1 4.7.6 6.5 2.5 1.8 1.9 3 4.1 3.6 6.6.1.6.1 1.3.2 1.9-.2 1.3-.4 2.5-1.2 3.6zm-12.2-22.2c.1.6.4.8.9.9h1.1c.5-.1.8-.3.9-.8.2-.9.4-1.9.3-2.8v-9.8h.1v-10.5c0-.7 0-1.3-.3-1.9 0-.1-.1-.1-.1-.1-.1 0-.2.1-.3.1-.1.3-.2.5-.3.8-.4 1.7-.7 3.4-.7 5.1 0 1.2-.2 2.3-.6 3.5-.4 1.2-.6 2.5-.7 3.8-.3 3.4-.5 6.7-.3 10.1-.2.5-.1 1.1 0 1.6zm16.7-16c-.1-1-.1-2-.1-3 0-.5-.1-.9-.2-1.4 0-.1-.1-.2-.2-.3-.1.1-.2.1-.2.2-.1.2-.2.4-.3.7-.5 2-1 4-1.4 6-.1.6-.1 1.2-.1 1.8-.1 1.7-.2 3.4-.2 5.2v2.1c.1 1.8.1 3.6.2 5.3 0 .8 0 1.7.1 2.5 0 .4.1.7.2 1 .1.6.4.8 1 .7.5-.1.8-.3.8-.8.1-1.2.3-2.5.3-3.7.1-1.9 0-3.8 0-5.7h-.1c.1-2.2.1-4.4.2-6.6.1-1.3.2-2.7 0-4zm-8.8 7.1c0 .5.1 1.1.2 1.6.1.4.4.8.6 1.2.1.2.5.2.6-.1.2-.4.5-.8.6-1.3.2-.7.3-1.5.3-2.3.2-2.4-.1-4.7.3-7.1.1-.4 0-.8 0-1.2-.3-1.5-.2-3.1-.1-4.6.1-1.7-.1-3.3-.2-4.9 0-.2-.2-.4-.3-.6 0-.1-.3-.1-.3 0-.1.2-.3.5-.4.8-.6 2.4-.8 4.9-1 7.4-.1.8 0 1.7-.1 2.5-.3 1.8-.3 3.5-.2 5.3 0 1-.1 2.2 0 3.3zm-.8 23.7c-.1 0-.1-.1-.2 0-.2.1-.4.1-.6.2-.1.1-.1.3-.1.5.2.8.8 1.3 1.4 1.7h.2c.4 0 .8-.5.6-.9-.2-.7-.6-1.2-1.3-1.5zm-3.2-.4c-.2-.1-.6 0-.7.3-.3.4-.2.8.2 1.3.3.3.9.4 1.2.1.1-.1.2-.3.2-.4-.1-.6-.3-1.1-.9-1.3zm3.8-1c.2 0 .5-.2.5-.3 0-.5-.3-.7-.7-1-.2-.1-.5-.1-.6.1-.1.1-.1.3-.1.5.2.3.5.6.9.7z"/></svg>