<svg id="Слой_1" xmlns="http://www.w3.org/2000/svg" xmlns:xlink="http://www.w3.org/1999/xlink" viewBox="-282 375.1 58.2 42.9"><style>.st0{clip-path:url(#SVGID_2_)}</style><path d="M-235.3 412c-.4-1.2-.9-2.4-1.4-3.5-.5-1.2-1.4-2.2-1.8-3.5-.1-.2-.2-.4-.4-.6-.5-.7-1.1-1.2-2-1.3-.4 0-.9-.2-1.3-.2-2 0-4-.1-6-.2-2.5-.2-5-.2-7.4-.3-1.7-.1-3.4.2-5.1-.3-2.1-.1-4.1-.2-6.2-.3h-1.9c-.6 0-1.3 0-1.9.1-.6 0-1.3.2-1.9.2-.9 0-1.8.2-2.6.6-.6.3-1.3.5-1.7 1.2-1.1 1.7-2.3 3.4-3.3 5.1-1 1.7-1.8 3.6-1.6 5.7 0 .3 0 .5.1.8 0 .2 0 .4.1.5.2.6.7 1.1 1.3 1.1.3 0 .7 0 .9.1 1.3.4 2.6.5 3.9.6 1.1.1 2.2.2 3.4 0l2.4-.3h3.3c1.1.1 2.2.2 3.2.4h.5c2.4-.3 4.8-.2 7.2-.2h3.1c1.7 0 3.3-.1 5 .2.7.1 1.4 0 2.2 0 .5 0 1.1-.1 1.6-.1h5.7c.7 0 1.4-.3 2-.7.4-.3.6-.6.6-1 0-.5.1-1 .3-1.5.2-.9 0-1.7-.3-2.6zm-2.6 1.7c-.2.1-.4.2-.6.2-2.5.3-5 .6-7.6.2-1.4-.2-2.8-.3-4.1-.6-.3-.1-.6 0-.9 0-2.6 0-5.2-.1-7.7 0-1.5 0-3 0-4.5.2-1.3.2-2.7.2-4-.1-.7-.2-1.5 0-2.3 0-.5 0-1.1.1-1.6.1-2.1 0-4.2.1-6.2.1-.5 0-1-.1-1.4-.4-.4-.2-.5-.5-.4-.9.2-.5.4-1 .4-1.6 0-.1 0-.2.1-.3.8-1 1-2.4 2-3.4.3-.3.5-.8.8-1.2.4-.7 1-1 1.8-1 2.6-.1 5.1-.3 6.9-.3 2.6 0 4.4-.1 6.1.2.7.1 1.4 0 2.2 0 .5 0 1-.1 1.5 0 1.7.2 3.4.2 5.1.2.8 0 1.5.1 2.3.2 1.8.2 3.6.3 5.4.4h1.8c.3 0 .6 0 .9.1.9.1 1.6.6 1.9 1.5.1.5.4 1 .8 1.4.1.1.2.2.2.3.5 1.5 1.3 2.8 1.6 4.3 0 .1-.1.2-.5.4zm-39.3-15.4c0 .2 0 .4.1.5.5 1.4 1.7 2.6 3.3 2.6.5 0 1 .2 1.5 0 1.3.4 2.6 0 3.9-.1.5 0 1.1 0 1.6-.1 1-.1 2.1-.1 3.1 0 1.1.1 2.2.3 3.4.3 2.5.1 5 .2 7.4.3.9 0 1.7 0 2.6.1 1.7.2 3.4.2 5.1.2 1.5 0 2.9-.5 4.2-1.3.6-.3 1-.8 1.2-1.4.6-1.4 1-2.9 1-4.5v-7.3c0-1.3 0-3.3.1-5.3 0-1.7-.2-3.3-.8-4.8-.4-1.2-1.2-1.9-2.4-2.2-.8-.2-1.6-.3-2.4-.3-2.5 0-5-.1-7.5.2-1.2.1-2.4 0-3.6-.1-3.9-.2-7.9 0-11.8.3h-.4c-.9.2-1.9.1-2.8.1-.2 0-.4-.1-.5 0-.9.2-1.8.2-2.7.2-1.5.1-2.1.4-3 1.5l-.1.1c-.1.2-.2.3-.2.5l-.3 1.5c-.2 1.9-.3 3.8-.3 5.7 0 4.2.2 8.5.3 12.7-.1.2-.1.4 0 .6zm2.2-10.9c.1-1.7.1-3.5.3-5.2.1-.9.3-1.9.4-2.8.1-.6.4-.9 1-1 .8-.2 1.6-.5 2.4-.5 1.9-.1 3.8-.4 5.7-.2 1.4.2 2.8 0 4.2 0 .4 0 .7-.1 1.1-.1 2.9 0 5.9 0 8.8-.1 1.4 0 2.7 0 4.1-.2.7-.1 1.4 0 2 0 .9 0 1.7.3 2.5.7.8.4 1.3 1 1.5 1.8.2.7.4 1.5.3 2.3v12.6c0 1.5-.5 2.7-1.4 3.7-.6.8-1.5 1.2-2.6 1.4-1 .1-1.9.1-2.8 0-2.9-.2-5.8-.2-8.7-.3-1.1 0-2.3 0-3.4-.2-.3-.1-.6 0-.9-.1-1-.1-2-.2-3-.2-1.2-.1-2.4-.1-3.6.1-1.9.2-3.8.3-5.7-.1l-.9-.3c-.3-.1-.6-.4-.8-.7-.3-.6-.5-1.3-.5-2-.1-2.9-.2-5.8 0-8.6zm21 21.5c-.3-.6-.7-.9-1.4-.9h-1.2c-.9 0-1.7 0-2.6-.2-.3-.1-.7-.1-1.1 0-.9.2-1.8.3-2.6.6-.2 0-.4.2-.5.4-.5.7-.7 1.5-.6 2.3 0 1 .6 1.6 1.6 1.6h3.8v-.1h4.5c.3 0 .5-.3.5-.5.1-.8.1-1.5-.1-2.3-.1-.4-.2-.7-.3-.9zm-1.8 2.5h-1.1c-1.2-.1-2.3-.2-3.5-.3h-1.2c-.3 0-.5-.1-.5-.3-.1-.4 0-.7.4-.8.3-.1.7-.2 1.1-.2h2.3v-.1h2.2c.5 0 .7.2.8.7v.4c0 .4-.1.6-.5.6zm8.5-21.6h-3.7c-1.5 0-2.8 0-4.2.1-.5 0-1 .1-1.5.2-.4 0-.6.3-.6.6-.1.2-.1.4-.1.7 0 1.4 0 2.8-.1 4.2-.1.9 1.2.6 1.2 1.4 0 .1.2.1.3.2h.1c1.2 0 2.3 0 3.5-.1.9 0 1.7-.1 2.6-.2h2.2c.3 0 .6-.2.8-.5.2-.4.4-.9.4-1.4 0-1.3 0-2.6.2-3.9.3-1-.1-1.3-1.1-1.3zm-8 1.8c-.2.4-.4.9-.6 1.3 0 0-.1 0-.1.1l-.1-.1v-1.4c0-.1.2-.2.3-.2.2 0 .3.1.5.1v.2zm.5 1.6c0-.1 0-.1 0 0 .1-.1.1-.1 0 0-.1-.7.3-1.2.7-1.7.2-.2.5-.3.7-.2 0 0 .1 0 .1.1s.1.2 0 .2c-.5.4-.7 1.1-1.5 1.6.1-.1.1-.1 0 0 0 .1-.1.1-.1.2-.1-.2 0-.2.1-.2zm4.1 2.3c-.1.1-.3.3-.4.3-.7.1-1.3.1-1.8.1h-1.7c-.2 0-.3-.1-.3-.3.4-.8.7-1.6 1.1-2.3.1-.2.3-.5.4-.7 0 0 .1-.1.2-.1v.3c-.1.3-.2.5-.3.8-.1.2-.1.4-.1.7 0 .3 0 .5.3.7.3.2.5.1.7-.1.2-.1.3-.1.4.1.1.2.2.3.3.4.2.2.4.3.6.1.2-.1.3-.2.5-.2 0 0 .1.1.2.1-.1 0-.1.1-.1.1zm1.5-4c-.4.4-.6.9-1.1 1.1h-.1l-.1.1v-.1h.1c0-.3 0-.5.1-.8.1-.6.3-.7 1-.6.1.1.2.2.1.3zm1.6 1.5c-.1 1.2-.1 1.2-1.1 1.7h-.2c-.1-.1-.1-.2-.1-.2.2-.6.5-1.2.7-1.8.1-.4.4-.7.2-1.2 0-.2.1-.3.3-.3.2 0 .4.1.4.3-.1.5-.2 1-.2 1.5zm-23.4-8.4v2.7c0 .6.3.9.9.9h1.6c.9 0 1.8-.1 2.7-.1.9 0 1.9 0 2.8.2.4.1.8.1 1.1-.3.3-.5.5-1 .4-1.5-.2-1.2-.1-2.4 0-3.7.1-.4 0-.9 0-1.4 0-.6-.4-1-1.1-1h-6.9c-1 0-1.7.7-1.7 1.7.2 1 .2 1.7.2 2.5zm8.2-2.6s.1 0 0 0c.1.1 0 .2 0 .2-.1 0-.2-.1-.2-.1 0-.1.1-.1.2-.1zm-3.6.5c0-.2.1-.3.2-.5.1-.1.5-.2.6-.1l.1.1v.1c-.1.2-.3.5-.4.7-.5 1-.7 1.2-.8 1-.1-.4.2-.8.3-1.3zm-.5 4c.1-.1.3-.1.4-.1.3.1.6 0 .9-.1h.3c.5.5 1 .4 1.5.1h.1c.1.1.2.2.2.3l-.1.2c-.1 0-.3 0-.4.1h-2.9l-.1-.1c0-.3 0-.4.1-.4zm-1.1-4.5c.1 0 .2-.1.3-.1 0 0 .1 0 .1.1l.1.1c-.2.3-.4.7-.6 1h-.1l-.1-.1c0-.3-.1-.7.3-1zm-1 4.3c.4-.2.4-.2.7.1l.2.2c.1.1 0 .2-.1.3-.4.1-.8.1-1.1.2h-.2l-.2-.2c0-.1 0-.2.1-.2.2-.2.4-.3.6-.4zm-.5-4.3c0 .1.1.1.1.2-.1 0-.1.1-.2.1 0 0 0-.1.1-.3-.1.1-.1.1 0 0zm11.8 5.9c.7.1 1.4.3 2.1.3 2.8.1 5.6-.2 8.4-.3.3 0 .5-.1.8-.2.2-.1.3-.2.4-.3.2-.2.1-.6-.1-.7-.1-.1-.3-.1-.4-.1h-.9c-2.2.1-4.3.2-6.5.4v-.1h-3.3c-.3 0-.5 0-.8.1-.2 0-.3.4-.2.6.1 0 .3.3.5.3zm11.8-3.7c-.3-.1-.7-.1-1.1-.1h-7.2c-.8 0-1.6.1-2.4-.1-.2 0-.4.1-.6.2-.2.1-.3.3-.3.6 0 .2.2.4.4.5.1 0 .2.1.3.1 1 .1 2.1.2 3.1.2h6.8c.4 0 .7 0 1.1-.2.2-.1.3-.3.3-.6-.1-.4-.2-.6-.4-.6zm-11.8-2c.2.1.4.1.7.2 1.2.1 2.4.3 3.6.4.9.1 1.9.1 2.9.1 1.2 0 2.4-.1 3.6-.1.2 0 .4 0 .7-.1.3 0 .5-.3.5-.6s-.3-.6-.6-.7h-.7c-1.6.3-3.2.1-4.9.2-.4 0-.8 0-1.2-.1-1.2-.1-2.3-.3-3.5-.4h-.8c-.1 0-.2 0-.3.1-.2.1-.4.3-.4.5.1.2.2.5.4.5zm-4.5 13.1c-1 0-2 .1-3 .2s-2 0-3 .1h-1.9c-.3 0-.5.1-.7.3-.2.2-.2.6 0 .7.4.2.8.3 1.2.3h2l5.7-.3c.1 0 .3 0 .4-.1.3-.1.5-.4.5-.7 0-.3-.3-.5-.5-.5h-.7zm.6-2.4c-.2-.1-.4-.2-.6-.2-.4 0-.7.1-1.1.1-1.1 0-2.3.1-3.4.1s-2.3.1-3.4.1c-.3 0-.5.1-.8.2-.2.1-.3.4-.2.6.1.1.2.3.4.3.2.1.4 0 .5 0h3.5c1 0 2.2 0 3.4-.1.5 0 1.1-.2 1.6-.3.2-.1.3-.3.3-.6.1 0 0-.1-.2-.2zm-9.1-1.5c.2.1.3.1.5.1 1.7.1 3.3.2 5 .3h2.6c.2 0 .4-.1.7-.1.2 0 .4-.3.4-.5 0-.3-.2-.4-.4-.5-.3-.1-.5-.1-.8-.1-1.3 0-2.6 0-3.9-.1-1.3-.1-2.6-.1-3.9-.1-.2 0-.4.2-.4.4-.1.3 0 .5.2.6z"/><defs><path id="SVGID_1_" d="M-233.6 407.4h9.8v6.4h-9.8z"/></defs><clipPath id="SVGID_2_"><use xlink:href="#SVGID_1_" overflow="visible"/></clipPath><path class="st0" d="M-233.6 409.9c1 1.5 2.1 2.8 3.8 3.4.9.3 1.8.4 2.7.4.8 0 1.7 0 2.3-.5 1.2-.9 1.1-2.6.3-3.7-1-1.4-2.8-1.9-4.5-2-.9-.1-2-.1-2.9.2-.8.3-1.3 1.1-1.8 1.8-.2.3.3.6.5.3.5-.8 1-1.6 2-1.7.9-.1 1.7-.1 2.6 0 1.7.2 4.1 1.1 4.1 3.1 0 1-.7 1.7-1.7 1.8-.9.1-1.8 0-2.7-.1-.9-.2-1.8-.5-2.5-1.1-.7-.6-1.3-1.4-1.8-2.2-.1-.3-.6 0-.4.3"/><path class="st0" d="M-227.4 413.2c-.4-.2-.7-.5-1-.9-.2-.3-.7 0-.5.3.3.5.7.8 1.2 1.1.3.2.6-.3.3-.5"/><path class="st0" d="M-226.9 413.2l-.9-1.2c-.2-.3-.7 0-.5.3l.9 1.2c.2.3.7 0 .5-.3m-1.7-.7c-.2-.1-.3-.3-.4-.5 0-.2-.2-.3-.4-.2-.2 0-.2.2-.2.4.1.4.4.8.8.9.2.1.3-.1.4-.2.1-.2 0-.3-.2-.4"/><path class="st0" d="M-229.5 412.3l-.1-.1s0 .1 0 0c0 0 0-.1-.1-.1v-.1c-.1-.4-.7-.2-.6.2.1.3.2.5.4.7.1.1.3.1.4 0 .1-.3.2-.5 0-.6"/><path class="st0" d="M-229.6 412.3v-.5c0-.2-.1-.3-.3-.3-.2 0-.3.1-.3.3v.5c0 .2.1.3.3.3.1 0 .3-.1.3-.3"/><path class="st0" d="M-230.2 412.4c-.1-.3-.2-.6-.2-1s-.6-.4-.6 0c0 .5.1.9.3 1.3.1.3.7 0 .5-.3"/><path class="st0" d="M-230.6 411.7c-.1-.2-.1-.4-.1-.6 0-.2-.1-.3-.3-.3-.2 0-.3.1-.3.3 0 .2 0 .5.1.7.1.2.2.3.4.2.1.1.2-.1.2-.3"/><path class="st0" d="M-231.1 411.3c-.1-.2-.1-.4-.2-.6-.1-.4-.7-.2-.6.2.1.2.1.4.2.6.2.3.7.2.6-.2"/><path class="st0" d="M-231.5 410.8v-.5c0-.2-.1-.3-.3-.3-.2 0-.3.1-.3.3v.5c0 .2.1.3.3.3.2 0 .3-.1.3-.3"/><path class="st0" d="M-231.9 410.6v-.5c0-.2-.1-.3-.3-.3-.2 0-.3.1-.3.3v.5c0 .2.1.3.3.3.2 0 .3-.1.3-.3"/><path class="st0" d="M-231.9 410s0 .1 0 0v-.2c.1-.1 0-.3-.1-.4-.1-.1-.3 0-.4.1-.1.2-.2.5-.1.7 0 .2.2.3.4.2.2 0 .2-.2.2-.4"/><path class="st0" d="M-232.4 409.7s.1.1 0 0c.1 0 .1.1 0 0 .1 0 .1.1 0 0 .1.1.1 0 0 0 .1.1.1.1 0 0 .1 0 .1.2 0 0 .1.1.1.1 0 0 .1.2.1.1 0 0 .1-.1 0-.3-.1-.3-.2 0-.3.1-.4.2v.4l.3.3c.1.1.3-.1.4-.2.1-.2 0-.3-.2-.4"/><path class="st0" d="M-232.5 409.6v-.4c.1-.1.1-.3 0-.4-.1-.1-.3-.1-.4 0-.2.2-.3.5-.2.7 0 .2.1.3.3.3.2.1.4 0 .3-.2m7.4 2.7c-.3 0-.5-.1-.6-.4-.2-.3-.7 0-.5.3.2.4.7.7 1.2.7.2 0 .3-.1.3-.3-.1-.2-.2-.4-.4-.3"/><path class="st0" d="M-225.9 412.4c-.3-.1-.5-.2-.8-.3-.3-.2-.6.3-.3.5s.6.3.9.4c.5 0 .6-.5.2-.6"/><path class="st0" d="M-226.5 412.8c-.3 0-.6-.1-.8-.3-.3-.2-.6.3-.3.5s.7.3 1.1.4c.4 0 .4-.6 0-.6"/><path class="st0" d="M-227.9 412.7c-.2-.1-.4-.2-.5-.4-.1-.1-.3-.1-.4 0-.1.1-.1.3 0 .4.2.2.4.4.6.5.1.1.3 0 .4-.1.1-.2.1-.4-.1-.4m2.5 0v-.1c0-.2-.1-.3-.3-.3-.2 0-.3.1-.3.3v.1c0 .2.1.3.3.3.2-.1.3-.2.3-.3m.8-.9c-.1-.1-.2-.2-.3-.4-.1-.1-.3-.1-.4 0-.1.1-.1.3 0 .4.1.1.2.2.3.4.1.1.3.1.4 0 .1-.1.1-.2 0-.4"/><path class="st0" d="M-224.8 411.8c0 .1 0 0 0 0 0 .1 0 .1 0 0 0 .1 0 .1 0 0 0 .1 0 .1 0 0 0 .1 0 .1-.1.1-.1.1-.2.3-.1.4.1.1.3.2.4.1.2-.1.4-.4.4-.7 0-.2-.1-.3-.3-.3-.2.1-.3.2-.3.4"/><path class="st0" d="M-225.1 411.8c-.1.2-.1.3-.2.5 0 .1.1.3.2.4.2 0 .3-.1.4-.2.1-.2.1-.3.2-.5 0-.1-.1-.3-.2-.4-.2 0-.3.1-.4.2m-6.5-2.7c.2 0 .4.1.7.1.1 0 .5-.1.6.1.1-.1.2-.3.3-.4-.4-.1-.8-.3-1.2-.3-.4-.1-.5.4-.2.6.4.1.8.3 1.2.4.1-.2.1-.4.2-.6-.2-.1-.4-.1-.6-.2-.4-.1-.5.5-.2.6.2.1.4.1.6.2.4.1.5-.5.2-.6-.4-.1-.8-.3-1.2-.4-.1.2-.1.4-.2.6l1.2.3c.3.1.4-.2.3-.4-.1-.2-.4-.4-.6-.4-.3 0-.6 0-1-.1-.3-.1-.5.4-.1.5"/></svg>