<svg xmlns="http://www.w3.org/2000/svg" viewBox="-282 379 47 35"><path d="M-244.5 399c-.2-.7-.3-1.4-.3-2.1-.1-1.1-.1-2.2 0-3.3.1-1.2.2-2.3.8-3.3.4-.6.4-1.3.3-2-.1-.5-.5-.9-1-1-.8-.1-1.5.2-1.8.9-.2.4-.3.8-.4 1.2-.1.6-.4 1.2-.7 1.7-.7 1.1-1.3 2.3-1.8 3.5-.1.3-.3.5-.4.8-.1.2-.4.3-.6.3-.2 0-.4-.2-.4-.5v-.7c.1-1.4-.1-2.8-.2-4.2 0-.4-.1-.8-.3-1.1-.1-.4-.5-.6-.9-.7h-.7c-.5 0-.8.2-1.1.6-.3.6-.4 1.1.1 1.6.4.4.5.8.5 1.3v3.2c0 .5.1 1.1.3 1.6.3.7.7 1.1 1.4 1.4 1.4.4 2.6.3 3.7-.8.1-.1.2-.2.4-.2.1.1.1.2.1.4 0 .9.2 1.8.5 2.7.5 1.9.9 3.8.8 5.5v2.2c0 .7-.1 1.3-.3 2-.3.9-.9 1.4-1.9 1.4h-3.1c-.7 0-1.4-.3-2.1-.6-.5-.2-.6-.6-.5-1.1.1-.5.2-1 .4-1.4.5-1 1.2-2 1.9-2.9.4-.5.9-.7 1.5-.5.4.1.8.2 1.2.2.7 0 1.2-.4 1.3-1 .1-.4-.2-1-.7-1.2-.5-.3-1.1-.5-1.6-.6-.8-.2-1.7-.1-2.4.3-.5.3-1 .7-1.3 1.1-1 1.2-1.8 2.5-2.5 3.9-.5.9-.6 1.9-.5 3 0 .8.4 1.4.9 1.9s1.2.9 1.9 1.1c2.4.9 4.8.9 7.3.3 1.1-.3 1.9-1 2.5-2 .2-.4.4-.9.6-1.3.8-2.1.6-4.2.4-6.3-.5-2-.9-3.7-1.3-5.3zm-22.7-.1c-.6.2-1.2.5-1.6 1.1-.5.7-.9 1.4-1.4 2.1-.2.3-.4.4-.7.4-.9-.1-1.7-.5-2.4-1.1-.3-.3-.5-.7-.5-1.2 0-.7 0-1.4.1-2 0-.3.2-.5.3-.8 0 0 .2-.1.2 0l.5.5c.3.2.6.2 1 0 .3-.2.5-.5.6-.8.1-.7.1-1.4.1-2.2 0-.4-.3-.7-.6-.9-1.1-.7-2.5-.6-3.3.4-.3.4-.5.8-.8 1.2-.2.3-.4.2-.5-.1-.1-.3-.2-.5-.4-.8-.9-1.3-2.1-1.3-3.3-.4l-.3.3c-.6.8-1.1 1.6-1.5 2.5-.2.5-.3 1-.2 1.6 0 .5.5 1 1 1.1.5.1 1.1-.1 1.4-.6.1-.3.2-.5.3-.8.1-.3.2-.6.3-.8.1-.1.2-.3.3-.3.1 0 .2.1.3.3.1.1 0 .2.1.3.4 1.7.7 3.3.6 5v2.2c0 .3-.1.6-.2.9 0 .2-.3.3-.5.2-.4-.3-.8-.7-1.3-1-.4-.3-.8-.3-1.2-.1-.6.3-.9.9-.6 1.6.5 1 1.2 1.7 2.1 2.2 1.7.9 3.4.2 4-1.4.3-.7.5-1.4.5-2.1v-.9c0-.3.1-.4.4-.2.3.1.5.3.8.4 1 .5 2 .8 3.1.8 1.3 0 2.3-.5 2.9-1.6.3-.6.6-1.3.9-2 .4-.8.3-1.6.3-2.4-.1-.6-.4-.7-.8-.6zm32.1-13.4c-.2-.4-.8-.7-1.3-.6-.2 0-.4.1-.6.2-.3.1-.6.3-.9.4-.1 0-.3.2-.4 0v-.3c.5-1 .6-2.1.5-3.3v-1.4c0-1-.7-1.4-1.5-1.5-.4 0-.9 0-1.3.1-1.2.5-2.1 1.3-2.7 2.4-.5.9-.3 1.9.5 2.5.2.2.6.2.8 0 .3-.3.5-.6.5-1 .1-.4.3-.7.6-1 .1-.1.3-.1.4-.2.1.2.2.3.2.5 0 .5-.1 1-.2 1.4-.2.6-.5 1.2-.8 1.7l-.6 1.5c-.1.2-.1.5 0 .7.3.6.7 1 1.3 1 .6 0 1.2.1 1.8-.1 1.1-.4 2.1-1 3.2-1.5.6-.2.7-1 .5-1.5zm-22.6 10.8c-.1 0-.3 0-.4.1-1.1.3-2.3.6-3.4 1-.5.1-.9.4-1.3.6-.2.1-.4.4-.6.6-.4.8.2 1.6 1.1 1.7h.4c1.1-.3 2.2-.6 3.2-1 .6-.2 1.1-.5 1.5-.9.2-.2.4-.5.5-.7.2-.8-.3-1.4-1-1.4zm-5.4.8c1.3-.3 2.6-.8 3.8-1.5.3-.2.5-.5.7-.8.3-.5.1-1-.5-1.3-.5-.2-1-.2-1.4 0-1.1.4-2.2.7-3.4 1.1-.3.1-.6.3-.9.5-.5.4-.5 1.3.1 1.6.4.2.8.4 1.3.4h.3z"/></svg>