<svg id="Слой_1" xmlns="http://www.w3.org/2000/svg" xmlns:xlink="http://www.w3.org/1999/xlink" viewBox="0 0 1053.1 1248.8"><style>.st0{clip-path:url(#SVGID_2_);fill:#7bafde}.st1{clip-path:url(#SVGID_4_);fill:#005baa}</style><defs><path id="SVGID_1_" d="M0 0h1053.1v1248.8H0z"/></defs><clipPath id="SVGID_2_"><use xlink:href="#SVGID_1_" overflow="visible"/></clipPath><path class="st0" d="M307.4 193.2c5.7 6.2 13.3 10.2 19.1 16.2 3.1 3.2 5.6 6.8 7.8 10.6 2 3.4 3.3 7.4 5.8 10.3 1.2 1.4 3.2-.1 2.9-1.7-.8-4-3.5-7.9-5.7-11.3-2.3-3.5-4.9-6.9-7.8-9.9-6.2-6.2-14.1-10.4-21.2-15.5-.7-.3-1.4.8-.9 1.3"/><path class="st0" d="M307 166.7c12.4 3.6 21.8 16.8 27.8 27.6 7.1 12.8 9.9 27.4 2.9 40.9-.8 1.5 1.2 3.3 2.5 1.9 10.6-12.1 5.8-30.6-1.4-43.2-6.6-11.7-17.5-25.5-31.5-28.2-.7-.1-.9.8-.3 1m-9.4 29.3c4.4 1.2-7 18.5-8.2 19.9-5.8 6.6-13.5 11.4-21.5 14.8-7.5 3.2-15.4 5.5-22.9 8.6-6.6 2.7-13.8 6.1-18 12.1-.8 1.2.8 2.7 1.9 1.9 3.9-2.6 7.6-5.5 11.9-7.6 4.5-2.3 9.2-4 13.9-5.7 8.7-3.2 17.7-6.1 25.5-11.4 7.2-4.9 13.7-11 17.2-19.2 1.3-3 5.6-13 .4-14.4-.5 0-.8.9-.2 1"/><path class="st0" d="M285.1 205.6c-8.5 8.4-19 14.6-27.8 22.7-1.2 1.1.6 2.8 1.7 1.7 8.8-8.1 18.9-14.6 26.8-23.7.4-.5-.3-1.2-.7-.7m-35.2-10.8c-12.5 3.7-19.3 17.4-22.7 29-2 6.9-3.1 14.1-3.1 21.3 0 5.3.2 13.2 3.8 17.5 1.1 1.3 2.8-.1 2.6-1.5-.4-2.3-1.6-4.5-2.1-6.8-.7-3-1-6.1-1.1-9.2-.2-6.6.6-13.2 2.2-19.5 2.9-11.4 8.6-25.4 20.6-29.8.7-.2.5-1.2-.2-1"/><path class="st0" d="M227.8 190.9c-11.3 10.1-16.1 26.2-16.2 41-.1 7.7 1.2 15.4 4.3 22.5 2.6 5.9 7.2 13.5 13.5 15.8 2 .7 3-1.9 1.9-3.2-2.1-2.4-4.8-4.2-6.9-6.7-2.1-2.6-3.8-5.5-5.1-8.5-2.9-6.6-4-13.9-4.1-21-.2-13.8 3.9-28.9 13.4-39.1.4-.6-.3-1.3-.8-.8m-25.7 59.8c-8 26.7 27.1 42.7 25 68.7-.1 1.6 2.5 1.9 2.8.4 6.3-26.8-32.7-41.9-26.8-68.8.1-.6-.8-.9-1-.3m101.2 98.8c-5.4.5-10.8.4-16.1-.5-4.9-.8-9.6-2.6-14.4-3.6-1.5-.3-2.5 1.7-1.1 2.6 9.1 5.5 21.8 5.1 31.8 3.1.8-.3.7-1.7-.2-1.6m-16.6 12.2c-5.6-1.2-10.5-4.4-14.2-8.8-.9-1-2.7.3-1.9 1.5 3.7 5.5 9.3 8.6 15.9 9.2 1 .1 1.3-1.7.2-1.9"/><path class="st0" d="M276.5 345.6c-1.3 6.8-3.7 13.4-7.4 19.3-3.5 5.6-9.3 14.2-17 10.8-1.6-.7-3.1 1-1.9 2.4 5.5 6.5 13.5-.3 17.2-5.2 6-8 9.5-17.3 10.4-27.2.2-.7-1.1-.9-1.3-.1M241 245.1c-3.7 12.6-1.2 25.9 1.8 38.4 3.1 13.4 7.7 26.3 13.3 38.8.8 1.8 3.5.2 2.7-1.6-5.2-11.8-9.5-23.9-12.8-36.4-3.4-12.8-6-25.8-4-39 .2-.6-.8-.9-1-.2m27.9 242.1c-10.5 18-26.8 32.6-43.7 44.5-17 11.9-35.5 19.9-55 26.9-2.2.8-1.3 4.1 1 3.5 20.7-5.3 40.6-16.1 57.6-28.8 8.4-6.2 16.3-13.1 23.6-20.7 7-7.4 13.8-15.4 17.6-24.9.2-.7-.8-1-1.1-.5"/><path class="st0" d="M163.4 529.1c-1.2 7.7-2.2 15.8 1.1 23.1 2.6 5.9 7.5 10.6 14.1 11.3 1.8.2 2-2.5.4-3-13.7-4.4-15.8-18.7-14.4-31.3 0-.6-1.1-.8-1.2-.1m9.6-.4c-1.4 11.7 4.6 23.1 15 28.6 2.4 1.3 4.6-2.5 2.1-3.7-9.5-4.7-15.4-14.3-14.9-24.9.1-1.5-2-1.4-2.2 0m7.6 2.5c3.9 8.7 11.9 15.6 21.5 16.7 2 .2 2.2-2.8.5-3.4-8.4-2.5-15.4-6.9-19.6-14.7-.9-1.5-3.1-.2-2.4 1.4m16.1.5c4.6 4.9 10.2 8.3 16.8 9.8 2.1.5 3-2.7.9-3.3-5.8-1.6-11.2-4.5-15.5-8.7-1.5-1.4-3.6.8-2.2 2.2m24.7 3.1c3.3 0 6.5-.5 9.7-1.4 2-.6 1.1-3.5-.8-3-2.9.7-5.9 1-8.9 1.1-2.2-.1-2.2 3.3 0 3.3m-19.9-86.7c-2 15.8-5.9 30.8-10.2 46.1-.6 2.1 2.6 3 3.3.9 5.2-14.9 7.7-31.2 8.7-47 0-1.1-1.7-1-1.8 0m-11.1-38.3c3.2 15 9.1 29 17.8 41.6 1.1 1.6 3.7.1 2.6-1.5-8.7-12.3-15.1-25.9-18.9-40.5-.3-1-1.7-.6-1.5.4"/><path class="st0" d="M184.8 415.4c3 16.6 9.2 32.5 18.5 46.5 1.2 1.8 4 .1 2.9-1.7-9.2-13.9-16.1-29-20.1-45.2-.3-.7-1.5-.4-1.3.4m12.1-22.6c15.3-9.2 31.5-15 48.4-20.3 1.6-.5.9-2.8-.7-2.4-17.2 3.7-33.8 12-48.3 21.7-.6.4-.1 1.4.6 1"/><path class="st0" d="M233.9 377.1c6.7 11.8 22.5 14.4 34.7 16.3 16.4 2.5 32.9 2.1 49.2-1.2 1.6-.3.9-2.7-.7-2.5-14.7 2.5-29.8 3.1-44.6 1.4-12.5-1.4-29.7-3.3-37.5-14.7-.5-.6-1.5 0-1.1.7M371.6 391c-6.6-6.9-14.6-11.5-24-13.4-1.6-.3-2.3 2.1-.7 2.4 8.9 1.8 16.9 5.9 23.5 12.1.8.7 1.9-.4 1.2-1.1m12.9 78.9c16.7 20.5 37.3 37.6 60.8 49.7 5.4 2.8 11 5 17.1 5.5 7 .6 13.9-1.3 20.6-3.3 13.5-4 26.6-9.4 39.3-15.4 15.2-7.2 30-15.3 44.6-23.7 1.6-.9.2-3.3-1.4-2.4-15.7 8.2-31.2 16.7-47.3 24-8.1 3.7-16.4 7-24.8 10-8.2 2.9-17.1 6.3-25.8 6.9-8.9.6-17-4.2-24.7-8.3-6.8-3.7-13.5-7.7-19.9-12.1-13.5-9.3-25.8-20.4-36.7-32.7-1.1-1.2-2.8.6-1.8 1.8"/><path class="st0" d="M395.5 435.5c-2.7 11.7-6.1 23.4-8 35.2-.3 1.8 2.4 2.7 2.9.8 3-11.6 4.5-23.7 6.7-35.5.2-1.1-1.3-1.6-1.6-.5m7.1 6.2c-2.3 12.4-4.8 24.8-6.3 37.3-.2 1.9 3 2.3 3.3.4 2-12.4 3.1-25.1 4.3-37.6.1-.6-1.1-.8-1.3-.1m8.1 14.8c-2.5 10.4-4.6 21.2-5 31.9-.1 2.3 3.2 2.2 3.4 0 1.1-10.5 1.8-20.9 3.7-31.3.3-1.4-1.7-2-2.1-.6m7 28.8c-.1 5.2-.1 10.3 0 15.5 0 1.9 2.9 1.9 2.9 0 .1-5.2.1-10.3 0-15.5.1-1.9-2.8-1.9-2.9 0m127.6-31.2c6.9 5.7 10.5 13.6 10.8 22.5.1 2.4 3.8 2.4 3.7 0-.4-9.7-5.5-18.3-13.6-23.6-.7-.5-1.5.6-.9 1.1m-1.9 11.4c3.4 5.4 4.8 11 5.6 17.2.3 2 3.5 1.5 3.4-.5-.1-6.6-2.9-12.9-6.7-18.1-.9-1.4-3.2-.2-2.3 1.4m-9 6.6c.9 3.9 1.6 8 1.9 12 .1 1.8 2.9 1.9 2.8 0-.1-4.4-.7-8.6-1.8-12.8-.5-1.9-3.4-1.1-2.9.8"/><path class="st0" d="M508.2 508.1c11.1-5 22-10.5 32.5-16.7 10.1-5.9 20.5-11.9 29.4-19.4 1.5-1.3-.4-3.7-2.1-2.7-10.1 6.2-19.6 13.4-29.8 19.6-10.1 6.2-20.5 12-31.1 17.5-1 .6 0 2.2 1.1 1.7m111-63.1c-15.7 6.7-32.7 6.9-48.8 1.6-2-.7-2.8 2.4-.9 3.2 16.5 6 34.9 4.3 50.4-3.4.9-.6.1-1.8-.7-1.4"/><path class="st0" d="M573 434.2c-2.2 8-7.9 14.6-9.5 22.9-.4 2.1 2.8 2.9 3.1.9 1.3-8.2 6.1-15.2 7.4-23.4.2-.8-.8-1.1-1-.4m3.9 9.5c-2.6 4.4-5 9-6.7 13.8-.5 1.5 2 2.6 2.7 1.1 2.1-4.6 4-9.2 6.3-13.6.8-1.4-1.4-2.7-2.3-1.3M225.8 544.4c10.2 35.9-2 73.8-6.4 109.6-.2 1.4 2.1 1.7 2.5.3 4.9-18.5 7.8-37.9 9.6-57 .9-9.4 1.4-18.9 1.1-28.4-.3-8.5-1.3-17.5-5.7-25-.3-.6-1.3-.2-1.1.5"/><path class="st0" d="M284.4 646.7c-26.2-21.5-42.7-51.2-49.3-84.3-.4-1.9-3.1-1.1-2.8.8 5 33.4 24.1 64.4 50.3 85.4 1.3 1.1 3.2-.8 1.8-1.9m-.2-39.9c-11.5-8.2-22-17.8-31.1-28.6-4.6-5.4-8.9-11.1-12.7-17.1-3.8-5.8-6.5-12.5-10.6-18.1-.9-1.3-3.2-.6-2.7 1.1 1.9 6.6 6.5 13 10.2 18.8 3.9 6 8.2 11.7 12.9 17.2 9.5 11.2 20.5 21 32.6 29.3 1.5 1.1 2.9-1.5 1.4-2.6"/><path class="st0" d="M240.3 533.8c-5.9 4.3-10.7 10.2-12.3 17.5-.3 1.3 1.5 1.7 2 .5 2.5-6.5 5.9-12.3 11.2-16.9.6-.5-.2-1.6-.9-1.1m1 11c-1.7 3.5-3.3 7-5 10.5-.8 1.6 1.6 3 2.4 1.4 1.6-3.5 3.3-7 4.9-10.6.7-1.5-1.5-2.9-2.3-1.3m38.5-66.2c16.3-13.7 36.4-19.7 57.6-17.2 1.3.2 1.6-2.1.3-2.3-20.9-3.9-43.9 3.3-58.8 18.6-.6.6.3 1.5.9.9"/><path class="st0" d="M357.8 449.5l-10.5 6.3c-3.2 1.9-6.8 3.4-9.5 5.9-1 .9 0 2.6 1.3 2.2 3.5-1 6.7-3.5 9.7-5.5 3.4-2.2 6.8-4.6 10.1-7 1.1-.8.1-2.6-1.1-1.9m-11.7-.5c-6.1 3.8-13 7.2-18.4 11.9-1.3 1.2.4 3 1.8 2.3 6.3-3 12.1-8.1 17.8-12.1 1.3-.9.2-3-1.2-2.1m-14.6 2.4c-7.4 2.9-14.8 5.9-22.1 9.1-1.4.6-.4 3.1 1 2.5 7.4-3 14.7-6.2 22-9.5 1.1-.5.3-2.6-.9-2.1m-33.7 11.4c-1.2.8-2.5 1.6-3.7 2.5-1 .7-.1 2.4 1 1.7 1.2-.8 2.5-1.7 3.7-2.5 1-.8 0-2.4-1-1.7m-126.3 22.7c5.2 5.6 10.3 11.2 15.6 16.6 1.4 1.4 3.6-.8 2.2-2.2-5.2-5.5-10.7-10.8-16.2-16.1-1-1.1-2.6.6-1.6 1.7m4.8-14.5c4.4 6.8 9 14.7 15.1 20.1 1 .8 2.6-.2 1.9-1.4-4.3-7-10.2-13.1-14.8-19.9-1-1.3-3.1-.1-2.2 1.2m13-1.8c.2 2.5.4 5 .6 7.4.1 1.4 2.3 1.4 2.2 0-.2-2.5-.4-5-.6-7.4-.2-1.4-2.3-1.4-2.2 0m-33.9 50.2c-.9 17.3 1.8 38.7 18 48.8 1.8 1.1 3.2-1.6 1.6-2.8-15.1-11-18.7-28.3-18.5-46.1-.1-.6-1.1-.6-1.1.1m69.3 306.8c-6.3-26.8-7-54.8-5.5-82.2.7-13.5 2-27 3.5-40.4 1.6-14.2 2.7-28.7 6-42.6.6-2.6-3.5-3.8-4.1-1.1-3.2 13.4-4.2 27.4-5.8 41-1.6 14.3-3 28.7-3.7 43-1.3 28 .5 55.6 8.1 82.6.3 1.1 1.8.7 1.5-.3"/><path class="st0" d="M223.5 700.1c6.5-5.9 13.4-11.3 20.8-16 3.5-2.2 7.2-4.3 10.9-6.1 3.7-1.9 7.8-3.2 11.3-5.3 1.2-.8.4-2.7-1-2.4-8.1 1.8-16.3 7.6-23 12.2-7.2 4.9-13.8 10.5-20 16.7-.6.6.3 1.5 1 .9m1.2 15.5c17.1-18.7 38-32 61.5-41.2 1.4-.6.9-2.9-.7-2.4-23.8 8.3-45.1 23.8-61.6 42.8-.5.6.3 1.4.8.8m30.6-12.5c17.1-11.4 35.4-19.5 54.5-26.9 1.5-.6.9-2.9-.7-2.5-19.6 5.6-38.1 15.9-54.8 27.6-1.1.8-.1 2.6 1 1.8m34.4-8.7c11.8-5.3 24-9.9 36.2-14.1 1.8-.6 1.1-3.5-.8-2.9-12.6 4-24.9 9-36.9 14.5-1.7.7-.2 3.2 1.5 2.5m-55.1-18.5c7-3.6 14.3-6.4 22-8.4 2.2-.6 1.3-4-.9-3.4-8 2-15.5 4.9-22.7 8.9-2 1-.3 3.9 1.6 2.9m89.1 47c-8.3 9.1-14.6 19.6-18.4 31.3-.5 1.5 1.8 2.1 2.3.6 4-11.2 9.6-21.7 17-31 .5-.7-.3-1.6-.9-.9m14.5-4.8c-16.3 18.7-28.9 41.9-33.4 66.4-.3 1.5 1.9 2.2 2.4.7 6.8-24 16.6-46.2 32-66 .6-.8-.4-1.8-1-1.1m-8.4 30.4c-12.4 18.3-22 39.4-25.2 61.4-.2 1.7 2.2 2.4 2.6.7 5.1-21.7 12.3-42.2 24.3-61.1.7-1.1-1-2.1-1.7-1m-8.9 39.8c-7.7 19.9-12.7 40.9-13.4 62.3-.1 1.6 2.4 1.6 2.5 0 1.9-21.1 5.7-41.7 13-61.7.4-1.3-1.6-1.8-2.1-.6"/><path class="st0" d="M312 733.4c-1.6 55 3.9 110.7 17 164.2.5 2 3.5 1.1 3-.8-12.3-53.7-18.8-108.2-18.8-163.3 0-.9-1.2-.9-1.2-.1m13.1 271.4c-6.8-24.3-8.4-48.8-4.9-73.8.3-1.9-2.6-2.8-2.9-.8-4.5 24.8-2.3 51.3 6.2 75 .4 1.1 1.9.7 1.6-.4"/><path class="st0" d="M299.6 1035.8c5.2-19.5 10.9-38.9 17.1-58.2 6.2-19.3 13.4-38.1 20.1-57.2.6-1.7-2-2.3-2.7-.7-7.8 18.6-13.9 38-19.9 57.2-6 19.3-11.3 38.8-15.9 58.5-.2.8 1 1.2 1.3.4m-61.5-58c-4.6 51.4-7.8 109.3 24 153.5 1.1 1.5 3.7.1 2.6-1.5-30.7-44.9-27.8-100.2-25.4-152 0-.8-1.2-.8-1.2 0"/><path class="st0" d="M269.1 1093.3c-2.1 4.8-4.1 9.5-6.2 14.3-1.8 4.3-4.2 8.6-5.2 13.2-.3 1.3 1.5 2.1 2.2.9 2.4-4 3.7-8.8 5.3-13.1l5.4-14.7c.4-.8-1.1-1.4-1.5-.6m-10 .8c-.7 1.3-7.5 13.1-6.4 13.7-1.4-.8-3 .8-2.2 2.2 1.6 2.8 4.1.4 5.1-1.5 2.2-4.2 4.1-8.6 6.1-12.8.9-1.8-1.7-3.3-2.6-1.6m-8.2-11.8c-2.2 4.5-4.7 8.8-7.3 13.1-1.2 1.9 1.7 3.5 2.9 1.7 2.8-4.2 5.1-8.6 7.2-13.2.9-1.8-1.8-3.4-2.8-1.6m-4.8-19.2c-2.5 6.6-3.9 13.1-4.5 20.1-.1 1.1 1.6 1.1 1.7 0 .8-6.6 2.3-13.3 4.2-19.7.3-.9-1.1-1.3-1.4-.4m26.6 52.5c-3.1 6.5-3.7 13.1-1.5 19.9.4 1.3 2.3.8 2-.6-1.5-6.2-1.3-12.7 1.1-18.7.4-.8-1.2-1.5-1.6-.6m7.3 27.8c-12.2 3.2-28 1.1-31.9-13-.7-2.5-4.4-1.4-3.8 1 3.9 16.4 22.7 18.9 36.4 14.6 1.7-.5 1-3.1-.7-2.6m-24.9 11c-2.7-.9-5.6-1.1-8.5-1.5-2.3-.3-2.7 3.1-.4 3.1 2.9 0 6 .2 8.9-.3.7 0 .6-1.1 0-1.3m67.6-12.5c-8.8-3.7-17.1-8.5-24.8-14.3-1.7-1.3-3.4 1.6-1.7 2.9 8 5.7 16.7 10 26 13 1.1.3 1.4-1.2.5-1.6m24.2 56.9c-18.8-4.2-33.7-15.7-43.9-31.9-1.2-1.9-4-.2-3 1.7 9.2 17.1 27.3 29 46.3 32 1.3.2 1.9-1.5.6-1.8"/><path class="st0" d="M312 1152.1c-9.4 9.2-14.3 22.8-14.4 35.8 0 2.2 3.4 2.2 3.4 0 0-13.2 4.5-24.5 12-35.1.4-.5-.5-1.1-1-.7m4.5 11.7c-6.2 9.7-10.1 20.6-10.6 32.2-.1 2.3 3.4 2.3 3.6 0 .9-11 3.9-21.2 9.6-30.7 1-1.6-1.6-3.1-2.6-1.5m-32.7 2.4c-17.8 4.7-34.8 14.8-47.5 28.1-1.4 1.4.8 3.6 2.2 2.2 13.4-12.9 28.3-22.3 45.7-29 .7-.4.4-1.6-.4-1.3m-11 14.5c-5.7 3.6-11.2 7.6-16.5 11.8-1.5 1.2.6 3.4 2.1 2.1 5-4.2 10.2-8.1 15.7-11.7 1.4-.9.1-3.1-1.3-2.2"/><path class="st0" d="M124.2 1225.2c37.2-9 74.3-18.1 111.8-26.3 1.5-.3.9-2.6-.6-2.3-37.4 7.7-74.8 16.5-111.4 27.5-.7.3-.5 1.3.2 1.1m31.6-23.5c22.3-3.9 44.3-9.6 65.9-16.2 1.7-.5 1-3.2-.7-2.7-21.6 6.6-43.5 12.3-65.4 18-.6.2-.4 1 .2.9m29.8-21.6c15.7-2.2 31.3-5.1 46.7-8.7 1.9-.4 1.1-3.4-.8-2.9-15.3 3.8-30.8 7.2-46.3 10.1-1 .2-.6 1.7.4 1.5m-5.4 48.7c11.8-2.1 23.6-4.3 35.4-6.5 1.9-.4 1.1-3.3-.8-2.9-11.8 2.4-23.5 4.7-35.3 7.1-1.5.4-.8 2.6.7 2.3m124.6-11.7c12.6-2.7 25.3-4.3 38.1-5.3 1.8-.1 1.9-3 0-2.9-13.1.6-26 2.7-38.8 5.9-1.4.3-.8 2.6.7 2.3m-65.8 31.7c52.7-8.1 105.8-16.8 157.8-28.9 1.9-.4 1.1-3.2-.8-2.8-52.5 9.7-104.8 20.7-157.4 30.1-1.2.2-.7 1.8.4 1.6m8.9-48.4c-7.1 2.9-10.8 10.6-7.6 17.8 3.7 8.3 15.2 10.5 23.2 11.1 2.1.2 2.1-3.2 0-3.3-6.1-.4-14-1.8-18.6-6.2-6-5.6-3.3-14.6 3.6-17.8 1-.4.3-2-.6-1.6m86.8 42.4c22.4-4.6 44.7-9.2 67.1-13.9 2.2-.5 1.3-3.9-.9-3.4-22.3 4.8-44.6 9.7-66.9 14.6-1.9.4-1.1 3.1.7 2.7M419 1003c-11.9 13.1-23.7 26.5-34.3 40.8-1 1.4 1.3 3.3 2.5 1.9 11-13.8 21.8-27.7 33.4-41 1-1.2-.6-2.8-1.6-1.7m6.9 13c-8.5 8.8-18.1 18.4-24 29.2-.7 1.2 1 2.6 2 1.5 4.2-4.6 7.7-9.9 11.6-14.7 3.9-4.9 8-9.6 12.2-14.2 1-1.2-.7-2.9-1.8-1.8m13.9 8.4c-6.6 7-13.2 14.2-18.7 22.1-.8 1.1 1 2.5 1.9 1.5 6-7.4 11.6-15.2 17.8-22.5.7-.8-.3-1.8-1-1.1m20.6 5.7c-2.9 2.7-5.8 5.3-8.7 8-1.3 1.2.7 3.2 2 2 2.9-2.7 5.8-5.4 8.6-8.1 1.3-1.2-.6-3-1.9-1.9m-64.1-32.9c-12.4 16.4-25.3 32.4-38.4 48.2-1.4 1.6 1 4 2.4 2.4 13-16.2 25.3-32.8 37.2-49.9.4-.7-.7-1.3-1.2-.7m-17.8 1c-5.4 9.5-10.8 19-16.1 28.5-.8 1.4 1.3 2.6 2.1 1.2 5.4-9.5 10.8-19 16.1-28.5.8-1.3-1.3-2.6-2.1-1.2M62.4 665.8c23.4-12.7 47-25.2 71.1-36.6 1.8-.8.2-3.6-1.6-2.7-23.6 12.3-47.1 24.8-70.2 38.2-.7.5 0 1.5.7 1.1m32.7.9c11.4-6.6 22.9-12.9 34.5-19.1 5.8-3.1 11.6-6.1 17.5-9.1 5.8-2.9 12.2-5.4 17.5-9 1.2-.8.5-3.1-1.1-2.5-5.7 2-11 5.4-16.3 8.3-6 3.3-12.1 6.6-18 9.9-11.7 6.6-23.2 13.6-34.6 20.7-.6.3-.1 1.2.5.8m41.3-3.7c11-7.1 22.3-13.8 33.7-20.2 5.6-3.1 11.3-6.2 17-9.1 5.8-3 12.5-5.5 17.8-9.4 1.4-1 .6-3.4-1.2-2.9-5.9 1.7-11.5 5.3-16.9 8.2-5.9 3.2-11.7 6.5-17.5 9.8-11.6 6.7-22.9 13.9-34.1 21.3-1.5 1-.2 3.2 1.2 2.3m16.5 13.7c20.6-16.9 42.4-31.9 64.9-46.3 1.9-1.2.2-4.2-1.8-3.1-23 13.7-44.5 30.2-64.9 47.5-1.2 1.2.5 2.9 1.8 1.9m10.2 25.7c16.8-13.3 33.8-26.2 51-38.9 1.7-1.3 0-4.2-1.7-2.9-17.3 13-34.1 26.6-50.6 40.6-.8.7.4 1.9 1.3 1.2m29.9 1.4c6.4-4.9 12.5-10.2 18.2-15.8 1.4-1.4-.7-3.4-2.1-2.1-5.8 5.4-11.9 10.5-18.1 15.4-1.3 1.1.6 3.6 2 2.5M64.9 648.5c11.2-6.1 22.7-11.8 34.3-17 1.4-.6.2-2.7-1.2-2.1-11.7 5.1-23 11.1-33.9 17.8-.9.4-.1 1.7.8 1.3m76.5-42.8c13.3-.4 26.5-1 39.7-1.7 12.6-.7 25.8-.5 38.2-2.8 1.4-.3 1-2.4-.3-2.5-12.8-.4-26 1.6-38.8 2.5-12.9.9-25.9 1.7-38.8 2.5-1.3.1-1.3 2 0 2m55-9.3c10.6-7.9 21.1-16.1 31.6-24.1 1.1-.8.1-2.6-1.1-1.8-10.9 7.6-21.6 16-31.2 25.1-.3.4.2 1.1.7.8m-13.1-5.7c11.4-8.7 23.2-16.8 34.9-25.1 1.1-.8.1-2.5-1.1-1.8-12.1 7.9-23.5 16.8-34.7 25.8-.5.5.3 1.5.9 1.1m19.2-26.9c5.1-4.4 11-8 17-11.2 1.2-.6.3-2.6-.9-2.1-6.8 2.7-12.6 6.6-17.9 11.5-1.3 1.1.5 2.8 1.8 1.8M455 597.3c-13.7 1.9-27.6 2.8-41.5 2.5-12.9-.3-25.9-2.4-38.7 0-1.8.3-1 3.1.8 2.7 13.6-2.6 27.7-.4 41.5-.5 12.8-.1 25.6-1.3 38.3-3.4.8-.2.4-1.5-.4-1.3m-68.9 44.1c4.4-4.2 9.3-7.9 14.6-10.9 1.7-1 .2-3.5-1.5-2.6-5.6 3.1-10.6 6.9-15.1 11.5-1.2 1.3.7 3.2 2 2m2.5 27.7c5.2-9 14.7-15.9 22.6-22.4 8.8-7.2 18.3-13.3 27.3-20.2 1.2-.9.2-2.9-1.2-2.1-10 5.6-19.1 13.2-27.8 20.6-7.8 6.7-17.5 13.9-21.9 23.5-.3.7.6 1.3 1 .6m7.8 9.2c20.1-19.4 41.9-36.5 64.6-52.7 1.5-1.1.1-3.6-1.5-2.5-23.3 15.5-44.8 34-64.6 53.8-1 .8.5 2.3 1.5 1.4m56.6-22.1c9.3-9.5 19.4-18 30.1-25.8 1.7-1.2.1-4.1-1.7-2.8-11 7.9-21 16.9-30.2 26.8-1 1.2.7 2.9 1.8 1.8M45.1 11.5c.4-.9.4-1.9-.7-2.3-1.7-.7-3.1 1.7-3.9 2.7-5.3 7.2-8 15.6-8.8 24.5-.1 1.6 2.3 1.5 2.5 0 .5-4.4 1.5-8.7 3-12.9.8-2.2 1.7-4.3 2.7-6.3.5-.9 1-1.9 1.6-2.8.6-1.3 1.5-2.3 2.7-3.2-.2.4.7.8.9.3M34.8 290.6c-1.2 79.2-1.1 158.4-.9 237.7 0 22.3 0 44.6.2 66.8 0 1.7 2.6 1.7 2.6 0 .9-79.2 1-158.5.3-237.7-.2-22.3-.7-44.6-1-66.8-.1-.8-1.2-.8-1.2 0m958.8 31.6c-1.1 68.2-1.3 136.4-1.4 204.7 0 19.2-.8 38.5.4 57.7.1 2 3.1 2.1 3.2 0 1-17 .4-34.2.4-51.2 0-17.1-.1-34.1-.1-51.2-.1-34.1-.1-68.2-.5-102.3-.2-19.2-.5-38.5-.8-57.7-.1-.7-1.2-.7-1.2 0M954.5 26.6c10.2.7 20.3 1.3 30.5 1.9 3.4.2 4.9 1 5.8 4.4.6 2.3 1.1 4.6 1.6 6.9 1.1 5.4 1.7 10.8 2 16.3.1 1.9 3.1 1.9 3 0-.4-6-1.2-12.1-2.5-18-.7-3.2-1.2-9.7-4.5-11.5-1.6-.9-3.6-.6-5.4-.7-3.4-.1-6.8-.2-10.2-.2-6.8-.2-13.6-.2-20.4-.3-.6.1-.6 1.2.1 1.2"/><defs><path id="SVGID_3_" d="M0 0h1053.1v1248.8H0z"/></defs><clipPath id="SVGID_4_"><use xlink:href="#SVGID_3_" overflow="visible"/></clipPath><path class="st1" d="M338.9 230.9c4.3 4.9 4.2 13.6 4.5 19.8.4 7.7.8 15.3 1.6 22.9 1.9 18.3 2.9 36.9-10.2 51.5-10.5 11.7-27.2 18.1-42.9 16.4-16-1.7-27.8-13.3-36.1-26.3-6.1-9.5-10.8-19.8-14.6-30.4-3.8-10.9-7.9-21.8-9.3-33.3-.3-2.5-4-2.7-4.1 0-.4 11.1 4.4 21.9 7.9 32.2 3.6 10.7 8.1 21.1 13.9 30.7 8.5 14.2 20.6 27.6 37.5 31.1 16.2 3.3 34.2-2 46.7-12.7 15.1-13 18.4-31.4 16.7-50.5-.9-10.6-2-21.1-2.9-31.6-.6-6.9-1.1-16.8-7-21.4-1.2-1-2.7.4-1.7 1.6m-35.7-52.8c-4.3 12.1-9 24.3-17.6 34.1-8.5 9.8-19.3 15.9-31.1 21-2.1.9-.6 4.4 1.6 3.7 26.6-8.7 44.1-31.1 48.8-58.3.2-1.1-1.3-1.6-1.7-.5"/><path class="st1" d="M274.4 207.6c-8.5 10.9-18.9 19.9-29.2 29-6.4 5.6-18.5 13.3-18.2 23 .1 2.8 4.3 2.8 4.4 0 .2-5.3 4.8-9.4 8.4-12.9 4-3.8 8.1-7.6 12.1-11.5 8.7-8.3 17.1-16.7 23.7-26.8.5-.5-.7-1.4-1.2-.8"/><path class="st1" d="M258.8 150.8c-25.5-.4-46.3 20.3-54.5 43.1-4.9 13.4-5.8 28.2-3.9 42.3 1 7.2 2.6 14.4 5.8 21 3.4 7.1 8 14 11.9 20.9 1.1 2 4.2.6 3.7-1.6-1.5-6.4-6.3-11.9-9.5-17.6-3.5-6-5.5-12.5-6.8-19.4-2.6-13.8-2-28.7 2.3-42.1 3.7-11.5 10.2-22.1 19.1-30.3 9.1-8.4 20.1-12.9 32.2-15.1.6 0 .4-1.2-.3-1.2m-21.1 148.3c1.4 8.2.7 24.8-11.3 23.1-2.1-.3-3.2 2.9-.9 3.4 15.3 3.2 17.2-16.5 14-27-.4-1.2-2-.7-1.8.5"/><path class="st1" d="M230.7 297.9c4.5 10-2.1 23.4-13.6 24-2.5.1-2.5 3.8 0 3.9 14.2.2 22-17.3 15.3-28.9-.6-1.2-2.2-.2-1.7 1m70.9-103.2c1.5 7.5 12 11.9 17.7 15.9 4.1 2.8 8 6.1 11.3 9.8 4.2 4.6 6.5 9.3 8.9 15 .7 1.8 3.8 1.8 3.7-.5-.7-9.6-9.3-17.9-16.4-23.5-3.7-2.9-7.7-5.3-11.8-7.7-4.7-2.7-8.5-6-12.7-9.4-.3-.2-.8 0-.7.4"/><path class="st1" d="M257.3 153.6c13.3-2.6 25.6-5.3 38.7-.4 11.1 4.1 21.4 11.9 29.7 20.2 8.3 8.1 15.3 18 19.1 29 2 5.6 3.1 11.5 3.1 17.4 0 6.3-1.7 12-3.2 18.1-.5 1.9 2.3 3.2 3.3 1.4 6.1-10.9 5.3-25.2 1.5-36.7-3.9-12.1-11.3-22.9-20.2-31.8-8.9-8.9-19.8-17-31.6-21.5-13.9-5.3-27.5-2.5-41 2.7-.9.4-.6 1.9.6 1.6"/><path class="st1" d="M318.9 194.2c8.2 4.2 14.2 10.5 17.3 19.3 1.4 3.8 2.1 7.8 2.6 11.9.5 3.9 0 8.2 1.3 11.9.4 1.2 2.3 1.4 2.6 0 .9-4.2-.3-9.3-1.1-13.5-.7-4.2-1.8-8.4-3.5-12.3-3.7-8.5-10.1-14.6-18.4-18.5-.9-.6-1.6.7-.8 1.2m-1.6 50.3c-.4 4.1-.6 8.2-.4 12.4.2 2.9 4.7 2.9 4.5 0-.3-4.3-1.1-8.5-2-12.7-.4-1.1-2-.8-2.1.3m-43.2 7.5c.7 3.7.2 7.6 1.1 11.3.6 2.7 4.5 1.5 4.1-1.1-.6-3.7-1.1-7.7-3-11.1-.7-1.3-2.4-.4-2.2.9m42.2 35.5c-.3 5.4-4.8 7.9-8.9 10.5-1.4.9-.5 3.4 1.2 2.8 5.9-2.2 10.9-6.8 9.8-13.5-.2-1.3-2-.9-2.1.2m-5.3-68c5.5 0 9.8 1.3 13.1 5.9.8 1.2 2.6.2 1.9-1.1-2.9-5.5-9.4-7.6-15.2-5.9-.5.1-.4 1.1.2 1.1m-44.2 9c-5.1 1.6-6 6.8-7.2 11.3-.4 1.6 2 2.3 2.5.7 1.1-3.4 1.6-8.9 5.2-10.7.7-.3.2-1.5-.5-1.3m-15-24.9c-15.3 16.9-28.6 39.3-25.9 62.9.3 2.6 4 2.1 3.6-.5-3.6-22.5 9.3-44.9 23.2-61.6.5-.5-.3-1.4-.9-.8m6.6-53.1c-12.3-4.7-30.3.1-33.4 14.3-.4 1.9 2.4 3.4 3.3 1.4 2.8-6.2 5.8-10.7 12.6-12.9 5.8-1.9 11.3-1.1 17.2-.9 1.3.1 1.3-1.5.3-1.9"/><path class="st1" d="M252.7 150.6c-10.9-10.1-25.5-14.8-40.1-11.3-15.3 3.7-26.8 14.8-33.8 28.5-15.7 30.5-14.8 66.4-8.5 99.4 3.2 16.7 9.1 34.3 22.5 45.5 2 1.7 5-1.1 3-3-21.1-19.6-23.2-52.7-24.6-79.6-.8-16.2.8-31.7 6.1-47.1 5.1-14.7 13.2-28.9 27.5-36.4 15.4-8.1 33.5-5.6 47.1 4.9.5.5 1.4-.3.8-.9"/><path class="st1" d="M182.5 269.1c-3.6 13.1 1.9 28.4 8.7 39.6 2.8 4.7 6.1 7.9 10.3 11.3 4.1 3.3 11.2 7.9 10.1 13.9-.4 1.9 2 3 3.2 1.3 5.9-8.5-11.9-17.6-16.4-22-5.3-5.1-8.8-12.7-11.4-19.5-3-7.7-4.9-16.2-3.5-24.4.1-.5-.8-.8-1-.2m34 4.7c.7 7.5 4.1 14.6 4.9 22.2 1 9.2-1.3 17.3-7.2 24.5-1.5 1.8.9 4.3 2.6 2.6 6.6-6.5 9-15.4 8.3-24.5-.6-8.2-3-18.1-7.7-25-.2-.5-1-.4-.9.2"/><path class="st1" d="M203.7 294.8c4.5 5.9 8.2 12.6 10.6 19.5 1.3 3.8 2.3 7.9 2.1 12-.2 4.2-2.1 6.7-5.1 9.4-1.6 1.5.4 3.7 2.2 2.9 8.2-3.6 7.3-15 5.1-22-2.5-8.2-7-17.2-13.6-22.8-.7-.6-1.9.2-1.3 1m6.6-123.8c-21.4 26.8-20 64.1-11.6 95.5.5 1.7 3 1 2.6-.7-7.7-31-9.5-66.7 10.4-93.7.7-.9-.7-2-1.4-1.1m116.3 134.8c-7.6 5.5-15.2 7.2-24.4 8.2-7 .7-17 2.6-22.9-2.3-2.1-1.7-4.9 1-3 3 6.3 6.6 18.3 4.4 26.3 3.5 8.8-1 20.8-2.4 24.5-11.9.3-.3-.2-.7-.5-.5"/><path class="st1" d="M318.2 312.7c-3.7 3.8-8.9 6.9-14.2 7.8-6.6 1.1-11.2-1.5-17.2-3.4-1.8-.6-3.3 1.9-1.9 3.2 5.4 4.8 14.1 5.8 21 4.2 4.9-1.1 13.1-5.7 13.2-11.5 0-.4-.6-.6-.9-.3m-37.6-4.2c-1.8.3-3.7 1.9-4.9 3.2-1.6 1.7-2.5 3.7-2 6.1.4 2 3.4 1.8 3.9 0 .4-1.6.7-3 1.6-4.5.8-1.3 2-2.4 2.3-3.9.1-.6-.3-1-.9-.9m-51.5-42.4c-1.8-1.9-4.6-1.3-5.8.9-1.7 2.9-.6 7.5.2 10.5 1.9 7.4 6.9 19.1 16.2 18.5 2.8-.2 3.9-4.8.7-5.3-6-.9-9.1-6.5-11.1-11.7-.8-2.3-1.7-4.6-2.2-7-.5-2.4-.8-3.8 1.6-4.6.6-.2.8-.8.4-1.3m118.7-23.8c1.4-2.6 1.8 3.3 1.9 4.2.2 1.9.2 3.9.1 5.9-.3 5.1-1.8 9.8-3.7 14.6-.8 2 1.9 3.8 3.5 2.7 3.4-2.2 3.7-7.5 4.2-11.2.6-4 .6-7.9-.2-11.9-.5-2.3-1.4-6.5-4-7.4-2.3-.9-2.7.9-2.7 2.9.1.4.7.6.9.2m-76.9 93.4c-.4 5.6-.5 11.1-1.8 16.5-1.2 5-4.2 9.6-5 14.6-.3 1.5 1.5 2.8 2.7 1.6 3.9-3.9 5.2-10.7 6-16 .9-5.6 1-11.5-.5-16.9-.1-.8-1.3-.6-1.4.2m43.2 3.9c-5.2 7.5-7.4 20.6-6.4 29.6.3 2.5 3.9 2.6 4 0 .3-5 0-9.9.6-14.9.6-4.9 2.2-9.6 2.8-14.4.1-.6-.7-.7-1-.3"/><path class="st1" d="M244.8 376.9c13.6 10.2 31.6 14.8 48.4 14.3 7.4-.2 14.8-1.2 21.6-4.1 5.9-2.4 13.1-6.9 15.8-13 .9-2.1-1.6-4.6-3.4-2.6-2.3 2.5-4 5.2-6.8 7.3-2.6 2-5.6 3.5-8.7 4.6-6.7 2.5-13.9 3.4-20.9 3.5-16.2.3-30.8-4.6-45.2-11.5-.9-.4-1.6.9-.8 1.5"/><path class="st1" d="M311.9 363.6c-.1 0-.1-.1-.2-.2-.2-.1-.4-.1-.6 0-.1.1-.2.1-.2.2-.3.2-.5.6-.3 1 1.2 2.4 5.2 3.7 7.5 4.9 3.1 1.6 6.6 4.1 10 4.6 1.6.2 3.4-1.8 1.8-3.1-2.4-2.1-5.7-2.9-8.7-4-1.6-.6-3.3-1.2-4.9-1.8-.8-.3-1.6-.6-2.5-.8-.4-.1-.8-.3-1.3-.3-.6-.4-.9-.2-.9.5.6-.3.6-.7.3-1"/><path class="st1" d="M312.9 362.5c11 5.4 22.5 9.7 33.9 14.3 5.6 2.3 11.3 4.5 16.9 6.7 2.9 1.2 6 2.3 8.8 3.8 2.6 1.4 4.4 3.4 6.7 5.2 2 1.6 4.5-.3 3.5-2.7-1.9-4.3-6.9-6.4-11-8.1-6.2-2.5-12.5-4.7-18.7-7-13-4.8-26.1-9.9-39.5-13.7-.8-.1-1.4 1.1-.6 1.5m-48.1.9c-6.8 1-18.7 4.9-21.6 11.8-.7 1.6 1.6 2.5 2.7 1.6 3-2.6 5.4-5 9-6.8 3.4-1.8 7.2-3.2 10.3-5.6.5-.4.2-1.1-.4-1m-108 204.8c8 8.9 23.9 5 33 .3 6.3-3.2 11.8-7.7 17.4-11.9 5.9-4.5 11.9-8.7 18-12.9 22.7-15.8 46.3-32.5 58.7-58 1.5-3-3-5.7-4.5-2.6-11.6 23.6-33 39.4-54.1 54.1-10.6 7.4-20.7 15.4-31.3 22.6-5.4 3.7-11.2 6.8-17.7 8.2-6.7 1.5-12.1 0-18.6-1.5-.9-.2-1.6 1-.9 1.7m15.8-43.9c-1.3-1.7 8.3-11.1 9.5-12.5 3.2-3.4 6.5-6.7 9.9-9.9 7.3-6.7 15.3-12.7 23.8-17.8 16-9.7 34-15.9 48.6-27.9 2.3-1.9-1-5.3-3.3-3.3-17.3 14.5-39.6 21.1-57.7 34.5-8.5 6.3-16.3 13.4-23.3 21.3-1.7 1.9-14.3 14.9-8.2 16.5.5.1 1-.4.7-.9"/><path class="st1" d="M260.3 457.3c6 2.5 10 5.9 12.9 11.8 2.9 5.9 4.1 12.5 7.4 18.2 1.6 2.8 5.7.3 4.3-2.5-4.6-9.5-9.6-32.3-24.7-29.6-1.1.2-.8 1.7.1 2.1m6.2-98.2c-9-.1-18.8 3.8-27.4 6.3-9.5 2.8-18.9 5.9-28.2 9.1-7.4 2.6-15.8 4.8-22.3 9.4-5.9 4.2-9.5 11-11.3 17.9-.5 1.9 2.2 3.2 3.3 1.4 4-7.1 6.2-13.7 13.8-17.8 7.3-3.9 15.7-6.2 23.5-8.9 8.2-2.8 16.5-5.5 24.8-8.1 7.8-2.4 16.9-4 24-8.2.6-.3.4-1.1-.2-1.1"/><path class="st1" d="M181.3 396.7c-8.4 12.9-13.9 27.6-19.1 42.1-5.3 14.8-10.4 29.8-14.1 45.1-3.4 14.4-5.4 29.2-4.5 44 .8 13.2 3.4 28.6 11 39.8 1.7 2.4 6.3 1 5.1-2.1-2.5-6.5-5.4-12.7-7.1-19.5-1.7-6.8-2.6-13.7-2.9-20.6-.6-14.7 1.5-29.2 4.9-43.5 6.9-29 17.2-57.1 28-84.8.1-.7-.9-1.1-1.3-.5m25.9 52.3c-1.5 8.5-3.5 16.8-6 25.1-1.2 3.9-2.4 7.7-3.5 11.6-.6 2-2.5 5.4-1.1 7.4.6.8 1.8 1.4 2.7.7.1-.1.2-.2.3-.2.8-.6 1.3-1.6.7-2.6 0-.1-.1-.2-.1-.2-.9-1.4-3.6-1-3.4.9v.3l1.9-1.9h-.3c.6.5 1.3 1 1.9 1.5-.4-1.2 1.1-4.4 1.4-5.7.4-1.7.9-3.4 1.3-5 .9-3.6 1.8-7.3 2.7-10.9 1.5-6.8 2.7-13.7 2.8-20.7 0-.8-1.1-1-1.3-.3"/><path class="st1" d="M204.6 442.7c-1 7.9-1.3 15.8-.9 23.8.3 6.7.3 14.7 3 20.9.7 1.6 3.2.7 3.2-.9-.1-7.2-2.7-14.6-3.4-21.8-.8-7.3-1-14.7-.9-22-.1-.6-.9-.6-1 0m11.4 105c2 5.1 4.7 10 5.7 15.5 1.2 6.4-.5 12.9-1.7 19.2-1.5 7.9-2.8 15.9-4.1 23.9-1.5 9.2-2.9 18.4-4.4 27.6-.7 4.1-1.3 8.2-2 12.3-.6 3.4-1.8 7.2-1.1 10.6.4 1.9 3 1.9 3.9.5 1.9-3 2-7.3 2.6-10.8.8-4.6 1.5-9.2 2.2-13.8 1.5-9.9 3-19.7 4.5-29.6 1.4-9 3.4-18 4.5-27.1 1.3-10.8-2.4-20.5-9-28.9-.5-.5-1.4 0-1.1.6m161.8-36.6c-4.6 11.1-4.1 22.9-4.2 34.7-.1 13.7-.5 27.4-.6 41.1-.1 12.6-.7 25.5 2.2 37.9 1.3 5.8 3.4 11.4 5.2 17.1 1.8 5.8 2.2 12.2 4.1 17.9.7 2.1 3.8 2.3 4.4 0 1.4-5-.3-10.7-1.6-15.6-1.6-5.7-3.8-11.3-5.4-17-3.6-12.5-3.2-25.5-3.2-38.4 0-13.2-.1-26.3-.4-39.5-.4-12.8-1.9-25.2.6-37.8.3-.9-.8-1.1-1.1-.4m2.7-120.2c6.2 16.3 17.7 29.3 29.2 42.2 13.2 14.8 26.8 29.3 40.4 43.8 2.5 2.7 6.6-1.4 4-4-13.4-13.4-26.3-27.3-39.1-41.3-11.9-13-24-26.1-33.3-41.2-.4-.6-1.4-.2-1.2.5"/><path class="st1" d="M453.3 474.6c2.3 3.2 6.1 5.3 8.6 8.4 2.9 3.7 4.8 7.9 5.9 12.4.6-1 1.2-2.1 1.8-3.2-1.7-.2-3.4 1.3-2.4 3.1.6 1.1 1.2 1.5 2.4 1.9 1.8.6 3.7-1.3 3.2-3.2-1.6-4.9-4-9.4-7.5-13.2-2.7-3-7.1-7.1-11.4-7.3-.5.1-.8.7-.6 1.1"/><path class="st1" d="M455.9 479.6c2.4-.8 4.5-2.3 6.9-2.9 3.8-.9 7.5.7 10.7 2.6 4.8 2.8 7.6 6.9 11.3 10.8 1.9 2 4.7-.5 3.6-2.8-5.3-11-24.2-20.8-33.4-9.1-.3.6.1 1.7.9 1.4"/><path class="st1" d="M385.3 484.1c3.6 5.7 9.4 10.3 14.4 14.8 5.2 4.7 10.7 9.2 16.3 13.5 5.9 4.5 11.9 8.9 18 13 5.3 3.6 10.9 7 17.2 8.4 13.7 2.9 27.6-2.9 39.7-8.7 14.1-6.8 27.5-15 40.9-23.1 7.5-4.5 14.9-9.1 22.3-13.8 6.5-4.1 13.5-8 18.4-14.1 2.1-2.6-1.4-6.4-3.8-3.8-6.3 6.6-14.4 11-22.1 15.8-7.7 4.8-15.4 9.5-23.1 14.1-15.2 9.1-30.7 18.9-47.5 24.9-8.4 3-17.5 4.9-26.2 2.1-7.7-2.5-14.7-7.7-21.4-12.3-7.4-5-14.5-10.3-21.6-15.8-6.7-5.2-13.1-11.8-20.5-16-.6-.3-1.4.4-1 1"/><path class="st1" d="M468 476c13.9-3.8 27.3-9.6 40.8-14.8 13.5-5.3 27-10.6 40.4-16 1.5-.6 2.2-2 1.4-3.5-.4-.9-.8-1.7-1.3-2.6l-3.3 3.3c5.4 3.7 10.1 8.3 13.8 13.7 1.6 2.4 3 4.9 4.2 7.5.2.4 3.3 8.2 3.3 8.2-2.6 1.8-.4 5.7 2.5 4.3 6.1-3.1-1.2-15.1-3.4-18.9-4.4-7.7-10.6-14.1-18-19.1-2.2-1.4-4.3 1.3-3.3 3.3.4.9.9 1.7 1.3 2.6.5-1.2 1-2.4 1.4-3.5-13.7 5.7-27.4 11.4-41.1 17-13.2 5.5-26.7 10.5-39.3 17.2-.7.4-.2 1.5.6 1.3m-82.2-40.7c.9 5.8-1.2 12.6-2.7 18.2-1.4 5-3.6 9.8-4.9 14.8-.5 1.9 2.2 3.1 3.2 1.4 2.9-5.4 4.2-11.9 5.3-17.9 1-5.4 2.1-11.5.4-16.8-.3-.8-1.5-.5-1.3.3M277.6 447c-2.3.1-4.5 2-6.2 3.5-1.9 1.6-4.5 3.6-5.2 6-.4 1.4 1.2 2.7 2.5 1.9 2-1.2 3.2-3.7 4.8-5.3 1.5-1.6 3.8-3.1 4.7-5.1.1-.5-.1-1-.6-1m12.1 23.9c-3.8.3-7.2 4.9-9 7.8-.4.6-.5 1.7 0 2.3.5.7 1 1.1 2 1.1.7 0 1.7-.4 2-1.1.8-1.7 1.7-3.4 2.8-4.9 1-1.4 2.4-2.6 3-4.2.2-.4-.3-1-.8-1m-8.9 57.7c19-11.4 38.7-20.2 60.7-24.1l-1.2-4.2c-16.6 4.9-31.9 13.6-44.6 25.3-1.3 1.2.1 3.5 1.7 3 21.3-7.2 43.6-13.5 65.6-5.9 1.9.7 3.3-2.5 1.4-3.3-22.3-9.6-46.3-1.4-68 5.8.6 1 1.1 2 1.7 3 12.5-11.3 27.1-19.2 43.3-23.6 2.7-.7 1.6-4.7-1.2-4.2-21.6 4.4-43.2 13.2-60.5 27.1-.5.5.4 1.5 1.1 1.1"/><path class="st1" d="M568.4 464.9c.4 1.9 2.2 1.7 3.6 1s2.8-1.5 4.1-2.3c1.4-.9 3.1-1.6 4.2-2.9.8-1.1.1-2.9-1.4-2.4-1.9.5-3.4 2-4.9 3.2-.7.5-4.1 3.7-4.7 3-.4-.4-1-.1-.9.4M210.2 657.1c56.7 18.8 126.2 31.9 181.4 1.8 2.6-1.4.3-5.3-2.3-4-26.3 13.5-55.8 18-85.2 16.7-31.9-1.4-62.4-10-93.4-16.5-1.2-.2-1.7 1.6-.5 2m93 68.1c-2.6 10.7-4.9 21.2-6.3 32.2-1.5 12.4-2.1 24.9-2.7 37.4-1.1 26.9-1.2 53.8-2.3 80.6-.6 14.7-2.3 29.4-2.3 44.1 0 1.8 2.9 2.3 3.3.4 3.5-15.7 3.4-32.5 4-48.5.6-17.1.9-34.3 1.2-51.4.3-16.5.8-33 1.8-49.5.9-14.9 1.4-30.3 4-45 .4-.7-.6-1-.7-.3"/><path class="st1" d="M293.1 899.6c-2 17.4-3.3 34.9-4.3 52.4-.9 16 1 31.7 1.9 47.6 1.7 30.3 1.1 60.7 1.4 91 .2 16.4.6 32.7 2.1 49 .3 3.2 5.4 3.3 5.1 0-2.8-29.5-2.5-59.3-2.7-89-.1-15-.3-30.1-1-45.1-.7-15.5-3.1-31-2.9-46.5.3-19.8 1.5-39.6 1.3-59.4.1-.7-.8-.6-.9 0m11.3-176.1c.2 22.8-2.4 45.5-2.7 68.3-.2 12.3 1 24.5 2 36.8 1.1 13.8 2.3 27.7 4.1 41.5.9 7.2 2 14.4 3.3 21.6 1.3 7.5 2 16.4 5.5 23.2 1 2 4 1 4.1-1.1 0-6.7-2.5-13.8-3.8-20.4-1.3-6.7-2.4-13.4-3.3-20.2-2-13.7-3.3-27.5-4.6-41.3-1.1-12.3-2.6-24.6-2.7-36.9-.1-11.9.4-23.8.7-35.6.3-12 .7-24.2-1.1-36-.2-1-1.5-.7-1.5.1"/><path class="st1" d="M320.7 916.7c.1.1.2.2.4.3.2.2.5.1.8 0 .8-.5 1.2-.8 1.5-1.6.3-.8-.3-1.9-1.2-2-4.2-.7-6.3 3.6-6.9 7.3-.8 4.6.8 8.6 3.7 12.2.2-1.3.3-2.6.5-3.9-5.9 3.6-7.4 13.4-9.3 19.5-2.6 8-4.8 16.2-6.7 24.4-3.8 16.5-6.9 33.1-10 49.8-.6 3.2 4.2 4.6 4.9 1.3 3.4-15.1 5.7-30.3 9.1-45.4 1.6-7.1 3.3-14.1 5.3-21.1 1-3.6 2.1-7.2 3.3-10.7 1.2-3.7 2.4-11.2 5.9-13.5 1.3-.8 1.7-2.7.5-3.9-1.8-1.7-2.8-3.7-3-6.2-.1-.8 1.5-7.7 1.7-7.6-.7-.4-1 .7-.5 1.1m-6.4-235.5c-.5.4.1 6.2 0 7.1-.1 1.7-.3 3.5-.5 5.2-.4 3.6-.9 7.2-1.5 10.7-1.1 5.9-2.6 11.7-3.5 17.7-.2 1.6 2.1 2.4 2.5.7 2.1-7.3 3.9-14.7 4.8-22.3.5-4.8 1.1-9.8.6-14.7-.2-2.2-.1-5.1-2.4-5.9-.2-.1-.5 0-.7.2l-.3.3c-.6.7.3 1.5 1 1m-99.7-25c-2.5 9.3-1.9 18.7-3.6 28.1-1.7 9.1-2.9 17.9-3.6 27.1-1.7 19.9-2.5 40-1.4 60 2 34.4 11.8 67.5 15.8 101.7 2.3 20.3.3 41.6 6 61.5.9 3.1 5.6 1.8 4.8-1.3-5.1-18.1-3.2-37.5-5.1-56.1-1.7-16.4-4.8-32.6-8-48.7-3.3-16.6-6.4-33.3-7.8-50.2-1.6-19.4-1.3-39 0-58.5.7-11 1.4-21.8 3.4-32.6 1.8-10.1 1-20.4 1.9-30.6 0-1.4-2.1-1.6-2.4-.4"/><path class="st1" d="M231.6 931.4c-3.4-.3-5.9 2.6-6 5.9-.1 4.5 4.2 7.2 7.8 8.9-.3-1-.5-2-.8-3-6.2 12.7-2.6 26.2-2.3 39.6.2 13.7-1 27.4-1.9 41-.9 12.6-1.8 25.3-1 37.9 1.1 16.5 1.5 33.3 4.7 49.6 1 4.8 2.2 9.6 3.8 14.3 1.7 5.3 2.1 8.9.4 14.2-2.9 8.9-2.1 17.8-.9 27 .4 3.3 5.7 3.4 5.3 0-1.1-8.3-2.1-16.7.5-24.8.9-2.9 2-5.8 1.9-8.9-.1-4-1.8-7.7-2.9-11.4-5-16.1-5.8-32.9-6.8-49.6-.8-13.3-1.2-26.3-.4-39.6.8-13.5 2-27 2.3-40.6.2-6.6 0-13.1-.6-19.7-.9-8.8-2-18.4 1.7-26.7.6-1.4.1-2.7-1.3-3.3-1.3-.5-2.7-1-3.7-2-1.2-1.2-3.6-5.5.2-6 1.8-.3 1.8-2.6 0-2.8"/><path class="st1" d="M237.9 1168.4c5 13.9 29.1 5.3 38.2 2.1 6.6-2.4 14.5-4.6 19.9-9.3 5.3-4.7 7.2-12.8 5.5-19.6-.5-1.8-3.6-2-3.9 0-1 6.3-.3 12.3-5.9 16.6-4.8 3.7-11.2 5.5-16.8 7.6-9.6 3.6-26.9 10.9-35.5 1.7-.6-.6-1.8.1-1.5.9"/><path class="st1" d="M241.4 1157.7c15.8 9.1 39.3-1.1 50.8-12.9 1.7-1.8-.9-4.3-2.7-2.7-11.7 10.2-31.5 21.2-47.4 14.3-.8-.4-1.6.8-.7 1.3m-.5-53.8c7.3 23.3 30.4 38.9 54.9 35.7 2.4-.3 2.5-4 0-3.8-23.4 2.4-45.2-10-53.6-32.2-.3-.9-1.6-.6-1.3.3m11.2-132.3c-18.2-20.7-18-49.7-22.9-75.3-.3-1.4-2.6-1.1-2.5.3 1 14.5 3.7 29.6 7.5 43.6 3.2 12 8.1 23.5 17.3 32 .4.4 1-.2.6-.6m-9.1 9.7c-6.8-16-10.7-32.8-12-50.1-.1-1.4-2.3-1.4-2.2 0 .7 17.7 5.3 34.9 13.4 50.6.2.6 1.1.1.8-.5m35.4-15.5c4.5-8.3 7.7-17.2 10.1-26.3 2.3-8.7 5.1-19.1 4.1-28.1-.2-1.6-2.5-2.2-3-.4-2.2 9-2.3 18.5-4.3 27.6-2 9.1-4.9 18-8 26.8-.1.6.8.9 1.1.4m-23.3 210.1c8.7-2.2 16.9-1.5 25.5 1 2 .6 2.8-2.4.9-3.1-8.7-3-18.1-2.5-26.8.5-1.1.3-.7 1.9.4 1.6m34.5-15.9c-1.5 4 .7 9.5 1.6 13.5 1.2 5.7 2 11.3 2.2 17 .3 11.2-.3 22.4.1 33.6.1 3.2 4.8 3.2 4.9 0 .4-11.6.6-23.6-.2-35.2-.4-5.3-1.2-10.5-2.6-15.7-1.1-4.1-1.9-10.4-5.2-13.4-.3-.3-.7-.1-.8.2"/><path class="st1" d="M242.1 1174.1c-2.8 6.7-3.9 13.9-7.2 20.5-2.7 5.5-5.9 10.8-7.4 16.8-2.6 10.8 2.5 20.6 12.1 25.7 11.1 5.9 26 5.4 38.1 4.6 10-.7 24.8-5.2 22.6-18.1-.3-1.7-3.3-1.8-3.6 0-1.9 13.5-17.5 13.5-28.2 13.4-10.6-.1-23 .2-31.4-7.4-9.1-8.2-5-19-.6-28.5 3.7-8 8.1-17.9 6.5-26.9.1-.7-.7-.5-.9-.1m140.3-513.6c-1.7 16.8 1.1 33.8.6 50.7-.5 16.9-1.8 33.8-2.8 50.7-2 33.4 2.2 66.5 3.6 99.8.6 14.9 1.5 29.7 2 44.6.3 9 .5 17.1-1.8 25.8-3.8 14.1-8.5 27.9-12.4 41.9-4.1 14.6-7.9 29.3-11.6 44.1-8.4 33.4-16.4 67-26.1 100.1-1 3.4 4.3 4.9 5.4 1.5 8.8-29.3 15.9-59 23.3-88.7 7.5-29.9 15.9-59.4 24.8-89 2.7-9 4.8-17.4 4.6-26.8-.2-13.1-1.1-26.2-1.8-39.3-.9-16.8-1.6-33.5-3.1-50.2-1.5-16.7-2.9-33.4-2.4-50.2.6-19 2.6-38 2.9-57 .3-19.4-4.1-38.5-3.9-57.9 0-.9-1.2-.9-1.3-.1m-118.6 10.3c15.5 8.8 33.8 12.5 51.6 12.2 17.5-.4 36.5-4.3 51.3-14.1 1.6-1 .2-3.2-1.4-2.5-16.3 7.3-32.6 12.7-50.6 13.1-17.4.4-34.2-3.5-50.3-9.9-.8-.3-1.3.8-.6 1.2m74.7 329.1c-4.6-11.4-7.2-24-9.2-36.1-1.1-6.7-2-13.4-2.4-20.2-.4-6 0-12-.5-17.9-.1-1.7-2.9-2.4-3.2-.4-1.1 5.9-.5 12.4.1 18.4.6 6.6 1.5 13.2 2.7 19.7 2.4 12.9 6.1 25.2 11.5 37.1.2.5 1.3.1 1-.6"/><path class="st1" d="M348.1 953.1c-7.8-4.6-12-16.2-15.8-24-4.4-9.1-8-18.2-10-28-.3-1.5-2.3-1-2.5.3-1 10.4 5.8 22 10.4 30.9 4 7.8 8.7 18.5 17.4 21.9.7.3 1.1-.7.5-1.1m-49.6 199.5c5 3.9 15.3 3.4 21.3 3.4 6.6-.1 16-.1 21.8-3.7 1.7-1.1 1-3.8-1-3.8-3.3 0-6.5 1.1-9.7 1.8-3.9.8-7.9 1.2-11.9 1.4-3.4.2-6.7.1-10.1-.1-3.3-.2-6.9-1.2-10.2-.4-.7.2-.7 1.1-.2 1.4m.6-32.1c5.6 13.4 20.9 16.5 34 16.8 2.5.1 2.5-3.9 0-3.9-12.3-.3-26.7-.8-33-13.3-.3-.6-1.3-.2-1 .4"/><path class="st1" d="M335.7 1119.1c-4.8 1.4-7 7.1-6.9 11.7.1 2.7 1.1 5 2.5 7.3 2.7 4.5 3.9 7.1 2.4 12.4-.9 3.1 3.5 4.8 5.1 2.2 2.9-4.8 1.9-10.5-1-15.1-1.7-2.5-3.7-4.8-3.9-8-.2-3.4 1.6-5.9 3.1-8.8.5-.8-.3-2-1.3-1.7"/><path class="st1" d="M327.6 1152.2c.4 5.4 7.4 9.8 11.6 12.4 6.3 3.9 13.4 6.3 20.5 8 8.3 2.1 16.8 3.3 25.1 5.5 4 1.1 8.8 2.1 10 6.8 1.1 4.5.1 9.2 1.2 13.7.5 2.1 4.1 2.3 4.5 0 1-6.3 1-16.4-4.1-21.1-5.6-5.1-15.7-5.7-22.8-7.1-8.5-1.6-17.3-3.1-25.4-6.4-3.9-1.6-7.8-3.5-11.3-6-2.8-2-5.4-5.4-8.7-6.5-.2.1-.6.4-.6.7"/><path class="st1" d="M297.6 1201.6c5.4-1.6 9.3 5.6 13.5 7.9 3.5 1.9 7.7 2.4 11.5 3 10.1 1.6 20.4 2.3 30.7 2.3 9.9 0 19.9-.4 29.8-1.7 6.3-.9 15-2.8 17.6-9.3.8-2-1.8-3.6-3.5-2.7-3.5 2-6.1 4.4-10.2 5.5-4 1.1-8.2 1.4-12.4 1.8-10 .9-20.1 1.4-30.2 1.1-9.5-.2-19.9-.5-29-3.1-6.4-1.8-11.1-9.6-18.3-5.8-.6.3-.2 1.2.5 1m-66.3 19.3c5.8 9.1 16.2 12.3 26.5 13.2 6.4.5 12.9.3 19.3-.7s14.1-2.4 19.6-6c1.8-1.2.7-4.2-1.5-3.6-5.4 1.3-10.4 3.7-15.9 4.8-6.1 1.2-12.3 1.7-18.5 1.6-10.2-.2-21.2-2.3-28.3-10.2-.6-.6-1.6.2-1.2.9"/><path class="st1" d="M295.4 1192.6c5.5 5.2 14 8.5 21 11.1 7.6 2.8 15.5 3.9 23.6 3.8 18.1 0 36.4-1.9 54.3-4.3 2.5-.3 1.9-4.8-.6-4.5-17 2-34 3.9-51.1 4.3-8.4.2-16.3-.7-24.3-3.1-7.4-2.3-14.7-6.9-22.3-8.3-.5-.2-1.1.5-.6 1m30.7-18.1c2.7-1.8 5.2-4 8-5.6 1.4-.8 2.9-1.6 4.5-2.2.8-.3 1.7-.6 2.5-.9.4-.1.7-.2 1.1-.3.9-.1.8-.5-.3-1.2.1 1 .9 1.6 1.9 1.5.1 0 .3 0 .4-.1 1-.2 1.6-1.4 1.3-2.3-.1-.2-.1-.4-.2-.6-.2-.7-.7-1.2-1.4-1.4-3.2-.8-7.5 2.2-10 3.8-3.4 2.1-6.8 4.9-8.8 8.4-.3.6.4 1.3 1 .9m4.6 5.5c2.8-2.6 6-4.9 9.4-6.8 2.8-1.6 6.9-2.2 9-4.6 1-1.1.2-2.6-1.2-2.8-3.4-.4-7.5 3-10.1 5-3.2 2.4-5.7 5.2-8.1 8.4-.4.7.5 1.3 1 .8m-78.7 6.8c7.4-3.2 14.8-4 22.7-2.4-.2-1.2-.3-2.3-.5-3.5-7.6 5.1-16.1 9.3-24.3 13.6-1.5.8-.7 3.1.8 3.1 4.2.1 8.4.3 12.6.6 4.2.4 8.4 1.4 12.5 1.1 2-.1 2.3-2.7.5-3.4-7.5-2.8-17.8-2.1-25.6-1.7.3 1 .6 2.1.8 3.1 8-4.6 16.1-9.5 24.5-13.2 1.5-.7 1.1-3.2-.5-3.5-8.5-1.7-17.4-.1-24.6 4.7-.6.7.1 2 1.1 1.5m323.5-732c11.7 9.3 28 3.6 40.6-.4 7.5-2.3 14.6-5.2 21.7-8.7 8.1-4 16.1-8.1 25.2-9.2 2.8-.3 2.9-4.8 0-4.5-14.9 1.7-27 10.8-40.9 15.6-13.6 4.7-31.2 11.6-45.1 5.2-1.2-.3-2.6 1.1-1.5 2"/><path class="st1" d="M632.3 431.8c2.9-.5 31-3.4 30.3.4-.3 1.4 1.2 3 2.6 2 .3-.2.5-.3.8-.5.9-.6 1.2-1.4 1-2.5-.8-5.6-8.6-4.8-12.7-4.8-7.8 0-15 1.5-22.2 4.4-.7.3-.5 1.1.2 1m-45.1-14c6.5-1 12.8-3.1 19.2-4.5 6.8-1.5 13.7-2.8 20.6-3.6 6.4-.7 13-1.4 19.4-.8 6.6.6 12.7 4 19.2 4.5 1.6.1 2-2.1.8-2.9-4.9-3.3-12.4-4.6-18.1-5.3-7.3-.9-14.8-.1-22.1.9-13 1.7-28 3.9-39.5 10.7-.7.3-.2 1.1.5 1"/><path class="st1" d="M623.1 417.2c8.5 1.8 17.1-1.1 25.5-2.2 4.1-.5 8.3-.7 12.4.1 4.3.8 7.2 2.9 10.8 5.1 1.3.8 3.2-.9 2.2-2.2-4.4-6.1-13.7-7.4-20.7-7-10.2.6-20.1 4-30.2 5.3-.5.1-.4.9 0 .9"/><path class="st1" d="M639.7 424.4c5.2-1.7 10.5-2.6 15.9-2.9 2.4-.1 17.1-.8 15 4.2-.8 1.9 2.2 3 3.2 1.4 4-6.2-4.7-8.5-9.1-8.8-8.9-.5-17.4 1.4-25.5 5-.6.3-.2 1.3.5 1.1"/><path class="st1" d="M664.4 430.3c4-.6 8.6-.9 12.3-2.8 1.3-.7.8-3.1-.8-2.9-4.2.5-8.2 2.9-11.9 4.7-.6.3-.1 1.1.4 1m-80.1 8.4c3.8 3.8 9.4 2.6 14.1 1.4 8.1-2 14.6-1.4 22.5 1 1.7.5 2.8-2.1 1.2-2.9-5.3-2.8-11.7-3.5-17.5-2.9-6.8.8-12.8 3.8-19.8 2.5-.5-.1-.9.5-.5.9m33.3-21.3c9.4 2.6 15.4 8.9 20.5 16.9.9 1.4 3.3.5 2.7-1.1-3.5-9.6-13.3-15.5-23-16.8-.7-.1-.8.9-.2 1m-67.7 22.1c4.3-1.2 9.1-3.5 12.5-6.6 3.5-3.2 3.4-8.8 5.5-13 2.7-5.3 5.3-8.6 10.7-11.3 4.2-2.1 8-4.7 11.2-8.1 1.4-1.5 2.7-3.1 3.9-4.7 1-1.4 2.5-5.3 3.9-5.4 4.1-.2 2.2 8 1.2 9.8-1.3 2.4-3.3 4.3-5.3 6.1-2.4 2.2-7.6 5.5-7.8 9.2-.1 1.3.5 2.1 1.3 3.1 2.1 2.7 3.2 4.8 2.8 8.3-.2 1.9 2.7 2.1 3.2.4.7-2.3.8-4.3 0-6.6-.6-1.8-2.9-3.8-2.8-5.4.2-2.6 5.2-5.8 7-7.5 1.7-1.7 3.4-3.6 4.6-5.8 1.9-3.5 2.6-8 .6-11.6-1.4-2.6-4.9-5.7-7.8-3.4-1.6 1.3-2.5 4-3.6 5.7-1.9 2.8-4.1 5.3-6.7 7.5-4.3 3.6-10 5.1-14 8.9-3.7 3.5-6.3 9.1-7.9 13.9-1 3-.7 6.3-2.9 8.6-2.7 2.8-6.8 4.7-10 6.8-.6.4-.3 1.3.4 1.1m-275 11.2c6.4-5.2 11.7-12.2 17.1-18.4 5.2-5.9 10.5-14.2 18.3-16.6 6.9-2 14.5-1.6 21.6-3 7.7-1.5 15.2-4.1 22.2-7.5-.9-.2-1.9-.5-2.8-.7 5 6.6-6.6 10.6-10.9 12.5-6.5 2.9-13 5.8-19.6 8.2-2.3.8-.9 4.1 1.3 3.1 9-4.2 19.1-6.8 27.8-11.6 5.1-2.8 8.8-8.9 5-14.3-.7-1-1.7-1.3-2.8-.7-8.1 3.8-16.5 6.6-25.4 7.9-7 1.1-14.7.5-21.2 3.8-6.7 3.4-11.3 10.8-16 16.4-5.3 6.5-11.5 12.8-15.6 20.1-.5.6.4 1.2 1 .8"/><path class="st1" d="M321.7 428.4c5.9 1.8 12.4 2.1 18.5 2.8 5.3.6 11.6 2.3 16.9 1.5 4.3-.6 7.2-3.8 10.4-6.5 3.5-2.8 14.3-10.2 18.2-5.2 1.4 1.8 4.1-.5 3.1-2.4-4.8-8.7-19.9 1.1-24.6 5.2-2.8 2.4-5.2 5-9.2 5-3.3 0-6.8-.6-10.1-.9-7.5-.6-15.3-1.9-22.8-1.3-1.2.1-1.5 1.5-.4 1.8m-31.8 45c11.8-8.6 29.8-6.3 43.5-4.7 10.7 1.2 29.5 3.3 33.7-10.4.6-1.9-2-3.5-3.4-2-2.5 2.8-4.6 5.4-8.2 6.7-3.7 1.4-7.7 1.7-11.6 1.6-7.7-.2-15.3-1.4-22.9-1.5-10.6-.1-25.1-.3-31.8 9.6-.3.4.3 1 .7.7"/><path class="st1" d="M355.4 455.7c4.7 3.2 12-3.1 14.2-6.9.9-1.6-1.3-3.4-2.6-2-1.5 1.6-2.9 3.2-4.6 4.6-1.3 1.1-4.6 4.4-6.6 3.3-.5-.2-1 .6-.4 1m1.7-9.3c6.6-1.7 12.6-4.8 18.1-8.8 5.1-3.6 10.8-8 14-13.5 1.1-1.9-1.4-3.8-3-2.3-4.7 4.3-8.5 9.3-13.6 13.2-5 3.9-10.5 7.1-16 10.1-.6.5-.2 1.5.5 1.3"/><path class="st1" d="M365.6 451.9c5.6-2.7 6.9-10.2 11.6-13.7.8-.6 1-1.6.3-2.3-.1-.1-.2-.2-.3-.4-.5-.6-1.6-.8-2.3-.3-2.3 1.6-3.5 4.6-4.9 7-.9 1.4-1.7 2.9-2.5 4.4-.8 1.4-1.3 3.3-2.5 4.5-.5.4.1 1 .6.8"/><path class="st1" d="M374.4 438.5c-2.2 3.3-4 6.8-6.1 10.2-2 3.3-4.9 6.5-6.4 10-.8 2 1.3 4 3.1 2.4 2.9-2.7 4.8-7 6.5-10.6 1.8-3.7 3.4-7.5 4.2-11.5 0-.7-.9-1.2-1.3-.5m-21.9-10.4c-.5-1.2 5.5-4.5 6.5-4.9 2.6-1.2 4.6-1.5 7.1.1 1.6 1.1 3.7-1 2.7-2.7-2.9-4.8-9.8-2.1-13.3.4-1.3.9-8.7 7.6-3.4 7.9.3 0 .5-.5.4-.8"/><path class="st1" d="M374.7 436.7c-5 14.6 2.6 28.6 4.2 42.9 1.6 15.4-2.6 29.1-6.5 43.8-.6 2.1 2.2 3.1 3.4 1.4 8.2-11.7 10.3-27.9 9.4-41.9-.5-7.7-2.8-14.5-5.1-21.8-2.5-8-2.5-16-3.6-24.2-.1-.9-1.4-1.2-1.8-.2M41.5 4c61.9 1.3 123.8.9 185.7 1 62 .1 123.9.1 185.8.1 123.2 0 246.4 0 369.6.1 69.5 0 139 .3 208.5-.2 2.8 0 2.8-4.3 0-4.3C867.2-.2 743.4.5 619.6.5 496.4.5 373.2.4 250 .6c-69.5.1-139-.4-208.5 1-1.6 0-1.6 2.4 0 2.4M26.6 598.4c16 1.4 32.1 1.1 48.1 1.3 16 .2 32.1.1 48.1.1h48.1c16 0 32.1.5 48.1-.4 2.5-.1 2.5-3.7 0-3.9-16-.9-32.1-.4-48.1-.4h-48.1c-16 0-32.1-.1-48.1.1s-32.2-.1-48.1 1.3c-1 .3-1 1.8 0 1.9m354.5-8.2c20.3 1.4 40.8 1 61.2 1.1 20.1.1 40.2.1 60.3.2 40.5.1 81 .1 121.5.1h243c45.7 0 91.5.5 137.3-.2 2.8 0 2.8-4.2 0-4.3-81-1.3-162-.2-243-.2s-162-.1-243 .1c-22.9 0-45.8 0-68.6.1-22.8.2-45.8-.4-68.6 1.2-1.4 0-1.4 1.8-.1 1.9M1.5 626.3c36.1.9 72.2 1 108.4 1.2 17.9.1 35.8.1 53.7.2 18.2 0 36.5.6 54.7-.5 2.3-.1 2.3-3.4 0-3.5-17.9-1.1-35.8-.5-53.7-.5-18.2 0-36.4 0-54.7.2-36.1.2-72.3.3-108.4 1.2-1.1.1-1.1 1.7 0 1.7m379.4-1c10.6 1.4 21.2 1.2 31.8 1.3 10.9.1 21.7.1 32.6.1 21.7.1 43.4.1 65.1.1 43.7 0 87.4.1 131.2.1h262.3c49 0 98 .3 147-.2 2.8 0 2.8-4.3 0-4.3-87.4-1-174.9-.2-262.3-.2s-174.9 0-262.3.1c-24.2 0-48.4 0-72.6.1-12.4 0-24.8.1-37.2.1-11.8 0-23.8-.3-35.6 1.3-.8.1-.8 1.4 0 1.5"/><path class="st1" d="M27.9 599.9c-2.5-1.5-5 1.1-6.9 2.6-2.2 1.6-4.2 3.3-6.9 3.9-2.5.6-4.9.2-7.3 1.3-5.8 2.7-8.5 10.3-5.5 16 1.1 2.1 4.7.7 3.9-1.6-1.1-3.1-1-6.4 1.4-8.9 2.7-2.9 6.7-1.8 10.1-3.2 2.4-1 4.4-2.8 6.3-4.6 1.7-1.6 4.6-2.7 5.1-5.1 0-.1-.1-.3-.2-.4m4.3 14.1c30.2.7 60.5 1.3 90.7 1.4 14.8 0 29.6.1 44.4.1 15.4 0 30.9.7 46.3-.4 2.2-.2 2.2-3.3 0-3.4-15-1.1-30.3-.4-45.4-.4-15.1 0-30.2.1-45.4.1-30.2.1-60.5.6-90.7 1.4-.6 0-.6 1.2.1 1.2m350.7-5.5c81.8 2.1 163.8 1.1 245.6 1.1H875c46.2 0 92.4-.5 138.6-.9 1.2 0 1.2-1.9 0-1.9-81.9-.7-163.7-.9-245.6-.9-82.2 0-164.4-.1-246.5.1-46.2.1-92.4-.1-138.6 1-.9.1-.9 1.5 0 1.5"/><path class="st1" d="M1005.9 592c-1.7 8.2 4.3 16.3 12.1 18.4 5.6 1.5 11.4 0 17.1-.2 3.3-.1 6.9 0 9.7 1.8 3.4 2.1 3.8 5.1 3.9 8.7.1 1.8 2.4 2.4 3.3.9 2.1-3.3.6-7.6-1.8-10.4-3-3.6-7.5-5-12.1-5.1-6.6-.2-13.5 2.5-20 .6-6.8-1.9-10.2-8-11.2-14.6 0-.7-.9-.6-1-.1m4.1-560.7c-2.2 35.8-1.4 71.8-1.6 107.7-.1 35.9 0 71.8-.1 107.7V463c0 40.5-.5 81.1.8 121.6.1 2.2 3.4 2.2 3.5 0 1.1-35.9.8-71.8.8-107.7V369.2c0-72.1 0-144.2-.1-216.3 0-40.5.8-81.2-1.6-121.6 0-1.1-1.6-1.1-1.7 0m-956.4-.4c117.8 1.9 235.7.7 353.5.7h351.7c66.4 0 132.7.1 199.1-.2 1.8 0 1.8-2.7 0-2.8-117.8-.6-235.7-.2-353.5-.2H252.8c-66.4 0-132.7-.4-199.1.7-1.2.2-1.2 1.8-.1 1.8m932.3 3.8c-1.7 70.9-1.2 141.8-1.4 212.7-.1 70.6-.2 141.2-.1 211.7 0 19.8 0 39.6.1 59.4.1 20-.8 40.4.7 60.4.1 1.9 2.8 1.9 2.9 0 1.4-17.5.6-35.3.7-52.9.1-17.6.1-35.3.1-52.9V366.3c0-70.6.1-141.2-.3-211.7-.3-39.9-.2-79.9-1.2-119.8.1-1.1-1.5-1.1-1.5-.1M54.4 575.2c.5-70.4.8-140.8.9-211.2.1-70.4.2-140.8.2-211.2 0-39.7.2-79.4 0-119.1 0-2.4-3.7-2.4-3.7 0-.4 70.4 0 140.8 0 211.2 0 70.4.1 140.8.4 211.2.1 39.7.4 79.4.7 119.1-.1 1 1.5 1 1.5 0M26.9 26.4c-2.6 73.9-1.6 148-1.6 222 0 73.7.2 147.4.3 221 .1 41.8-.2 83.6.7 125.4 0 1.6 2.5 1.6 2.5 0 1.6-74 .7-148 .9-222 .1-73.7.3-147.4.2-221-.1-41.8-.1-83.6-1.6-125.4-.1-.9-1.4-.9-1.4 0"/><path class="st1" d="M43.6 1.4C37.9-.6 33 4.3 30.4 8.9c-3.6 6.6-4.8 14.2-3.2 21.6.3 1.4 2.5 1.1 2.4-.3-.6-9.4 1.6-27 13.9-27.7.6 0 .7-.9.1-1.1m945.5 2.1c6.3-.4 12.2 0 16.9 4.8 5.2 5.4 5.4 13.5 6.2 20.5.1 1.2 2.1 1.8 2.3.3 1.4-8-.5-18-6.5-23.8-4.9-4.7-13.3-7.2-19.5-3.8-.9.5-.5 2.1.6 2m-25.3 29.8c6 .5 12 1.1 18 1.4 1.3.1 1.3-1.9 0-2-6-.4-12-.5-18-.8a.7.7 0 0 0 0 1.4m-920.4 1017c30.5.4 61.1.5 91.6.7l45.4.3c15.4.1 30.9.6 46.3-.1 2-.1 2-3 0-3.1-15.4-.8-30.9-.2-46.3-.1l-45.4.3c-30.5.2-61.1.4-91.6.7-.9 0-.9 1.3 0 1.3m320.9-3.7c61.1 1.9 122.4 1.1 183.6 1.2 60.6.1 121.2.2 181.7 0 34.6-.2 69.2-.4 103.9-.7 1.5 0 1.5-2.3 0-2.3-121.8-.9-243.6-.9-365.4-.5-34.6.1-69.3-.1-103.9 1-.7 0-.7 1.3.1 1.3m-79.6-330.1c8.6 4.4 17.2 9.8 27.3 8.7 10.2-1.1 19.1-6.6 28.7-9.9 1.8-.6 1.1-3.3-.8-2.8-9 2.1-17.1 7.1-26.2 8.7-10.3 1.9-18.9-3.3-28.5-6-.7-.2-1.2.9-.5 1.3m-69.5-35.7c4.6 5.7 15.3 2.4 21.3 1 4.6-1.1 9.1-2.5 13.4-4.3 3.8-1.6 8.2-3 11.1-6 1.3-1.3 0-3.4-1.7-3-3.4.8-6.4 2.9-9.5 4.3-3.6 1.6-7.3 3-11.1 4.2-7.3 2.3-15.3 4.6-22.9 2.8-.6-.1-.9.5-.6 1m146.8-8.4c5.4 6.5 16 6.2 23.4 9.2 1.8.7 2.5-1.9 1.2-2.8-6.9-5.1-16.4-2.9-23.8-7.4-.7-.4-1.3.5-.8 1m-26.2-12.6c11.2-4.5 20.9-11.7 28.1-21.3 4.3-5.8 7.3-12.2 10.2-18.8 1.5-3.5 6.5-10.3 2.6-13.6-1.1-.9-2.7.2-2 1.6 1 2-1.6 5.8-2.3 7.6-1.4 3.3-2.8 6.7-4.2 10-2.3 5.1-5.1 10-8.6 14.4-6.5 8.1-14.9 14.5-24.3 18.8-.9.3-.3 1.7.5 1.3m-9.1-23.4c3.2 3.1 7.6.8 10.9-.8 5.7-2.7 11-6 15.9-9.9 5.3-4.1 10-8.7 14.3-13.9 3.7-4.5 8.5-10.1 8.7-16.2 0-1.2-1.9-1.9-2.4-.7-2.4 5.4-4.7 10.1-8.4 14.7-3 3.8-6.4 7.3-10 10.6-3.9 3.6-8.1 6.8-12.5 9.6-3.4 2.2-11.8 8.9-15.8 5.7-.5-.3-1.2.4-.7.9"/><path class="st1" d="M267.5 778c13.2-17.6 21.5-38.5 36.5-54.8 1-1.1-.6-2.7-1.6-1.6-15 16.6-22.8 37.9-36.2 55.6-.6.8.7 1.5 1.3.8m5.5-35.2c4.3-4 8.8-7.7 13.7-11 4.4-3.1 9.3-5.4 13.8-8.5.9-.6.3-2.2-.8-1.8-10.3 4.2-19.7 12.8-27.4 20.6-.4.5.2 1.2.7.7m62.3-315.6c7.4-4.1 14.4-9 21.5-13.6 3.5-2.3 7.1-4.7 10.6-7 1.5-1 2.9-2.3 4.5-3 1-1.1 2.1-1.4 3.5-.8 2.2 2.5 2.1 4.7-.5 6.5-1.3.9-.6 3.4 1.2 2.8 3.7-1.3 6.1-4.9 4.6-8.9-1.2-3.1-4.6-5.5-7.8-4.1-1.4.6-4 3.2-5.4 4.2-1.5 1.1-3 2.1-4.5 3.1-3.5 2.4-7 4.9-10.4 7.3-6 4.2-12.2 8.2-18 12.7-.6.3.1 1.1.7.8"/><path class="st1" d="M348.6 430.2c5.8-2.9 11.3-6.2 16.9-9.4 2.7-1.5 5.3-3.1 8-4.6 2-1.1 4.8-2.2 6.3-3.9.5-.6.6-1.4.3-2.1l-.3-.6c-.5-.9-1.6-1-2.4-.6l-.6.3c-.7.3-1.1 1.4-.9 2.1.1.2.1.4.2.6.8 2.2 3.9 1.3 3.5-1 0-.2-.1-.4-.1-.6l-.5 1.8.4-.4H377c.1.2.3.3.4.5l-.3-2.1c-1.2 1.8-4.8 3.2-6.7 4.4-2.6 1.7-5.2 3.3-7.7 5-4.9 3.2-9.8 6.3-14.5 9.8-.5.4-.1 1.1.4.8"/></svg>