<svg id="Слой_1" xmlns="http://www.w3.org/2000/svg" xmlns:xlink="http://www.w3.org/1999/xlink" viewBox="0 0 807.4 1368.4"><style>.st0{clip-path:url(#SVGID_2_);fill:#7bafde}.st1{clip-path:url(#SVGID_4_);fill:#005baa}</style><defs><path id="SVGID_1_" d="M0 0h807.4v1368.4H0z"/></defs><clipPath id="SVGID_2_"><use xlink:href="#SVGID_1_" overflow="visible"/></clipPath><path class="st0" d="M579.7 443.9c1.6 9.5 3 19.3 1.4 28.8-5.1-27.8-11.5-55.8-22.2-82.1-.4-.9-1.7-.6-1.5.4 7.1 26.5 13.6 52.9 18.1 80 1.8 10.5 3.3 20.9 5.5 31.3 1.6 7.4 4.2 17.2 1.9 25-.4-1.5-1-2.9-1.6-4.4-.1-.2-.1-.3-.2-.4.4-8.9-1.9-17.5-4-26.1-2.4-9.6-4.1-19.5-6.3-29.2-4.1-18.5-9.6-36.9-20.5-52.6-.6-.8-1.9-.1-1.4.8 9.3 15.4 13.8 33.3 17.4 50.7 1.7 8.3 3.1 16.7 4.5 25 1.8 10.8 5.8 21.6 4.2 32.6-.2 1.3.4 2.5 1.3 3.2.6 1.5 1.1 3 1.8 4.5s1.9 1.7 3 1.3c.4 2.6 4.4 4.1 5.9 1.2.1-.2.2-.4.3-.5 0 7.3.3 14.7 1.2 21.9.5 4.5.9 10.5 4.2 14 3 3.3 7 2.3 9.5-1.1 1.9-2.7-1.8-6.2-4.5-4.5-.3.2-.6.4-.7.5-.9-1.3-1.4-2.9-1.8-4.4-1.6-5.1-2.2-10.5-2.8-15.8-.9-7.9-1.6-15.9-1.7-23.9 0-.8-.5-1.2-1-1.3-.2-3.1-.7-6.3-1.2-9.3-1.8-10.9-4.7-21.6-6.6-32.5l-.6-3.3c.3.2.9.2 1-.4 2.6-8.4 2.6-17 1.8-25.7-.9-9.4-1.3-19.7-3.5-28.9-.6-2.3-3.6-1.5-3.9.5-1 8.2 1.7 16.9 3 24.7"/><path class="st0" d="M566.9 327.9c2.3 12.7.7 24.9-.1 37.7-.4 7 .5 13.8 1.3 20.7.8 7 .7 14.4 2.2 21.2.7 3 5.7 3.2 6.2 0 1-6.5-.5-13.2-1.5-19.6-1.2-8.2-2.5-16.2-2.4-24.5 0-11.7 2.5-25.9-3.6-36.5-.7-1.1-2.3-.3-2.1 1m180.2 6.1c-.1.4-.2.7-.3 1.1-3.5-1.4-6.3-5.1-8.5-7.9-1.2-1.6-3.5-.3-2.6 1.5 2.2 4.9 5 9 9.6 11.3-2.8 10-4.6 20.4-5.9 30.7-.8 6.6-1.3 13.2-1.7 19.8-.4 6.7-2.2 12.8-1.4 19.6.1.9 1.4.9 1.4 0-.3-6.6 2.2-12.7 3.5-19.1 1.2-6.5 2.1-13.1 3.4-19.6 1.9-10 4-20.2 7.1-30 4.5-.3 9.2-2.9 12.9-4.8 2.1-1.1 1.3-5-1.3-4.7-3.5.4-6.4 1.9-9.6 3 .2-3.4-5.3-4.6-6.6-.9m-12.3-33.8c1.2 8.1 3.7 15.5 8.8 21.9 1.5 1.8 3.9-.5 3-2.3-.8-1.6-1.5-3.2-2.1-4.7 7.6 1.7 15.8-.1 23.4-1.1 2.2-.3 2.3-3.4 0-3.5-8.3-.4-16.2 2.1-24.5 2-2.6-6.2-4.5-12.3-5.2-19.4-.7-7 .3-13.7-2.6-20.3-.4-1-2-.3-1.7.7 2.2 8.6-.4 17.9.9 26.7m-240.7-12.4c-4 2.7-8.9 4.7-13.7 4.9-1.1 0-1.4 1.7-.3 1.9 5.6 1 11-.6 16-3.2 1.6-.8 3.6-2.1 5.4-3.6 2.3 4.3 5.4 8.2 9.1 11.7 4.6 4.4 12.9 10.4 19.5 8.9 2.2-.5 2.2-3.3.6-4.5-2.2-1.5-4.6-1.8-7.1-2.6-4-1.3-7.6-3.8-10.8-6.4-3.4-2.8-6.2-6.2-8.5-9.9 1.1-1.6 1.7-3.3 1.3-5-.1-.6-.6-1-1.1-1.2 2.3-2.5 3.6-5.6 2.5-9.2-.7-2.2-3.8-2.2-4.5 0-2.3 7.1-7.8 10.5-14.5 13.3-5.7 2.4-12.2 2.7-17.8 5-.9.4-.4 1.5.2 1.7 6.5 2.6 17.8-1.6 23.7-4.1 1.6-.7 3.5-1.6 5.3-2.7 0 .1.1.3.2.4-1.6 1.8-3.6 3.3-5.5 4.6"/><path class="st0" d="M542.3 297.1c-4.6-2.4-9.5-3.8-14.7-3.3-2.5.2-2.6 4 0 4 4.4 0 8.9.6 12.9 2.3 2 .8 3.8-1.9 1.8-3M371 447.8c3.7-13.6 4.3-27.7 9-41.1 5.2-14.8 11.3-29.6 18.2-43.7 5.6-11.5 13-21.9 19.4-32.9 5.2-9 9.6-17.6 18.6-23.4.7-.4.6-1.6-.2-1.8-8.2-1.8-15.4 9.5-19.1 15.2-7.2 11-14.9 21.7-21.5 33.1-8.1 13.9-14.3 29-20.3 43.9-6.4 15.8-10.3 32.8-10.5 49.8-.1 3.7 5.4 4.4 6.4.9m-80.4-60.9c.7 4.1 2.1 15 8.1 14.7 2-.1 2.9-2 2.1-3.7-.2-.4-.3-.7-.5-1 0 0 .1 0 .1-.1.2-.2.5-.3.7-.4 1.5 4.7 3.1 7.9 5 7.2 1.2-.5 2-1.8 1.2-3 .9 1.5-.6-2.9-.9-3.7-.3-.9-.6-1.8-.8-2.8 4.4-1.8 9-2.7 13.9-2.9 2.8-.1 2.8-4.5 0-4.3-5 .3-10.4 1.3-14.8 3.8-.4-1.6-.9-3.3-1.3-4.9-1.8-6.5-3.3-14.2-7.4-19.7-.6-.8-1.9-.1-1.4.8 1.3 2.7 3.2 17.1 5.9 27-.4.4-.8.9-1.2 1.3-1.2-1.7-2.4-3.2-3.2-5.6-1.3-4.1-2-8.3-3.1-12.5-1.4-5.5-3.7-13.5-9.9-15.1-.8-.2-1.5.8-.8 1.4 6.7 5.8 7 15.4 8.3 23.5m-153.5-170c-4.4-1.7-9.3.5-13.4 2.3-5.8 2.6-11.2 5.4-17.3 7.3-.8.2-.9 1.5 0 1.7 4.9 1.1 9.6-.8 14.1-2.6 5.7-2.2 10.7-2.9 16.6-4 2.7-.4 2-3.9 0-4.7m31.4 13.7c-7.5-1.5-14.9 2.3-22.4 2.6-6.7.3-9.9-6.1-16.1-6.2-.5 0-1 .7-.7 1.2 3.6 4.9 7.8 9 13.8 10.6 7.5 2 18.5-.7 25.5-3.3 2-.8 2.6-4.4-.1-4.9m22.5-23c-2 1.7.1 4.8 2.5 4.2 3.1-.8 5.6-2.6 8.5-4.1 2.4-1.3 5.3-1.5 7.6-2.8.4-.2.7-.8.5-1.2-2.4-7.2-16 1.2-19.1 3.9m13.2 2.1c-2.2 3.3-7.1 5.8-10.4 7.8-3.8 2.3-7.7 4.3-11.2 7-2.9 2.1-.5 6.5 2.9 4.9 4.8-2.4 9.3-5.2 13.5-8.6 3.2-2.5 7.8-5.9 7.4-10.5-.2-1.2-1.5-1.6-2.2-.6m79.7 212.8c.5 6.5-.2 13.8 1.7 20.1.7 2.2 3.8 1.7 3.9-.5.4-7-1.2-14.8-2.1-21.8-.8-6.6-2.1-13.1-4.5-19.3-.6-1.5-3-.9-2.5.7 2.2 6.7 3 13.7 3.5 20.8m-10.4-12c.3 11.1-.2 22.4.8 33.4.3 3 4.7 3.1 4.7 0 0-11.2-1.8-22.6-3.4-33.7-.2-1.2-2.1-.9-2.1.3m-12 18.5c-1.4 6-2 12.2-2.6 18.3-.2 2.4 3.5 2.8 4.1.6 1.7-6 .9-12.3 1.5-18.4.3-1.8-2.5-2.2-3-.5m-10.7 11.3c-.5 2.5-1.3 5-1.9 7.5-.7 2.6 3.3 3.7 4 1.1.7-2.5 1.2-5.1 1.5-7.7.4-2.2-3.1-3.3-3.6-.9M141.6 129.1c1.3 2.6 5.2.3 3.9-2.3-13.1-27-22.2-55.6-34.6-82.9-.6-1.2-2.7-.4-2.2.9 10.3 28.4 19.2 57.5 32.9 84.3m-68 31.5c-16.5-10.2-32.8-20.7-47.8-32.9-1.7-1.4-4.1.9-2.4 2.4 14.8 13 30.9 24.5 48.1 34.2 2.3 1.4 4.4-2.2 2.1-3.7M14 233.2c-4.1-.2-8.1-.9-12-2.2-2-.7-2.9 2.5-.9 3.2 4.2 1.4 8.5 2.2 12.8 2.2 2.1-.1 2.1-3.1.1-3.2M276.3 24.1c-19 20-27.8 50.8-33.2 77.2-.5 2.5 3.2 3.5 3.8 1 6-25.7 13.5-56 31.5-76.1 1.3-1.4-.7-3.5-2.1-2.1m22.6 127.3c5.9-5.9 10.8-12.9 17.1-18.4 1.9-1.6-.8-4.2-2.7-2.7-6.5 5.5-11.2 12.4-16.9 18.6-1.3 1.7 1 4 2.5 2.5M491 235.1c1.3-2.8-1.8-5.1-4.2-3.2-6.7 5.3-14.4 2.5-21.8.2-4.8-1.5-10.6-3.8-15.3-1.2-1.1.6-.6 2.4.6 2.4 10.9-.1 33.4 18.1 40.7 1.8m65.3-114.5c-3.7-10-10.6-19.3-17.6-26.2-12.1-12-27.5-20-43-26.4-1.4-.6-2.2 1.7-1 2.4 13.6 7.8 27.2 16 38.5 27 5.4 5.3 9.8 11.4 13.2 18.1 4 7.9 4.4 15.9 5.8 24.4.1.6.3 1 .6 1.4-3.3 19-8.5 37.6-11.7 56.6-3.2 18.6-10.5 35.9-21.4 51.3-1.6 2.2 1.7 4.2 3.5 2.7 13.5-11.2 19.7-30.8 23-47.4 2.1-10.6 3-21.2 5.4-31.8l.6-2.4c1 .3 2.1-.1 2.6-1.4 1.2-3 2.2-5.9 3.2-9 .6-1.9 2.5-7.9 5.4-6.1.5.3 1.2-.3.9-.9-2.8-4-6.2-1.7-8.6 1.5-.1.1-.1.2-.2.3.7-4.3 1.1-8.6.9-12.8 1.3-.5 2.4-1.6 2.5-3.1.3-3.1.2-6.2-.2-9.3 1 3.8 1.9 7.6 3 11.4 1 3.6 6.2 2 5.5-1.5-1.2-5.9-2.7-11.8-4.5-17.5 1.1.2 2.3-.3 2.6-1.6 1.6-9.1.4-19.5 0-28.8-.4-9.7-1.8-19.1-5-28.2-.3-.8-.9-1-1.5-.9-1.3-6.6-3.6-12.8-7.6-18.5-.9-1.3-3-.1-2.1 1.2 4.5 6.7 6.8 14.4 8.1 22.3.1.7.9 1 1.5.8 1.5 7.1 2.1 14.2 2.2 21.4-2.7-11.8-9.3-23-15.8-32.8-.9-1.3-3-.1-2.2 1.3 8.7 14.5 14.8 29.5 15.8 46.5.1 1.1.8 1.6 1.6 1.7-.1 2.6-.2 5.3-.1 7.9-4.7-12.9-10.8-25.3-18.5-36.8-.9-1.3-3-.1-2.2 1.3 8.3 13.1 12.9 27.3 16.8 41.9"/><path class="st0" d="M536.3 90.2c1.2 2.5 5.2.7 4.4-1.9-3.7-11.8-13.4-21.8-23.2-29-10.7-8-23.5-14.6-37.3-13.3-1.5.2-1.6 2.5 0 2.5 24-.3 46.2 21.7 56.1 41.7m15.5 49.6c-3-14-9.1-26.2-17.9-37.4-1-1.3-3.3.4-2.3 1.8 8 11.2 12.1 23.8 16.5 36.7.9 2.2 4.3 1.3 3.7-1.1M462.5 22.5c18.8-.5 36.3 2.5 49 17.5 1.9 2.2 4.9-.9 3.2-3.2-13-16.5-32.5-18.8-52.2-16.7-1.5.2-1.5 2.4 0 2.4m65.2 38.8c1.1 2.4 4.6.3 3.5-2-2.5-5.3-7.2-8.7-10.8-13.2-1.2-1.6-3.9.5-2.8 2.1 3.3 4.5 7.8 8.1 10.1 13.1M395.6 94.5c9.5-8 16.1-17.8 27.6-23.4 5.3-.7 10.6-1.1 16-1.2-11.1 4.5-20.4 12.3-30.3 19.2-1.3.9-.1 2.9 1.2 2.1 12.2-7.4 23.4-16 37.2-20.4.5-.2.8-.4 1-.8 1.1.1 2.1.1 3.2.2 3.3.3 6.6.8 9.9 1.5-1 .2-2 .4-3.1.6-1.6.3-1.2 2.9.4 2.8 4.1-.1 8.1-.5 12.2-.8 4.3 1.6 8.5 3.8 12.9 4.5 2.1.4 4.3-2.2 2.3-3.9-.4-.4-.9-.7-1.3-1 .4-.5.6-1.1.5-1.6 2.6 1.3 5.2 2.5 8 3.4 2.8.9 4.7-3.5 2-4.8-10.8-5.3-21.7-11.8-33.8-13.4-1.7-.2-2.5 2.2-.7 2.7 7.7 2.1 14.3 6.4 21.1 10.3-1.4-.2-2.8-.3-4.2-.4-6.9-2.8-15-3.9-21.9-4.7-10.6-1.2-21.3.2-31.6 2.3-.4-.4-.9-.5-1.6-.3-12.1 4.1-22.4 14.8-28.7 25.8-.6 1.1.8 2.1 1.7 1.3m178.8 437.3c-.3-1.4-2.6-1.4-2.9 0-1.4 7.6-7.3 41.3 9.5 37 .7-.2 1.2-.5 1.5-.9.2.2.4.4.6.7 1.9 1.9 5.3-.6 3.8-2.9-6-9.4-7.6-19.7-6.3-30.7.2-1.4-2.1-1.7-2.5-.3-2.3 8.4-3.1 18.8.4 27.1-7.6-6.1-2.3-21.4-4.1-30m40.5 38.5c2.9 0 3.7-4.7.7-5.1-3.5-.6-6.5-1.5-8.6-4.5-2.1-2.9-3.1-6.5-4-9.9-.6-2.3-3.9-1.3-3.5 1 1.5 8.8 4.7 18.6 15.4 18.5M329.2 390.1c.2 5.3-.5 12.2 1 17.9-.6.2-1.1.5-1.7.7-1.3.5-1.2 2.6.3 2.5.8 0 1.6-.1 2.4-.2.2.5.5 1.1.8 1.6 1.5 2.5 5.6 1.5 5.5-1.5 0-.5 0-.9-.1-1.4 1.3-.4 2.5-.7 3.7-1.2.3.1.5.3.8.4 1.3.4 2.8-.5 3.1-1.8 1.6-.7 3.1-1.3 4.7-2.1-1.5 2.8-3.4 5.3-5.9 7.3-2.9 2.3.8 6.9 3.9 5.1 9.1-5.5 10.8-18.7 11.5-28.3.9-11.4.2-24.1-3.7-34.9-.6-1.6-3.1-1-2.6.7 2.4 9.4 2.4 19.7 1.7 29.4-.3 4.5-.9 9.3-2.2 13.9-2.8 1.2-5.5 2.4-8.3 3.7-.5-1.6-.9-3.2-1.1-4.9-.4-4.6-.2-9.3-.4-13.9-.3-7.9-1.1-16.1-7.7-21.1-.8-.6-1.5.6-1 1.3 6 7.4 4.2 19.1 3.6 27.8-.2 3.5-1 9.5.5 13.7-.4.2-.9.4-1.3.6-.5-2.4-1.1-4.8-1.4-7.2-.5-4.6-.8-9.3-1.4-13.9-1.1-8.1-3.5-15.2-8.6-21.5-1.2-1.4-3.5.4-2.5 2 5.1 7.5 6.1 16.2 6.4 25.3m265 50.1c.7 2.1 1.8 3.9 3.3 4.8.6 3.1 1.3 6.2 1.8 9.3.1.9 1.3.5 1.4-.2.3-2.9.3-5.8.2-8.7 1.1-.6 1.7-2 1-3.4-.2-.3-.3-.6-.4-.9 2.8-10.5 7.8-19.6 14.2-28.5.6-.9-.7-1.9-1.5-1.2-6.4 6.1-12.3 14.1-15.4 22.7-.9-2.7-1.4-5.6-1.8-8.9-.7-6.3-.9-12.6-1.3-18.8-.1-2-3-2-3.1 0-.3 7.9-.6 15.8 0 23.7.1.8.1 1.8.3 3-.6-.6-1.2-1.3-1.8-2.1-2.3-3.7-3.6-8-4.9-12.1-2.3-7.3-3.5-14.8-6-22-.4-1.1-2.3-1-2.1.3.7 5.8 4.7 47.1 16.1 43m21.2-4.5l-.9-.6c-1.2-.7-2.9.8-2 2 .3.5.7.9 1 1.4-2.2 3.5-4.5 8.3-1.1 10.1.9.5 2.3.5 3-.4 1.1-1.3.8-2.5 1-4l.3-1.5c6.6 8 14.5 15.3 21.7 22.5 8.6 8.7 18 16.8 28.2 23.6 11.5 7.7 37.2 22 49 7.9 2.8-3.4-.7-7.9-4.6-6-14.8 7-32.2-3.8-44.3-12-9.5-6.5-18.2-14.1-26.8-21.7-6.9-6.2-13.6-13.4-21.2-19.1 1.8-3.7 4.3-8.3 8.1-10.3.6-.3.3-1.4-.4-1.3-4.6.6-8.1 5.4-10.7 8.8-.1.3-.2.5-.3.6"/><path class="st0" d="M597.4 492c2.7-7.7 2.9-15.9 2.4-24-.4-6.9-1-16.5-5.2-22.2-.9-1.3-3.7-1.1-3.4.9.8 6.6 3.6 13.1 4.7 19.8 1.3 8.1 1.7 16.9-.3 24.9-.4 1.3 1.4 1.8 1.8.6m9.1-16.4c.3-7.7.8-15.4.1-23.1-.3-2.7-4-2.7-4.2 0-.7 7.7-.2 15.4.1 23.1.1 2.5 3.9 2.5 4 0m-94.7 136.6c-.8.5-.1 1.8.7 1.3 21.1-13.8 44.4-34.8 51-60.1.5-2-2.5-3.4-3.4-1.4-5.3 12.3-10.8 23.3-19.4 33.7-8.2 10.1-18.2 18.9-28.9 26.5m37 14.1c12.4-12.4 13.7-30.7 19.2-46.5.4-1.1-.4-1.8-1.3-1.9v-.8c-.2-2.2-3.5-3.7-4.6-1.3-6.3 13.4-18.5 24.2-28.3 35.4-10.8 12.4-23.7 26.6-40.3 30.3-1.8.4-1 3 .8 2.7 17.2-2.4 30.4-15.9 41.8-28 5.9-6.3 11.3-12.9 17.4-19 2.5-2.5 5.9-5.5 8.7-8.8-3.4 12.8-5.4 26.4-14.8 36.3-1.2 1.1.3 2.7 1.4 1.6m-93.1 77.1c18.3-.9 36.8-3.1 54.9-6.4 11.3-2.1 22.5-5.1 33-9.6 8.9-3.9 21.2-9.5 26.3-18.3 2-3.5-1.9-7.2-5.3-5.3-4 2.2-7.3 5.7-11.1 8.3-4.7 3.2-9.9 5.8-15.1 8-7 2.9-14.4 5.1-21.8 6.8-7.1.9-14.3.9-21.3 1.4-19.2 1.2-38.4 6.9-57.6 3.1-1.5-.3-2.1 1.8-.6 2.3 4.8 1.3 9.7 2 14.5 2.3-30.6 1.9-68.4.3-88-26.1-1.1-1.5-3.4-.2-2.5 1.5 17.1 32.2 62.7 33.6 94.6 32m27.7 39.9c2.6.3 3.2-4.2.6-4.6-18.6-3.4-37.3-.4-56-.4-2 0-1.9 2.9 0 3 18.5 1 36.9-.2 55.4 2m20 157c.1 1.5.3 3 .4 4.5.2 1.9 2.8 1.9 2.9 0 .1-.8.1-1.6.1-2.4 7.5 3.6 19.1 4 24.4 4.1 7.2.1 24.3-1.3 25.4-10.9.1-.6-.6-.8-1-.6-8.3 4.5-16.5 5.7-26 5.2-5.3-.3-10.5-1.4-15.5-3.1-2.6-.9-4.7-2.6-7-4 0-3 0-6.1-.1-9.1 6.5 3.1 14 5 19.9 6.3 10.4 2.2 23.7 2.4 30.8-6.8.6-.7-.1-1.9-1.1-1.4-10 6-21.1 5.1-31.9 2-5.4-1.6-10.2-4.2-15-6.9 6.1 1.5 12.4.7 16.6-4.3.5-.6-.2-1.6-.8-1.1-6.1 4.4-13.3 2.5-19.6-1.3-1.3-14.2-3.8-28.3-6.6-42.1-2.5-12.5-5.6-24.8-8.9-37-2.9-10.6-5-22.9-9.8-33 4.2-.4 8.3-.9 12.4-1.6 2.2-.3 2-3.8 0-4.3-9.4-2.2-20.1.8-29.4 2.4-12.5 2.2-25.3 4.2-37.9 1.3-.8-.2-1.4 1.1-.6 1.4 10.4 4.7 21.3 4.3 32.4 3 5.2-.6 10.4-1.1 15.7-1.6 1.4 10.7 6.1 21.6 9.1 31.9 3.5 12.2 6.7 24.4 9.7 36.8 3 12.5 5.4 25 7.2 37.5-1-.9-1.9-1.9-2.8-2.8-1.9-2-5.3.6-3.8 2.9 1.3 1.9 3 3.8 5.1 5.5-2.1-.8-4.3 2.1-2.9 3.9 1.7 2.2 3.9 4.2 6.5 5.9.4 3.5.8 7 1.2 10.6-1.7.2-2.9 2-2.5 3.8.5 2.2 1.7 3.9 3.4 5.3"/><path class="st0" d="M397.2 913.6c-5 0-10.1-1.7-14.6.9-.6.4-.4 1.4.4 1.4 5.5-.3 11.2 1.5 16.7 1.8 7.6.4 15.2.3 22.7-.5 10.3-1.1 20-4.8 29.8-8.2.3.8.7 1.6 1.3 2.3 2.8 4 9 .5 6.6-3.9-.2-.3-.3-.6-.4-.9 1.2-.4 2.5-.8 3.7-1.1 3.8-1.1 2.2-6.7-1.6-5.9-1.1.2-2.1.5-3.2.8 0-2.1.2-4.2.4-6.3 3.9-1.6 7.7-3.5 10.9-6 1.8-1.4-.1-4.6-2.3-3.9-2.5.9-5 1.9-7.5 3 .2-.9.3-1.7.4-2.5 1.4-9.1 2.8-17.9 3.2-27 .7-14.4.5-28.9.2-43.3-.4-14.5-2.9-31.1.6-45.3.2-1-1.2-1.7-1.7-.7-5.4 12.3-3.8 27.5-4.1 40.6v1.8c-.7 0-1.3.4-1.5 1.4-3.8 18.7-7.3 38.3-21.8 51.9-.5.5 0 1.5.7 1.2 8.2-2.8 13.3-11.6 16.4-19.2 2.6-6.4 4.4-13 5.9-19.7-.2 10.5-.5 20.9-1.2 31.3-.7 10.2-2.9 20.1-4.5 30.2-.1.8-.3 1.7-.5 2.6-3.9 1.6-7.9 3.2-12 4.5-8.5 2.7-17.8 4.6-25.6 9.1-1 .6-.3 2 .8 1.8 9.5-1.6 19-4.6 28.4-7.1 2.4-.6 4.9-1.3 7.4-2.1-.2 2-.4 4.1-.3 6.1-9.7 3.4-19 7.8-29.3 9.6-7.9 1.3-16.2 1.3-24.4 1.3m43.5-124.7c4.6-7.5 8.7-15.3 14.2-22.2 1.7-2.2-1.3-5.3-3.1-3.1-5.9 7.2-9.9 15.4-13.5 23.9-.7 1.6 1.5 3 2.4 1.4m100.4 142.8c17.3 1.3 35.9-5.1 50.3-14.2 1.5-1 .2-3.2-1.4-2.4-15.5 8.1-31.7 10.7-48.9 11.2-3.6 0-3.5 5.1 0 5.4m40 .6c-6.9 1.7-13.8 3.2-20.8 4.2-4.2.6-8.5.9-12.7.9-3.8 0-7.4-1.6-11.1-1.5-1.9.1-3.1 2.5-1.6 3.9 5 4.4 14.8 2.8 20.8 1.8 8.9-1.4 17.6-3.8 26.1-6.7 1.6-.6 1-3-.7-2.6m-32.5 15.3c-2.7-1.5-5.2-3.4-8.2-4.5-2-.7-3.5 2.1-2 3.5 5.1 4.5 13.1 6.5 19.6 7.6 1.4.2 1.9-1.6.6-2.1-3.4-1.2-6.7-2.8-10-4.5m112 236.5c.2-.8-.7-1.3-1.3-.8-3 2.7-9.8 2.4-13.5 2.2-2.8-.1-5.7-.7-8.1-2.1-.2-1.7-.5-3.3-.8-4.9 3.3.1 6.6-.9 9.6-3.3.6-.5 0-1.4-.7-1.2-3.6.9-6.8.7-10-.2-1.7-6.3-4.1-12.4-6.5-18.4.2-.1.5-.2.7-.3 3-1.7.4-5.9-2.6-4.5-.4-1.1-.9-2.2-1.3-3.3-8.1-20.2-13.7-41.4-20.3-62.1-6.3-20-12.8-39.8-19.8-59.6-2.9-8.2-6.3-16.5-8.3-25-.7-2.9-.9-8.2-3.3-10.2-.6-.5-1.2-.4-1.8 0 0 0-.1 0-.1.1-.3.3-.4.8-.3 1.2 0 .1 0 .1.1.2 0 .1-.1.2-.1.3-.1.7.2 1.5.3 2.2l.9 6.9c1.1 8.8 4.4 17.5 7.1 25.9 6.6 20.8 13 41.6 19.2 62.5 5.9 19.7 11.4 39.7 18.8 59-1.1 1.2-.9 2.7 0 3.9.7.9 1.5 1.6 2.3 2.2 2 5 3.9 10 5.6 15.1-1.2-.6-2.3-1.3-3.5-1.9-2.9-1.5-5.4 2.6-2.6 4.4 2.6 1.6 5.4 3.2 8.3 4.4.2.8.5 1.7.7 2.5.2.8.4 1.5.5 2.3 0 1.1.2 2 .5 2.9 1 6.4 1.3 12.8 4.2 18.7 2.2 4.4 8.3.5 6.5-3.8-1.3-3-2-6.2-2.5-9.4 1.7.4 3.5.6 5.1.7 5 .2 15.6-.5 17-6.6M466.4 932c.5-2.2-1.9-4.4-3.9-3-4.7 3.1-7.5 6.3-13.2 7.8-6 1.5-12.4 1.4-18.6 1.4-8.6 0-21.4-1.8-28.6 4.1-.5.4-.1 1.3.5 1.3 12.3-1.1 24.1-.1 36.4 0h2.2c-8.6 1.6-17.1 3.7-25.2 7-1.8.7-1.2 3.5.8 3 7.7-2 15.7-3.2 23.5-4.3 7.8-1.1 16.5-1.3 24-4 2.6-.9 2.2-4.8-.7-4.9-1.9 0-3.8.1-5.6.3 4.1-1.9 7.4-4.5 8.4-8.7m-15.9 28.2c-4.4 1.5-9.7 4.3-14.4 4.1-1.8-.1-2 2.5-.4 3 5.1 1.8 11.3-.8 16-2.7 2.7-1 1.6-5.3-1.2-4.4m22.8 241.4c2 .9 3.7-1.8 1.8-3-5.7-3.7-9.1-9.9-12.4-15.8-.1-1.2-.2-2.4-.3-3.5-1.3-15.5-5.2-30.7-8.8-45.8-4.4-18.5-9.7-37-16.8-54.6-3.2-8.1-7-15.9-10.6-23.8-4-9-6.9-18.6-11.1-27.4-.5-1-2.1-.5-2.1.6.4 8.2 3.9 16.4 6.7 24.1 3.2 8.7 6.9 17.2 10.3 25.9 7.1 18.5 12 37.9 16.3 57.3 3.6 16.2 7 32.3 8 48.9.7 11.1.3 25.6 7.1 35.1.7.9 1.5 1.5 2.4 1.7 5.2 5.4 15 8.5 20.8 3.1 1.1-1 .2-2.7-1.2-2.8-3.2-.2-6.1.1-9.3-.8-1.8-.5-3.6-1.6-5.1-2.9.1-.8-.1-1.6-.5-2.5-1-1.9-1.8-3.9-2.5-6 4.5 5.7 11.1 10.2 17.3 6.4 1.7-1 1.1-4.1-1.1-3.9-7.5.8-12.8-7.4-16.2-13.1-.6-.9-1.5-1.3-2.4-1.2-.2-1.5-.3-2.9-.4-4.4 2.7 3.5 5.9 6.6 10.1 8.4m23.7 34.3c-.3-.1-.6-.2-1-.2-6.7-.1-13.4-1.1-20.1-1.5-2.9-.1-10.3-1.2-11.9 2.3-.4.8.2 1.8 1.2 1.5 4.1-1.1 10.2.6 14.4 1.2 5.2.7 10.4 1.5 15.6 1.5-2.1 6.9-2.5 14.5-4.1 21.4-.4 1.9-.9 4-1.6 6-9.9-2.2-21.1-.2-30.6 1-7.3 1-14.6 2.1-22 2.4-6 .3-11.2-1.1-17-1.8-.7-.1-.9.8-.5 1.3 6.5 7.7 24 4.8 32.5 4.2 10.5-.8 23.3-3.4 34.1-.7-1.4 1.3-3.9 1.6-4.2 3.5-9.3 1.7-18.1.9-27.6 0-10.8-1.1-21.7-.7-32.6-.2-11.5.4-22.9 1.2-34.3 2-11.4.7-23 .6-34.3 1.9-1.6.2-2.4 2.8-.4 3.1 22.5 3.3 46.4-.1 69-.6 11.6-.3 23.3-.2 34.8 1.1 9.8 1.1 20.7 2.9 30.2-1 1.4-.6 2.1-1.6 2.4-2.8 1.7-.8 3.1-2.3 4.3-4.2 4.1 1.9 7.7-4.4 3.5-6.6-.2-.1-.5-.2-.8-.4 3.1-11.5 2.9-27.8 4-32.9.4-1.7-2-3-3-1.5m61.3 71.5c20.2-5.8 39.8-16 61.2-16.4 4.2-.1 4.2-6.6 0-6.6-21.1 0-40.5 10.4-60.3 16.4-24.7 7.5-49.5 14.5-74.2 22-23.7 7.3-47 15.3-70.3 23.6-9 3.2-18 6.3-26.8 9.8-6.7 2.7-14 5.5-19.5 10.2-1 .8.3 2.3 1.3 1.7 15-8.1 31.6-12.7 47.7-18.1 22.9-7.7 45.8-15.2 69-22.1 23.9-7 47.9-13.7 71.9-20.5m73.2-13c-29 9.9-58.2 18.8-87.5 27.7-15 4.6-29.8 9.4-44.2 15.5-15.2 6.4-30 13.9-45.6 19.3-1.6.5-.9 3 .7 2.5 13.6-4.3 26.7-10 39.9-15.7 15.6-6.7 31.6-11.9 47.9-16.8 29.9-9 61.2-15.9 90.3-27.3 3-1.3 1.8-6.3-1.5-5.2"/><path class="st0" d="M694.7 1294.7c2.5-1.1 1.3-4.4-.9-4.9 1.1-1.7.4-4.7-1.9-5.3-10.2-2.4-21.5-1.7-31.9-2.7-10.8-.9-21.5-2.7-32.2-4.5-.4-6.6.2-13.2 1.2-19.8 7.9-5.4 19.1-6.7 28.2-4 1.8.5 2.9-2.1 1.3-3-6.8-3.7-18.9-5-28.1-1.9 0-.1 0-.2.1-.4 1.3-8.8 3.9-19.2 1.2-27.9-.5-1.5-3.2-1.8-3.4 0-1.3 9.5-2.3 18.9-4.2 28.4-.3 1.3-.5 2.6-.7 3.8-2 1.8-3.5 4-4.3 6.7-.6 1.8 1 3.5 2.6 3.8-.8 5.8-1.3 11.6-1.2 17.5 0 1.7 1.2 3.4 2.9 3.8 11.3 2.7 22.8 4.2 34.3 5.3 9 .9 18.8 2.3 28.2 1.9-9.2 2.7-18.2 6.1-27.3 9-12.3 3.9-24.6 7.8-36.8 11.9-23.6 8.1-47.1 17.5-68.2 31-1 .6-.1 2.1.9 1.5 22.7-11.9 46.4-21.2 70.8-29 11.5-3.7 23.1-7.1 34.7-10.5 11.3-3.2 23.5-6 34.7-10.7m68-19c-20.6 8.8-40.6 19.1-61.2 28.1-21.4 9.4-42.9 18.4-64.2 27.9-1.3.6-.4 2.9 1 2.3 21-8.4 42-16.9 62.8-25.7 21.3-9 43.5-17.6 63.6-29.2 2.3-1.3.3-4.4-2-3.4m42-.4c-33.4 13.2-64.8 31.6-95.9 49.3-1.6.9-.2 3.3 1.4 2.5 31.7-16.7 63.6-32.7 96.1-47.8 2.2-1.1.6-4.9-1.6-4m-100.3 8.5c-1.9 1.9.5 4.8 2.8 3.6 6.2-3.1 11.8-7.4 18-10.5 6.8-3.4 13.9-6.2 21-9.1 11.8-4.9 23.4-10.3 33.5-18.4 1.2-.9-.4-3-1.6-2.1-11.6 8.9-25.3 13.9-38.9 19-11.4 4.4-26.1 8.7-34.8 17.5m-4.4-13c14.5-9.3 31.3-14.4 45.6-24 .8-.6.1-1.8-.8-1.3-15.3 8.1-32.5 12-46.7 22.2-1.8 1.4-.1 4.4 1.9 3.1"/><path class="st0" d="M487.1 1303.1c21.2-6.7 42.3-13.7 63.7-20.1 18.4-5.5 37.4-10.8 54.3-20.1 3.8-2.1.4-7.9-3.4-5.8-16.4 9.2-34.7 14.4-52.6 19.9-21.3 6.5-42.3 13.7-63.5 20.6-22.9 7.5-45.7 14.9-68.7 22-11 3.4-22 6.6-32.9 10.1-11.2 3.5-22.1 7.6-33.7 9.5-1.7.3-1.3 3.3.4 3.1 22-2.8 43.7-10.9 64.9-17.2 23.9-7 47.7-14.4 71.5-22m22.2-24c10.3-8.2 25.4-11.4 37.5-16.1 14.2-5.5 28.4-10.5 43.1-14.4 1.4-.4 1.1-2.7-.3-2.5-16.7 1.9-32.8 8.2-48.6 13.7-7.2 2.5-14.5 4.8-21.8 7.3-5.3 1.8-10.7 4-13.6 9-1.6 2.6 1.7 4.6 3.7 3m-117 29.8c5.4-1.4 10.8-2.6 16.2-3.7 5.9-1.2 12-1.2 17.8-2.4 2.3-.5 2.4-4.4 0-4.8-9.2-1.3-19.6 1.8-28.5 4-11.3 2.8-22.6 6-33.9 8.8-24.6 5.9-48.5 14.1-73.5 18.5-1.3.2-1 2.3.3 2.2 23.8-1 46.7-9.1 69.6-14.8 10.7-2.6 21.4-5 32-7.8m-48.2-7.5c8.2-1.9 15.9-2 24.2-2 2.8 0 3.5-4.4.7-5-14.1-2.8-29.5 2.9-42.7 7.3-15.9 5.3-31.2 9.8-48.2 9.3-1 0-1.3 1.6-.2 1.8 14.5 3.3 29.4-.7 43.3-4.9 7.6-2.2 15.2-4.6 22.9-6.5m-5.9-15.5c3.6 0 3.5-5.1 0-5.5-12.2-1.2-24.8 2.6-36.3 6.1-12.6 3.8-25.1 7.4-37.7 10.8-1 .3-.8 1.8.2 1.8 11.6.1 23.1-3.9 34.1-7 13.3-3.7 26-6.2 39.7-6.2m13.2-20.9c-19 3.6-38.5 9.1-58 6-1.6-.2-2.3 2.1-.7 2.5 19.8 4.1 40.4-.1 59.6-4.9 2.4-.6 1.4-4-.9-3.6m155.5-11.5c16.5-4.8 33.4-10.7 49.2-17.4.9-.4.3-1.8-.7-1.5-16.4 4.9-34.9 7.3-49.9 15.7-1.8.9-.6 3.8 1.4 3.2"/><defs><path id="SVGID_3_" d="M0 0h807.4v1368.4H0z"/></defs><clipPath id="SVGID_4_"><use xlink:href="#SVGID_3_" overflow="visible"/></clipPath><path class="st1" d="M789.5 295.4c6.7-4.6 7.7-14.5 1.6-20.5-1.3-1.3-2.8-2.1-4.6-2.6 3.8-8.6-1.2-18-10.1-20.8-6.1-1.9-13.5-.6-19.7 0-3.8.3-7.8.5-11.5 1.3 0-.2.1-.4.1-.5.1-13.4 2.4-30.2-7.1-41.1-1.8-2-16.4-11-17.9-5.7-1.3.4-2.5 1.7-2 3.3 3.2 12 4.7 22.5 3.4 35-1.3 11.9-4.3 23.5-5.9 35.3-1.6 11.2.7 22.3 2 33.5.7 5.4 1.2 10.8 2 16.2.5 3.7 2 7.7 1.1 11.3-4.2 11.4-10.9 21.4-16.9 31.9-6.3 11.1-11.7 22.6-17.1 34.2-2.9 6.1-7.1 13.3-10.5 20.9-1.9-1.3-3.9-2.4-5.7-3.7-6.1-4.6-11.8-9.4-17.1-15-8.3-8.9-16.1-18.2-23.3-27.9.3-.5.4-1.2.4-2-.7-13.9-1.1-28.8-5.2-42.3-3.4-11.1-10.9-19.7-20-26.5-11.6-8.8-26.4-14.5-40.8-16.4-2.7-.4-5.4-.8-8.2-1.2.2-.7.2-1.5-.2-2.4-2.3-4.6-3.2-9.6-6.4-13.7-2.7-3.6-6.8-5.7-10.9-7.3-9.4-3.5-20.2-1.1-29.8.1-.4 0-.6.2-.8.4-.1-.1-.1-.3-.2-.4 7.7-5.6 14.7-12.1 20.4-18.5 15.2-17 25-42.7 28.2-65.7 2.4-.9 4.9-3.1 6.3-5.3 4.2-6.5 6.6-14.8 8.3-22.2.8-3.4 2-9.4 1.3-14.3 1.4-5.7-.3-12.5-.8-18-.8-8.2-.2-16.8-.3-25-.2-16-1.5-31.8-8.1-46.4 3.3-4.3 8.1-10.9 6.4-16.2-2-6.5-7.1-8.7-12.2-6.8-.7-3.9-1.3-7.8-3-11.5-.8-1.7-2.9-1.8-4.4-1.1-4.7 2.3-7.5 6.2-9.9 10.5-5.8-7.7-13.1-14.3-21-19.8C511 2.3 499.5-3 489.5 2c-1.2.6-.3 2.4.9 2.1 10.4-2.9 20.8 4.3 28.4 10.6 7.3 5.9 14 13.3 19 21.3 1.2 1.9 4.4 2.2 5.6 0 1.9-3.7 3.7-7.8 6.7-10.6.9 3.7 1 7.5 1.9 11.2.6 2.5 3.8 3.1 5.6 1.5 2.6-2.5 6.4-1.1 5.4 2.7-.6 2.2-2 4.2-3.1 6.1-1.1 1.8-2.5 3.4-3.2 5.4-1.1 3.3 2.9 4.7 5.1 2.9 3.8 14.3 3.7 30 3.3 44.6-.2 7.7-.6 15.5-.9 23.2-.1 4.1.1 8.2.3 12.4-2.6.3-5.1 2.1-6.7 4.5-1.6-7.1-2.9-14.3-4.3-21.4-.1-.7-.8-1.4-1.6-1.6-3.2-8.9-5.4-18.2-10.9-26.1-.7-1-1.7-1.4-2.6-1.3-1.8-5.6-7.8-10.9-11.6-14.2-6.4-5.8-15.4-12.5-24.1-14.2-.7-.1-1.5.8-.8 1.4 5.9 4.9 12.7 8.5 18.5 13.6 3.6 3.2 6.9 6.7 9.7 10.7 2 2.8 2.8 6.3 5.2 8.8.5.6 1.4.7 2.1.5 4.6 8.3 6.2 17.8 9.8 26.5.6 1.5 2 1.8 3.3 1.5 1.5 6.2.8 13.5 1.5 19.5.3 2.3 2 3.3 3.7 3.1 0 .8.2 1.5.4 2.2.2.6 1.3 1 1.6.2 1-2.3 2.2-4.4 3.8-6.3 1.6-1.9 2.6-2.2 3.3-1.7 0 1.2.1 2.5 0 3.7 0 1.1.4 1.9 1.1 2.5-.1 3.5-.8 6.9-1.6 10.3-1.1 4.4-2.6 8.8-4.4 13-.9 2.2-2.1 4.3-3.4 6.3-.1.2-.2.3-.3.4-1.2-1-3.5-1-4.7.3-.4.2-.8.4-1.1.7.9-3.8 1.4-7.6 1.4-11.5 0-1.6-2.6-1.6-2.5 0 .1 4.7-.7 9.3-1.9 13.8-.4 1.5 1.9 2.2 2.4.7v-.1l.3.6c-6.3 21.8-10.7 43.6-25.4 61.9-14.8 18.4-41 36.8-65.6 32.5-24.9-4.3-44.1-27.8-50.9-50.8-3.4-11.4-4.8-23.4-6.9-35.1-1.3-7-2.5-14.1-3.4-21.2.6-.9.8-2.1 0-3.3-.2-.3-.4-.6-.5-.9-.7-6.5-1-13.1-.6-19.7.1-.9-1.4-1.1-1.6-.2-1.1 4.1-1.7 8.1-2.1 12.2-.5-1-1-2.1-1.5-3.2-.9-2.1-1.6-4.4-1.8-6.8-.2-2.8 1.4-3.7 3.2-5.4l.1-.1c.7-.6.7-1.5.4-2.2.3-.1.7-.2 1-.3.1.8.2 1.7.3 2.5.3 3.5 5.6 3.6 5.5 0-.1-18.5-8.5-39.5.1-57.1.4-.8-.6-1.7-1.3-1-6.3 6.2-6.5 16.9-6.7 25.2-.1 4.1.1 8.2.4 12.3-1.3-6.3-2.2-12.7-3-19.2-.2-2.1-2.1-22.1-.4-28.9 1 .8 2.8.6 3.5-.9 3-7.2 7.8-29.5 17.9-28.7.7.1.9-.8.5-1.3-7.1-8.2-17 14.4-20.9 24.7-8.8-.1-6.9 22.5-6.7 27 .4 8.6 1.5 17.2 2.9 25.7.2 1.3.4 3 .7 4.8-.6.1-1.2.5-1.1 1.3.2 2.2 1.2 3.9 2.1 5.9 1 2.2 1.6 4.4 2.5 6.6-5.7 0-7.6 7.2-6.8 11.9 1.3 6.8 4.9 13.1 8.4 19 .1.2.3.4.5.6.2 6.6 1 13.1 2 19.7 2.2 14.8 4.2 29.8 9 44 7.7 22.8 28.6 43.5 52.3 49.1-.1.1-.3.2-.4.3-.4.3-.5 1-.4 1.4.2.6.6 1.1.9 1.7.5 1 .7 2.2.9 3.3.1.4.1.8.2 1.3-5.7-.2-11.9.5-15.9 4.2-.3-1.4-1.1-2.7-2.1-3.9-2.3-2.6-6.2-2.4-9.3-2-2.1.3-4.3 1-6.4 2-4.6-.8-10 .2-14.4.9-6.2 1-10.5 3.7-14.2 8.8-3 4.1-5.9 8.5-8.6 13.1-.7-.8-1.8-1.2-3.1-.6-17.4 7.3-35.6 12-53.5 17.9-8.8 2.9-17.7 5.8-26.6 8.2-8.3 2.3-17 3.2-25.2 5.5-2.2-8.9-4.3-17.8-6.4-26.8-4.7-20.8-9.4-41.7-12.8-62.8-3.4-20.8-9-41.2-12.6-61.9-.1-.4-.3-.6-.6-.8.1-.9-.4-1.9-1.4-2.6-5.6-3.9-16.8.5-22.8 1.8-1.1.2-2.2.5-3.3.9-.1-.4-.4-.8-.8-1.1-6.3-5.7-2.1-13.4-2.6-20.8-.1-1.8-1.7-3-3.5-2.6-6.8 1.6-10.9 6.4-13.5 12.7-2 4.9-3.3 13-1 18.2-.1 0-.3.1-.4.1-1.2-5-2.8-10-3.8-14.8.8-.1 1.5-.6 1.8-1.5 1.5-5.2-2.1-14-8.3-14.3-4.6-.3-8.7 1.9-13.2 2.3-5.1.4-10.8-1.6-15.6 1-2.4 1.4-4.7 3.6-7.3 4.6-2.1.7-4.8-.1-7 .3-5.5 1.1-9.1 4.7-12.5 8.9-5.7 7-12.7 17.8-12.9 27.1 0 .3.1.6.2.8-6.9 1.2-13.9 2.2-20.7 3.2-10.6 1.6-22 2.8-31.5 7.9-.7-.2-1.5.3-1.8 1h-.1c-1.3.3-1.2 2.7.4 2.7 1.1 7.8.2 15.7 1.3 23.4 1.6 11.1 3.8 22.3 5.9 33.3 4.2 21.8 10.1 43.2 15.6 64.6 5.5 21.3 9.9 42.8 15.3 64.1 2.7 10.8 5.4 21.7 8.7 32.3 3.1 10.1 7.6 19.7 9.7 30 .5 2.2 2.3 2.9 3.9 2.6.1.1.3.1.4.1 5.4-.5 10.8.3 16.3-.3 6.8-.7 13.5-2.2 20.1-3.5 15.3-3.1 30.7-5.3 46-8.1s30.3-6.8 45.3-11.1c7.3-2.1 14.6-4.3 21.9-6.5 6.6-1.9 13.5-2.9 20.1-4.9 1.7-.5 2.4-1.9 2.3-3.2 1.5-.3 2.6-1.5 2.4-3.5-1.1-10.4-3.4-20.6-6-30.9 3.7.2 7.8-1 11.1-1.8 1.8-.5 3.7-.9 5.6-1.4 1.4 7.8 5.2 16.7 13.6 17.2h.1c1.1 0 2.2-.3 3-1 3.8 0 7.7-.8 11.4-1.7 5.2-1.2 12.5-3.2 15.4-8 1.9-3.1-1.7-6.1-4.7-4.7-4.3 2.1-7.9 5-12.4 6.7-2.9 1.1-6 1.9-9.1 2.6-1.1-11.3-3.5-22.3-6.2-33.4-3-12.8-5.7-25.9-9.6-38.4 6.1-1.7 11.9-3.7 17.4-5.3 18-5.3 36.1-10.2 53.6-17-4.7 8.6-8.9 17.6-12.5 26.3-6.8 16.1-13.5 33-15.4 50.6-1 9.4-.5 18.8.3 28.2.8 9.8 1.1 20.2 3.2 29.8.1.4.2.7.4 1-.6 4.3 1.4 9.5 3 13 .6 1.4 2.4 1.7 3.7 1.5.6-.1 1.1-.5 1.5-.9-4.1 24.7-9.3 49.3-10.7 74.2-1.2 22.3-1.5 44.6.9 66.8 1 9.4 4.2 19.2 2.6 28.7-1.3 7.5-6.5 16.9.9 22.9 2.2 1.8 6.5.2 5.3-3.1-2.9-8.1 1.8-16.1 2.1-24.4.4-9.6-2.8-19.7-3.7-29.2-2.2-22.2-1.5-44.6-.3-66.8 1.2-21.4 4.7-42.6 7.4-63.9 2.4-18.8 5.4-38.5 1.9-57.3-.1-.8-1.3-.6-1.3.2 0 11.1-.9 22-2.3 33-2.6-25.8 4.1-50.4 13.9-74.6 5.9-14.6 13.5-28.5 21.6-42 4.1-6.8 8.5-13.3 13.5-19.5 2.3-2.9 4.7-6.2 7.4-9.3.2 1.2 1.2 2.3 3 2.2 4.7-.1 9.8-1.4 14.7-3.4-3.2 6.4-5.9 11.8.8 18.4 8.8 8.6 24.3 7.6 35.4 6.2 12.7-1.6 25.9-4.4 37.5-9.7 4-1.8 13.8-7.5 16.3-13.4.4 0 .9.1 1.4 0 3.7-.1 3.9-4.8.8-6.1-1.6-.7-3.3-1.3-4.9-1.9-.1 0-.1-.1-.2-.1-.5-.3-.9-.5-1.4-.5-1.3-.6-2.7-1.2-4-1.8-2.2-1.2-4.6-2-7-2.4-.4-.7-.8-1.3-1.2-2 .1.1.1.1.2.1 4.9 1.7 10 1.2 15.1 1.3 7.4.2 14.8 3.4 21.9 5 7 1.6 14 2.3 21 4.4 7.4 2.3 14.3 5.8 20.9 9.8 10.1 6.3 18 14.9 21.7 26.3 3.1 9.5 3.5 20.2 3.8 30.5-7.9-10.9-16.9-20.9-24.2-32.4-2.9-4.5-6.1-10.3-10.6-13.6-4.5-3.2-10.4-4-14.8-7.1 1.2-5.4 3.1-12-2.6-14.7-3-1.4-7-.1-10.2-.7-5.2-1-9.9-3.3-15.2-4-1.8-.2-2.1 2.4-.7 3.1-5.6 4.3-8.1 10.5-10 17.3-2.9 10.5-5.5 21-6.7 31.8-2.3 21 1.9 43.1 10 62.5 8.1 19.3 15.7 37.9 20.7 58.3 2.4 9.9 4.5 20 6.4 30.1.9 4.6 1.6 9.2 2.3 13.9 0 0 0 .1-.1.1-7.5 27.6-2 56.3 1 84 1.2 11.2 2.4 22.5 5.3 33.5 1.7 6.3 4.2 13.6 8.7 18.9-9.6 10.7-25.6 13.1-39.1 16-20.6 4.5-40.5 11-61.5 13.8-22.6 3-45.7 3.2-68.3.8-11-1.2-22.5-3.4-32.8-7.9-6.5-2.8-12.9-7.3-19.9-8.8-1.3-.3-2.1 1.5-.9 2.2.7.4 1.5.8 2.2 1.2-1.1 7.4-2 14.8-2.7 22.3-.7 0-1.5 0-2.2.1-2.8.2-4.7 4.5-1.6 5.9 1.1.5 2.1.8 3.2 1.1-.7 9.9-.9 19.9-.8 29.7.1 10.7 1.5 21.3 1.7 31.9.2 10.9-.8 21.8-1.3 32.7-.9 22.7-.4 45.6-.8 68.4-.2 11.5-.1 23 .6 34.5.5 9.9 4.4 19.1 5.8 28.8v.1c-2 9.3 9.4 14.1 25.8 15.6 3.7 15.7 2.2 32.1 7.1 47.5 1 3.2 2.3 6.4 3.8 9.6 3.1 38.5 21.5 74 32.3 110.8 6.4 21.6 11.5 43.8 15.3 66 1.3 7.4 1.8 14.9 2.7 22.3.6 5.6 1 12.5 4.3 17.3 2.6 3.7 8.6.3 6.1-3.6-3.3-5.1-3.2-13.1-3.8-18.9-.8-7.2-1.6-14.4-2.9-21.6-3.8-21.4-8.9-42.6-15.1-63.4-9.9-33.8-25.9-65.8-33.7-100.2 4.4 6.3 9.9 11.7 16.6 15 2.4 1.2 4.9-1.8 2.9-3.8-10.7-10.6-19-20.6-23.4-35.3-4-13.4-2.6-28.8-8.6-41.6 22.9 1.4 53.4-3.1 70.5-10.6-2.6 25.3-5.2 51.6 2.5 76.2 7.6 24.2 21.6 45.8 27.4 70.7 6.6 28.1 6.3 58 6.5 86.7.1 13.2-.1 26.4-.4 39.7-.2 8.7-.3 18.1 2 26.8-3.3 0-6.8.6-9.9 1.1-9.5 1.3-16.7 2.2-25.1-3-.2-.1-.4-.1-.5-.1-.7-2.3-3.2-3.5-5-5.1-3.1-2.8-6-5.8-8.9-8.7-1.4-1.3-8.7-9.7-11.3-6.6-.5.6 0 1.5.8 1.3-.4.1.5 1.3 1.4 2.4-3.7.6-6.7 3.4-9.4 6-.3.3-.7.6-1 .9-1.9-.3-3.8.9-3.8 3.1v.5c-.6.5-1.1 1.1-1.6 1.6-.6-.6-1.2-1.1-1.9-1.4-2.6-1.5-5.1 1.4-3.9 3.9.3.6.6 1.2 1 1.8-2 1.6-4.1 3.2-6.5 4.6-14.9 8.8-31.5 13.3-47.9 17.8-18.6 5.1-44.2 25.8-27.6 46.4.9 1.1 2 1.2 3 .8 5.8 4.9 17.9 2.8 24.2 2.3 16.2-1.3 32.5-1.8 48.8-2.1 16.8-.4 33.6.9 50.5.2 6.5-.3 12.9-1.1 19.5-1.1 4.4 0 10 .4 13.8-2.3h.1c1 .1 2-.2 2.8-1.1 6.5-7.5 9.1-17.7 10.3-27.3 1.1-8.2 1-20.8-6.1-26.6 1.6-.1 3.3-1.2 3.8-2.9.8-1.3.8-3.2-.5-4.3-5.1-23-2.2-47.6-2.3-71.1-.2-28.1-1-56.3-6.5-84-4.9-24.9-18.8-47-27.4-70.7-4.5-12.4-6.4-24.8-6.4-38-.1-12.8 1.7-26.4-1-39-.1-.3-.2-.6-.4-.8 4.5-2.3 7.8-4.8 9.4-7.6.7-1.2.5-2.5-.2-3.5.5-12.1-.6-24.3-1.6-36.3-1.2-13.1-1.4-26.3-1.6-39.5-.1-12.7.2-25.5-.3-38.2v-.3c.8-2.4 1.6-4.8 2.3-7.2.5 2.9 1.1 5.7 1.6 8.6 3.4 18.5 7.3 36.9 11.3 55.3 2.5 11.8 4.3 23.3 5.8 35.2.7 5.4.9 15.3 4.9 20.4-2 13.5 16.4 16.3 39 13.6-.3.1-.6.3-.8.6-7.7 11.1 4 30.4 9.1 40.3 10.4 20.4 21.1 40.4 29.7 61.6 10.5 26 17.8 53.5 26 80.3 8.6 28 16.1 56.4 25.2 84.2.2.8.7 1.3 1.1 1.7-.6-.1-1.2.2-1.3.9-1.6 8.3-2.8 16.6-4.8 24.8-2.2 8.7-5.6 17.1-7.8 25.8-2.1 8.2-2.7 16.8-2.5 25.3.2 5.7.6 13.7 3.4 18.8 2.2 4.1 6.7 5.3 11 6.4 7.9 2 16.4 2.2 24.5 2.2 19.8.2 40-1.3 59.6-3.4 2.6-.3 3.8-2.5 3.5-4.4 1.4-.7 1.9-2.7 1.4-4.1 3.2-5.7.4-13.1-2-18.7-4.3-10-9.7-19.1-13.2-29.6-2.8-8.6-5.7-17.3-8.2-26-1-3.6-1.7-8.9-3.8-12.7 1-1.1 1.5-2.7.6-4.6-5.1-10.4-9.6-20.3-12.3-31.7-2.9-12.1-3.9-24.5-4.5-36.9-1-23.4.4-46.9-1-70.3-1.5-24.4-8.3-47.6-19.9-69.1-11.5-21.3-29.4-38.2-42-58.7-1.8-7.6-3.5-15.4-6.4-22.6 5-2.9 8.6-5.9 10.2-8.6 1.9-3.3-2.3-6-5-3.8-15.2 12.6-37.3 18.5-56.1 23.1-10.9 2.6-22.2 4.7-33.4 4.5-5.6-.1-14.1-.6-16.1-6.5 2 .5 4.1-1.1 4.3-3 12.1 7 31.7-.4 43.4-3.9 19.2-5.8 38.7-10.6 57.7-17.1 2.7.6 6-2.4 4.4-5.8-4.7-9.9-5.9-21.7-7.7-32.3-2.6-14.9-5.4-29.8-7.9-44.7-3.7-22.4-6.8-44.8-9.5-67.4-1.8-15.5-3.7-31-6.3-46.4 1.7-1 2.3-4 .1-4.9-.3-.2-.7-.3-1-.4-.7-4.2-3.5-23.2-9-20.7-.8.3-.3 1.3.4 1.4 1.6.2 2.8 10.5 3 11.7.3 2 .6 4 .9 6.1-5.7-1.6-11.6-2.2-17.4-3.3-9.1-1.7-17.6-4.4-26-8.2 5.8-1.4 11.6-2.8 17.4-4.1 12.6-2.7 32-6 39.5-18.1.4.2.8.4 1.1.6 3.3 1.6 6.4-2.2 3.9-5.1-13.9-16.1-15.2-36.4-17.9-56.6-.9-6.8-2-13.6-3.1-20.5 7 6.3 21.9 3.9 29.7 2.7 11.4-1.7 27-2.6 25.9-17.8-.1-1.5-1-2.5-2.1-3.1.5-16.5.9-33.1 1-49.7.1-9.8-.4-19.6-1.2-29.4-.2-2.3.2-6.3-.1-9.9 7.6 7 16.3 13 24.2 18.9 8.2 6.2 16.4 12.2 25.9 16.2 8 3.3 19.9 7.5 29 5.6.6.6 1.4 1 2.3 1 12 0 18.4-13.3 23.7-22.1 7.6-12.7 12.7-25.6 15.1-40.2 2.8-17.3 5-34.7 7.4-52.1 2.2-15.9 6.3-31.7 7.1-47.8.7-.4 1.3-.7 1.9-1.1 2.9-1.8 7.1-4.8 6.9-8.7 0-.6-.4-1-.9-1.3 6.7-.7 13.2-2.8 16.7-6.6 6.6-3.9 7.3-12.9 1.1-17.5 6.1-1.1 10.3-8.8 5.2-14.1m-588-109.7c1.1-4.8 3.6-9 7.7-11.3-.5 7.3-2.8 13.9 2.8 20-1.9.7-3.8 1.4-5.7 2-2.1.7-4.1 1.2-6.2 1.6.7-4 .4-8.2 1.4-12.3m-70.4 7.9c2.1-3.3 4.6-6.3 7.4-9.1 3.7-3.6 8.4-2.5 12.9-3.2 2.7-.4 5-2.6 6.9-4.2 3.8-2.9 10.1-1.4 14.5-1.3 3.1.1 6.3-1.2 9.3-2 5.9-1.6 7 4.2 8.2 8.5-2 3.6-.5 8.5.3 12.3 1 5.2 1.6 10.3.3 15.4-.3 1.4-.8 2.7-1.4 4-.1-1.8-.2-3.5-.3-5.2-.7-7.4-1.7-15.3-3.3-22.5-.4-2-3.6-2-4 0-1.7 8.9 1.3 18.5 1.6 27.4.2 5.6-.2 11.2-5 14.7-2.7 2-6.3 2.9-9.7 3.2 1.3-.9 2.4-1.8 2.9-2.4 4.5-4.2 5.4-9.1 5.1-15-.4-9.2-2.1-20-4.8-28.7-.5-1.7-3.4-2-3.7 0-1 5.5.1 11.2.8 16.7.9 6.3 3.2 14.9-.1 20.8-1.8 3.2-5.2 5.2-8.2 7.2-1.4.9-2.9 1.8-4.4 2.6-.6.3-1.3.6-1.9.9h-.1c-.1-.1-.2-.2-.4-.2.3-.2.5-.5.7-.7 2.1-2 5.9-5.2 6.3-8.3.7-.4 1.2-1.1 1.3-2.1.1-2.7-1.3-5.5-1.8-8.2-.7-3.7-1.2-7.5-1.6-11.3-.5-4.8-.6-12.7-5.2-15.6-.6-.4-1.4.3-1.2.9 1.6 6.9 1.1 13.8 1.4 20.8.1 3.5-.1 9.8 2.2 13.4-1.8 1.8-2.9 4.5-4.3 6.4-1 1.4-2.2 2.7-3.4 4-3.3-4-3.1-7.1-2.8-12.1.2-3-.4-5.3-1.5-8-2.6-6.3-4.3-13-7.4-19.1-1.2-2.3-4.3-.6-3.9 1.6.8 4 1.7 7.9 2.5 11.8.1.6.3 1.2.5 1.8-.2 0-.4.1-.6.1-4.9 1.5-9.9 2.6-14.9 3.6 4.3-5.5 6.9-12.8 10.8-18.9m143.6 247.9c-8 2.4-16.1 4.8-24.1 7.2-15.8 4.7-31.6 8.7-47.7 11.8-16.1 3.1-32.3 5.6-48.3 9-8 1.7-16 3.2-24.2 3.7-.9.1-1.9.2-2.8.4-2-9.4-5.7-18.3-8.8-27.4-3.6-10.4-6-21.4-8.8-32.1-5.8-22.1-10.4-44.5-16.1-66.6-5.6-21.5-11.7-42.8-16.3-64.4-2.3-11-4.2-22.1-6.7-33.1-1.7-7.3-1.1-15-3.5-22.1 10.1-.9 20.5-3.8 30.5-5.1 12.8-1.6 27-3 39.3-7.2.5-.2.8-.4 1.2-.7.5 1.3.9 2.5 1 3.9.5 3.8-1.4 7.1-.5 11.2.7 3 3.1 5.6 5.2 7.8 1.8 1.8 4 1 5-.7 1.7-.5 3.2-1.7 4.5-2.9l.1.1c-.3.4-.5.9-.2 1.4 1.9 3.3 7.5 1 12.1-1.8 6.9 3 17.8 1.4 21.6-5.9.6-1.2 1.1-2.4 1.5-3.7 1 .4 2.1.3 3-.6 6.4-6.3 7-13.6 5.7-21.1 6 .6 13.5-2.1 18.4-3.4 9-2.4 17.9-3.2 27.1-4.2 0 .2.1.3.3.5-1.8 18.7 5 38.2 8.4 56.3 3.9 20.9 7.5 41.8 12.1 62.6 4.5 20.5 9.4 40.8 14.3 61.2 2.4 9.9 4.3 19.8 6.8 29.6 2.7 10.7 6 21.3 7.1 32.3v.1c-5.8.1-11.8 2.3-17.2 3.9m42.1-32.6c-1.3-2-2.1-4.2-3-6.5 1.4-.5 2.8-1 4.2-1.6.7 3.9 1.3 7.8 1.9 11.6-1.2-.9-2.2-2-3.1-3.5m-3.3-31c1.2 5.6 2.3 11.1 3.3 16.7-4.7 1.1-9.3 3.5-13.9 5.1-3.4 1.2-7.3 2-10.6 3.7-1.9-7.4-3.9-14.7-5.6-22-2.7-11.5-5.5-23-8.3-34.4 9.4 1.3 19.6-.5 29.4-3.2.5 11.4 3.4 23 5.7 34.1M534 272.6c4.8 1.1 9 3.8 11.8 7.8 2 2.9 2.6 6.9 3.8 10.4-2.2-.4-4.4-.8-6.6-1.1.1-.8 0-1.7-.7-2.4-6-6.9-23-18.3-31.2-8.4l-.3-.9c-.5-1.9-.9-4.4-1.7-6.7 8.3.3 16.7-.5 24.9 1.3m-89.8 24.6c-1.2.4-2.3.7-3.5 1 .2-.4.4-.7.6-1.1 3.2-1.4 6.4-1.9 9.7-2-2.3.7-4.5 1.4-6.8 2.1m-76.9 168.9c0-.1-.1-.2-.1-.2-2.1-3-3.6-6-4.7-9.3.2-.1.3-.3.4-.4.4 1.5.9 2.9 1.4 4.4.7 1.8 2.2 2.4 3.5 2.3-.2 1-.3 2.1-.5 3.2M418 307.6c-5.2 5.3-9.9 11.2-14.3 17.3-10.3 14.4-18.6 30.3-25.7 46.4-6.3 14.3-11.5 29.1-14.6 44.5-.6 3-1.2 6.1-1.6 9.2-.6-6.8-1-13.7-.9-20.5.3-16 5.7-31.7 11.4-46.5 5.7-14.9 12.6-28.9 20.1-42.9 3.3-6.2 6.6-13.3 12.8-17.3 3-1.9 7.5-1.8 10.9-2.6.3-.1.5-.1.8-.2-2.7 2-5 4.3-6.7 6.7-1.4 2 1.6 4.2 3.3 2.5 3.5-3.6 8.4-6.4 13-8.3 2.5-1 5.5-2 8.2-1.5 2.4.5 3 2.9 4.9 4.1-2.8.7-5.7 1.3-8.4 2.1.3-.3.7-.5 1-.7 1.3-.9.5-2.9-1.1-2.5-5.6 1.3-9.4 6.4-13.1 10.2m108.6-4.2c1.8 1.6-8.4 7.9-9.1 8.3-5.1 2.8-10.7 4.5-16.2 6.1-9.2 2.7-18.8 4.6-28.3 5.4-9.1.8-19.8.4-26.5-6.7-2.8-2.9.9-9.8 1.5-14.1 3.5-1.7 6.9-3.6 9.9-5.6.3 1 1.1 2 2.2 2.2.6.1 1.1.2 1.7 0 1.4-.6 2.1-1.5 2.3-3v-.8c2.8 0 2.7-4.2-.1-4.4-.2 0-.5 0-.8-.1-.8-2.9-2-6-3.7-7.6 15.6 2.7 31.3-3.1 44.9-12 .5 3.6 1.1 7.3 1.7 10.9.9 5.3 3.5 12.9 8.4 15.6 1.3.7 2.7.4 3.7-.5 2.6 2.2 5.4 4.6 8.4 6.3m-9-13.8c-.6 0-.9.5-.8 1-2.1-3.3-4-6.5-5.2-10.2 6.1-2.2 11.3-.7 16.9 2.2 2.7 1.4 4.5 4.1 6.6 6.4-5.9-.1-11.6 1-17.5.6M420 1233.9c1.9-1.3 3.7-2.7 5.3-4.2 1.1 1.1 2.3 2.2 3.3 3.3 2.7 3.1 5.5 5.9 9 8.1 1.6 1 2.8-1.1 1.9-2.4-2.5-3.2-5-6.5-7.4-9.9-.8-1.1-1.6-2.4-2.4-3.7.2-.3.4-.5.7-.8.6.2 1.3 0 1.9-.3 1.8 1.8 3.4 3.8 4.9 5.6 1.2 1.4 2.3 2.8 3.5 4.2.4.5.8 1 1.3 1.5.2.2.4.3.6.4.2.1.3.2.4.2.1.5.8.7 1.2.3 1.9-2-.8-6.1-1.8-7.9-1.9-3.3-4.2-6.9-6.9-9.8 2.6-2.8 5.4-5.3 8.7-7.2 2 2.4 4 4.8 6 7.1 2.6 3.1 8.3 12.6 13.1 11.1.7-.2 1.3-.7 1.7-1.3 3.5 5.1 9.8 6.7 15.8 7 4.2.2 8.5-.3 12.8-.6 3.4-.2 6.6.2 9.9.5.4.7.9 1.2 1.5 1.4-.7.2-1.2.7-.9 1.6.5 1.4.9 2.9 1.3 4.4-7.2-1.4-16.8 12.1-20.2 16.4-4.6 5.8-11.3 14.3-12.3 22.4-3.8-.1-7.6-.5-11.5-.8-12.1-1-24.4-1-36.6-1.4-6.8-.2-13.6 0-20.4.4.2-.7.2-1.4-.2-2.2-3.8-7.1-12.8-12.7-19.2-17.3-2.6-1.8-7.7-5.5-12.3-6.8 3.3-.9 6.6-1.7 9.9-2.7 12.8-3.4 26.2-9.2 37.4-16.6m43.4 54.3c-15.1.7-30.2-.4-45.3-.2-15.8.2-31.6 1.4-47.3 2.5-8.8.6-17.5 2.5-26.3 1 0-.3-.1-.5-.2-.8-2.5-5.6-4.3-10.1-2.3-16.2 1.6-5.1 6.2-9.2 10.4-12.2 4.5-3.3 9.3-5.4 14.3-7l.1.1c7 2.7 12.3 5.8 18.1 10.7 5.1 4.3 9.1 9.8 14 14.1l-9.6.9c-8.6 1-17.9 1.4-25.2 6.6-.8.6-.1 1.7.7 1.3 9.6-4.2 20.5-3.4 30.7-4.2 12.4-.9 24.8-.2 37.2.5 11 .6 21.9 1 32.9 2.1 1.3.1 2.6.3 3.9.4-2 .1-4 .3-6.1.4m32.9-2.3c-2 .4-4 .7-6.1.8.9-.3 1.8-.6 2.6-.9 3.6-1.5 2.3-7.2-1.7-6-5.2 1.5-10.4 1.9-15.7 1.9 2.2-7 8.6-14.1 12.9-19.2 3-3.5 6.2-6.8 9.7-9.7 2.4-2.1 5.8-3.1 8.2-5 2 13.3-1.8 27.1-9.9 38.1m101.8-377.4c.4 3.7 1.5 7.4 2.2 11 1.3 6.5 2.7 12.8 5 19 .5 1.3 1.9 1.6 2.8 1.1 9.2 17 21.9 32 31.7 48.8 13.5 23.1 19.8 48.6 21.1 75.2 1.1 23.6-.4 47.1 1 70.7 1.2 20.5 4.2 44.4 15.5 62.4-3.2-1.4-7.2-1.8-10-2.2-6.8-1-14.1-1.5-20.9-.3-4.6.8-9.8 2.5-10.5 7.8-.7 5.5 1.7 13.5 5.4 17.7.6.7 1.6.3 1.9-.5 1.3-4-1.5-8.9-2-12.8-.8-6.4 5.4-6.4 10.1-6.7 9.4-.6 18.1 1.2 27 4.2 1.6.6 3-.6 3.3-2.1.6.3 1.3.4 1.9.3 2.1 11.6 4.1 22.9 7.1 34.5 2.1 8.2 4.5 16.2 8 23.9-9.9-6.2-22.4-7.9-34.2-7.8-11.5.1-32.3.8-36.3 14.4-.2.8 1 1.4 1.4.6 5.1-11.7 26-10.2 36.4-9.8 6.7.3 13.3.9 19.6 3.1 7.7 2.6 12.7 9.3 19.6 13 .2.5.5 1.1.7 1.6 1.4 3.6 1.2 6.6.8 10.1-11.6-1.5-22.7-2.6-34.6-2.3-14.8.5-29.6 1.2-44.4 2.2-.8.1-1.2 1.4-.2 1.6 13.9 1.9 28 1.2 42 1.2 6.9 0 13.8 0 20.7.5 1 .1 1.9.2 2.9.3-11.9.7-23.9 2.6-35.7 2.8-7.2.1-14.5.1-21.7-.4-4-.3-14.6-.5-15.9-5.3-8.3-30.7 11.1-58.8 8-89.4 0-.3-.2-.6-.3-.8 2.4.9 5.5-.9 4.7-4.1-6.9-26.6-15.5-52.8-23.6-79.1-8-26.1-15.5-52.5-24.9-78.1-5.4-14.6-11.8-28.9-18.8-42.9 7.3 2.5 15.3-.3 22-3.1 2.8-1.1 1.7-5.6-1.3-4.6-3.3 1.2-6.6 2.3-10 3.2-1.3.3-10.7 1.5-13.1-.2-.2-.4-.4-.8-.6-1.1 0-.2-.1-.4-.3-.6-2.3-4.4-4.6-8.7-7-13-4-7.1-8-14.2-11.5-21.6-3-6.4-7.5-15.2-5-22.3.4-1-.4-1.7-1.3-1.8 21.2-2.6 46.2-10.2 61.3-18.3M363 668.3c5.2 3 10.3 6.1 15.6 8.8 4.1 2.1 8.3 3.7 12.7 5-3.7 1-7.4 2.4-11 3.7-3.6 1.4-7.2 2.5-11 3.3-2.3.5-4.5.5-6.8.4.3-7 .5-14.1.5-21.2m51.5 263.6c-10.5 1.2-21.2 1.7-31.7.5-5.1-.6-10.8-1.6-14.5-4.8 1.1-.4 1.9-1.5 1.9-3.1v-.2c6.2 1.3 12.9 1 19.1 1.2 9.6.2 19.1 0 28.7-.6 9.3-.5 18.7-1.4 28-2.4 4.5-.5 9.6-.9 14.3-2.1-3.4 1.7-6.8 3.2-10.7 4.4-11.5 3.6-23.3 5.7-35.1 7.1m55.2-155.2c.1.4.2.8.3 1.1-.2 0-.3 0-.5.1-.8.4-1.4 1-1.9 1.8.5-1.7 1.1-3.4 1.6-5.1.1.7.3 1.4.5 2.1m1.4 9c-.5 1-.9 2.1-1.4 3.1-.2-3.1-.1-6.1.7-8.9.4 1.7.8 3.4 1.1 5.1-.1.2-.3.4-.4.7m53.1-105.9c7.8 4.9 16.5 7.9 25.4 10.3 7.8 2.1 16.3 4.4 24.6 5.1.4 3.2.8 6.3 1.1 9.5 1.7 15.9 3.1 31.8 4.4 47.7 1.9 23.1 5.7 46.1 9.5 69 2.2 13.2 4.6 26.4 6.9 39.7 1.4 8.4 2.8 17.1 5.9 25.1-16.2 5.9-33 10.1-49.3 15.8-8.1 2.8-16.2 5.7-24.5 7.7-7.7 1.9-16.9 3.7-24.5.4-4-6.9-4.3-17.2-5.2-24.8-1.5-11.7-4.1-23-6.7-34.5-4-17.4-8-34.9-11.8-52.4-1.9-8.6-3.9-16.9-6.5-25.3-.7-2.1-1.2-4.5-1.8-6.9 1-4.5 1.5-9.5-.8-13.1-.1-.1-.1-.2-.2-.3 8.8.2 17.7.5 26.5 1.1 3.6.3 3.5-5.2 0-5.5-8.4-.9-79.3-3.6-78.1 6 .1.5.7 1 1.2.5 2.1-2.4 10.4-1.9 13.2-2 8-.5 16.1-.4 24.1-.3 3.3 0 6.6.1 9.8.1-.3.4-.6.9-.6 1.5v.1c-.9-.6-2.4.1-2 1.4.6 1.8 1.1 3.7 1.6 5.6-.2 3.7-.5 7.2-1.5 11.1-1.7 6.3-3.5 12.5-5.4 18.7-4.2 14-10.3 28-20.7 38.6-.7.7.4 1.8 1.1 1.1 11.8-10.1 18.6-24.1 23.7-38.6.9-2.6 1.8-5.3 2.7-8-.5 3.9.1 8.5.3 11.1 0 .5 0 1.1.1 1.6-3 8.1-5.6 16.3-9.1 24.2-5.6 12.9-13.2 25.1-23.5 34.8-1.2 1.2.6 2.9 1.8 1.8 13.7-11.6 23.7-27.8 30.8-44.8-.2 7.1-.5 14.3-.6 21.4-.3 14.1-.3 28.1.4 42.1.4 7 1.3 14 1.3 21.1 0 4.4-.5 8.9-.5 13.3-.2 0-.4.1-.6.1-8.1 2.4-15.4 4.5-23.8 5.7-9.1 1.3-18.2 2.2-27.4 2.9-8.7.7-17.5 1.2-26.3 1.4-6.3.2-13-.4-19.3.4-1-8.5-4.6-16.5-5.5-25-1.2-11.4-.9-23.1-.8-34.5.2-22.8.2-45.7.6-68.5.2-10.1 1-20.2 1.2-30.3.2-10.8-1.7-21.2-2.6-31.9-1-11.4-.8-22.8-.4-34.1 12 .3 24.8-8.5 35.7-13.1 4.5 1 9 1.8 13.5 2.5 8.1 1.2 16.3 1.9 24.5 2.3-.8 9.2.1 19 1.5 28 1.1 7.3 3.4 15.1 7.9 21.1-5.3 1.4-10.7 2.5-16.3 3.1-1.3.1-1.8 2.2-.3 2.5 6.9 1 13.9.3 20.8-1.3.3.2.5.4.8.6 1.8 1.3 3.7-.1 4.1-1.9 8.3-2.3 16.4-5.7 24-8.6 2.7-1 1.7-5.3-1.2-4.4-8.7 2.6-16.9 5.6-25.4 8.1-11-13.7-9.7-30.5-12.2-47.2 15.3.4 30.7-.5 45.7-2.6 12.8-1.7 25.3-4.7 37.7-7.8 0 .6.4 1.1 1 1.5M781 271.2c0 .1 0 .2-.1.2-2.4-.1-4.7.2-6.7.4-8.9 1.2-17.4 3.5-26.4 3.7-.8 0-.8 1-.2 1.2 7.9 3.3 16.9.7 25.1-.1 4.9-.5 12.2-.7 15.4 3.8 2.9 4.2-.3 8.8-3.6 11.3-.2.2-.4.4-.5.6-2.5-.6-5.3-.6-8-.5-7.6.2-15.7 1.5-23 3.6-.1 0-.2.1-.3.2-1.4.1-2.9 0-4.3-.2-.1-.1-.2-.3-.4-.4-1.9-1.5-4.1-1.4-5.4-3.7-1.2-2.2-1.1-5-2-7.3-.3-.8-1.4-.9-1.7 0-.8 3-1.1 6.4-.2 9.5l-.9-.3c-2.7-1-4.3-3.3-4.3-6.2 0-3.8 3.4-5.4 6.6-6 .8-.2 1.2-.7 1.3-1.4 1.6.4 3.3.3 4.6-.3 1.6-.7 1.8-2.9 0-3.5-1.4-.5-2.8-.4-4.2-.7-.5-.1-.9-.5-1.1-1-.8-2.2-.6-4.7-1.2-6.9-.2-.7-1.3-.8-1.4 0-.4 2.8-1.5 5.9-.8 8.7.1.6.4 1.1.8 1.6-.6.1-1.2.3-1.8.5 0-.3-.1-.7-.2-1-.7-1.5-2.1-2.3-2.6-4-.5-2 0-4.4.5-6.3.9-3.7 2.9-7.8 6.2-10 12.5.6 48.7-7.2 40.8 14.5m-189.1 68.5c7.6 12.4 16.9 23.3 25.2 35.2 6.3 9 12.6 17.7 19.4 26.2-8.9 6.5-17.3 13.7-24.3 22.2-4.6 5.6-10 13.4-11.8 21.2-2.1-1.4-4-2.9-6-4.6-3.2-2.8-6.3-6-10-8-.2-.1-.3-.1-.5-.1-2.1-13.5-4.4-26.9-6.8-40.3-2.2-12.4-4.9-24.7-6.2-37.2-1.2-11.3-.6-22.5.4-33.8 2 1.4 4.3 2.5 6.4 3.6 6.8 3.1 10.4 9.5 14.2 15.6m-42.2 81.7c-8.2-19.3-15.3-37-16.5-58.2-.6-10.9.7-21.5 2.9-32.1 2.1-10.1 2.4-22.8 10-30.6.1-.1.1-.1.1-.2 6.5 2.4 11.8 6.3 19.2 6.2 2.7 0 0 9-.2 10.5-.7 5.6-1 11.3-1.4 16.9-1.6 21.7 3.3 43.5 6.9 64.8 3.7 22 6.8 44.2 10 66.3 1.7 11.6 3.1 22.9 2.6 34.6-.4 10.6-2.2 21.1-2.5 31.6-1.2.1-2.4.3-3.7.6-.4.1-.7.2-1.1.2-.2-9.2-2.3-18.6-3.7-27.6-1.5-9.4-3.1-18.8-5.2-28.1-4.1-18.8-9.8-37.2-17.4-54.9M612 565.9c-3.9 1-8 1.9-11.9 2.7-.1 0-.2 0-.3.1-6.7 0-12.9.2-14.8-7.3-1.5-6-.6-12.3-2.1-18.3-.2-.9-1.4-.6-1.5.2-.9 7.2-2.3 15.9.3 22.9.8 2.2 2.2 3.8 3.8 5-5.7.4-11.2-.3-14.8-3.8-.3-.2-.5-.4-.8-.5-.5-3.7-1-7.5-1.3-11.2-1-10.7-1.1-21.4-.7-32.1.7 3.3 1.4 6.5 2.3 9.6.1.2.2.5.3.7-.3.8-.1 1.7.4 2.4 2.8 3.6 9.1 1.5 12.7.5.6-.2 1.1-.5 1.4-.9 1.1-.2 2.1-1 2.3-2.3 4.2-22.8 5.1-45 1.7-67.9-1.5-10-3-20.1-4.6-30.1 4.5 5.7 9.6 12.1 15.5 16.4 0 .3.1.6.2 1 .4 2.3 2.9 2.6 4.5 1.5 2.8.2 4.8-3.8 2.4-5.7l.9-3.9c2.8 6.3 6.9 11.8 11.7 16.8-1.1 2.6-.8 7.5-.9 9-.7 10.6 0 21.3-.2 31.9-.4 18.5-1.3 37.1-2.3 55.5-.1 1.7.7 2.9 1.9 3.5-1.1 2-2.5 3.3-6.1 4.3m153.2-231.2c-2.5 2.7-5.8 4-9.3 5.2-3 1-6.8 2.2-8.7 5-.8 1.1 0 2.7 1.2 3 2.2.6 4.6.1 6.9-.8-7.7 28.3-12 56.9-16.8 85.8-2.3 13.7-4.6 26.7-10.9 39.1-2.9 5.8-6.5 11.3-9.9 16.9-3.3 5.4-6.6 8.7-11.9 11.3-.2-.1-.5-.3-.7-.4-4.1-1.5-8.7-1.1-13-1.8-4.8-.7-9.4-2.2-13.9-3.9-9.6-3.6-17.9-10-26-16.1-15.3-11.5-30.5-22.2-42.6-37.3-.2-.2-.3-.3-.5-.4.2-.5.3-.9.5-1.4 2.3-5.4 5.7-10.2 9.3-14.8 5.8-7.5 12.7-14.2 19.2-21.2 1.6 1.9 3.1 3.7 4.7 5.6 4.8 5.4 9.7 10.6 15.3 15.3 2.7 2.3 5.5 4.4 8.3 6.5 2 1.5 4.7 2.8 6.8 4.5-2.5 8-3.2 16.1.6 23.4 1.8 3.4 6.3.9 5.8-2.4-.9-6.2-.3-12.3 1.2-18.2 1.2-.9 1.8-2.5 1.2-4.3 3.8-11.6 10.4-22.7 15.2-33.6 4.7-10.7 10.1-21 15.7-31.2 4.7-8.5 9.9-17.3 11.3-27 2.2-3.5.8-10.2.4-13.5-1.7-14.1-4.2-28.9-3.9-43.1.5-24.9 15.4-53 2.9-77.2 2.2.9 4.4 2.8 6 3.9 3.7 2.6 6 5.2 7.5 9.5 3.5 10.1 1 20.8 2.1 31.1.1.9.5 1.6 1.1 2.1-.6.3-1.2.6-1.8 1-4.8.8-8.1 7.2-9.5 11.1-1.4 3.7-1.5 13.2 3.7 13.9-3.8 3.7-5.1 10.1-1.1 14.3 1.2 1.2 2.7 2.2 4.5 3-4.9.4-4.1 6.6-1.7 9.6 1.2 1.5 3 3.2 5 4.6-.2.1-.3.2-.4.3-3.8 8.8 2.6 17.3 10.5 20.6 3.9 1.6 9.9 2.3 15.8 1.8 0 .1-.1.1-.1.2m-7.2-22.2c.2 0 .3-.1.4-.2 5-.2 9.9.9 14.9.9 3.4 0 7.8 0 9.3 3.7 1.1 2.7-2.3 5.2-3.7 6.9-.3.4-.5.7-.7 1.1-7 1.1-13.7 3.2-21.1 2.9-3.5-.2-6.9-1.1-9.6-3.1-.3-3-1.3-6.3.5-8.4 2-2.4 7-3.8 10-3.8m-15.8 4.1c-.4-1.4-.9-2.8-1.5-4.1.9.5 1.9.9 2.8 1.2-.7.8-1.1 1.8-1.3 2.9m39.1-10.2c-.7.5-1 1.4-1.1 2.2-3.2-.5-6.6.2-9.6.5-4.4.5-8.8 0-12.9 1.6-1.9-1.1-4.6-1.1-7.1-.6-.1-.2-.2-.4-.4-.6-1.1-1.1-2.3-2.1-3.4-3.2s-2-2.5-2.7-3.9c-.3-.7-1.2-.3-1.3.4-.2 1.7.2 3.3.9 4.7-1.3-.5-2.6-1.2-4-2.1-1.2-.8-2.3-1.9-3.1-3.2-.8-1.2.1-2.1.9-3.1.2-.3.3-.6.2-.9 5.7 2 13.1 1.9 17.5-1.4 6.2.7 12.5-.1 18.8-.1 3.5 0 9.2-.3 11.4 3 1.7 2.9-2.4 5.5-4.1 6.7"/><path class="st1" d="M190 296.8c3.9-5 3.8-13.4 4.5-19.8.3 0 .6-.2.6-.5 3.3-.3 6.6-1.4 10-1.6 2.8-.2 5.6-.3 8.3-.9 1.8 2.9 3.2 5.8 4.3 8.4 2 4.6 8.9.6 6.8-4-2.7-5.9-7-11.2-11.1-16.2-3.9-4.8-8.8-10.7-15-12.6-7-2.1-8.3 5.6-8.3 10.6.2 11.9-3.4 23.7-2.7 35.7.2 1 1.8 1.9 2.6.9m8-39.8c4.2 2.4 8.3 6.6 11.7 11.4-2.6.7-5.3 1.4-8 2-2.2.5-4.6 1.1-6.6 2.3.6-3.4 1.4-6.9 1.7-10.3.1-1.2.1-2.5.1-3.7.2-2-.9-2.8 1.1-1.7m16.9-11.6c2.2-.4 4.3-.9 6.5-1.3.4 2.6.8 5.5 2.3 7.4 1.7 2.3 5.5 1.7 5.6-1.5.1-2.2-1-4.6-1.9-6.8 2.2-.3 4.4-.7 6-2 1.6-1.2 1.4-4.5-1.2-4.3-2.2.2-4.4 1-6.6 1.8-.9-2.6-1.7-5.1-2.8-7.6-.7-1.6-3-.7-3.1.8-.1 2.8.4 5.6 1 8.3-2.5.8-4.9 1.7-6.7 3.6-.8.7 0 1.7.9 1.6m-59.5 28.7c3-1 2.7-6.3-.8-5.8-8.5 1.1-17 3.4-25.3 5.2-8.3 1.8-16.7 3.7-24.3 7.6-1.7.9-.5 3.3 1.2 2.9 8.2-1.8 16.2-3.8 24.5-5.3 8.2-1.5 16.9-2.1 24.7-4.6m.3 7.8c-10 1-19.7 4.7-29.6 6.8-6.2 1.3-14.6 2.7-18.7 8-.6.7.4 2 1.2 1.6 15.2-6.3 32.3-5.6 47.8-10.8 3-.9 2.7-5.9-.7-5.6m-1.3 18.2c3-1.3.8-5.8-2.2-5.1-13.4 3.4-26.2 9.1-39.6 11.9-.6.1-.7 1-.2 1.3 4.6 2.7 11.7-.3 16.5-1.5 8.5-1.9 17.6-3.1 25.5-6.6m51 21.7c4.6-1.3 9-3.3 13.4-5.1 5.2-2.1 10.4-3.1 15.8-4.6 3.3-.9 2.4-5.5-.8-5.7-8.8-.6-17.7 4.4-25.7 7.5-10 3.9-21 5.8-31.5 8.1-10.6 2.3-21.1 4.7-31.8 6.7-8.8 1.7-18.3 2.4-26 7.4-1.2.7-.7 2.9 1 2.5 18.3-4.4 37.2-6.7 55.8-10.3 10-1.9 20-3.8 29.8-6.5m-57.5 31.4c11.6-3.1 23.3-5.7 35.2-7.9 11-2 21.9-4 32.9-6.1 9.7-1.9 21.5-2.4 30.3-7.1 3.3-1.7.9-6.2-2.4-5.6-20.9 3.8-41.6 8.7-62.4 12.9-11 2.2-21.7 4.9-32.4 8.2-8.3 2.6-17.1 7.2-25.7 8.5-1.6.3-1 2.5.4 2.6 7.5.8 16.9-3.6 24.1-5.5m36.4 14.9c10.6-2.5 21.1-4.5 31.9-5.9 9.7-1.3 21.4-2.2 29.6-8.1 2.7-2 1.2-6.9-2.4-5.8-9.7 3-18.9 5.6-29 7.1-10.8 1.6-21.2 3.7-31.8 6.3-11.8 2.9-23.4 6.4-35 9.7-4.9 1.4-9.8 2.7-14.5 4.5-2.8 1-6.3 1.5-8.8 3-.9.5-.7 2 .3 2.3 6 2.2 16-2.6 21.9-4 12.6-2.8 25.2-6.2 37.8-9.1m8.7 21.6c11.1-2.6 22.2-5.2 33.3-7.9 11.2-2.7 22.8-4.3 33.8-7.4 3.5-1 2.9-6.6-.9-6.4-10.8.6-21.7 4.1-32.1 6.8-11.1 2.8-22.1 5.7-33.2 8.5-21.5 5.3-43.2 10.8-64.1 18.3-1.4.3-1.3 2.8.3 2.6 10.2-.7 19.9-4 29.8-6.6 10.9-2.9 22-5.3 33.1-7.9m68.1.3c-9.8.3-19.6 3.5-29 6.2-10.1 2.8-20.2 5.9-30.2 8.8-10 2.9-20.1 5.7-30.1 8.6-10.8 3.2-22 4.9-32.9 8-1.4.4-1.1 2.5.3 2.5 9.6.5 19.5-2.1 28.8-4.2 10.2-2.3 20.3-5.2 30.4-7.6 10.2-2.5 20.3-5.4 30.4-8.2 10.9-3 22.3-4.7 33.1-8.2 3.1-1 2.7-6-.8-5.9m-47.8 34c-12.2 1.9-24.8 6.7-36.8 10.2-11.5 3.3-22.3 9.4-34.1 11.6-1.8.3-1.4 3.2.4 3.2 11.4-.4 21.7-5.9 32.7-8.6 13-3.1 28-4.9 40-10.8 3.5-1.7 1-6.1-2.2-5.6m221.9-281.1c0-.1 0-.1 0 0-1.7 2.8-2 6.5-2.4 9.7-.4 3-.6 8.1 1.7 10.3 1.6 1.6 4.5.9 5.1-1.3.6-2.5-.5-5.5-.6-8-.2-3.3 0-6.6-.4-9.8-.4-2.4-2.6-2.1-3.4-.9m59.4 17c-.1-5.9-.5-11.9-1.7-17.7-.3-1.5-3-1.6-3.2 0-.8 5.9-1.7 11.8-1.7 17.7 0 4.2 6.7 4.2 6.6 0m-36.8 39.8c-2.2-2.3-2.2-5.4-3.2-8.3-.3-.9-1.5-.9-1.8 0-2.9 8.3 3.4 15.2 11 17.2 3 .8 4-3.4 1.2-4.5-2.5-1.1-5.2-2.3-7.2-4.4M423 115.5c4.8-6.4 11.2-6.7 18.2-9 .8-.3.8-1.3 0-1.6-7.2-2.7-18.4 1.6-21.8 8.5-1.2 2.4 2 4.2 3.6 2.1m25.5 129c11.4 3 22.4 3.6 33.5-1 9.2-3.8 17.1-9.6 23-17.5.8.6 1.6 1.1 2.4 1.2 2.4.4 4.7-1.9 3.3-4.3-1.3-2.1-4.2-3-6.3-4.3-2-1.2-3.7-2.6-5.6-3.9-.9-.6-2.1.4-1.8 1.4.6 1.9 1.9 3.5 3.2 5-11.8 1.9-22.8 5-34.9 5-12.4-.1-22.7-4-34.1-8.4-1.1-.4-1.7 1.1-1 1.8 2.9 3.2 6.5 5.6 10.5 7.4 2 3.3 4 6.5 5.4 10.1.7 1.8 1.5 4.3 2.8 6.1-.1 0-.3 0-.4.1-.8 0-.7 1.1 0 1.3m31.1-6.6c-8.4 4.3-16.7 3.5-25.4 4.3v-.1c0-.2-.1-.4-.2-.6 3.4-2.7 6.7-5.1 10.8-6.8 3.1-1.3 6.4-1.6 9.5-2.6 5.9-.2 12-.8 17.7-2.1-3.8 3.1-8 5.7-12.4 7.9m-18.6-6.2c-3.2 1.6-6.7 3.8-9 6.7v-.1c-1-1.7-1.7-3.5-2.7-5.2-.7-1.3-1.5-2.7-2.4-4 4.7 1.4 9.5 2.2 14.1 2.6m8.7-166c-19.8-8.1-40.3-4.4-60.9-2.1-1.5.2-1.5 2.4 0 2.3 9.3-.4 18.7-1.2 28-1.4 10.9-.2 21.4 2 31.8 5.1 2.6.8 3.4-2.9 1.1-3.9m-16.8-16.5c-1-.1-1.2 1.5-.2 1.7 9.5 2.8 18.7 6.3 27.2 11.5 8 4.8 14.5 11.6 22.4 16.5 1.6 1 4-1.1 2.8-2.8-11.6-14.9-33.7-25.2-52.2-26.9"/><path class="st1" d="M398.2 81.8c8.1-5.7 17.9-14.8 28.5-11.4 2.1.7 3.4-2.5 1.5-3.5-10.8-5.8-23.6 6.9-31.4 13-1.1.8.3 2.7 1.4 1.9m-8.5-37.2c.9-10.9 13.4-15.7 22.3-18.6 9.1-2.9 19.1-4.7 28.6-4.9 3.1-.1 3.1-4.8 0-4.8-11.6-.2-23.9 2.8-34.5 7.4-8.6 3.7-20 10.2-18.2 21.2.2 1 1.7.7 1.8-.3m35-35C436.8 10.7 449 7 461.2 7c12.7 0 24.7 4.9 36.8 8.2 3.5 1 4.6-4 1.4-5.3-11.5-4.6-23.3-7.7-35.7-8.1-13.1-.3-26.5 3.5-39.3 5.4-1.4.4-.9 2.3.3 2.4m218.6 1214.6c4.8.9 9.4.8 14.3.6 6.7-.2 11.9 1.2 18.2 3.3 2.3.8 3.7-2.2 2.2-3.8-7.9-9-24.1-3.3-34.3-3-1.7-.1-2.2 2.6-.4 2.9m4.2 8.5c-1.6.2-1.7 2.5 0 2.6 10.6.6 21.5-.6 32.1-1.3 3.1-.2 3.1-4.6 0-4.8-10.6-.9-21.6 2.2-32.1 3.5M513 117.2c-5.7-10.8-16.7-17-28.7-14.1-.8.2-.7 1.6.2 1.5 5.3-.4 10.2.5 14.6 3.4 4.3 2.8 6.8 7.5 9.7 11.6 1.9 2.5 5.7.4 4.2-2.4"/></svg>