<svg id="Слой_1" xmlns="http://www.w3.org/2000/svg" viewBox="-294 386 22 22"><style>.st0{fill:#e7004a}</style><path class="st0" d="M-273.5 401.8c-3.1-2.5-4-1.3-5.5.1-1 1-3.5-1.1-5.7-3.3-2.2-2.2-4.3-4.7-3.3-5.7 1.4-1.4 2.7-2.3.1-5.5-2.5-3.1-4.2-.7-5.6.7-1.6 1.6-.1 7.5 5.8 13.4 5.9 5.9 11.8 7.4 13.4 5.8 1.5-1.3 3.9-3 .8-5.5zm-16.6-12.6s-.1 0-.2.1-.3.1-.5.2c-.1 0-.2.1-.3.2-.1.1-.2.1-.3.2l-.3.3c-.1.1-.1.2-.2.4-.1.1-.1.3-.1.4 0 .2 0 .3-.1.5 0 .3 0 .6.1.9 0 .3.1.5.1.6 0 .2.1.2.1.2s0-.1-.1-.2-.2-.3-.3-.6c-.1-.2-.3-.5-.4-.9 0-.2-.1-.4-.1-.6 0-.2-.1-.4 0-.6 0-.2 0-.4.1-.6.1-.2.1-.4.2-.6.1-.2.2-.4.3-.5.1-.2.2-.3.4-.4.2-.2.4-.4.6-.5l.1-.1.9 1.6c.1 0 .1 0 0 0zm16.2 16.1c-.1.1-.3.3-.5.6l-.4.4c-.1.1-.3.2-.5.3l-.6.3c-.2.1-.4.1-.6.1h-.6c-.2 0-.4-.1-.6-.1-.2 0-.3-.1-.5-.1s-.3-.1-.4-.2c-.3-.1-.4-.2-.6-.3-.1-.1-.2-.1-.2-.1h.2c.2 0 .4.1.6.1h.9c.2 0 .3 0 .5-.1l.2-.1.2-.1c.5-.3.8-.7 1-1.1.1-.2.1-.4.2-.5 0-.1.1-.2.1-.2l1.7 1c.1-.1 0-.1-.1.1z"/></svg>