<?xml version="1.0" encoding="utf-8"?>
<!-- Generator: Adobe Illustrator 19.0.0, SVG Export Plug-In . SVG Version: 6.00 Build 0)  -->
<svg version="1.1" id="Слой_1" xmlns="http://www.w3.org/2000/svg" xmlns:xlink="http://www.w3.org/1999/xlink" x="0px" y="0px"
	 viewBox="-292 384 26 26" style="enable-background:new -292 384 26 26;" xml:space="preserve">
<style type="text/css">
	.st0{fill:#FFFFFF;}
</style>
<path class="st0" d="M-279,410c-7.2,0-13-5.8-13-13c0-7.2,5.8-13,13-13c7.2,0,13,5.8,13,13C-266,404.2-271.8,410-279,410z M-279,386
	c-6.1,0-11,4.9-11,11c0,6.1,4.9,11,11,11c6.1,0,11-4.9,11-11C-268,390.9-272.9,386-279,386z M-278,398.5v1.7c0,0.6-0.5,1-1,1
	s-1-0.5-1-1v-2.5c0-0.6,0.5-1,1-1c1.1,0,2-0.9,2-2c0-1.1-0.9-2-2-2s-2,0.9-2,2c0,0.6-0.5,1-1,1s-1-0.5-1-1c0-2.2,1.8-4.1,4.1-4.1
	s4.1,1.8,4.1,4.1C-274.9,396.5-276.2,398.1-278,398.5z M-279,402c0.7,0,1.3,0.6,1.3,1.3c0,0.7-0.6,1.3-1.3,1.3s-1.3-0.6-1.3-1.3
	C-280.3,402.5-279.7,402-279,402z"/>
</svg>
