<?xml version="1.0" encoding="utf-8"?>
<!-- Generator: Adobe Illustrator 19.0.0, SVG Export Plug-In . SVG Version: 6.00 Build 0)  -->
<svg version="1.1" id="Слой_1" xmlns="http://www.w3.org/2000/svg" xmlns:xlink="http://www.w3.org/1999/xlink" x="0px" y="0px"
	 viewBox="-213.3 323.2 75.6 83.1" style="enable-background:new -213.3 323.2 75.6 83.1;" xml:space="preserve">
<style type="text/css">
	.st0{clip-path:url(#SVGID_2_);fill:#FDB933;}
	.st1{clip-path:url(#SVGID_4_);fill:#110043;}
	.st2{clip-path:url(#SVGID_6_);fill:#00AEEF;}
	.st3{clip-path:url(#SVGID_8_);fill:#ED1651;}
	.st4{clip-path:url(#SVGID_10_);fill:#ED1651;}
	.st5{clip-path:url(#SVGID_12_);fill:#ED1651;}
</style>
<g>
	<g>
		<defs>
			<rect id="SVGID_1_" x="-213.1" y="323.2" width="75.3" height="83.1"/>
		</defs>
		<clipPath id="SVGID_2_">
			<use xlink:href="#SVGID_1_"  style="overflow:visible;"/>
		</clipPath>
		<polygon class="st0" points="-162.7,372.1 -162.7,356.7 -176.2,348.9 -189.6,356.7 -189.6,372.1 -176.2,379.9 		"/>
	</g>
	<g>
		<defs>
			<rect id="SVGID_3_" x="-213.1" y="323.2" width="75.3" height="83.1"/>
		</defs>
		<clipPath id="SVGID_4_">
			<use xlink:href="#SVGID_3_"  style="overflow:visible;"/>
		</clipPath>
		<path class="st1" d="M-168.2,356.1c-3,0.7-7.3,3.3-10.8,6l-2.6-0.5c-0.1-0.1-0.2,0-0.3,0l-4.5,3.8c-0.1,0.1-0.1,0.3,0.1,0.4
			l1.4,0.8c0.4,0.2,1,0.3,1.4,0.2l0.8,0.8l-0.4,0.4c-0.2,0.2-0.2,0.6,0,0.8l2.7,2.7c0.2,0.2,0.6,0.2,0.8,0l0.4-0.4l0.8,0.8
			c-0.1,0.5-0.1,1,0.2,1.4l0.8,1.5c0.1,0.1,0.3,0.2,0.4,0.1l3.8-4.5c0.1-0.1,0.1-0.2,0-0.3l-0.5-2.6c2.6-3.6,5.2-7.8,6-10.8
			C-167.5,356.4-167.8,356.1-168.2,356.1 M-171.9,362.2c-0.3,0.3-0.6,0.4-0.9,0.4s-0.7-0.1-0.9-0.4c-0.5-0.5-0.5-1.3,0-1.8
			c0.3-0.3,0.6-0.4,0.9-0.4s0.7,0.1,0.9,0.4c0.3,0.3,0.4,0.6,0.4,0.9C-171.5,361.6-171.6,362-171.9,362.2"/>
	</g>
	<g>
		<defs>
			<rect id="SVGID_5_" x="-213.1" y="323.2" width="75.3" height="83.1"/>
		</defs>
		<clipPath id="SVGID_6_">
			<use xlink:href="#SVGID_5_"  style="overflow:visible;"/>
		</clipPath>
		<path class="st2" d="M-149.6,364.7c2.1-2,3.9-4,5.4-5.9c-1.1-0.1-2-0.6-2.7-1.4c-1.3,1.7-3,3.5-4.9,5.3c-2.7-2.4-5.7-4.7-8.9-6.9
			c-0.3-3.9-0.9-7.6-1.6-11.2c2-0.6,3.9-1,5.8-1.4c7.1-1.3,12.1-0.5,13.7,2.2c0.7,1.3,0.7,3.1-0.1,5.2c1.1,0.3,2,0.9,2.5,1.8
			c1.4-3.2,1.5-6.1,0.2-8.5c-2.3-3.9-8.2-5.2-16.8-3.7c-1.9,0.3-3.9,0.8-5.9,1.4c-2.7-10.6-7.2-18.4-13.3-18.4s-10.6,7.8-13.3,18.6
			c-2.2-0.6-4.3-1.1-6.3-1.5c0.2,0.4,0.2,0.9,0.2,1.4c0,0.6-0.1,1.1-0.3,1.6c1.8,0.3,3.7,0.8,5.7,1.4c-0.7,3.5-1.3,7.3-1.6,11.1
			c-3.2,2.2-6.2,4.6-8.9,6.9c-7.6-7.3-10.9-14-9-17.3c0.9-1.5,3-2.5,5.9-2.7c-0.1-0.3-0.1-0.7-0.1-1.1c0-0.7,0.2-1.4,0.5-2
			c-4.2,0.2-7.3,1.5-8.9,4.2c-3,5.2,1.5,13.1,9.4,20.8c-8,7.7-12.5,15.5-9.4,20.8c1.7,3,5.4,4.3,10.2,4.3c3.6,0,7.9-0.8,12.5-2.1
			c2.6,10.7,7.2,18.6,13.3,18.6c2.9,0,5.5-1.9,7.7-5c-1-0.2-2-0.7-2.6-1.5c-1.6,2.2-3.4,3.5-5.1,3.5c-3.8,0-7.9-6.2-10.4-16.5
			c3.4-1.1,6.9-2.5,10.4-4.2c3.6,1.7,7.1,3.1,10.5,4.2c-0.5,1.8-1,3.6-1.5,5.1c1.1,0.1,2,0.5,2.7,1.2c0.6-1.7,1.1-3.5,1.6-5.4
			c2,0.6,4,1.1,5.9,1.4c2.4,0.4,4.5,0.6,6.5,0.6c5.1,0,8.7-1.5,10.4-4.3C-137.2,380.3-141.7,372.4-149.6,364.7 M-154,364.7
			c-1.9,1.7-4.1,3.4-6.4,5.1c0.1-1.7,0.1-3.4,0.1-5.1s0-3.4-0.1-5.1C-158,361.3-155.9,363-154,364.7 M-189.1,364.7
			c0-2.5,0.1-5,0.2-7.3c2-1.3,4-2.6,6.2-3.9c2.1-1.2,4.3-2.4,6.4-3.4c2.1,1,4.3,2.2,6.5,3.4c2.2,1.3,4.3,2.6,6.2,3.9
			c0.2,2.3,0.2,4.8,0.2,7.3s-0.1,5-0.2,7.3c-2,1.3-4,2.6-6.2,3.9c-2.2,1.3-4.3,2.4-6.5,3.4c-2.1-1.1-4.3-2.2-6.4-3.4
			c-2.2-1.3-4.3-2.6-6.2-3.9C-189,369.7-189.1,367.3-189.1,364.7 M-163.8,353.7c-1.4-0.9-2.9-1.8-4.4-2.7c-1.5-0.9-3-1.7-4.5-2.5
			c2.6-1.2,5.2-2.2,7.7-3C-164.6,348-164.1,350.8-163.8,353.7 M-176.2,326.2c3.8,0,7.9,6.2,10.4,16.4c-3.4,1.1-6.9,2.6-10.5,4.2
			c-3.5-1.6-7-3.1-10.4-4.2C-184.1,332.4-180,326.2-176.2,326.2 M-187.2,345.5c2.4,0.8,5,1.8,7.7,3c-1.5,0.8-3,1.6-4.5,2.5
			c-1.5,0.9-2.9,1.8-4.4,2.7C-188.2,350.8-187.8,348-187.2,345.5 M-191.9,359.6c-0.1,1.7-0.1,3.4-0.1,5.1s0,3.4,0.1,5.1
			c-2.4-1.7-4.5-3.4-6.4-5.1C-196.4,363-194.3,361.3-191.9,359.6 M-209.5,384c-1.9-3.3,1.4-10,9-17.3c2.7,2.4,5.7,4.7,8.9,6.9
			c0.3,3.9,0.9,7.6,1.6,11.1C-200.2,387.8-207.6,387.3-209.5,384 M-187.2,384c-0.5-2.5-0.9-5.2-1.2-8.1c1.4,0.9,2.9,1.8,4.4,2.7
			s3,1.7,4.5,2.5C-182.2,382.1-184.8,383.1-187.2,384 M-172.7,381c1.5-0.8,3-1.6,4.5-2.5c1.5-0.9,2.9-1.8,4.4-2.7
			c-0.3,2.9-0.7,5.6-1.2,8.2C-167.6,383.1-170.1,382.1-172.7,381 M-142.8,384c-1.6,2.7-6.5,3.5-13.7,2.2c-1.8-0.3-3.8-0.8-5.8-1.4
			c0.7-3.5,1.3-7.3,1.6-11.2c3.2-2.2,6.2-4.6,8.9-6.9C-144.2,374-140.9,380.7-142.8,384"/>
	</g>
	<g>
		<defs>
			<rect id="SVGID_7_" x="-213.1" y="323.2" width="75.3" height="83.1"/>
		</defs>
		<clipPath id="SVGID_8_">
			<use xlink:href="#SVGID_7_"  style="overflow:visible;"/>
		</clipPath>
		<path class="st3" d="M-143.8,360.7c-3.4,0-6.1-2.7-6.1-6.1s2.7-6.1,6.1-6.1c3.4,0,6.1,2.7,6.1,6.1
			C-137.7,357.9-140.5,360.7-143.8,360.7 M-143.8,351.5c-1.7,0-3.1,1.4-3.1,3.1c0,1.7,1.4,3.1,3.1,3.1s3.1-1.4,3.1-3.1
			C-140.7,352.9-142.1,351.5-143.8,351.5"/>
	</g>
	<g>
		<defs>
			<rect id="SVGID_9_" x="-213.1" y="323.2" width="75.3" height="83.1"/>
		</defs>
		<clipPath id="SVGID_10_">
			<use xlink:href="#SVGID_9_"  style="overflow:visible;"/>
		</clipPath>
		<path class="st4" d="M-167.6,403.7c-3.9,0-7-3.1-7-7s3.1-7,7-7c3.9,0,7,3.1,7,7S-163.8,403.7-167.6,403.7 M-167.6,392.7
			c-2.2,0-4,1.8-4,4s1.8,4,4,4s4-1.8,4-4S-165.4,392.7-167.6,392.7"/>
	</g>
	<g>
		<defs>
			<rect id="SVGID_11_" x="-213.1" y="323.2" width="75.3" height="83.1"/>
		</defs>
		<clipPath id="SVGID_12_">
			<use xlink:href="#SVGID_11_"  style="overflow:visible;"/>
		</clipPath>
		<path class="st5" d="M-199.6,346.8c-2.8,0-5.1-2.3-5.1-5.1s2.3-5.1,5.1-5.1c2.8,0,5.1,2.3,5.1,5.1S-196.8,346.8-199.6,346.8
			 M-199.6,339.5c-1.2,0-2.2,1-2.2,2.2s1,2.2,2.2,2.2c1.2,0,2.2-1,2.2-2.2C-197.5,340.5-198.4,339.5-199.6,339.5"/>
	</g>
</g>
</svg>
