<?xml version="1.0" encoding="utf-8"?>
<!-- Generator: Adobe Illustrator 19.0.0, SVG Export Plug-In . SVG Version: 6.00 Build 0)  -->
<svg version="1.1" id="Слой_1" xmlns="http://www.w3.org/2000/svg" xmlns:xlink="http://www.w3.org/1999/xlink" x="0px" y="0px"
	 viewBox="-291 366 29 61" style="enable-background:new -291 366 29 61;" xml:space="preserve">
<path d="M-265.8,405.6c-0.7-1.2-1.7-2.3-2.6-3.4c-0.3-0.4-0.8-0.7-1.3-0.9c-1.6-0.9-3.4-1.2-5.3-1.2c-1.7,0-3.3,0.6-4.7,1.8
	c-0.8,0.7-1.5,1.5-2.3,2.2c-0.2,0.2-0.4,0.4-0.7,0.5c-0.1,0-0.2-0.1-0.3-0.1c-0.1-0.1-0.1-0.3-0.1-0.3c0.3-0.3,0.6-0.6,0.9-0.9
	c0.3-0.3,0.5-0.6,0.6-1.1c0.2-1.6-0.1-3.1-0.8-4.5c-0.3-0.6-0.8-0.7-1.3-0.3c-0.8,0.6-1.6,1.2-2.4,1.8c-0.7,0.6-1.2,1.4-1.2,2.5
	c0,1.9,0,1.9-1.8,1.9c-0.2,0-0.5,0-0.7,0c-0.2,0-0.3,0.1-0.5,0.2c-0.4,0.2-0.5,0.7-0.4,1.3c0.1,0.4,0.4,0.6,0.7,0.6
	c1-0.1,2,0.2,3,0.1c0.5,0,1,0.1,1.5,0.5c0.1,0.1,0.1,0.2,0.1,0.3c-0.1,0.1-0.3,0.2-0.4,0.3c-2.2,1.1-3.5,2.9-4.3,5.2
	c-0.1,0.4-0.3,0.8-0.4,1.2c-0.2,0.8-0.5,1.6-0.3,2.5c0.2,1.5,0.6,2.9,1.5,4.1c0.9,1.3,1.9,2.6,3,3.7c2.5,2.5,5.6,3.4,8.9,3.5
	c1.9,0.1,3.7-0.5,5.2-1.8c0.7-0.6,1.4-1.3,1.6-2.2c0.3-1.2,1.1-1.9,2.3-2.2c0.3-0.1,0.7-0.1,1-0.3c1.1-0.9,2.2-1.9,2.7-3.4
	c0.4-1.5,0.9-3,0.7-4.4C-263.8,410-264.5,407.7-265.8,405.6z M-285.6,403.5c-0.2,0-0.4-0.3-0.4-0.5c-0.2-1-0.1-1.9,0.8-2.5
	c0.3-0.2,0.6-0.5,1-0.8c0.8-0.7,1-0.6,1.2,0.3c0.1,0.4,0.1,0.8,0.1,1c0,1.3-0.6,2.2-1.6,2.5C-284.9,403.6-285.2,403.6-285.6,403.5z
	 M-266.6,416.4c-0.7,1-1.8,1.5-3,1.7c-0.3,0.1-0.7-0.2-1-0.2c-0.5-0.1-0.9,0.2-1,0.7c-0.1,0.5,0,1-0.3,1.5c-0.5,0.7-1,1.3-1.8,1.6
	c-0.3,0.1-0.5,0.1-0.8-0.1c-0.7-0.3-0.8-0.2-1.3,0.5c-0.1,0.1-0.1,0.3-0.2,0.3c-0.1,0.1-0.4,0.1-0.4,0c-0.3-0.5-0.6-1-0.9-1.5
	c-0.2-0.4-0.4-0.8-0.7-1.2c-0.3-0.4-0.8-0.3-1,0.1c-0.2,0.4-0.3,0.8-0.2,1.2c0.1,0.5,0.2,0.9,0.3,1.4c0,0.1-0.1,0.2-0.2,0.3
	c-0.1-0.1-0.2-0.1-0.3-0.2c-0.7-1.1-1-2.3-1.3-3.5c-0.1-0.3-0.2-0.7-0.3-1c-0.3-0.7-0.8-0.8-1.3-0.2c-0.1,0.2-0.3,0.4-0.4,0.6
	c0,0-0.3,0-0.3-0.1c-0.1-0.3-0.1-0.6-0.2-0.9c-0.1-0.5-0.2-0.9-0.4-1.4c-0.2-0.5-0.7-0.6-1.2-0.3c-0.2,0.1-0.3,0.2-0.5,0.4
	c0-0.2-0.1-0.5-0.1-0.7c0-0.5,0.2-0.9,0.2-1.4c0-0.3-0.1-0.6-0.2-0.8c-0.2-0.5-1-0.6-1.3-0.1c-0.2,0.3-0.4,0.7-0.5,1.1
	c0,0.1-0.1,0.1-0.1,0.1c0-0.1-0.1-0.1-0.1-0.2c0-0.9-0.1-1.8,0-2.7c0-0.5,0.3-1,0.6-1.5c0.8-1.1,1.9-1.7,3-2.5
	c0.1-0.1,0.5,0,0.6,0.1c0.2,0.1,0.3,0.3,0.5,0.5c0.2,0.2,0.1,0.5,0,0.6c-0.4,0.3-0.9,0.6-1.3,1c-0.1,0.1-0.2,0.3-0.3,0.4
	c-0.2,0.2,0,0.5,0.2,0.6c0.4,0.1,0.8,0.1,1.2-0.1c1.9-1,3.4-2.3,4.2-4.4c0.2-0.4,0.1-0.7-0.1-1c-0.1-0.2-0.5-0.3-0.6-0.1
	c-0.5,0.6-1,1.2-1.5,1.8c-0.1,0.1-0.3,0.3-0.4,0.1c-0.1-0.1-0.3-0.3-0.3-0.4c0.1-0.6,0.2-1.3,0.7-1.7c0.8-0.6,1.6-1.2,2.3-1.9
	c0.8-0.7,1.8-1,2.9-1.1c2.5-0.1,4.7,0.6,6.5,2.5c1.8,1.9,3,4.1,3.6,6.6c0.1,0.6,0.1,1.3,0.2,1.9
	C-265.6,414.1-265.8,415.3-266.6,416.4z M-278.8,394.2c0.1,0.6,0.4,0.8,0.9,0.9c0.3,0,0.7,0,1.1,0c0.5-0.1,0.8-0.3,0.9-0.8
	c0.2-0.9,0.4-1.9,0.3-2.8c0-3.3,0-6.5,0-9.8h0.1c0-1.1,0-2.1,0-3.2c0-2.4,0-4.9,0-7.3c0-0.7,0-1.3-0.3-1.9c0-0.1-0.1-0.1-0.1-0.1
	c-0.1,0-0.2,0.1-0.3,0.1c-0.1,0.3-0.2,0.5-0.3,0.8c-0.4,1.7-0.7,3.4-0.7,5.1c0,1.2-0.2,2.3-0.6,3.5c-0.4,1.2-0.6,2.5-0.7,3.8
	c-0.3,3.4-0.5,6.7-0.3,10.1C-279,393.1-278.9,393.7-278.8,394.2z M-262.1,378.2c-0.1-1-0.1-2-0.1-3c0-0.5-0.1-0.9-0.2-1.4
	c0-0.1-0.1-0.2-0.2-0.3c-0.1,0.1-0.2,0.1-0.2,0.2c-0.1,0.2-0.2,0.4-0.3,0.7c-0.5,2-1,4-1.4,6c-0.1,0.6-0.1,1.2-0.1,1.8
	c-0.1,1.7-0.2,3.4-0.2,5.2c0,0.7,0,1.4,0,2.1c0.1,1.8,0.1,3.6,0.2,5.3c0,0.8,0,1.7,0.1,2.5c0,0.4,0.1,0.7,0.2,1
	c0.1,0.6,0.4,0.8,1,0.7c0.5-0.1,0.8-0.3,0.8-0.8c0.1-1.2,0.3-2.5,0.3-3.7c0.1-1.9,0-3.8,0-5.7c0,0-0.1,0-0.1,0
	c0.1-2.2,0.1-4.4,0.2-6.6C-262,380.9-261.9,379.5-262.1,378.2z M-270.9,385.3c0,0.5,0.1,1.1,0.2,1.6c0.1,0.4,0.4,0.8,0.6,1.2
	c0.1,0.2,0.5,0.2,0.6-0.1c0.2-0.4,0.5-0.8,0.6-1.3c0.2-0.7,0.3-1.5,0.3-2.3c0.2-2.4-0.1-4.7,0.3-7.1c0.1-0.4,0-0.8,0-1.2
	c-0.3-1.5-0.2-3.1-0.1-4.6c0.1-1.7-0.1-3.3-0.2-4.9c0-0.2-0.2-0.4-0.3-0.6c0-0.1-0.3-0.1-0.3,0c-0.1,0.2-0.3,0.5-0.4,0.8
	c-0.6,2.4-0.8,4.9-1,7.4c-0.1,0.8,0,1.7-0.1,2.5c-0.3,1.8-0.3,3.5-0.2,5.3C-270.9,383-271,384.2-270.9,385.3z M-271.7,409
	c-0.1,0-0.1-0.1-0.2,0c-0.2,0.1-0.4,0.1-0.6,0.2c-0.1,0.1-0.1,0.3-0.1,0.5c0.2,0.8,0.8,1.3,1.4,1.7c0,0,0.1,0,0.2,0
	c0.4,0,0.8-0.5,0.6-0.9C-270.6,409.8-271,409.3-271.7,409z M-274.9,408.6c-0.2-0.1-0.6,0-0.7,0.3c-0.3,0.4-0.2,0.8,0.2,1.3
	c0.3,0.3,0.9,0.4,1.2,0.1c0.1-0.1,0.2-0.3,0.2-0.4C-274.1,409.3-274.3,408.8-274.9,408.6z M-271.1,407.6c0.2,0,0.5-0.2,0.5-0.3
	c0-0.5-0.3-0.7-0.7-1c-0.2-0.1-0.5-0.1-0.6,0.1c-0.1,0.1-0.1,0.3-0.1,0.5C-271.8,407.2-271.5,407.5-271.1,407.6z"/>
</svg>
