<?xml version="1.0" encoding="utf-8"?>
<!-- Generator: Adobe Illustrator 19.0.0, SVG Export Plug-In . SVG Version: 6.00 Build 0)  -->
<svg version="1.1" id="Слой_1" xmlns="http://www.w3.org/2000/svg" xmlns:xlink="http://www.w3.org/1999/xlink" x="0px" y="0px"
	 viewBox="-282 379 47 35" style="enable-background:new -282 379 47 35;" xml:space="preserve">
<path d="M-244.5,399c-0.2-0.7-0.3-1.4-0.3-2.1c-0.1-1.1-0.1-2.2,0-3.3c0.1-1.2,0.2-2.3,0.8-3.3c0.4-0.6,0.4-1.3,0.3-2
	c-0.1-0.5-0.5-0.9-1-1c-0.8-0.1-1.5,0.2-1.8,0.9c-0.2,0.4-0.3,0.8-0.4,1.2c-0.1,0.6-0.4,1.2-0.7,1.7c-0.7,1.1-1.3,2.3-1.8,3.5
	c-0.1,0.3-0.3,0.5-0.4,0.8c-0.1,0.2-0.4,0.3-0.6,0.3c-0.2,0-0.4-0.2-0.4-0.5c0-0.2,0-0.5,0-0.7c0.1-1.4-0.1-2.8-0.2-4.2
	c0-0.4-0.1-0.8-0.3-1.1c-0.1-0.4-0.5-0.6-0.9-0.7c-0.2,0-0.5,0-0.7,0c-0.5,0-0.8,0.2-1.1,0.6c-0.3,0.6-0.4,1.1,0.1,1.6
	c0.4,0.4,0.5,0.8,0.5,1.3c0,1.1,0,2.1,0,3.2c0,0.5,0.1,1.1,0.3,1.6c0.3,0.7,0.7,1.1,1.4,1.4c1.4,0.4,2.6,0.3,3.7-0.8
	c0.1-0.1,0.2-0.2,0.4-0.2c0.1,0.1,0.1,0.2,0.1,0.4c0,0.9,0.2,1.8,0.5,2.7c0.5,1.9,0.9,3.8,0.8,5.5c0,0.9,0,1.5,0,2.2
	c0,0.7-0.1,1.3-0.3,2c-0.3,0.9-0.9,1.4-1.9,1.4c-1,0-2.1,0-3.1,0c-0.7,0-1.4-0.3-2.1-0.6c-0.5-0.2-0.6-0.6-0.5-1.1
	c0.1-0.5,0.2-1,0.4-1.4c0.5-1,1.2-2,1.9-2.9c0.4-0.5,0.9-0.7,1.5-0.5c0.4,0.1,0.8,0.2,1.2,0.2c0.7,0,1.2-0.4,1.3-1
	c0.1-0.4-0.2-1-0.7-1.2c-0.5-0.3-1.1-0.5-1.6-0.6c-0.8-0.2-1.7-0.1-2.4,0.3c-0.5,0.3-1,0.7-1.3,1.1c-1,1.2-1.8,2.5-2.5,3.9
	c-0.5,0.9-0.6,1.9-0.5,3c0,0.8,0.4,1.4,0.9,1.9c0.5,0.5,1.2,0.9,1.9,1.1c2.4,0.9,4.8,0.9,7.3,0.3c1.1-0.3,1.9-1,2.5-2
	c0.2-0.4,0.4-0.9,0.6-1.3c0.8-2.1,0.6-4.2,0.4-6.3C-243.7,402.3-244.1,400.6-244.5,399z M-267.2,398.9c-0.6,0.2-1.2,0.5-1.6,1.1
	c-0.5,0.7-0.9,1.4-1.4,2.1c-0.2,0.3-0.4,0.4-0.7,0.4c-0.9-0.1-1.7-0.5-2.4-1.1c-0.3-0.3-0.5-0.7-0.5-1.2c0-0.7,0-1.4,0.1-2
	c0-0.3,0.2-0.5,0.3-0.8c0,0,0.2-0.1,0.2,0c0.2,0.2,0.3,0.3,0.5,0.5c0.3,0.2,0.6,0.2,1,0c0.3-0.2,0.5-0.5,0.6-0.8
	c0.1-0.7,0.1-1.4,0.1-2.2c0-0.4-0.3-0.7-0.6-0.9c-1.1-0.7-2.5-0.6-3.3,0.4c-0.3,0.4-0.5,0.8-0.8,1.2c-0.2,0.3-0.4,0.2-0.5-0.1
	c-0.1-0.3-0.2-0.5-0.4-0.8c-0.9-1.3-2.1-1.3-3.3-0.4c-0.1,0.1-0.2,0.2-0.3,0.3c-0.6,0.8-1.1,1.6-1.5,2.5c-0.2,0.5-0.3,1-0.2,1.6
	c0,0.5,0.5,1,1,1.1c0.5,0.1,1.1-0.1,1.4-0.6c0.1-0.3,0.2-0.5,0.3-0.8c0.1-0.3,0.2-0.6,0.3-0.8c0.1-0.1,0.2-0.3,0.3-0.3
	c0.1,0,0.2,0.1,0.3,0.3c0.1,0.1,0,0.2,0.1,0.3c0.4,1.7,0.7,3.3,0.6,5c0,0.7,0,1.5,0,2.2c0,0.3-0.1,0.6-0.2,0.9
	c0,0.2-0.3,0.3-0.5,0.2c-0.4-0.3-0.8-0.7-1.3-1c-0.4-0.3-0.8-0.3-1.2-0.1c-0.6,0.3-0.9,0.9-0.6,1.6c0.5,1,1.2,1.7,2.1,2.2
	c1.7,0.9,3.4,0.2,4-1.4c0.3-0.7,0.5-1.4,0.5-2.1c0-0.3,0-0.6,0-0.9c0-0.3,0.1-0.4,0.4-0.2c0.3,0.1,0.5,0.3,0.8,0.4
	c1,0.5,2,0.8,3.1,0.8c1.3,0,2.3-0.5,2.9-1.6c0.3-0.6,0.6-1.3,0.9-2c0.4-0.8,0.3-1.6,0.3-2.4C-266.5,398.9-266.8,398.8-267.2,398.9z
	 M-235.1,385.5c-0.2-0.4-0.8-0.7-1.3-0.6c-0.2,0-0.4,0.1-0.6,0.2c-0.3,0.1-0.6,0.3-0.9,0.4c-0.1,0-0.3,0.2-0.4,0c0-0.1,0-0.2,0-0.3
	c0.5-1,0.6-2.1,0.5-3.3c0-0.5,0-1,0-1.4c0-1-0.7-1.4-1.5-1.5c-0.4,0-0.9,0-1.3,0.1c-1.2,0.5-2.1,1.3-2.7,2.4
	c-0.5,0.9-0.3,1.9,0.5,2.5c0.2,0.2,0.6,0.2,0.8,0c0.3-0.3,0.5-0.6,0.5-1c0.1-0.4,0.3-0.7,0.6-1c0.1-0.1,0.3-0.1,0.4-0.2
	c0.1,0.2,0.2,0.3,0.2,0.5c0,0.5-0.1,1-0.2,1.4c-0.2,0.6-0.5,1.2-0.8,1.7c-0.2,0.5-0.4,1-0.6,1.5c-0.1,0.2-0.1,0.5,0,0.7
	c0.3,0.6,0.7,1,1.3,1c0.6,0,1.2,0.1,1.8-0.1c1.1-0.4,2.1-1,3.2-1.5C-235,386.8-234.9,386-235.1,385.5z M-257.7,396.3
	c-0.1,0-0.3,0-0.4,0.1c-1.1,0.3-2.3,0.6-3.4,1c-0.5,0.1-0.9,0.4-1.3,0.6c-0.2,0.1-0.4,0.4-0.6,0.6c-0.4,0.8,0.2,1.6,1.1,1.7
	c0.1,0,0.2,0,0.4,0c1.1-0.3,2.2-0.6,3.2-1c0.6-0.2,1.1-0.5,1.5-0.9c0.2-0.2,0.4-0.5,0.5-0.7C-256.5,396.9-257,396.3-257.7,396.3z
	 M-263.1,397.1c1.3-0.3,2.6-0.8,3.8-1.5c0.3-0.2,0.5-0.5,0.7-0.8c0.3-0.5,0.1-1-0.5-1.3c-0.5-0.2-1-0.2-1.4,0
	c-1.1,0.4-2.2,0.7-3.4,1.1c-0.3,0.1-0.6,0.3-0.9,0.5c-0.5,0.4-0.5,1.3,0.1,1.6c0.4,0.2,0.8,0.4,1.3,0.4
	C-263.3,397.1-263.2,397.1-263.1,397.1z"/>
</svg>
