<?xml version="1.0" encoding="utf-8"?>
<!-- Generator: Adobe Illustrator 19.0.0, SVG Export Plug-In . SVG Version: 6.00 Build 0)  -->
<svg version="1.1" id="Слой_1" xmlns="http://www.w3.org/2000/svg" xmlns:xlink="http://www.w3.org/1999/xlink" x="0px" y="0px"
	 viewBox="-284 373 42 47" style="enable-background:new -284 373 42 47;" xml:space="preserve">
<path d="M-242.1,411.7c-0.2-1.9-0.5-3.7-0.7-5.6c-0.2-1.2-0.3-2.4-0.5-3.5c-0.3-1.6-0.5-3.2-0.7-4.9c-0.2-2.1-0.4-4.2-0.9-6.2
	c-1.2-5-2-10-2.2-15.2c0-0.2-0.1-0.4-0.2-0.5c-0.3-0.3-0.3-0.7-0.4-1.1c-0.1-0.9-0.7-1.5-1.6-1.6c-1.2-0.1-2.3-0.2-3.5,0
	c-1.3,0.2-2.6,0.3-3.9,0.3c-2.5,0-5-0.1-7.5-0.2c-2.3-0.1-4.6,0-6.9,0.3c-0.6,0.1-1.2,0.2-1.9,0.1c-1.6-0.4-3.1-0.2-4.6,0.4
	c-0.3,0.1-0.7,0.2-1,0.2c-1.2-0.1-2.1,0.6-2.8,1.4c-0.6,0.6-1.1,1.3-1.6,2c-0.1,0.2-0.2,0.3-0.3,0.5c-0.2,1-0.6,1.9-0.6,2.9
	c0,0.8-0.1,1.6-0.1,2.4c0,1.4,0,2.9,0,4.3c0,1.7,0,3.5,0,5.2c0,0.2,0,0.4,0,0.6c0.1,2,0.3,4,0.4,6c0.1,1,0,2,0.1,3
	c0.4,2.9,0.2,5.8,0.5,8.6c-0.2,2,0.3,4.1,0.2,6.1c0,0.2,0.1,0.6,0.2,0.7c0.6,0.4,1.2,1,1.8,1.4c0.2,0.1,0.6,0.1,0.9,0.2
	c0.7,0.1,1.4,0.1,2,0.2c1.4,0.3,2.7,0.2,4.1,0.1c1.8-0.1,3.5-0.5,5.2-0.6c1.9-0.2,3.8-0.5,5.7-0.3c1.1,0.1,2.2,0.1,3.2,0
	c2.2-0.1,4.5-0.5,6.7-0.9c0.2-0.1,0.5-0.1,0.7-0.1c1.5,0,3-0.4,4.5-0.3c0.6,0,1-0.2,1.4-0.7c0.2-0.2,0.3-0.5,0.5-0.7
	c0.4-0.3,0.5-0.7,0.5-1.2c0-0.6-0.1-1.2-0.2-1.8c-0.1-1-0.1-2.1-0.2-3.1c-0.1-1.4-0.3-2.9-0.5-4.3c-0.3-2.1-0.5-4.2-1-6.3
	c-0.3-1.1-0.5-2.1-0.6-3.2c-0.1-1.1-0.2-2.2-0.2-3.3c0-0.5-0.1-1.1-0.1-1.6c0-0.2,0-0.4-0.2-0.5c-0.2-0.1-0.4,0.1-0.5,0.4
	c-0.1,0.3-0.1,0.6-0.1,0.9c0,0.7,0.2,1.4,0.2,2.1c0,0.6,0,1.3,0,1.9c0,0,0,0.1-0.1,0.1c0-0.1-0.1-0.1-0.1-0.2c0-0.2,0-0.5,0-0.7
	c-0.2-1.6-0.4-3.2-0.6-4.7c-0.2-1.6-0.3-3.3-0.5-4.9c-0.1-1.7-0.5-3.3-0.3-5.1c0.1-0.6-0.4-1.1-1.1-1.2c-0.6,0-1.3-0.1-1.9,0
	c-2.5,0.2-5.1,0.4-7.6,0.5c-2.3,0.1-4.7,0.1-7,0.1c-2,0-3.9,0.1-5.9,0.2c-0.3,0-0.7,0-1,0c-0.4,0-0.5-0.2-0.5-0.5
	c0.1-0.9,0.2-1.8,0.2-2.7c0-0.4,0-0.8-0.1-1.2c0.4-0.2,0.9-0.1,1.3,0c1.1,0.1,2.2,0.1,3.4,0c1.8-0.1,3.6,0,5.4,0c0.3,0,0.7,0.1,1,0
	c1.7-0.1,3.3,0.1,5,0.1c0.3,0,0.7,0.1,1,0.1c0.1,0,0.1,0.1,0.2,0.1c0,0-0.1,0.1-0.1,0.1c-0.4,0-0.8,0-1.2,0c-2,0.3-4.1,0.3-6.1,0.4
	c-1.2,0.1-2.3-0.1-3.5-0.2l0,0c-1.1-0.1-2.2-0.1-3.2-0.2c-0.6,0-1.1,0-1.6,0.2c-0.1,0-0.2,0.1-0.2,0.2c0,0.1,0,0.3,0.1,0.4
	c0.2,0.3,0.5,0.2,0.8,0.2c1.7,0.1,3.3,0.2,5,0.4c0.4,0,0.8,0.1,1.2,0.2c0.1,0,0.1,0.1,0.2,0.1c0,0-0.1,0-0.1,0
	c-0.8,0.1-1.6,0.2-2.3,0.2c-1.2,0.1-2.4,0.2-3.6,0.4c-0.2,0-0.4,0.1-0.5,0.2c-0.1,0.1-0.2,0.2-0.2,0.3c0,0.1,0.1,0.3,0.2,0.4
	c0.2,0.1,0.5,0.2,0.7,0.2c1.4-0.1,2.7-0.3,4.1-0.4c1.7-0.1,3.4-0.3,5.1-0.3c2.5,0,5,0.1,7.5,0.1c0.7,0,1.4-0.1,2-0.1
	c0.3,0,0.5-0.3,0.5-0.6c0-0.3-0.3-0.5-0.6-0.5c-0.1,0-0.3,0-0.4,0c-0.9,0.2-1.9,0.1-2.8,0.1c-0.5,0-1,0-1.5,0c-0.9,0-1.9,0-2.8,0
	c-0.5,0-1-0.1-1.4-0.2c0.4-0.3,0.9-0.1,1.4-0.1c1.6-0.1,3.2-0.3,4.8-0.4c0.6,0,1.3-0.1,1.9-0.1c0.8,0,1.6-0.1,2.3-0.1
	c0.2,0,0.4-0.4,0.3-0.6c-0.1-0.1-0.2-0.2-0.3-0.3c-0.2-0.2-0.1-0.4,0.1-0.4c0.8-0.1,1.7-0.1,2.5,0c0.2,0,0.3,0.2,0.4,0.4
	c0,0.2,0,0.5,0,0.7c0,0.8,0,1.6,0,2.4c0.1,1.4,0.3,2.8,0.5,4.1c0.2,1.6,0.4,3.3,1.2,4.7c0.1,0.2,0.1,0.5,0.2,0.7
	c0.5,1.9,0.9,3.9,1.1,5.9c0.2,1.6,0.4,3.2,0.6,4.7c0.2,1.3,0.5,2.6,0.5,3.8c0,2,0.4,4,0.3,6c0,0.7,0.1,1.4,0.2,2.1
	c0.1,0.4,0.1,0.8,0.2,1.2c0.2,0.4,0.7,0.3,1,0.5c0.2,0.1,0.3,0.2,0.5,0.3c0.3,0.1,0.9-0.2,0.9-0.5C-242,412.4-242,412-242.1,411.7z
	 M-277,376.2c0,0,0.1,0,0.1,0c0,0.1,0.1,0.2,0,0.3c-0.3,0.5-0.6,1-0.9,1.5c-0.3,0.5-0.4,1,0,1.5c0.3,0.4,0.2,0.8,0,0.9
	c-0.3,0.1-0.7-0.1-0.8-0.5c-0.1-0.3-0.2-0.7-0.2-0.9C-278.5,377.7-278,376.8-277,376.2z M-248.5,397c0,0.1,0.1,0.1,0.1,0.2
	c0,0.1,0,0.2,0,0.3c0,0.2,0,0.3,0,0.5c0,0,0,0,0,0c0,0,0,0,0,0.1c0.3,0.2,0.2,0.6,0.3,0.9c0.8,2.7,1,5.5,1.2,8.2
	c0.2,2.4,0.4,4.8,0.6,7.3c0,0.1,0,0.2-0.1,0.3c0,0-0.1,0.1-0.1,0.1c-0.1,0-0.2,0-0.3,0c-0.1-0.3-0.3-0.6-0.3-1
	c-0.1-1-0.1-2.1-0.2-3.1c-0.1-1.5-0.2-3.1-0.4-4.6c-0.2-2.3-0.6-4.5-0.8-6.8c0-0.4,0-0.8,0-1.3c0,0,0,0,0,0c0,0,0,0,0-0.1
	c-0.2-0.2-0.2-0.5-0.2-0.7C-248.6,397.2-248.5,397.1-248.5,397z M-271.2,382.8c0.6,0,1.2-0.1,1.8-0.1c1.9,0,3.8-0.1,5.7-0.1
	c2.9,0,5.8-0.4,8.6-0.6c0.6-0.1,1.2-0.1,1.8-0.1c0.2,0,0.3,0.2,0.3,0.4c0,0.4,0,0.8-0.1,1.2c-0.2,2.3,0,4.7,0.3,7
	c0.4,2.8,0.9,5.6,1.2,8.4c0.2,1.4,0.3,2.9,0.4,4.3c0.2,3.1,0.6,6.1,1.4,9.1c0.1,0.2,0.1,0.5,0.1,0.7c0.1,0.8,0.1,0.9-0.8,1
	c-2,0.3-3.9,0.7-5.9,1.2c-1.5,0.4-2.9,0.7-4.5,0.5c-2-0.2-4-0.1-6,0.3c-0.8,0.2-1.5,0.3-2.3,0.5c-1.1,0.3-2.2,0.4-3.3,0.6
	c-1,0.2-2,0.1-3.1,0.1c-1.6,0-2.8-0.9-3.9-1.9c-0.2-0.2-0.3-0.4-0.3-0.6c-0.1-0.9-0.3-1.9-0.3-2.8c-0.1-1.7-0.1-3.4-0.2-5.1
	c0-1-0.1-2-0.2-3c0-0.7,0.1-1.3,0.5-1.8c0.3-0.4,0.6-0.9,0.9-1.4c0.1-0.1,0.1-0.3,0.1-0.4c-0.1-0.2-0.2-0.4-0.3-0.5
	c-0.1-0.1-0.3,0-0.4,0c-0.2,0.2-0.5,0.4-0.7,0.5c0,0-0.2,0-0.2-0.1c-0.2-1-0.3-2,0.2-2.9c0.6-1,1-2.1,1.8-3.1
	c0.3-0.4,0.2-0.8-0.1-1.2c-0.2-0.2-0.5-0.3-0.8-0.2c-0.5,0.1-0.9,0.4-1.2,0.8c-0.1,0.1-0.2,0.1-0.3,0.1c-0.1-0.1-0.2-0.3-0.2-0.4
	c0-0.3,0.1-0.6,0.2-0.8c0.4-0.8,0.9-1.5,1.4-2.3c0.4-0.6,0.7-1.2,1.1-1.8c0.2-0.3,0.3-0.6,0-1c-0.3-0.3-0.6-0.5-1-0.4
	c-0.3,0.1-0.6,0.3-0.9,0.4c-0.2,0.1-0.4,0.3-0.6,0.5c0,0-0.2,0-0.2-0.1c-0.1-0.1-0.1-0.2-0.1-0.3c-0.1-1.5-0.1-3.1-0.1-4.6
	c0-0.1,0-0.2,0-0.3c0.1-0.1,0.1-0.2,0.3-0.2c0.3,0.1,0.7,0.2,1,0.1c0.5-0.2,1.1-0.1,1.6-0.1c0.9,0.1,1.9,0.2,2.8,0.2
	C-274.1,382.9-272.7,382.9-271.2,382.8z M-264.3,377.9c-0.1,0-0.2,0-0.3-0.1c0.1,0,0.2,0,0.3-0.1c0.1,0,0.1,0.1,0.2,0.1
	C-264.1,377.9-264.2,378-264.3,377.9z M-275.9,400.2c0.6,2.9,2.1,5.2,4.8,6.7c1.5,0.8,3.1,1.3,5.3,1.4c1.8,0,4.1-0.3,6.3-1.3
	c1.6-0.7,2.7-1.9,3.5-3.5c0.8-1.7,1.2-3.6,1.3-5.5c0.1-1.5-0.1-3.1-0.5-4.6c-0.5-1.9-1.4-3.5-3.1-4.6c-0.9-0.6-1.7-1.2-2.5-1.8
	c-0.5-0.3-1-0.5-1.5-0.5c-2-0.1-4,0.1-6,0.6c-0.8,0.2-1.6,0.6-2.2,1.1c-0.6,0.5-1.3,1.1-1.9,1.6c-0.7,0.6-1.3,1.4-1.7,2.2
	c-0.3,0.6-0.6,1.2-0.9,1.7c-0.8,1.4-1.2,2.9-1.1,4.6C-276.1,399-276,399.6-275.9,400.2z M-268.6,406.1c-0.6-0.2-1.2-0.3-1.6-0.8
	c0,0,0-0.2,0-0.2c0.3-0.1,0.5-0.2,0.8-0.3c0.3-0.1,0.5,0,0.6,0.2c0.1,0.3,0.3,0.6,0.4,0.9C-268.5,406-268.5,406.1-268.6,406.1z
	 M-268.4,402.6c-0.2-0.9-0.5-1.8-0.7-2.7c-0.1-0.2,0.1-0.4,0.3-0.4c0.8-0.1,1.5-0.2,2.3-0.3c0.2,0,0.5,0,0.7-0.1
	c0.7-0.1,0.8,0,0.9,0.6c0.1,0.6,0.2,1.2,0.3,1.8c-0.1,0.1-0.2,0.2-0.3,0.3c0,0-0.1,0.1-0.1,0.1c-1,0.3-2,0.7-3,1
	C-268.2,403-268.3,402.8-268.4,402.6z M-264.2,393.8c0.6-0.1,1.1-0.2,1.7-0.3c0.4-0.1,0.7-0.2,1.1-0.3c0.4,0.3,0.4,0.9,0.5,1.3
	c0.2,0.7,0.2,1.4,0.3,1.9c0,0.4-0.1,0.6-0.3,0.7c-0.9,0.2-1.8,0.4-2.7,0.5c-0.4,0.1-0.5-0.1-0.6-0.5c-0.2-0.9-0.3-1.7-0.5-2.6
	C-264.8,394-264.7,393.9-264.2,393.8z M-264,406.2c-0.8,0.1-1.7,0.1-2.6,0.2c-0.2-0.1-0.4-0.2-0.5-0.4c-0.3-0.5-0.5-1.1-0.7-1.6
	c-0.1-0.2,0-0.4,0.2-0.5c0.9-0.4,1.9-0.6,2.8-0.7c0.4-0.1,0.6,0.1,0.7,0.6c0.1,0.7,0.3,1.4,0.4,2C-263.7,406-263.8,406.2-264,406.2z
	 M-260.5,403.8c-0.1,0.4-0.1,0.8-0.2,1.2c-0.1,0.3-0.3,0.5-0.6,0.6c-0.2,0.1-0.4,0.1-0.6,0.2c-0.6,0.2-0.9,0-1-0.7
	c-0.1-0.6-0.2-1.3-0.3-1.9c0-0.1,0.1-0.3,0.2-0.3c0.7-0.1,1.5-0.2,2.2-0.3c0.3,0,0.4,0.2,0.3,0.5
	C-260.4,403.3-260.5,403.5-260.5,403.8C-260.5,403.8-260.5,403.8-260.5,403.8z M-260.5,401.1c-0.9,0.1-1.7,0.3-2.6,0.4
	c-0.1,0-0.4-0.2-0.4-0.3c-0.2-0.6-0.3-1.2-0.4-1.7c-0.1-0.4,0-0.5,0.4-0.7c0.8-0.2,1.7-0.5,2.5-0.7c0.2-0.1,0.5,0.1,0.5,0.4
	c0.1,0.4,0.1,0.9,0.1,1.3c0,0,0,0,0,0c0,0.3,0.1,0.6,0.1,0.9C-260.1,400.9-260.2,401.1-260.5,401.1z M-258.2,403.2
	c-0.2,0.3-0.4,0.5-0.6,0.8c0,0-0.1,0.1-0.1,0c-0.1-0.1-0.1-0.1-0.1-0.2c0-0.1,0-0.3,0-0.4c0-0.2,0-0.3,0.1-0.4
	c0.1-0.1,0.2-0.2,0.3-0.2c0.2,0,0.4,0.1,0.5,0.2C-258.2,403-258.1,403.1-258.2,403.2z M-256.6,398c0,0.2,0,0.4,0,0.6
	c-0.1,0.8-0.1,1.7-0.4,2.5c-0.2,0.5-0.3,0.6-0.9,0.4c-0.2-0.1-0.5-0.1-0.7-0.3c-0.1-0.1-0.2-0.2-0.2-0.3c-0.1-0.9-0.2-1.8-0.3-2.6
	c0-0.1,0.2-0.4,0.3-0.4c0.4-0.2,0.9-0.3,1.4-0.5c0.3-0.1,0.5-0.6,0.9-0.2C-256.4,397.3-256.6,397.7-256.6,398z M-258.3,391.4
	c0.1,0,0.2,0.1,0.2,0.1c0.6,1.1,1.1,2.3,1.3,3.6c0.1,0.3,0,0.6-0.3,0.8c-0.6,0.4-1.1,0.8-1.9,0.8c-0.3,0-0.5-0.1-0.5-0.4
	c-0.2-1.1-0.4-2.2-0.7-3.4c-0.1-0.3,0-0.5,0.3-0.6c0.4-0.3,0.9-0.6,1.4-0.9C-258.4,391.4-258.4,391.4-258.3,391.4z M-261.8,388.8
	c0.8,0.4,1.6,0.6,2.3,1.3c0.1,0.1,0.1,0.2,0.2,0.4c-0.4,0.2-0.8,0.5-1.2,0.7c-0.1,0-0.3-0.1-0.3-0.2c-0.3-0.7-0.7-1.3-1.1-1.9
	c-0.1-0.1-0.1-0.2-0.1-0.2C-262,388.8-261.9,388.7-261.8,388.8z M-265.2,388.2c0.2,0,0.5,0,0.8-0.1c0.2,0.1,0.4,0.1,0.6,0.3
	c0.4,0.3,0.7,0.7,1,1.1c0.4,0.5,0.7,1.1,1,1.7c0.2,0.3,0.1,0.6-0.2,0.7c-0.8,0.3-1.6,0.6-2.5,0.5c-0.2,0-0.4-0.2-0.4-0.3
	c-0.2-1.1-0.5-2.1-0.7-3.2C-265.8,388.6-265.6,388.3-265.2,388.2z M-265.9,394.3c0.1,0.2,0.1,0.4,0.1,0.6c0.2,0.8,0.3,1.6,0.5,2.5
	c0.1,0.3-0.1,0.6-0.5,0.6c-0.9,0.1-1.7,0.2-2.6,0.2c-0.3,0-0.6,0.2-0.8,0c-0.4-0.2-0.3-0.7-0.4-1.1c0-0.4,0-0.9-0.1-1.3
	c-0.1-1.7-0.1-1.7,1.5-1.8c0.4,0,0.9,0,1.4,0c0.1,0,0.3,0,0.5,0C-266.1,394.1-265.9,394.2-265.9,394.3z M-269.3,390.8
	c0.1-0.4,0.2-0.8,0.3-1.2c0.1-0.3,0.1-0.7,0.4-0.9c0.5-0.3,1-0.5,1.5-0.4c0.1,0,0.2,0.2,0.3,0.3c0,0,0.1,0.1,0.1,0.1
	c0.2,1.1,0.3,2.3,0.5,3.4c0,0.4-0.1,0.6-0.5,0.6c-0.5,0.1-1.1,0.1-1.3,0.1c-0.6,0-0.9,0-1.1-0.1c-0.1,0-0.3-0.2-0.3-0.3
	C-269.5,391.9-269.4,391.4-269.3,390.8z M-270.3,399.9c0.3,1.1,0.6,2.2,0.9,3.3c0,0,0,0.1,0,0.2c-0.1,0.1-0.2,0.2-0.3,0.3
	c-0.5,0.3-1,0.5-1.6,0.8c-0.6-0.3-1-0.8-1.4-1.3c-0.7-0.9-1.1-2.1-1.5-3.2c-0.1-0.2,0.1-0.4,0.3-0.4c1,0,2,0,3.1,0
	C-270.6,399.6-270.4,399.6-270.3,399.9z M-272.2,392.1c0.4-0.5,0.7-1.1,1.1-1.6c0.3-0.4,0.5-0.9,1.1-1c0.1,0.5-0.1,1-0.2,1.4
	c-0.1,0.4-0.1,0.8-0.2,1.2c-0.1,0.6-0.1,0.6-0.8,0.5c-0.2,0-0.5-0.1-0.8-0.1C-272.3,392.5-272.4,392.3-272.2,392.1z M-274.5,397.5
	c0.2-1.3,0.5-2.6,1.3-3.7c0.2-0.3,0.4-0.4,0.7-0.2c0.3,0.1,0.5,0.2,0.8,0.3c1.2,0.3,1,0.4,1,1.4c0,0.8,0.1,1.6,0.1,2.4
	c0.1,0.8-0.1,1-0.9,1c-0.4,0-0.9,0-1.3,0c0,0,0,0,0,0c-0.3,0-0.7,0-1-0.1C-274.4,398.4-274.6,398.1-274.5,397.5z M-256.1,409.2
	c-1-0.1-2,0.1-3.1,0.3c-1.5,0.3-3.1,0.4-4.7,0.4c-1,0-1.9,0.1-2.9,0.2c-1.4,0.1-2.8,0.5-4.2,0.5c-0.2,0-0.5,0.1-0.7,0.3
	c-0.3,0.2-0.4,0.5-0.3,0.8c0.1,0.3,0.3,0.5,0.6,0.6c0.3,0.1,0.7,0.1,1.1,0.2c0.5,0,1.2-0.1,1.8-0.1c1.6-0.2,3.3-0.4,5-0.4
	c1.2,0,2.3-0.2,3.5-0.3c1.4-0.1,2.7-0.5,4.1-0.4c0.2,0,0.5-0.1,0.7-0.2c0.4-0.2,0.5-0.6,0.5-1c0-0.4-0.4-0.7-0.8-0.8
	C-255.8,409.2-255.9,409.2-256.1,409.2z"/>
</svg>
