<?xml version="1.0" encoding="utf-8"?>
<!-- Generator: Adobe Illustrator 19.0.0, SVG Export Plug-In . SVG Version: 6.00 Build 0)  -->
<svg version="1.1" id="Слой_1" xmlns="http://www.w3.org/2000/svg" xmlns:xlink="http://www.w3.org/1999/xlink" x="0px" y="0px"
	 viewBox="-282 375.1 58.2 42.9" style="enable-background:new -282 375.1 58.2 42.9;" xml:space="preserve">
<style type="text/css">
	.st0{clip-path:url(#SVGID_2_);}
</style>
<path d="M-235.3,412c-0.4-1.2-0.9-2.4-1.4-3.5c-0.5-1.2-1.4-2.2-1.8-3.5c-0.1-0.2-0.2-0.4-0.4-0.6c-0.5-0.7-1.1-1.2-2-1.3
	c-0.4,0-0.9-0.2-1.3-0.2c-2,0-4-0.1-6-0.2c-2.5-0.2-5-0.2-7.4-0.3c-1.7-0.1-3.4,0.2-5.1-0.3c-2.1-0.1-4.1-0.2-6.2-0.3c0,0,0,0,0,0
	c-0.6,0-1.3,0-1.9,0c-0.6,0-1.3,0-1.9,0.1c-0.6,0-1.3,0.2-1.9,0.2c-0.9,0-1.8,0.2-2.6,0.6c-0.6,0.3-1.3,0.5-1.7,1.2
	c-1.1,1.7-2.3,3.4-3.3,5.1c-1,1.7-1.8,3.6-1.6,5.7c0,0.3,0,0.5,0.1,0.8c0,0.2,0,0.4,0.1,0.5c0.2,0.6,0.7,1.1,1.3,1.1
	c0.3,0,0.7,0,0.9,0.1c1.3,0.4,2.6,0.5,3.9,0.6c1.1,0.1,2.2,0.2,3.4,0c0.8-0.1,1.6-0.2,2.4-0.3c1.1,0,2.2,0,3.3,0
	c1.1,0.1,2.2,0.2,3.2,0.4c0.2,0,0.4,0,0.5,0c2.4-0.3,4.8-0.2,7.2-0.2c1,0,2.1,0,3.1,0c1.7,0,3.3-0.1,5,0.2c0.7,0.1,1.4,0,2.2,0
	c0.5,0,1.1-0.1,1.6-0.1c0.9,0,1.8,0,2.7,0c1,0,2,0,3,0c0.7,0,1.4-0.3,2-0.7c0.4-0.3,0.6-0.6,0.6-1c0-0.5,0.1-1,0.3-1.5
	C-234.8,413.7-235,412.9-235.3,412z M-237.9,413.7c-0.2,0.1-0.4,0.2-0.6,0.2c-2.5,0.3-5,0.6-7.6,0.2c-1.4-0.2-2.8-0.3-4.1-0.6
	c-0.3-0.1-0.6,0-0.9,0c-2.6,0-5.2-0.1-7.7,0c-1.5,0-3,0-4.5,0.2c-1.3,0.2-2.7,0.2-4-0.1c-0.7-0.2-1.5,0-2.3,0
	c-0.5,0-1.1,0.1-1.6,0.1c-2.1,0-4.2,0.1-6.2,0.1c-0.5,0-1-0.1-1.4-0.4c-0.4-0.2-0.5-0.5-0.4-0.9c0.2-0.5,0.4-1,0.4-1.6
	c0-0.1,0-0.2,0.1-0.3c0.8-1,1-2.4,2-3.4c0.3-0.3,0.5-0.8,0.8-1.2c0.4-0.7,1-1,1.8-1c2.6-0.1,5.1-0.3,6.9-0.3c2.6,0,4.4-0.1,6.1,0.2
	c0.7,0.1,1.4,0,2.2,0c0.5,0,1-0.1,1.5,0c1.7,0.2,3.4,0.2,5.1,0.2c0.8,0,1.5,0.1,2.3,0.2c1.8,0.2,3.6,0.3,5.4,0.4c0.6,0,1.2,0,1.8,0
	c0.3,0,0.6,0,0.9,0.1c0.9,0.1,1.6,0.6,1.9,1.5c0.1,0.5,0.4,1,0.8,1.4c0.1,0.1,0.2,0.2,0.2,0.3c0.5,1.5,1.3,2.8,1.6,4.3
	C-237.4,413.4-237.5,413.5-237.9,413.7z M-277.2,398.3c0,0.2,0,0.4,0.1,0.5c0.5,1.4,1.7,2.6,3.3,2.6c0.5,0,1,0.2,1.5,0
	c1.3,0.4,2.6,0,3.9-0.1c0.5,0,1.1,0,1.6-0.1c1-0.1,2.1-0.1,3.1,0c1.1,0.1,2.2,0.3,3.4,0.3c2.5,0.1,5,0.2,7.4,0.3
	c0.9,0,1.7,0,2.6,0.1c1.7,0.2,3.4,0.2,5.1,0.2c1.5,0,2.9-0.5,4.2-1.3c0.6-0.3,1-0.8,1.2-1.4c0.6-1.4,1-2.9,1-4.5c0-2.2,0-4.4,0-7.3
	c0-1.3,0-3.3,0.1-5.3c0-1.7-0.2-3.3-0.8-4.8c-0.4-1.2-1.2-1.9-2.4-2.2c-0.8-0.2-1.6-0.3-2.4-0.3c-2.5,0-5-0.1-7.5,0.2
	c-1.2,0.1-2.4,0-3.6-0.1c-3.9-0.2-7.9,0-11.8,0.3c-0.1,0-0.3,0-0.4,0c-0.9,0.2-1.9,0.1-2.8,0.1c-0.2,0-0.4-0.1-0.5,0
	c-0.9,0.2-1.8,0.2-2.7,0.2c-1.5,0.1-2.1,0.4-3,1.5c0,0-0.1,0.1-0.1,0.1c-0.1,0.2-0.2,0.3-0.2,0.5c-0.1,0.5-0.2,1-0.3,1.5
	c-0.2,1.9-0.3,3.8-0.3,5.7c0,4.2,0.2,8.5,0.3,12.7C-277.3,397.9-277.3,398.1-277.2,398.3z M-275,387.4c0.1-1.7,0.1-3.5,0.3-5.2
	c0.1-0.9,0.3-1.9,0.4-2.8c0.1-0.6,0.4-0.9,1-1c0.8-0.2,1.6-0.5,2.4-0.5c1.9-0.1,3.8-0.4,5.7-0.2c1.4,0.2,2.8,0,4.2,0
	c0.4,0,0.7-0.1,1.1-0.1c2.9,0,5.9,0,8.8-0.1c1.4,0,2.7,0,4.1-0.2c0.7-0.1,1.4,0,2,0c0.9,0,1.7,0.3,2.5,0.7c0.8,0.4,1.3,1,1.5,1.8
	c0.2,0.7,0.4,1.5,0.3,2.3c0,2.1,0,4.2,0,6.3h0c0,2.1,0,4.2,0,6.3c0,1.5-0.5,2.7-1.4,3.7c-0.6,0.8-1.5,1.2-2.6,1.4
	c-1,0.1-1.9,0.1-2.8,0c-2.9-0.2-5.8-0.2-8.7-0.3c-1.1,0-2.3,0-3.4-0.2c-0.3-0.1-0.6,0-0.9-0.1c-1-0.1-2-0.2-3-0.2
	c-1.2-0.1-2.4-0.1-3.6,0.1c-1.9,0.2-3.8,0.3-5.7-0.1c-0.3-0.1-0.6-0.2-0.9-0.3c-0.3-0.1-0.6-0.4-0.8-0.7c-0.3-0.6-0.5-1.3-0.5-2
	C-275.1,393.1-275.2,390.2-275,387.4z M-254,408.9c-0.3-0.6-0.7-0.9-1.4-0.9c-0.4,0-0.8,0-1.2,0c-0.9,0-1.7,0-2.6-0.2
	c-0.3-0.1-0.7-0.1-1.1,0c-0.9,0.2-1.8,0.3-2.6,0.6c-0.2,0-0.4,0.2-0.5,0.4c-0.5,0.7-0.7,1.5-0.6,2.3c0,1,0.6,1.6,1.6,1.6
	c1.3,0,2.5,0,3.8,0v-0.1c1.3,0,2.5,0,3.8,0c0.2,0,0.5,0,0.7,0c0.3,0,0.5-0.3,0.5-0.5c0.1-0.8,0.1-1.5-0.1-2.3
	C-253.8,409.4-253.9,409.1-254,408.9z M-255.8,411.4c-0.4,0-0.7,0-1.1,0c-1.2-0.1-2.3-0.2-3.5-0.3c-0.4,0-0.8,0-1.2,0
	c-0.3,0-0.5-0.1-0.5-0.3c-0.1-0.4,0-0.7,0.4-0.8c0.3-0.1,0.7-0.2,1.1-0.2c0.8,0,1.5,0,2.3,0v-0.1c0.7,0,1.4,0,2.2,0
	c0.5,0,0.7,0.2,0.8,0.7c0,0.1,0,0.3,0,0.4C-255.3,411.2-255.4,411.4-255.8,411.4z M-247.3,389.8c-1.3,0-2.5,0-3.7,0
	c-1.5,0-2.8,0-4.2,0.1c-0.5,0-1,0.1-1.5,0.2c-0.4,0-0.6,0.3-0.6,0.6c-0.1,0.2-0.1,0.4-0.1,0.7c0,1.4,0,2.8-0.1,4.2
	c-0.1,0.9,1.2,0.6,1.2,1.4c0,0.1,0.2,0.1,0.3,0.2c0,0,0.1,0,0.1,0c1.2,0,2.3,0,3.5-0.1c0.9,0,1.7-0.1,2.6-0.2c0.7,0,1.4,0,2.2,0
	c0.3,0,0.6-0.2,0.8-0.5c0.2-0.4,0.4-0.9,0.4-1.4c0-1.3,0-2.6,0.2-3.9C-245.9,390.1-246.3,389.8-247.3,389.8z M-255.3,391.6
	c-0.2,0.4-0.4,0.9-0.6,1.3c0,0-0.1,0-0.1,0.1c0,0-0.1-0.1-0.1-0.1c0-0.5,0-1,0-1.4c0-0.1,0.2-0.2,0.3-0.2c0.2,0,0.3,0.1,0.5,0.1
	C-255.3,391.4-255.3,391.5-255.3,391.6z M-254.8,393.2C-254.8,393.1-254.8,393.1-254.8,393.2C-254.7,393.1-254.7,393.1-254.8,393.2
	c-0.1-0.7,0.3-1.2,0.7-1.7c0.2-0.2,0.5-0.3,0.7-0.2c0,0,0.1,0,0.1,0.1c0,0.1,0.1,0.2,0,0.2C-253.8,392-254,392.7-254.8,393.2
	C-254.7,393.1-254.7,393.1-254.8,393.2L-254.8,393.2c0,0.1-0.1,0.1-0.1,0.2C-255,393.2-254.9,393.2-254.8,393.2z M-250.7,395.5
	c-0.1,0.1-0.3,0.3-0.4,0.3c-0.7,0.1-1.3,0.1-1.8,0.1c-0.7,0-1.2,0-1.7,0c-0.2,0-0.3-0.1-0.3-0.3c0.4-0.8,0.7-1.6,1.1-2.3
	c0.1-0.2,0.3-0.5,0.4-0.7c0,0,0.1-0.1,0.2-0.1c0,0.1,0,0.2,0,0.3c-0.1,0.3-0.2,0.5-0.3,0.8c-0.1,0.2-0.1,0.4-0.1,0.7
	c0,0.3,0,0.5,0.3,0.7c0.3,0.2,0.5,0.1,0.7-0.1c0.2-0.1,0.3-0.1,0.4,0.1c0.1,0.2,0.2,0.3,0.3,0.4c0.2,0.2,0.4,0.3,0.6,0.1
	c0.2-0.1,0.3-0.2,0.5-0.2c0,0,0.1,0.1,0.2,0.1C-250.7,395.4-250.7,395.5-250.7,395.5z M-249.2,391.5c-0.4,0.4-0.6,0.9-1.1,1.1
	c0,0,0,0,0,0c0,0,0,0-0.1,0c0,0-0.1,0.1-0.1,0.1c0,0,0-0.1,0-0.1c0,0,0,0,0.1,0c0,0,0,0,0,0c0,0,0,0,0,0c0-0.3,0-0.5,0.1-0.8
	c0.1-0.6,0.3-0.7,1-0.6C-249.2,391.3-249.1,391.4-249.2,391.5z M-247.6,393c-0.1,1.2-0.1,1.2-1.1,1.7c-0.1,0-0.2,0-0.2,0
	c-0.1-0.1-0.1-0.2-0.1-0.2c0.2-0.6,0.5-1.2,0.7-1.8c0.1-0.4,0.4-0.7,0.2-1.2c0-0.2,0.1-0.3,0.3-0.3c0.2,0,0.4,0.1,0.4,0.3
	C-247.5,392-247.6,392.5-247.6,393z M-271,384.6c0,0.9,0,1.8,0,2.7c0,0.6,0.3,0.9,0.9,0.9c0.5,0,1.1,0,1.6,0c0.9,0,1.8-0.1,2.7-0.1
	c0.9,0,1.9,0,2.8,0.2c0.4,0.1,0.8,0.1,1.1-0.3c0.3-0.5,0.5-1,0.4-1.5c-0.2-1.2-0.1-2.4,0-3.7c0.1-0.4,0-0.9,0-1.4c0-0.6-0.4-1-1.1-1
	c-0.9,0-1.9,0-2.8,0c-1.4,0-2.7,0-4.1,0c-1,0-1.7,0.7-1.7,1.7C-271,383.1-271,383.8-271,384.6L-271,384.6L-271,384.6z M-262.8,382
	C-262.8,382-262.7,382-262.8,382c0.1,0.1,0,0.2,0,0.2c-0.1,0-0.2-0.1-0.2-0.1C-263,382-262.9,382-262.8,382z M-266.4,382.5
	c0-0.2,0.1-0.3,0.2-0.5c0.1-0.1,0.5-0.2,0.6-0.1c0,0,0.1,0.1,0.1,0.1c0,0,0,0.1,0,0.1c-0.1,0.2-0.3,0.5-0.4,0.7
	c-0.5,1-0.7,1.2-0.8,1C-266.8,383.4-266.5,383-266.4,382.5z M-266.9,386.5c0.1-0.1,0.3-0.1,0.4-0.1c0.3,0.1,0.6,0,0.9-0.1
	c0.1,0,0.3,0,0.3,0c0.5,0.5,1,0.4,1.5,0.1c0,0,0.1,0,0.1,0c0.1,0.1,0.2,0.2,0.2,0.3c0,0-0.1,0.2-0.1,0.2c-0.1,0-0.3,0-0.4,0.1
	c-0.4,0-0.9,0-1.3,0c0,0,0,0,0,0c-0.5,0-1.1,0-1.6,0c0,0-0.1-0.1-0.1-0.1C-267,386.6-267,386.5-266.9,386.5z M-268,382
	c0.1,0,0.2-0.1,0.3-0.1c0,0,0.1,0,0.1,0.1c0,0,0.1,0.1,0.1,0.1c-0.2,0.3-0.4,0.7-0.6,1c0,0-0.1,0-0.1,0c0,0-0.1-0.1-0.1-0.1
	C-268.3,382.7-268.4,382.3-268,382z M-269,386.3c0.4-0.2,0.4-0.2,0.7,0.1c0.1,0.1,0.1,0.1,0.2,0.2c0.1,0.1,0,0.2-0.1,0.3
	c-0.4,0.1-0.8,0.1-1.1,0.2c-0.1,0-0.2,0-0.2,0c-0.1-0.1-0.1-0.1-0.2-0.2c0-0.1,0-0.2,0.1-0.2C-269.4,386.5-269.2,386.4-269,386.3z
	 M-269.5,382c0,0.1,0.1,0.1,0.1,0.2c-0.1,0-0.1,0.1-0.2,0.1C-269.6,382.3-269.6,382.2-269.5,382C-269.6,382.1-269.6,382.1-269.5,382
	z M-257.7,387.9c0.7,0.1,1.4,0.3,2.1,0.3c2.8,0.1,5.6-0.2,8.4-0.3c0.3,0,0.5-0.1,0.8-0.2c0.2-0.1,0.3-0.2,0.4-0.3
	c0.2-0.2,0.1-0.6-0.1-0.7c-0.1-0.1-0.3-0.1-0.4-0.1c-0.3,0-0.6,0-0.9,0c-2.2,0.1-4.3,0.2-6.5,0.4c0,0,0-0.1,0-0.1
	c-1.1,0-2.2,0-3.3,0c-0.3,0-0.5,0-0.8,0.1c-0.2,0-0.3,0.4-0.2,0.6C-258.1,387.6-257.9,387.9-257.7,387.9z M-245.9,384.2
	c-0.3-0.1-0.7-0.1-1.1-0.1c-2.4,0-4.8,0-7.2,0c-0.8,0-1.6,0.1-2.4-0.1c-0.2,0-0.4,0.1-0.6,0.2c-0.2,0.1-0.3,0.3-0.3,0.6
	c0,0.2,0.2,0.4,0.4,0.5c0.1,0,0.2,0.1,0.3,0.1c1,0.1,2.1,0.2,3.1,0.2c1,0,2,0,3,0v0c1.3,0,2.5,0,3.8,0c0.4,0,0.7,0,1.1-0.2
	c0.2-0.1,0.3-0.3,0.3-0.6C-245.6,384.4-245.7,384.2-245.9,384.2z M-257.7,382.2c0.2,0.1,0.4,0.1,0.7,0.2c1.2,0.1,2.4,0.3,3.6,0.4
	c0.9,0.1,1.9,0.1,2.9,0.1c1.2,0,2.4-0.1,3.6-0.1c0.2,0,0.4,0,0.7-0.1c0.3,0,0.5-0.3,0.5-0.6c0-0.3-0.3-0.6-0.6-0.7
	c-0.2,0-0.5,0-0.7,0c-1.6,0.3-3.2,0.1-4.9,0.2c-0.4,0-0.8,0-1.2-0.1c-1.2-0.1-2.3-0.3-3.5-0.4c-0.3,0-0.5,0-0.8,0
	c-0.1,0-0.2,0-0.3,0.1c-0.2,0.1-0.4,0.3-0.4,0.5C-258,381.9-257.9,382.2-257.7,382.2z M-262.2,395.3c-1,0-2,0.1-3,0.2
	c-1,0.1-2,0-3,0.1c-0.6,0-1.3,0-1.9,0c-0.3,0-0.5,0.1-0.7,0.3c-0.2,0.2-0.2,0.6,0,0.7c0.4,0.2,0.8,0.3,1.2,0.3c0.7,0,1.4,0,2,0
	c0,0,0,0,0,0c1.9-0.1,3.8-0.2,5.7-0.3c0.1,0,0.3,0,0.4-0.1c0.3-0.1,0.5-0.4,0.5-0.7c0-0.3-0.3-0.5-0.5-0.5
	C-261.7,395.3-262,395.3-262.2,395.3z M-261.6,392.9c-0.2-0.1-0.4-0.2-0.6-0.2c-0.4,0-0.7,0.1-1.1,0.1c-1.1,0-2.3,0.1-3.4,0.1
	c-1.1,0-2.3,0.1-3.4,0.1c-0.3,0-0.5,0.1-0.8,0.2c-0.2,0.1-0.3,0.4-0.2,0.6c0.1,0.1,0.2,0.3,0.4,0.3c0.2,0.1,0.4,0,0.5,0
	c1.1,0,2.3,0,3.5,0c1,0,2.2,0,3.4-0.1c0.5,0,1.1-0.2,1.6-0.3c0.2-0.1,0.3-0.3,0.3-0.6C-261.3,393.1-261.4,393-261.6,392.9z
	 M-270.7,391.4c0.2,0.1,0.3,0.1,0.5,0.1c1.7,0.1,3.3,0.2,5,0.3c0,0,0,0,0,0c0.9,0,1.7,0,2.6,0c0.2,0,0.4-0.1,0.7-0.1
	c0.2,0,0.4-0.3,0.4-0.5c0-0.3-0.2-0.4-0.4-0.5c-0.3-0.1-0.5-0.1-0.8-0.1c-1.3,0-2.6,0-3.9-0.1c-1.3-0.1-2.6-0.1-3.9-0.1
	c-0.2,0-0.4,0.2-0.4,0.4C-271,391.1-270.9,391.3-270.7,391.4z"/>
<g>
	<defs>
		<rect id="SVGID_1_" x="-233.6" y="407.4" width="9.8" height="6.4"/>
	</defs>
	<clipPath id="SVGID_2_">
		<use xlink:href="#SVGID_1_"  style="overflow:visible;"/>
	</clipPath>
	<path class="st0" d="M-233.6,409.9c1,1.5,2.1,2.8,3.8,3.4c0.9,0.3,1.8,0.4,2.7,0.4c0.8,0,1.7,0,2.3-0.5c1.2-0.9,1.1-2.6,0.3-3.7
		c-1-1.4-2.8-1.9-4.5-2c-0.9-0.1-2-0.1-2.9,0.2c-0.8,0.3-1.3,1.1-1.8,1.8c-0.2,0.3,0.3,0.6,0.5,0.3c0.5-0.8,1-1.6,2-1.7
		c0.9-0.1,1.7-0.1,2.6,0c1.7,0.2,4.1,1.1,4.1,3.1c0,1-0.7,1.7-1.7,1.8c-0.9,0.1-1.8,0-2.7-0.1c-0.9-0.2-1.8-0.5-2.5-1.1
		c-0.7-0.6-1.3-1.4-1.8-2.2C-233.3,409.3-233.8,409.6-233.6,409.9"/>
	<path class="st0" d="M-227.4,413.2c-0.4-0.2-0.7-0.5-1-0.9c-0.2-0.3-0.7,0-0.5,0.3c0.3,0.5,0.7,0.8,1.2,1.1
		C-227.4,413.9-227.1,413.4-227.4,413.2"/>
	<path class="st0" d="M-226.9,413.2c-0.3-0.4-0.6-0.8-0.9-1.2c-0.2-0.3-0.7,0-0.5,0.3c0.3,0.4,0.6,0.8,0.9,1.2
		C-227.2,413.8-226.7,413.5-226.9,413.2"/>
	<path class="st0" d="M-228.6,412.5c-0.2-0.1-0.3-0.3-0.4-0.5c0-0.2-0.2-0.3-0.4-0.2c-0.2,0-0.2,0.2-0.2,0.4
		c0.1,0.4,0.4,0.8,0.8,0.9c0.2,0.1,0.3-0.1,0.4-0.2C-228.3,412.7-228.4,412.6-228.6,412.5"/>
	<path class="st0" d="M-229.5,412.3c0,0-0.1-0.1-0.1-0.1c0,0,0,0,0,0c0,0,0,0.1,0,0c0,0,0-0.1-0.1-0.1c0,0,0-0.1,0-0.1
		c-0.1-0.4-0.7-0.2-0.6,0.2c0.1,0.3,0.2,0.5,0.4,0.7c0.1,0.1,0.3,0.1,0.4,0C-229.4,412.6-229.3,412.4-229.5,412.3"/>
	<path class="st0" d="M-229.6,412.3c0-0.2,0-0.3,0-0.5c0-0.2-0.1-0.3-0.3-0.3c-0.2,0-0.3,0.1-0.3,0.3c0,0.2,0,0.3,0,0.5
		c0,0.2,0.1,0.3,0.3,0.3C-229.8,412.6-229.6,412.5-229.6,412.3"/>
	<path class="st0" d="M-230.2,412.4c-0.1-0.3-0.2-0.6-0.2-1c0-0.4-0.6-0.4-0.6,0c0,0.5,0.1,0.9,0.3,1.3
		C-230.6,413-230,412.7-230.2,412.4"/>
	<path class="st0" d="M-230.6,411.7c-0.1-0.2-0.1-0.4-0.1-0.6c0-0.2-0.1-0.3-0.3-0.3c-0.2,0-0.3,0.1-0.3,0.3c0,0.2,0,0.5,0.1,0.7
		c0.1,0.2,0.2,0.3,0.4,0.2C-230.7,412.1-230.6,411.9-230.6,411.7"/>
	<path class="st0" d="M-231.1,411.3c-0.1-0.2-0.1-0.4-0.2-0.6c-0.1-0.4-0.7-0.2-0.6,0.2c0.1,0.2,0.1,0.4,0.2,0.6
		C-231.5,411.8-231,411.7-231.1,411.3"/>
	<path class="st0" d="M-231.5,410.8v-0.5c0-0.2-0.1-0.3-0.3-0.3c-0.2,0-0.3,0.1-0.3,0.3v0.5c0,0.2,0.1,0.3,0.3,0.3
		C-231.6,411.1-231.5,411-231.5,410.8"/>
	<path class="st0" d="M-231.9,410.6v-0.5c0-0.2-0.1-0.3-0.3-0.3c-0.2,0-0.3,0.1-0.3,0.3v0.5c0,0.2,0.1,0.3,0.3,0.3
		C-232,410.9-231.9,410.8-231.9,410.6"/>
	<path class="st0" d="M-231.9,410C-231.9,410-231.9,410.1-231.9,410c0-0.1,0-0.1,0-0.1c0,0,0-0.1,0-0.1c0,0,0,0,0,0c0,0,0,0,0,0
		c0.1-0.1,0-0.3-0.1-0.4c-0.1-0.1-0.3,0-0.4,0.1c-0.1,0.2-0.2,0.5-0.1,0.7c0,0.2,0.2,0.3,0.4,0.2
		C-231.9,410.4-231.9,410.2-231.9,410"/>
	<path class="st0" d="M-232.4,409.7C-232.4,409.7-232.3,409.8-232.4,409.7C-232.3,409.7-232.3,409.8-232.4,409.7
		C-232.3,409.7-232.3,409.8-232.4,409.7C-232.3,409.8-232.3,409.7-232.4,409.7C-232.3,409.8-232.3,409.8-232.4,409.7
		C-232.3,409.7-232.3,409.9-232.4,409.7C-232.3,409.8-232.3,409.8-232.4,409.7C-232.3,409.9-232.3,409.8-232.4,409.7
		c0.1-0.1,0-0.3-0.1-0.3c-0.2,0-0.3,0.1-0.4,0.2c0,0.1,0,0.3,0,0.4c0.1,0.1,0.2,0.2,0.3,0.3c0.1,0.1,0.3-0.1,0.4-0.2
		C-232.1,409.9-232.2,409.8-232.4,409.7"/>
	<path class="st0" d="M-232.5,409.6c0-0.1,0-0.1,0-0.2c0,0,0-0.1,0-0.1c0,0,0,0,0-0.1c0,0,0,0,0,0c0.1-0.1,0.1-0.3,0-0.4
		c-0.1-0.1-0.3-0.1-0.4,0c-0.2,0.2-0.3,0.5-0.2,0.7c0,0.2,0.1,0.3,0.3,0.3C-232.6,409.9-232.4,409.8-232.5,409.6"/>
	<path class="st0" d="M-225.1,412.3c-0.3,0-0.5-0.1-0.6-0.4c-0.2-0.3-0.7,0-0.5,0.3c0.2,0.4,0.7,0.7,1.2,0.7c0.2,0,0.3-0.1,0.3-0.3
		C-224.8,412.4-224.9,412.2-225.1,412.3"/>
	<path class="st0" d="M-225.9,412.4c-0.3-0.1-0.5-0.2-0.8-0.3c-0.3-0.2-0.6,0.3-0.3,0.5c0.3,0.2,0.6,0.3,0.9,0.4
		C-225.6,413-225.5,412.5-225.9,412.4"/>
	<path class="st0" d="M-226.5,412.8c-0.3,0-0.6-0.1-0.8-0.3c-0.3-0.2-0.6,0.3-0.3,0.5c0.3,0.2,0.7,0.3,1.1,0.4
		C-226.1,413.4-226.1,412.8-226.5,412.8"/>
	<path class="st0" d="M-227.9,412.7c-0.2-0.1-0.4-0.2-0.5-0.4c-0.1-0.1-0.3-0.1-0.4,0c-0.1,0.1-0.1,0.3,0,0.4
		c0.2,0.2,0.4,0.4,0.6,0.5c0.1,0.1,0.3,0,0.4-0.1C-227.7,412.9-227.7,412.7-227.9,412.7"/>
	<path class="st0" d="M-225.4,412.7v-0.1c0-0.2-0.1-0.3-0.3-0.3c-0.2,0-0.3,0.1-0.3,0.3v0.1c0,0.2,0.1,0.3,0.3,0.3
		C-225.5,412.9-225.4,412.8-225.4,412.7"/>
	<path class="st0" d="M-224.6,411.8c-0.1-0.1-0.2-0.2-0.3-0.4c-0.1-0.1-0.3-0.1-0.4,0c-0.1,0.1-0.1,0.3,0,0.4
		c0.1,0.1,0.2,0.2,0.3,0.4c0.1,0.1,0.3,0.1,0.4,0C-224.5,412.1-224.5,412-224.6,411.8"/>
	<path class="st0" d="M-224.8,411.8C-224.8,411.9-224.8,411.8-224.8,411.8C-224.8,411.8-224.8,411.8-224.8,411.8
		C-224.8,411.9-224.8,411.9-224.8,411.8C-224.8,411.9-224.8,411.9-224.8,411.8C-224.8,411.9-224.8,411.9-224.8,411.8
		c0,0.1,0,0.1-0.1,0.1c0,0,0,0,0,0c0,0,0,0,0,0c-0.1,0.1-0.2,0.3-0.1,0.4c0.1,0.1,0.3,0.2,0.4,0.1c0.2-0.1,0.4-0.4,0.4-0.7
		c0-0.2-0.1-0.3-0.3-0.3C-224.7,411.5-224.8,411.6-224.8,411.8"/>
	<path class="st0" d="M-225.1,411.8c-0.1,0.2-0.1,0.3-0.2,0.5c0,0.1,0.1,0.3,0.2,0.4c0.2,0,0.3-0.1,0.4-0.2c0.1-0.2,0.1-0.3,0.2-0.5
		c0-0.1-0.1-0.3-0.2-0.4C-224.9,411.6-225,411.7-225.1,411.8"/>
	<path class="st0" d="M-231.6,409.1c0.2,0,0.4,0.1,0.7,0.1c0.1,0,0.5-0.1,0.6,0.1c0.1-0.1,0.2-0.3,0.3-0.4c-0.4-0.1-0.8-0.3-1.2-0.3
		c-0.4-0.1-0.5,0.4-0.2,0.6c0.4,0.1,0.8,0.3,1.2,0.4c0.1-0.2,0.1-0.4,0.2-0.6c-0.2-0.1-0.4-0.1-0.6-0.2c-0.4-0.1-0.5,0.5-0.2,0.6
		c0.2,0.1,0.4,0.1,0.6,0.2c0.4,0.1,0.5-0.5,0.2-0.6c-0.4-0.1-0.8-0.3-1.2-0.4c-0.1,0.2-0.1,0.4-0.2,0.6c0.4,0.1,0.8,0.2,1.2,0.3
		c0.3,0.1,0.4-0.2,0.3-0.4c-0.1-0.2-0.4-0.4-0.6-0.4c-0.3,0-0.6,0-1-0.1C-231.8,408.5-232,409-231.6,409.1"/>
</g>
</svg>
