<?xml version="1.0" encoding="utf-8"?>
<!-- Generator: Adobe Illustrator 19.0.0, SVG Export Plug-In . SVG Version: 6.00 Build 0)  -->
<svg version="1.1" id="Слой_1" xmlns="http://www.w3.org/2000/svg" xmlns:xlink="http://www.w3.org/1999/xlink" x="0px" y="0px"
	 viewBox="-283 374 44 45" style="enable-background:new -283 374 44 45;" xml:space="preserve">
<path d="M-239,410.2c0-0.8-0.3-1.5-0.7-2.1c-0.3-0.5-0.6-1-1-1.4c-1.2-1.5-2.4-3-3.5-4.6c-0.8-1.1-1.6-2.1-2.5-3.2
	c-1.3-1.7-2.8-3.2-3.9-5c-0.6-0.9-1.4-1.8-2.1-2.6c-0.8-1-1.8-1.9-2.5-2.9c-0.3-0.5-0.5-0.9-0.5-1.5c0.1-1.7,0.2-3.3,0.3-5
	c0.1-1.2,0.2-1.3,1.4-1.5c1.6-0.3,2.6-1.1,3-2.7c0.3-1,0.1-1.9-0.4-2.8c-0.2-0.3-0.5-0.5-0.9-0.6c-0.9-0.3-1.9-0.3-2.8-0.2
	c-1.5,0.2-3.1,0.2-4.6,0.2c-1.2,0-2.4-0.1-3.5,0.1c-1.2,0.2-2.4,0.2-3.5,0.3c-0.8,0-1.4,0-1.9,0c-0.6,0-1.3,0.1-1.9,0.2
	c-1.5,0.2-2,0.9-2,2.4c0.1,1.3,0.8,2.4,2,2.8c0.6,0.2,1.2,0.4,1.8,0.5c0.5,0.2,0.6,0.2,0.6,0.7c0.1,2.1,0.1,4.3-0.1,6.4
	c-0.1,0.8-0.3,1.6-0.8,2.2c-0.3,0.5-0.7,1.1-1,1.7c-0.4,0.8-0.9,1.4-1.5,2.1c-1.1,1.3-2.2,2.6-3.2,4c-1.7,2.4-3.4,4.9-5.2,7.3
	c-1.5,2-2.5,4.3-3.1,6.8c-0.4,1.8,0.1,3.3,1,4.7c0.5,0.9,1.3,1.5,2.3,1.8c0.9,0.3,1.8,0.3,2.7,0.4c1.7,0.2,3.4,0.3,5.1-0.1
	c0.8-0.2,1.6-0.3,2.4-0.3c1.8-0.2,3.6-0.3,5.4-0.4c0.2,0,0.4,0,0.6,0c2.1-0.3,4.2-0.3,6.4-0.5c1.5-0.1,3-0.1,4.5-0.1
	c0.4,0,0.8-0.1,1.3-0.1c1.6-0.2,3.2-0.3,4.8,0c2,0.4,3.8-0.2,5.5-1.2c0.6-0.4,1-0.9,1.5-1.4c0.4-0.4,0.6-1,0.6-1.6
	C-239,412-239,411.1-239,410.2z M-271.1,398.2c0.8-1,1.6-2,2.5-2.9c0.1-0.2,0.3-0.3,0.5-0.4c0.4-0.4,1.2,0,1.3-0.7
	c0.1-0.5,0-1.1,0.5-1.5c0.1-0.1,0.1-0.2,0.1-0.3c-0.2-0.9,0.3-1.3,1-1.6c0.1,0,0.2-0.1,0.3-0.1c1-0.6,0.9-1.1-0.1-1.7
	c-0.4-0.2-0.4-0.4-0.3-0.8c0.2-0.4,0.4-0.7,0.9-0.9c0.3-0.1,0.5-0.1,0.8-0.2c0.4-0.1,0.5-0.5,0.5-0.9c0-0.4-0.3-0.7-0.7-0.7
	c-0.2,0-0.4,0.1-0.6,0.1c-0.5,0-0.7-0.2-0.7-0.7c0-0.2,0.1-0.4,0.3-0.5c0.4-0.1,0.8-0.3,1.2-0.4c0.2-0.1,0.4-0.2,0.6-0.3
	c0.3-0.2,0.5-0.5,0.4-0.8c-0.1-0.3-0.4-0.6-0.7-0.6c-0.4,0-0.8,0-1.3,0.1c-0.2,0-0.4-0.2-0.4-0.4c0.2-1,0.8-1.4,1.5-1.3
	c0.4,0,0.9-0.1,1.3,0.1c1,0.5,1.7-0.2,2.5-0.4c0.3-0.1,0.5-0.4,0.5-0.8c0-0.3-0.1-0.6-0.1-0.9c-0.1-0.3-0.3-0.5-0.7-0.5
	c-0.4,0-0.9,0-1.3,0c-1.3,0.2-2.5,0.1-3.8,0.1c-0.2,0-0.3,0-0.5,0c-1.1,0.3-2.1-0.1-3.1-0.1c-0.2,0-0.3,0-0.5-0.1
	c-0.2-0.2-0.4-0.4-0.6-0.7c-0.1-0.1,0.4-0.4,0.8-0.4c1.5,0,3,0,4.5,0v-0.1c1.3,0,2.6,0,3.8,0c0.5,0,0.9-0.1,1.4-0.1
	c0.2,0,0.4-0.1,0.6,0c1.5,0.5,2.9,0.2,4.4,0.1c0,0,0.1,0,0.1,0c0,0,0.1,0.1,0.1,0.1c0,0,0,0.1,0,0.2c-0.2,0.2-0.4,0.3-0.7,0.4
	c-0.7,0.4-1.4,1-2.2,1.3c-0.7,0.3-0.9,0.8-0.9,1.5c-0.3,2.9-0.3,5.9-0.3,8.8c0,0.8,0.2,1.5,0.8,2c0.5,0.5,0.9,1,1.2,1.7
	c0.6,1.2,1.5,2.1,2.6,2.8c0.2,0.1,0.4,0.3,0.6,0.3c0.5,0,0.8,0.3,1.1,0.6c0.4,0.5,0.9,1.1,1.3,1.6c0,0.1,0,0.2,0,0.3
	c-0.8,0.4-1.6,0.8-2.4,1.1c-0.6,0.2-1.2,0-1.7-0.2c-1.6-0.9-3.3-0.7-4.9-0.2c-0.9,0.3-1.8,0.7-2.7,1c-2.1,0.8-4.1,0.6-6-0.5
	c-0.8-0.5-1.5-0.9-2.5-1C-271.2,398.7-271.3,398.4-271.1,398.2z M-252,403.1c0,0.1-0.1,0.2-0.1,0.3c-0.2,0.6-0.5,0.9-1,0.8
	c-0.6,0-1-0.4-1.2-0.9c-0.1-0.3-0.1-0.5-0.1-0.7c0-0.4,0.2-0.6,0.5-0.6c0.3,0,0.6,0,1,0C-251.8,401.9-251.6,402.1-252,403.1z
	 M-255.5,413.1c-0.2-0.2-0.4-0.4-0.4-0.7c0-0.9,0.4-1.4,1.2-1.7c0.5-0.2,0.9,0.2,1,0.8c-0.1,0.1-0.1,0.4-0.3,0.6
	c-0.3,0.3-0.6,0.6-0.9,0.8C-255.1,413.2-255.3,413.3-255.5,413.1z M-244.1,414.3c-0.5,0-1.1,0-1.6,0c0,0,0-0.1,0-0.1
	c-0.8,0.1-1.7,0.2-2.5,0.2c-1.9,0.1-3.8,0.5-5.7,0.4c-0.1,0-0.1-0.1-0.2-0.2c0,0,0-0.1,0.1-0.1c0.1-0.1,0.2-0.2,0.3-0.3
	c0.2-0.2,0.5-0.4,0.7-0.7c0.6-0.6,0.8-1.4,0.6-2.2c-0.2-1-0.9-1.6-1.9-1.6c-0.8,0-1.6,0.3-2.3,0.7c-0.6,0.4-0.9,1-1,1.8
	c-0.1,0.8,0.1,1.6,0.5,2.3c0.2,0.3,0.1,0.4-0.2,0.4c-0.9,0.1-1.9,0.2-2.8,0.3c-0.8,0.1-1.7,0.2-2.5,0.2c-0.3,0-0.6,0.1-0.8,0
	c-0.7-0.3-1.4,0-2,0.1c-1.3,0.2-2.6,0.4-3.9,0.6c-1.8,0.3-3.7,0.5-5.5,0.9c-0.9,0.2-1.7,0-2.5-0.3c-0.5-0.2-0.6-0.4-0.4-0.9
	c0.3-0.8-0.5-1.6-1.2-1.4c-0.2,0-0.4,0.1-0.6,0.2c0,0-0.1,0-0.1-0.1c0,0,0-0.1,0-0.1c0.1-0.1,0.3-0.2,0.4-0.3
	c0.3-0.1,0.6-0.2,0.9-0.3c0.4-0.2,0.6-0.5,0.6-0.9c0-0.3-0.5-0.7-0.9-0.8c-0.3,0-0.6,0.1-0.9,0.1c-0.1,0-0.2,0.1-0.3,0.1
	c-0.1,0-0.2-0.1-0.2-0.2c-0.2-0.6,0.1-1,0.7-1.2c1-0.3,1.9-0.6,2.9-1c0.3-0.1,0.7-0.3,1-0.5c0.2-0.2,0.3-0.4,0.3-0.7
	c0-0.3-0.3-0.7-0.6-0.7c-0.4,0-0.8,0-1.3,0.1c-0.4,0.1-0.7,0.2-1.1,0.3c0,0-0.2-0.1-0.2-0.2c0.1-0.4,0.3-0.8,0.8-0.9
	c1-0.2,2-0.4,3-0.7c0.5-0.1,1-0.3,1.5-0.4c0.3-0.1,0.5-0.5,0.4-0.8c-0.1-0.3-0.3-0.6-0.6-0.6c-0.6,0-1.2,0-1.7,0.1
	c-0.3,0-0.6,0.2-0.9,0.2c-0.1,0-0.2,0-0.3-0.1c0,0,0-0.2,0.1-0.3c0.2-0.2,0.5-0.4,0.8-0.5c1.2-0.4,2.5-0.7,3.7-1.1
	c0.3-0.1,0.6-0.2,0.9-0.3c0.2-0.1,0.3-0.3,0.5-0.4c0.2-0.2,0-0.7,0.3-0.8c0.3,0,0.5,0.3,0.8,0.5c1.2,0.7,2.5,1.2,3.9,1.1
	c0.2,0,0.4,0,0.6,0c1.3,0.1,2.5-0.1,3.7-0.7c1-0.5,2-0.9,3.2-1.1c0.6-0.1,1.1-0.1,1.6,0.1c0.6,0.2,0.7,0.3,0.6,1.1
	c-0.1,0.8-0.1,1.5,0.3,2.2c0.5,0.8,1.1,1.3,2.1,1.3c1.5,0.1,2.3-0.4,2.8-1.8c0.3-0.7,0.5-1.4,0.4-2.2c-0.1-0.7,0.2-1.1,0.8-1.4
	c0.2-0.1,0.4-0.1,0.6,0.1c0.7,0.8,1.4,1.5,2,2.3c1.3,1.8,2.5,3.7,4,5.4c0.2,0.3,0.4,0.6,0.6,0.9c0.2,0.3,0.4,0.6,0.4,1
	c0,0.4,0.1,0.7,0.2,1.1C-241.4,412.9-242.5,414.2-244.1,414.3z M-272.8,410.8c-0.6-0.5-1.4-0.5-2.1-0.5c-0.7,0-1.2,0.5-1.4,1.1
	c-0.2,0.7-0.3,1.3-0.1,2c0.3,1.4,1.2,2.1,2.6,2.1c1.1,0,1.9-0.5,2.1-1.5C-271.4,412.7-271.6,411.7-272.8,410.8z M-273.4,413.8
	c-0.3,0.3-0.9,0.2-1.1-0.2c-0.2-0.3-0.2-0.9,0.1-1.2c0.1-0.1,0.3-0.1,0.4-0.2c0.4,0,0.7,0.2,0.8,0.5
	C-273.1,413.1-273.2,413.5-273.4,413.8z M-265.1,407.6c-0.1-1.1-0.6-1.8-1.8-2.2c-1.1-0.3-1.6-0.2-2.3,0.8c-0.1,0.1-0.1,0.2-0.2,0.2
	c-1.2,1.7-0.4,3.8,1.7,4.1c1.4,0.3,2.5-0.6,2.6-2c0-0.2,0-0.3,0-0.5h0C-265.1,407.9-265.1,407.8-265.1,407.6z M-266.5,408.5
	c-0.1,0.3-0.3,0.6-0.7,0.6c-0.3,0-0.5,0-0.8-0.1c-0.2-0.1-0.4-0.2-0.3-0.5c0.1-0.4,0.3-0.8,0.5-1.2c0.1-0.2,0.3-0.3,0.5-0.3
	c0.2,0,0.5,0.2,0.6,0.4c0.1,0.1,0.1,0.4,0.1,0.5C-266.5,408.1-266.5,408.3-266.5,408.5z M-262.8,396.8c0.6,0.1,1.2,0.1,1.7-0.2
	c0.3-0.2,0.6-0.3,0.7-0.6c0.5-0.8,0.5-1.6,0.1-2.4c-0.4-0.7-1-1.1-1.8-1c-0.3,0-0.5,0-0.8,0.1c-0.6,0.1-1,0.4-1.1,1
	c-0.3,1.1,0,2,0.6,2.9C-263.4,396.6-263.1,396.8-262.8,396.8z M-262.1,394.2c0.3,0,0.4,0.2,0.4,0.6c0,0.3-0.1,0.5-0.3,0.4
	c-0.3,0-0.5-0.3-0.5-0.7C-262.5,394.4-262.3,394.2-262.1,394.2z"/>
</svg>
