<?xml version="1.0" encoding="utf-8"?>
<!-- Generator: Adobe Illustrator 19.0.0, SVG Export Plug-In . SVG Version: 6.00 Build 0)  -->
<svg version="1.1" id="Слой_1" xmlns="http://www.w3.org/2000/svg" xmlns:xlink="http://www.w3.org/1999/xlink" x="0px" y="0px"
	 viewBox="0 0 807.4 1368.4" style="enable-background:new 0 0 807.4 1368.4;" xml:space="preserve">
<style type="text/css">
	.st0{clip-path:url(#SVGID_2_);fill:#7BAFDE;}
	.st1{clip-path:url(#SVGID_4_);fill:#005BAA;}
</style>
<g>
	<defs>
		<rect id="SVGID_1_" y="0" width="807.4" height="1368.4"/>
	</defs>
	<clipPath id="SVGID_2_">
		<use xlink:href="#SVGID_1_"  style="overflow:visible;"/>
	</clipPath>
	<path class="st0" d="M579.7,443.9c1.6,9.5,3,19.3,1.4,28.8c-5.1-27.8-11.5-55.8-22.2-82.1c-0.4-0.9-1.7-0.6-1.5,0.4
		c7.1,26.5,13.6,52.9,18.1,80c1.8,10.5,3.3,20.9,5.5,31.3c1.6,7.4,4.2,17.2,1.9,25c-0.4-1.5-1-2.9-1.6-4.4c-0.1-0.2-0.1-0.3-0.2-0.4
		c0.4-8.9-1.9-17.5-4-26.1c-2.4-9.6-4.1-19.5-6.3-29.2c-4.1-18.5-9.6-36.9-20.5-52.6c-0.6-0.8-1.9-0.1-1.4,0.8
		c9.3,15.4,13.8,33.3,17.4,50.7c1.7,8.3,3.1,16.7,4.5,25c1.8,10.8,5.8,21.6,4.2,32.6c-0.2,1.3,0.4,2.5,1.3,3.2
		c0.6,1.5,1.1,3,1.8,4.5c0.7,1.5,1.9,1.7,3,1.3c0.4,2.6,4.4,4.1,5.9,1.2c0.1-0.2,0.2-0.4,0.3-0.5c0,7.3,0.3,14.7,1.2,21.9
		c0.5,4.5,0.9,10.5,4.2,14c3,3.3,7,2.3,9.5-1.1c1.9-2.7-1.8-6.2-4.5-4.5c-0.3,0.2-0.6,0.4-0.7,0.5c-0.9-1.3-1.4-2.9-1.8-4.4
		c-1.6-5.1-2.2-10.5-2.8-15.8c-0.9-7.9-1.6-15.9-1.7-23.9c0-0.8-0.5-1.2-1-1.3c-0.2-3.1-0.7-6.3-1.2-9.3
		c-1.8-10.9-4.7-21.6-6.6-32.5c-0.2-1.1-0.4-2.2-0.6-3.3c0.3,0.2,0.9,0.2,1-0.4c2.6-8.4,2.6-17,1.8-25.7c-0.9-9.4-1.3-19.7-3.5-28.9
		c-0.6-2.3-3.6-1.5-3.9,0.5C575.7,427.4,578.4,436.1,579.7,443.9"/>
	<path class="st0" d="M566.9,327.9c2.3,12.7,0.7,24.9-0.1,37.7c-0.4,7,0.5,13.8,1.3,20.7c0.8,7,0.7,14.4,2.2,21.2
		c0.7,3,5.7,3.2,6.2,0c1-6.5-0.5-13.2-1.5-19.6c-1.2-8.2-2.5-16.2-2.4-24.5c0-11.7,2.5-25.9-3.6-36.5
		C568.3,325.8,566.7,326.6,566.9,327.9"/>
	<path class="st0" d="M747.1,334c-0.1,0.4-0.2,0.7-0.3,1.1c-3.5-1.4-6.3-5.1-8.5-7.9c-1.2-1.6-3.5-0.3-2.6,1.5c2.2,4.9,5,9,9.6,11.3
		c-2.8,10-4.6,20.4-5.9,30.7c-0.8,6.6-1.3,13.2-1.7,19.8c-0.4,6.7-2.2,12.8-1.4,19.6c0.1,0.9,1.4,0.9,1.4,0
		c-0.3-6.6,2.2-12.7,3.5-19.1c1.2-6.5,2.1-13.1,3.4-19.6c1.9-10,4-20.2,7.1-30c4.5-0.3,9.2-2.9,12.9-4.8c2.1-1.1,1.3-5-1.3-4.7
		c-3.5,0.4-6.4,1.9-9.6,3C753.9,331.5,748.4,330.3,747.1,334"/>
	<path class="st0" d="M734.8,300.2c1.2,8.1,3.7,15.5,8.8,21.9c1.5,1.8,3.9-0.5,3-2.3c-0.8-1.6-1.5-3.2-2.1-4.7
		c7.6,1.7,15.8-0.1,23.4-1.1c2.2-0.3,2.3-3.4,0-3.5c-8.3-0.4-16.2,2.1-24.5,2c-2.6-6.2-4.5-12.3-5.2-19.4c-0.7-7,0.3-13.7-2.6-20.3
		c-0.4-1-2-0.3-1.7,0.7C736.1,282.1,733.5,291.4,734.8,300.2"/>
	<path class="st0" d="M494.1,287.8c-4,2.7-8.9,4.7-13.7,4.9c-1.1,0-1.4,1.7-0.3,1.9c5.6,1,11-0.6,16-3.2c1.6-0.8,3.6-2.1,5.4-3.6
		c2.3,4.3,5.4,8.2,9.1,11.7c4.6,4.4,12.9,10.4,19.5,8.9c2.2-0.5,2.2-3.3,0.6-4.5c-2.2-1.5-4.6-1.8-7.1-2.6c-4-1.3-7.6-3.8-10.8-6.4
		c-3.4-2.8-6.2-6.2-8.5-9.9c1.1-1.6,1.7-3.3,1.3-5c-0.1-0.6-0.6-1-1.1-1.2c2.3-2.5,3.6-5.6,2.5-9.2c-0.7-2.2-3.8-2.2-4.5,0
		c-2.3,7.1-7.8,10.5-14.5,13.3c-5.7,2.4-12.2,2.7-17.8,5c-0.9,0.4-0.4,1.5,0.2,1.7c6.5,2.6,17.8-1.6,23.7-4.1
		c1.6-0.7,3.5-1.6,5.3-2.7c0,0.1,0.1,0.3,0.2,0.4C498,285,496,286.5,494.1,287.8"/>
	<path class="st0" d="M542.3,297.1c-4.6-2.4-9.5-3.8-14.7-3.3c-2.5,0.2-2.6,4,0,4c4.4,0,8.9,0.6,12.9,2.3
		C542.5,300.9,544.3,298.2,542.3,297.1"/>
	<path class="st0" d="M371,447.8c3.7-13.6,4.3-27.7,9-41.1c5.2-14.8,11.3-29.6,18.2-43.7c5.6-11.5,13-21.9,19.4-32.9
		c5.2-9,9.6-17.6,18.6-23.4c0.7-0.4,0.6-1.6-0.2-1.8c-8.2-1.8-15.4,9.5-19.1,15.2c-7.2,11-14.9,21.7-21.5,33.1
		c-8.1,13.9-14.3,29-20.3,43.9c-6.4,15.8-10.3,32.8-10.5,49.8C364.5,450.6,370,451.3,371,447.8"/>
	<path class="st0" d="M290.6,386.9c0.7,4.1,2.1,15,8.1,14.7c2-0.1,2.9-2,2.1-3.7c-0.2-0.4-0.3-0.7-0.5-1c0,0,0.1,0,0.1-0.1
		c0.2-0.2,0.5-0.3,0.7-0.4c1.5,4.7,3.1,7.9,5,7.2c1.2-0.5,2-1.8,1.2-3c0.9,1.5-0.6-2.9-0.9-3.7c-0.3-0.9-0.6-1.8-0.8-2.8
		c4.4-1.8,9-2.7,13.9-2.9c2.8-0.1,2.8-4.5,0-4.3c-5,0.3-10.4,1.3-14.8,3.8c-0.4-1.6-0.9-3.3-1.3-4.9c-1.8-6.5-3.3-14.2-7.4-19.7
		c-0.6-0.8-1.9-0.1-1.4,0.8c1.3,2.7,3.2,17.1,5.9,27c-0.4,0.4-0.8,0.9-1.2,1.3c-1.2-1.7-2.4-3.2-3.2-5.6c-1.3-4.1-2-8.3-3.1-12.5
		c-1.4-5.5-3.7-13.5-9.9-15.1c-0.8-0.2-1.5,0.8-0.8,1.4C289,369.2,289.3,378.8,290.6,386.9"/>
	<path class="st0" d="M137.1,216.9c-4.4-1.7-9.3,0.5-13.4,2.3c-5.8,2.6-11.2,5.4-17.3,7.3c-0.8,0.2-0.9,1.5,0,1.7
		c4.9,1.1,9.6-0.8,14.1-2.6c5.7-2.2,10.7-2.9,16.6-4C139.8,221.2,139.1,217.7,137.1,216.9"/>
	<path class="st0" d="M168.5,230.6c-7.5-1.5-14.9,2.3-22.4,2.6c-6.7,0.3-9.9-6.1-16.1-6.2c-0.5,0-1,0.7-0.7,1.2
		c3.6,4.9,7.8,9,13.8,10.6c7.5,2,18.5-0.7,25.5-3.3C170.6,234.7,171.2,231.1,168.5,230.6"/>
	<path class="st0" d="M191,207.6c-2,1.7,0.1,4.8,2.5,4.2c3.1-0.8,5.6-2.6,8.5-4.1c2.4-1.3,5.3-1.5,7.6-2.8c0.4-0.2,0.7-0.8,0.5-1.2
		C207.7,196.5,194.1,204.9,191,207.6"/>
	<path class="st0" d="M204.2,209.7c-2.2,3.3-7.1,5.8-10.4,7.8c-3.8,2.3-7.7,4.3-11.2,7c-2.9,2.1-0.5,6.5,2.9,4.9
		c4.8-2.4,9.3-5.2,13.5-8.6c3.2-2.5,7.8-5.9,7.4-10.5C206.2,209.1,204.9,208.7,204.2,209.7"/>
	<path class="st0" d="M283.9,422.5c0.5,6.5-0.2,13.8,1.7,20.1c0.7,2.2,3.8,1.7,3.9-0.5c0.4-7-1.2-14.8-2.1-21.8
		c-0.8-6.6-2.1-13.1-4.5-19.3c-0.6-1.5-3-0.9-2.5,0.7C282.6,408.4,283.4,415.4,283.9,422.5"/>
	<path class="st0" d="M273.5,410.5c0.3,11.1-0.2,22.4,0.8,33.4c0.3,3,4.7,3.1,4.7,0c0-11.2-1.8-22.6-3.4-33.7
		C275.4,409,273.5,409.3,273.5,410.5"/>
	<path class="st0" d="M261.5,429c-1.4,6-2,12.2-2.6,18.3c-0.2,2.4,3.5,2.8,4.1,0.6c1.7-6,0.9-12.3,1.5-18.4
		C264.8,427.7,262,427.3,261.5,429"/>
	<path class="st0" d="M250.8,440.3c-0.5,2.5-1.3,5-1.9,7.5c-0.7,2.6,3.3,3.7,4,1.1c0.7-2.5,1.2-5.1,1.5-7.7
		C254.8,439,251.3,437.9,250.8,440.3"/>
	<path class="st0" d="M141.6,129.1c1.3,2.6,5.2,0.3,3.9-2.3c-13.1-27-22.2-55.6-34.6-82.9c-0.6-1.2-2.7-0.4-2.2,0.9
		C119,73.2,127.9,102.3,141.6,129.1"/>
	<path class="st0" d="M73.6,160.6c-16.5-10.2-32.8-20.7-47.8-32.9c-1.7-1.4-4.1,0.9-2.4,2.4c14.8,13,30.9,24.5,48.1,34.2
		C73.8,165.7,75.9,162.1,73.6,160.6"/>
	<path class="st0" d="M14,233.2c-4.1-0.2-8.1-0.9-12-2.2c-2-0.7-2.9,2.5-0.9,3.2c4.2,1.4,8.5,2.2,12.8,2.2
		C16,236.3,16,233.3,14,233.2"/>
	<path class="st0" d="M276.3,24.1c-19,20-27.8,50.8-33.2,77.2c-0.5,2.5,3.2,3.5,3.8,1c6-25.7,13.5-56,31.5-76.1
		C279.7,24.8,277.7,22.7,276.3,24.1"/>
	<path class="st0" d="M298.9,151.4c5.9-5.9,10.8-12.9,17.1-18.4c1.9-1.6-0.8-4.2-2.7-2.7c-6.5,5.5-11.2,12.4-16.9,18.6
		C295.1,150.6,297.4,152.9,298.9,151.4"/>
	<path class="st0" d="M491,235.1c1.3-2.8-1.8-5.1-4.2-3.2c-6.7,5.3-14.4,2.5-21.8,0.2c-4.8-1.5-10.6-3.8-15.3-1.2
		c-1.1,0.6-0.6,2.4,0.6,2.4C461.2,233.2,483.7,251.4,491,235.1"/>
	<path class="st0" d="M556.3,120.6c-3.7-10-10.6-19.3-17.6-26.2c-12.1-12-27.5-20-43-26.4c-1.4-0.6-2.2,1.7-1,2.4
		c13.6,7.8,27.2,16,38.5,27c5.4,5.3,9.8,11.4,13.2,18.1c4,7.9,4.4,15.9,5.8,24.4c0.1,0.6,0.3,1,0.6,1.4c-3.3,19-8.5,37.6-11.7,56.6
		c-3.2,18.6-10.5,35.9-21.4,51.3c-1.6,2.2,1.7,4.2,3.5,2.7c13.5-11.2,19.7-30.8,23-47.4c2.1-10.6,3-21.2,5.4-31.8
		c0.2-0.8,0.4-1.6,0.6-2.4c1,0.3,2.1-0.1,2.6-1.4c1.2-3,2.2-5.9,3.2-9c0.6-1.9,2.5-7.9,5.4-6.1c0.5,0.3,1.2-0.3,0.9-0.9
		c-2.8-4-6.2-1.7-8.6,1.5c-0.1,0.1-0.1,0.2-0.2,0.3c0.7-4.3,1.1-8.6,0.9-12.8c1.3-0.5,2.4-1.6,2.5-3.1c0.3-3.1,0.2-6.2-0.2-9.3
		c1,3.8,1.9,7.6,3,11.4c1,3.6,6.2,2,5.5-1.5c-1.2-5.9-2.7-11.8-4.5-17.5c1.1,0.2,2.3-0.3,2.6-1.6c1.6-9.1,0.4-19.5,0-28.8
		c-0.4-9.7-1.8-19.1-5-28.2c-0.3-0.8-0.9-1-1.5-0.9c-1.3-6.6-3.6-12.8-7.6-18.5c-0.9-1.3-3-0.1-2.1,1.2c4.5,6.7,6.8,14.4,8.1,22.3
		c0.1,0.7,0.9,1,1.5,0.8c1.5,7.1,2.1,14.2,2.2,21.4c-2.7-11.8-9.3-23-15.8-32.8c-0.9-1.3-3-0.1-2.2,1.3
		c8.7,14.5,14.8,29.5,15.8,46.5c0.1,1.1,0.8,1.6,1.6,1.7c-0.1,2.6-0.2,5.3-0.1,7.9c-4.7-12.9-10.8-25.3-18.5-36.8
		c-0.9-1.3-3-0.1-2.2,1.3C547.8,91.8,552.4,106,556.3,120.6"/>
	<path class="st0" d="M536.3,90.2c1.2,2.5,5.2,0.7,4.4-1.9c-3.7-11.8-13.4-21.8-23.2-29c-10.7-8-23.5-14.6-37.3-13.3
		c-1.5,0.2-1.6,2.5,0,2.5C504.2,48.2,526.4,70.2,536.3,90.2"/>
	<path class="st0" d="M551.8,139.8c-3-14-9.1-26.2-17.9-37.4c-1-1.3-3.3,0.4-2.3,1.8c8,11.2,12.1,23.8,16.5,36.7
		C549,143.1,552.4,142.2,551.8,139.8"/>
	<path class="st0" d="M462.5,22.5c18.8-0.5,36.3,2.5,49,17.5c1.9,2.2,4.9-0.9,3.2-3.2c-13-16.5-32.5-18.8-52.2-16.7
		C461,20.3,461,22.5,462.5,22.5"/>
	<path class="st0" d="M527.7,61.3c1.1,2.4,4.6,0.3,3.5-2c-2.5-5.3-7.2-8.7-10.8-13.2c-1.2-1.6-3.9,0.5-2.8,2.1
		C520.9,52.7,525.4,56.3,527.7,61.3"/>
	<path class="st0" d="M395.6,94.5c9.5-8,16.1-17.8,27.6-23.4c5.3-0.7,10.6-1.1,16-1.2c-11.1,4.5-20.4,12.3-30.3,19.2
		c-1.3,0.9-0.1,2.9,1.2,2.1c12.2-7.4,23.4-16,37.2-20.4c0.5-0.2,0.8-0.4,1-0.8c1.1,0.1,2.1,0.1,3.2,0.2c3.3,0.3,6.6,0.8,9.9,1.5
		c-1,0.2-2,0.4-3.1,0.6c-1.6,0.3-1.2,2.9,0.4,2.8c4.1-0.1,8.1-0.5,12.2-0.8c4.3,1.6,8.5,3.8,12.9,4.5c2.1,0.4,4.3-2.2,2.3-3.9
		c-0.4-0.4-0.9-0.7-1.3-1c0.4-0.5,0.6-1.1,0.5-1.6c2.6,1.3,5.2,2.5,8,3.4c2.8,0.9,4.7-3.5,2-4.8c-10.8-5.3-21.7-11.8-33.8-13.4
		c-1.7-0.2-2.5,2.2-0.7,2.7c7.7,2.1,14.3,6.4,21.1,10.3c-1.4-0.2-2.8-0.3-4.2-0.4c-6.9-2.8-15-3.9-21.9-4.7
		c-10.6-1.2-21.3,0.2-31.6,2.3c-0.4-0.4-0.9-0.5-1.6-0.3c-12.1,4.1-22.4,14.8-28.7,25.8C393.3,94.3,394.7,95.3,395.6,94.5"/>
	<path class="st0" d="M574.4,531.8c-0.3-1.4-2.6-1.4-2.9,0c-1.4,7.6-7.3,41.3,9.5,37c0.7-0.2,1.2-0.5,1.5-0.9
		c0.2,0.2,0.4,0.4,0.6,0.7c1.9,1.9,5.3-0.6,3.8-2.9c-6-9.4-7.6-19.7-6.3-30.7c0.2-1.4-2.1-1.7-2.5-0.3c-2.3,8.4-3.1,18.8,0.4,27.1
		C570.9,555.7,576.2,540.4,574.4,531.8"/>
	<path class="st0" d="M614.9,570.3c2.9,0,3.7-4.7,0.7-5.1c-3.5-0.6-6.5-1.5-8.6-4.5c-2.1-2.9-3.1-6.5-4-9.9c-0.6-2.3-3.9-1.3-3.5,1
		C601,560.6,604.2,570.4,614.9,570.3"/>
	<path class="st0" d="M329.2,390.1c0.2,5.3-0.5,12.2,1,17.9c-0.6,0.2-1.1,0.5-1.7,0.7c-1.3,0.5-1.2,2.6,0.3,2.5
		c0.8,0,1.6-0.1,2.4-0.2c0.2,0.5,0.5,1.1,0.8,1.6c1.5,2.5,5.6,1.5,5.5-1.5c0-0.5,0-0.9-0.1-1.4c1.3-0.4,2.5-0.7,3.7-1.2
		c0.3,0.1,0.5,0.3,0.8,0.4c1.3,0.4,2.8-0.5,3.1-1.8c1.6-0.7,3.1-1.3,4.7-2.1c-1.5,2.8-3.4,5.3-5.9,7.3c-2.9,2.3,0.8,6.9,3.9,5.1
		c9.1-5.5,10.8-18.7,11.5-28.3c0.9-11.4,0.2-24.1-3.7-34.9c-0.6-1.6-3.1-1-2.6,0.7c2.4,9.4,2.4,19.7,1.7,29.4
		c-0.3,4.5-0.9,9.3-2.2,13.9c-2.8,1.2-5.5,2.4-8.3,3.7c-0.5-1.6-0.9-3.2-1.1-4.9c-0.4-4.6-0.2-9.3-0.4-13.9
		c-0.3-7.9-1.1-16.1-7.7-21.1c-0.8-0.6-1.5,0.6-1,1.3c6,7.4,4.2,19.1,3.6,27.8c-0.2,3.5-1,9.5,0.5,13.7c-0.4,0.2-0.9,0.4-1.3,0.6
		c-0.5-2.4-1.1-4.8-1.4-7.2c-0.5-4.6-0.8-9.3-1.4-13.9c-1.1-8.1-3.5-15.2-8.6-21.5c-1.2-1.4-3.5,0.4-2.5,2
		C327.9,372.3,328.9,381,329.2,390.1"/>
	<path class="st0" d="M594.2,440.2c0.7,2.1,1.8,3.9,3.3,4.8c0.6,3.1,1.3,6.2,1.8,9.3c0.1,0.9,1.3,0.5,1.4-0.2
		c0.3-2.9,0.3-5.8,0.2-8.7c1.1-0.6,1.7-2,1-3.4c-0.2-0.3-0.3-0.6-0.4-0.9c2.8-10.5,7.8-19.6,14.2-28.5c0.6-0.9-0.7-1.9-1.5-1.2
		c-6.4,6.1-12.3,14.1-15.4,22.7c-0.9-2.7-1.4-5.6-1.8-8.9c-0.7-6.3-0.9-12.6-1.3-18.8c-0.1-2-3-2-3.1,0c-0.3,7.9-0.6,15.8,0,23.7
		c0.1,0.8,0.1,1.8,0.3,3c-0.6-0.6-1.2-1.3-1.8-2.1c-2.3-3.7-3.6-8-4.9-12.1c-2.3-7.3-3.5-14.8-6-22c-0.4-1.1-2.3-1-2.1,0.3
		C578.8,403,582.8,444.3,594.2,440.2"/>
	<path class="st0" d="M615.4,435.7c-0.3-0.2-0.6-0.4-0.9-0.6c-1.2-0.7-2.9,0.8-2,2c0.3,0.5,0.7,0.9,1,1.4c-2.2,3.5-4.5,8.3-1.1,10.1
		c0.9,0.5,2.3,0.5,3-0.4c1.1-1.3,0.8-2.5,1-4c0.1-0.5,0.2-1,0.3-1.5c6.6,8,14.5,15.3,21.7,22.5c8.6,8.7,18,16.8,28.2,23.6
		c11.5,7.7,37.2,22,49,7.9c2.8-3.4-0.7-7.9-4.6-6c-14.8,7-32.2-3.8-44.3-12c-9.5-6.5-18.2-14.1-26.8-21.7
		c-6.9-6.2-13.6-13.4-21.2-19.1c1.8-3.7,4.3-8.3,8.1-10.3c0.6-0.3,0.3-1.4-0.4-1.3c-4.6,0.6-8.1,5.4-10.7,8.8
		C615.6,435.4,615.5,435.6,615.4,435.7"/>
	<path class="st0" d="M597.4,492c2.7-7.7,2.9-15.9,2.4-24c-0.4-6.9-1-16.5-5.2-22.2c-0.9-1.3-3.7-1.1-3.4,0.9
		c0.8,6.6,3.6,13.1,4.7,19.8c1.3,8.1,1.7,16.9-0.3,24.9C595.2,492.7,597,493.2,597.4,492"/>
	<path class="st0" d="M606.5,475.6c0.3-7.7,0.8-15.4,0.1-23.1c-0.3-2.7-4-2.7-4.2,0c-0.7,7.7-0.2,15.4,0.1,23.1
		C602.6,478.1,606.4,478.1,606.5,475.6"/>
	<path class="st0" d="M511.8,612.2c-0.8,0.5-0.1,1.8,0.7,1.3c21.1-13.8,44.4-34.8,51-60.1c0.5-2-2.5-3.4-3.4-1.4
		c-5.3,12.3-10.8,23.3-19.4,33.7C532.5,595.8,522.5,604.6,511.8,612.2"/>
	<path class="st0" d="M548.8,626.3c12.4-12.4,13.7-30.7,19.2-46.5c0.4-1.1-0.4-1.8-1.3-1.9c0-0.3,0-0.6,0-0.8
		c-0.2-2.2-3.5-3.7-4.6-1.3c-6.3,13.4-18.5,24.2-28.3,35.4c-10.8,12.4-23.7,26.6-40.3,30.3c-1.8,0.4-1,3,0.8,2.7
		c17.2-2.4,30.4-15.9,41.8-28c5.9-6.3,11.3-12.9,17.4-19c2.5-2.5,5.9-5.5,8.7-8.8c-3.4,12.8-5.4,26.4-14.8,36.3
		C546.2,625.8,547.7,627.4,548.8,626.3"/>
	<path class="st0" d="M455.7,703.4c18.3-0.9,36.8-3.1,54.9-6.4c11.3-2.1,22.5-5.1,33-9.6c8.9-3.9,21.2-9.5,26.3-18.3
		c2-3.5-1.9-7.2-5.3-5.3c-4,2.2-7.3,5.7-11.1,8.3c-4.7,3.2-9.9,5.8-15.1,8c-7,2.9-14.4,5.1-21.8,6.8c-7.1,0.9-14.3,0.9-21.3,1.4
		c-19.2,1.2-38.4,6.9-57.6,3.1c-1.5-0.3-2.1,1.8-0.6,2.3c4.8,1.3,9.7,2,14.5,2.3c-30.6,1.9-68.4,0.3-88-26.1
		c-1.1-1.5-3.4-0.2-2.5,1.5C378.2,703.6,423.8,705,455.7,703.4"/>
	<path class="st0" d="M483.4,743.3c2.6,0.3,3.2-4.2,0.6-4.6c-18.6-3.4-37.3-0.4-56-0.4c-2,0-1.9,2.9,0,3
		C446.5,742.3,464.9,741.1,483.4,743.3"/>
	<path class="st0" d="M503.4,900.3c0.1,1.5,0.3,3,0.4,4.5c0.2,1.9,2.8,1.9,2.9,0c0.1-0.8,0.1-1.6,0.1-2.4c7.5,3.6,19.1,4,24.4,4.1
		c7.2,0.1,24.3-1.3,25.4-10.9c0.1-0.6-0.6-0.8-1-0.6c-8.3,4.5-16.5,5.7-26,5.2c-5.3-0.3-10.5-1.4-15.5-3.1c-2.6-0.9-4.7-2.6-7-4
		c0-3,0-6.1-0.1-9.1c6.5,3.1,14,5,19.9,6.3c10.4,2.2,23.7,2.4,30.8-6.8c0.6-0.7-0.1-1.9-1.1-1.4c-10,6-21.1,5.1-31.9,2
		c-5.4-1.6-10.2-4.2-15-6.9c6.1,1.5,12.4,0.7,16.6-4.3c0.5-0.6-0.2-1.6-0.8-1.1c-6.1,4.4-13.3,2.5-19.6-1.3
		c-1.3-14.2-3.8-28.3-6.6-42.1c-2.5-12.5-5.6-24.8-8.9-37c-2.9-10.6-5-22.9-9.8-33c4.2-0.4,8.3-0.9,12.4-1.6c2.2-0.3,2-3.8,0-4.3
		c-9.4-2.2-20.1,0.8-29.4,2.4c-12.5,2.2-25.3,4.2-37.9,1.3c-0.8-0.2-1.4,1.1-0.6,1.4c10.4,4.7,21.3,4.3,32.4,3
		c5.2-0.6,10.4-1.1,15.7-1.6c1.4,10.7,6.1,21.6,9.1,31.9c3.5,12.2,6.7,24.4,9.7,36.8c3,12.5,5.4,25,7.2,37.5c-1-0.9-1.9-1.9-2.8-2.8
		c-1.9-2-5.3,0.6-3.8,2.9c1.3,1.9,3,3.8,5.1,5.5c-2.1-0.8-4.3,2.1-2.9,3.9c1.7,2.2,3.9,4.2,6.5,5.9c0.4,3.5,0.8,7,1.2,10.6
		c-1.7,0.2-2.9,2-2.5,3.8C500.5,897.2,501.7,898.9,503.4,900.3"/>
	<path class="st0" d="M397.2,913.6c-5,0-10.1-1.7-14.6,0.9c-0.6,0.4-0.4,1.4,0.4,1.4c5.5-0.3,11.2,1.5,16.7,1.8
		c7.6,0.4,15.2,0.3,22.7-0.5c10.3-1.1,20-4.8,29.8-8.2c0.3,0.8,0.7,1.6,1.3,2.3c2.8,4,9,0.5,6.6-3.9c-0.2-0.3-0.3-0.6-0.4-0.9
		c1.2-0.4,2.5-0.8,3.7-1.1c3.8-1.1,2.2-6.7-1.6-5.9c-1.1,0.2-2.1,0.5-3.2,0.8c0-2.1,0.2-4.2,0.4-6.3c3.9-1.6,7.7-3.5,10.9-6
		c1.8-1.4-0.1-4.6-2.3-3.9c-2.5,0.9-5,1.9-7.5,3c0.2-0.9,0.3-1.7,0.4-2.5c1.4-9.1,2.8-17.9,3.2-27c0.7-14.4,0.5-28.9,0.2-43.3
		c-0.4-14.5-2.9-31.1,0.6-45.3c0.2-1-1.2-1.7-1.7-0.7c-5.4,12.3-3.8,27.5-4.1,40.6c0,0.6,0,1.2,0,1.8c-0.7,0-1.3,0.4-1.5,1.4
		c-3.8,18.7-7.3,38.3-21.8,51.9c-0.5,0.5,0,1.5,0.7,1.2c8.2-2.8,13.3-11.6,16.4-19.2c2.6-6.4,4.4-13,5.9-19.7
		c-0.2,10.5-0.5,20.9-1.2,31.3c-0.7,10.2-2.9,20.1-4.5,30.2c-0.1,0.8-0.3,1.7-0.5,2.6c-3.9,1.6-7.9,3.2-12,4.5
		c-8.5,2.7-17.8,4.6-25.6,9.1c-1,0.6-0.3,2,0.8,1.8c9.5-1.6,19-4.6,28.4-7.1c2.4-0.6,4.9-1.3,7.4-2.1c-0.2,2-0.4,4.1-0.3,6.1
		c-9.7,3.4-19,7.8-29.3,9.6C413.7,913.6,405.4,913.6,397.2,913.6"/>
	<path class="st0" d="M440.7,788.9c4.6-7.5,8.7-15.3,14.2-22.2c1.7-2.2-1.3-5.3-3.1-3.1c-5.9,7.2-9.9,15.4-13.5,23.9
		C437.6,789.1,439.8,790.5,440.7,788.9"/>
	<path class="st0" d="M541.1,931.7c17.3,1.3,35.9-5.1,50.3-14.2c1.5-1,0.2-3.2-1.4-2.4c-15.5,8.1-31.7,10.7-48.9,11.2
		C537.5,926.3,537.6,931.4,541.1,931.7"/>
	<path class="st0" d="M581.1,932.3c-6.9,1.7-13.8,3.2-20.8,4.2c-4.2,0.6-8.5,0.9-12.7,0.9c-3.8,0-7.4-1.6-11.1-1.5
		c-1.9,0.1-3.1,2.5-1.6,3.9c5,4.4,14.8,2.8,20.8,1.8c8.9-1.4,17.6-3.8,26.1-6.7C583.4,934.3,582.8,931.9,581.1,932.3"/>
	<path class="st0" d="M548.6,947.6c-2.7-1.5-5.2-3.4-8.2-4.5c-2-0.7-3.5,2.1-2,3.5c5.1,4.5,13.1,6.5,19.6,7.6
		c1.4,0.2,1.9-1.6,0.6-2.1C555.2,950.9,551.9,949.3,548.6,947.6"/>
	<path class="st0" d="M660.6,1184.1c0.2-0.8-0.7-1.3-1.3-0.8c-3,2.7-9.8,2.4-13.5,2.2c-2.8-0.1-5.7-0.7-8.1-2.1
		c-0.2-1.7-0.5-3.3-0.8-4.9c3.3,0.1,6.6-0.9,9.6-3.3c0.6-0.5,0-1.4-0.7-1.2c-3.6,0.9-6.8,0.7-10-0.2c-1.7-6.3-4.1-12.4-6.5-18.4
		c0.2-0.1,0.5-0.2,0.7-0.3c3-1.7,0.4-5.9-2.6-4.5c0,0,0,0,0,0c-0.4-1.1-0.9-2.2-1.3-3.3c-8.1-20.2-13.7-41.4-20.3-62.1
		c-6.3-20-12.8-39.8-19.8-59.6c-2.9-8.2-6.3-16.5-8.3-25c-0.7-2.9-0.9-8.2-3.3-10.2c-0.6-0.5-1.2-0.4-1.8,0c0,0-0.1,0-0.1,0.1
		c-0.3,0.3-0.4,0.8-0.3,1.2c0,0.1,0,0.1,0.1,0.2c0,0.1-0.1,0.2-0.1,0.3c-0.1,0.7,0.2,1.5,0.3,2.2c0.3,2.3,0.6,4.6,0.9,6.9
		c1.1,8.8,4.4,17.5,7.1,25.9c6.6,20.8,13,41.6,19.2,62.5c5.9,19.7,11.4,39.7,18.8,59c-1.1,1.2-0.9,2.7,0,3.9
		c0.7,0.9,1.5,1.6,2.3,2.2c2,5,3.9,10,5.6,15.1c-1.2-0.6-2.3-1.3-3.5-1.9c-2.9-1.5-5.4,2.6-2.6,4.4c2.6,1.6,5.4,3.2,8.3,4.4
		c0.2,0.8,0.5,1.7,0.7,2.5c0.2,0.8,0.4,1.5,0.5,2.3c0,1.1,0.2,2,0.5,2.9c1,6.4,1.3,12.8,4.2,18.7c2.2,4.4,8.3,0.5,6.5-3.8
		c-1.3-3-2-6.2-2.5-9.4c1.7,0.4,3.5,0.6,5.1,0.7C648.6,1190.9,659.2,1190.2,660.6,1184.1"/>
	<path class="st0" d="M466.4,932c0.5-2.2-1.9-4.4-3.9-3c-4.7,3.1-7.5,6.3-13.2,7.8c-6,1.5-12.4,1.4-18.6,1.4
		c-8.6,0-21.4-1.8-28.6,4.1c-0.5,0.4-0.1,1.3,0.5,1.3c12.3-1.1,24.1-0.1,36.4,0c0.7,0,1.4,0,2.2,0c-8.6,1.6-17.1,3.7-25.2,7
		c-1.8,0.7-1.2,3.5,0.8,3c7.7-2,15.7-3.2,23.5-4.3c7.8-1.1,16.5-1.3,24-4c2.6-0.9,2.2-4.8-0.7-4.9c-1.9,0-3.8,0.1-5.6,0.3
		C462.1,938.8,465.4,936.2,466.4,932"/>
	<path class="st0" d="M450.5,960.2c-4.4,1.5-9.7,4.3-14.4,4.1c-1.8-0.1-2,2.5-0.4,3c5.1,1.8,11.3-0.8,16-2.7
		C454.4,963.6,453.3,959.3,450.5,960.2"/>
	<path class="st0" d="M473.3,1201.6c2,0.9,3.7-1.8,1.8-3c-5.7-3.7-9.1-9.9-12.4-15.8c-0.1-1.2-0.2-2.4-0.3-3.5
		c-1.3-15.5-5.2-30.7-8.8-45.8c-4.4-18.5-9.7-37-16.8-54.6c-3.2-8.1-7-15.9-10.6-23.8c-4-9-6.9-18.6-11.1-27.4
		c-0.5-1-2.1-0.5-2.1,0.6c0.4,8.2,3.9,16.4,6.7,24.1c3.2,8.7,6.9,17.2,10.3,25.9c7.1,18.5,12,37.9,16.3,57.3c3.6,16.2,7,32.3,8,48.9
		c0.7,11.1,0.3,25.6,7.1,35.1c0.7,0.9,1.5,1.5,2.4,1.7c5.2,5.4,15,8.5,20.8,3.1c1.1-1,0.2-2.7-1.2-2.8c-3.2-0.2-6.1,0.1-9.3-0.8
		c-1.8-0.5-3.6-1.6-5.1-2.9c0.1-0.8-0.1-1.6-0.5-2.5c-1-1.9-1.8-3.9-2.5-6c4.5,5.7,11.1,10.2,17.3,6.4c1.7-1,1.1-4.1-1.1-3.9
		c-7.5,0.8-12.8-7.4-16.2-13.1c-0.6-0.9-1.5-1.3-2.4-1.2c-0.2-1.5-0.3-2.9-0.4-4.4C465.9,1196.7,469.1,1199.8,473.3,1201.6"/>
	<path class="st0" d="M497,1235.9c-0.3-0.1-0.6-0.2-1-0.2c-6.7-0.1-13.4-1.1-20.1-1.5c-2.9-0.1-10.3-1.2-11.9,2.3
		c-0.4,0.8,0.2,1.8,1.2,1.5c4.1-1.1,10.2,0.6,14.4,1.2c5.2,0.7,10.4,1.5,15.6,1.5c-2.1,6.9-2.5,14.5-4.1,21.4c-0.4,1.9-0.9,4-1.6,6
		c-9.9-2.2-21.1-0.2-30.6,1c-7.3,1-14.6,2.1-22,2.4c-6,0.3-11.2-1.1-17-1.8c-0.7-0.1-0.9,0.8-0.5,1.3c6.5,7.7,24,4.8,32.5,4.2
		c10.5-0.8,23.3-3.4,34.1-0.7c-1.4,1.3-3.9,1.6-4.2,3.5c-9.3,1.7-18.1,0.9-27.6,0c-10.8-1.1-21.7-0.7-32.6-0.2
		c-11.5,0.4-22.9,1.2-34.3,2c-11.4,0.7-23,0.6-34.3,1.9c-1.6,0.2-2.4,2.8-0.4,3.1c22.5,3.3,46.4-0.1,69-0.6
		c11.6-0.3,23.3-0.2,34.8,1.1c9.8,1.1,20.7,2.9,30.2-1c1.4-0.6,2.1-1.6,2.4-2.8c1.7-0.8,3.1-2.3,4.3-4.2c4.1,1.9,7.7-4.4,3.5-6.6
		c-0.2-0.1-0.5-0.2-0.8-0.4c3.1-11.5,2.9-27.8,4-32.9C500.4,1235.7,498,1234.4,497,1235.9"/>
	<path class="st0" d="M558.3,1307.4c20.2-5.8,39.8-16,61.2-16.4c4.2-0.1,4.2-6.6,0-6.6c-21.1,0-40.5,10.4-60.3,16.4
		c-24.7,7.5-49.5,14.5-74.2,22c-23.7,7.3-47,15.3-70.3,23.6c-9,3.2-18,6.3-26.8,9.8c-6.7,2.7-14,5.5-19.5,10.2
		c-1,0.8,0.3,2.3,1.3,1.7c15-8.1,31.6-12.7,47.7-18.1c22.9-7.7,45.8-15.2,69-22.1C510.3,1320.9,534.3,1314.2,558.3,1307.4"/>
	<path class="st0" d="M631.5,1294.4c-29,9.9-58.2,18.8-87.5,27.7c-15,4.6-29.8,9.4-44.2,15.5c-15.2,6.4-30,13.9-45.6,19.3
		c-1.6,0.5-0.9,3,0.7,2.5c13.6-4.3,26.7-10,39.9-15.7c15.6-6.7,31.6-11.9,47.9-16.8c29.9-9,61.2-15.9,90.3-27.3
		C636,1298.3,634.8,1293.3,631.5,1294.4"/>
	<path class="st0" d="M694.7,1294.7c2.5-1.1,1.3-4.4-0.9-4.9c1.1-1.7,0.4-4.7-1.9-5.3c-10.2-2.4-21.5-1.7-31.9-2.7
		c-10.8-0.9-21.5-2.7-32.2-4.5c-0.4-6.6,0.2-13.2,1.2-19.8c7.9-5.4,19.1-6.7,28.2-4c1.8,0.5,2.9-2.1,1.3-3c-6.8-3.7-18.9-5-28.1-1.9
		c0-0.1,0-0.2,0.1-0.4c1.3-8.8,3.9-19.2,1.2-27.9c-0.5-1.5-3.2-1.8-3.4,0c-1.3,9.5-2.3,18.9-4.2,28.4c-0.3,1.3-0.5,2.6-0.7,3.8
		c-2,1.8-3.5,4-4.3,6.7c-0.6,1.8,1,3.5,2.6,3.8c-0.8,5.8-1.3,11.6-1.2,17.5c0,1.7,1.2,3.4,2.9,3.8c11.3,2.7,22.8,4.2,34.3,5.3
		c9,0.9,18.8,2.3,28.2,1.9c-9.2,2.7-18.2,6.1-27.3,9c-12.3,3.9-24.6,7.8-36.8,11.9c-23.6,8.1-47.1,17.5-68.2,31
		c-1,0.6-0.1,2.1,0.9,1.5c22.7-11.9,46.4-21.2,70.8-29c11.5-3.7,23.1-7.1,34.7-10.5C671.3,1302.2,683.5,1299.4,694.7,1294.7"/>
	<path class="st0" d="M762.7,1275.7c-20.6,8.8-40.6,19.1-61.2,28.1c-21.4,9.4-42.9,18.4-64.2,27.9c-1.3,0.6-0.4,2.9,1,2.3
		c21-8.4,42-16.9,62.8-25.7c21.3-9,43.5-17.6,63.6-29.2C767,1277.8,765,1274.7,762.7,1275.7"/>
	<path class="st0" d="M804.7,1275.3c-33.4,13.2-64.8,31.6-95.9,49.3c-1.6,0.9-0.2,3.3,1.4,2.5c31.7-16.7,63.6-32.7,96.1-47.8
		C808.5,1278.2,806.9,1274.4,804.7,1275.3"/>
	<path class="st0" d="M704.4,1283.8c-1.9,1.9,0.5,4.8,2.8,3.6c6.2-3.1,11.8-7.4,18-10.5c6.8-3.4,13.9-6.2,21-9.1
		c11.8-4.9,23.4-10.3,33.5-18.4c1.2-0.9-0.4-3-1.6-2.1c-11.6,8.9-25.3,13.9-38.9,19C727.8,1270.7,713.1,1275,704.4,1283.8"/>
	<path class="st0" d="M700,1270.8c14.5-9.3,31.3-14.4,45.6-24c0.8-0.6,0.1-1.8-0.8-1.3c-15.3,8.1-32.5,12-46.7,22.2
		C696.3,1269.1,698,1272.1,700,1270.8"/>
	<path class="st0" d="M487.1,1303.1c21.2-6.7,42.3-13.7,63.7-20.1c18.4-5.5,37.4-10.8,54.3-20.1c3.8-2.1,0.4-7.9-3.4-5.8
		c-16.4,9.2-34.7,14.4-52.6,19.9c-21.3,6.5-42.3,13.7-63.5,20.6c-22.9,7.5-45.7,14.9-68.7,22c-11,3.4-22,6.6-32.9,10.1
		c-11.2,3.5-22.1,7.6-33.7,9.5c-1.7,0.3-1.3,3.3,0.4,3.1c22-2.8,43.7-10.9,64.9-17.2C439.5,1318.1,463.3,1310.7,487.1,1303.1"/>
	<path class="st0" d="M509.3,1279.1c10.3-8.2,25.4-11.4,37.5-16.1c14.2-5.5,28.4-10.5,43.1-14.4c1.4-0.4,1.1-2.7-0.3-2.5
		c-16.7,1.9-32.8,8.2-48.6,13.7c-7.2,2.5-14.5,4.8-21.8,7.3c-5.3,1.8-10.7,4-13.6,9C504,1278.7,507.3,1280.7,509.3,1279.1"/>
	<path class="st0" d="M392.3,1308.9c5.4-1.4,10.8-2.6,16.2-3.7c5.9-1.2,12-1.2,17.8-2.4c2.3-0.5,2.4-4.4,0-4.8
		c-9.2-1.3-19.6,1.8-28.5,4c-11.3,2.8-22.6,6-33.9,8.8c-24.6,5.9-48.5,14.1-73.5,18.5c-1.3,0.2-1,2.3,0.3,2.2
		c23.8-1,46.7-9.1,69.6-14.8C371,1314.1,381.7,1311.7,392.3,1308.9"/>
	<path class="st0" d="M344.1,1301.4c8.2-1.9,15.9-2,24.2-2c2.8,0,3.5-4.4,0.7-5c-14.1-2.8-29.5,2.9-42.7,7.3
		c-15.9,5.3-31.2,9.8-48.2,9.3c-1,0-1.3,1.6-0.2,1.8c14.5,3.3,29.4-0.7,43.3-4.9C328.8,1305.7,336.4,1303.3,344.1,1301.4"/>
	<path class="st0" d="M338.2,1285.9c3.6,0,3.5-5.1,0-5.5c-12.2-1.2-24.8,2.6-36.3,6.1c-12.6,3.8-25.1,7.4-37.7,10.8
		c-1,0.3-0.8,1.8,0.2,1.8c11.6,0.1,23.1-3.9,34.1-7C311.8,1288.4,324.5,1285.9,338.2,1285.9"/>
	<path class="st0" d="M351.4,1265c-19,3.6-38.5,9.1-58,6c-1.6-0.2-2.3,2.1-0.7,2.5c19.8,4.1,40.4-0.1,59.6-4.9
		C354.7,1268,353.7,1264.6,351.4,1265"/>
	<path class="st0" d="M506.9,1253.5c16.5-4.8,33.4-10.7,49.2-17.4c0.9-0.4,0.3-1.8-0.7-1.5c-16.4,4.9-34.9,7.3-49.9,15.7
		C503.7,1251.2,504.9,1254.1,506.9,1253.5"/>
</g>
<g>
	<defs>
		<rect id="SVGID_3_" y="0" width="807.4" height="1368.4"/>
	</defs>
	<clipPath id="SVGID_4_">
		<use xlink:href="#SVGID_3_"  style="overflow:visible;"/>
	</clipPath>
	<path class="st1" d="M789.5,295.4c6.7-4.6,7.7-14.5,1.6-20.5c-1.3-1.3-2.8-2.1-4.6-2.6c3.8-8.6-1.2-18-10.1-20.8
		c-6.1-1.9-13.5-0.6-19.7,0c-3.8,0.3-7.8,0.5-11.5,1.3c0-0.2,0.1-0.4,0.1-0.5c0.1-13.4,2.4-30.2-7.1-41.1c-1.8-2-16.4-11-17.9-5.7
		c-1.3,0.4-2.5,1.7-2,3.3c3.2,12,4.7,22.5,3.4,35c-1.3,11.9-4.3,23.5-5.9,35.3c-1.6,11.2,0.7,22.3,2,33.5c0.7,5.4,1.2,10.8,2,16.2
		c0.5,3.7,2,7.7,1.1,11.3c-4.2,11.4-10.9,21.4-16.9,31.9c-6.3,11.1-11.7,22.6-17.1,34.2c-2.9,6.1-7.1,13.3-10.5,20.9
		c-1.9-1.3-3.9-2.4-5.7-3.7c-6.1-4.6-11.8-9.4-17.1-15c-8.3-8.9-16.1-18.2-23.3-27.9c0.3-0.5,0.4-1.2,0.4-2
		c-0.7-13.9-1.1-28.8-5.2-42.3c-3.4-11.1-10.9-19.7-20-26.5c-11.6-8.8-26.4-14.5-40.8-16.4c-2.7-0.4-5.4-0.8-8.2-1.2
		c0.2-0.7,0.2-1.5-0.2-2.4c-2.3-4.6-3.2-9.6-6.4-13.7c-2.7-3.6-6.8-5.7-10.9-7.3c-9.4-3.5-20.2-1.1-29.8,0.1c-0.4,0-0.6,0.2-0.8,0.4
		c-0.1-0.1-0.1-0.3-0.2-0.4c7.7-5.6,14.7-12.1,20.4-18.5c15.2-17,25-42.7,28.2-65.7c2.4-0.9,4.9-3.1,6.3-5.3
		c4.2-6.5,6.6-14.8,8.3-22.2c0.8-3.4,2-9.4,1.3-14.3c1.4-5.7-0.3-12.5-0.8-18c-0.8-8.2-0.2-16.8-0.3-25c-0.2-16-1.5-31.8-8.1-46.4
		c3.3-4.3,8.1-10.9,6.4-16.2c-2-6.5-7.1-8.7-12.2-6.8c-0.7-3.9-1.3-7.8-3-11.5c-0.8-1.7-2.9-1.8-4.4-1.1c-4.7,2.3-7.5,6.2-9.9,10.5
		c-5.8-7.7-13.1-14.3-21-19.8C511,2.3,499.5-3,489.5,2c-1.2,0.6-0.3,2.4,0.9,2.1c10.4-2.9,20.8,4.3,28.4,10.6
		c7.3,5.9,14,13.3,19,21.3c1.2,1.9,4.4,2.2,5.6,0c1.9-3.7,3.7-7.8,6.7-10.6c0.9,3.7,1,7.5,1.9,11.2c0.6,2.5,3.8,3.1,5.6,1.5
		c2.6-2.5,6.4-1.1,5.4,2.7c-0.6,2.2-2,4.2-3.1,6.1c-1.1,1.8-2.5,3.4-3.2,5.4c-1.1,3.3,2.9,4.7,5.1,2.9c3.8,14.3,3.7,30,3.3,44.6
		c-0.2,7.7-0.6,15.5-0.9,23.2c-0.1,4.1,0.1,8.2,0.3,12.4c-2.6,0.3-5.1,2.1-6.7,4.5c-1.6-7.1-2.9-14.3-4.3-21.4
		c-0.1-0.7-0.8-1.4-1.6-1.6c-3.2-8.9-5.4-18.2-10.9-26.1c-0.7-1-1.7-1.4-2.6-1.3c-1.8-5.6-7.8-10.9-11.6-14.2
		c-6.4-5.8-15.4-12.5-24.1-14.2c-0.7-0.1-1.5,0.8-0.8,1.4c5.9,4.9,12.7,8.5,18.5,13.6c3.6,3.2,6.9,6.7,9.7,10.7
		c2,2.8,2.8,6.3,5.2,8.8c0.5,0.6,1.4,0.7,2.1,0.5c4.6,8.3,6.2,17.8,9.8,26.5c0.6,1.5,2,1.8,3.3,1.5c1.5,6.2,0.8,13.5,1.5,19.5
		c0.3,2.3,2,3.3,3.7,3.1c0,0.8,0.2,1.5,0.4,2.2c0.2,0.6,1.3,1,1.6,0.2c1-2.3,2.2-4.4,3.8-6.3c1.6-1.9,2.6-2.2,3.3-1.7
		c0,1.2,0.1,2.5,0,3.7c0,1.1,0.4,1.9,1.1,2.5c-0.1,3.5-0.8,6.9-1.6,10.3c-1.1,4.4-2.6,8.8-4.4,13c-0.9,2.2-2.1,4.3-3.4,6.3
		c-0.1,0.2-0.2,0.3-0.3,0.4c-1.2-1-3.5-1-4.7,0.3c-0.4,0.2-0.8,0.4-1.1,0.7c0.9-3.8,1.4-7.6,1.4-11.5c0-1.6-2.6-1.6-2.5,0
		c0.1,4.7-0.7,9.3-1.9,13.8c-0.4,1.5,1.9,2.2,2.4,0.7c0,0,0-0.1,0-0.1c0.1,0.2,0.2,0.4,0.3,0.6c-6.3,21.8-10.7,43.6-25.4,61.9
		c-14.8,18.4-41,36.8-65.6,32.5c-24.9-4.3-44.1-27.8-50.9-50.8c-3.4-11.4-4.8-23.4-6.9-35.1c-1.3-7-2.5-14.1-3.4-21.2
		c0.6-0.9,0.8-2.1,0-3.3c-0.2-0.3-0.4-0.6-0.5-0.9c-0.7-6.5-1-13.1-0.6-19.7c0.1-0.9-1.4-1.1-1.6-0.2c-1.1,4.1-1.7,8.1-2.1,12.2
		c-0.5-1-1-2.1-1.5-3.2c-0.9-2.1-1.6-4.4-1.8-6.8c-0.2-2.8,1.4-3.7,3.2-5.4c0,0,0,0,0.1-0.1c0,0,0,0,0,0c0,0,0,0,0,0
		c0.7-0.6,0.7-1.5,0.4-2.2c0.3-0.1,0.7-0.2,1-0.3c0.1,0.8,0.2,1.7,0.3,2.5c0.3,3.5,5.6,3.6,5.5,0c-0.1-18.5-8.5-39.5,0.1-57.1
		c0.4-0.8-0.6-1.7-1.3-1c-6.3,6.2-6.5,16.9-6.7,25.2c-0.1,4.1,0.1,8.2,0.4,12.3c-1.3-6.3-2.2-12.7-3-19.2
		c-0.2-2.1-2.1-22.1-0.4-28.9c1,0.8,2.8,0.6,3.5-0.9c3-7.2,7.8-29.5,17.9-28.7c0.7,0.1,0.9-0.8,0.5-1.3c-7.1-8.2-17,14.4-20.9,24.7
		c-8.8-0.1-6.9,22.5-6.7,27c0.4,8.6,1.5,17.2,2.9,25.7c0.2,1.3,0.4,3,0.7,4.8c-0.6,0.1-1.2,0.5-1.1,1.3c0.2,2.2,1.2,3.9,2.1,5.9
		c1,2.2,1.6,4.4,2.5,6.6c0,0,0,0,0,0c-5.7,0-7.6,7.2-6.8,11.9c1.3,6.8,4.9,13.1,8.4,19c0.1,0.2,0.3,0.4,0.5,0.6
		c0.2,6.6,1,13.1,2,19.7c2.2,14.8,4.2,29.8,9,44c7.7,22.8,28.6,43.5,52.3,49.1c-0.1,0.1-0.3,0.2-0.4,0.3c-0.4,0.3-0.5,1-0.4,1.4
		c0.2,0.6,0.6,1.1,0.9,1.7c0.5,1,0.7,2.2,0.9,3.3c0.1,0.4,0.1,0.8,0.2,1.3c-5.7-0.2-11.9,0.5-15.9,4.2c-0.3-1.4-1.1-2.7-2.1-3.9
		c-2.3-2.6-6.2-2.4-9.3-2c-2.1,0.3-4.3,1-6.4,2c-4.6-0.8-10,0.2-14.4,0.9c-6.2,1-10.5,3.7-14.2,8.8c-3,4.1-5.9,8.5-8.6,13.1
		c-0.7-0.8-1.8-1.2-3.1-0.6c-17.4,7.3-35.6,12-53.5,17.9c-8.8,2.9-17.7,5.8-26.6,8.2c-8.3,2.3-17,3.2-25.2,5.5
		c-2.2-8.9-4.3-17.8-6.4-26.8c-4.7-20.8-9.4-41.7-12.8-62.8c-3.4-20.8-9-41.2-12.6-61.9c-0.1-0.4-0.3-0.6-0.6-0.8
		c0.1-0.9-0.4-1.9-1.4-2.6c-5.6-3.9-16.8,0.5-22.8,1.8c-1.1,0.2-2.2,0.5-3.3,0.9c-0.1-0.4-0.4-0.8-0.8-1.1
		c-6.3-5.7-2.1-13.4-2.6-20.8c-0.1-1.8-1.7-3-3.5-2.6c-6.8,1.6-10.9,6.4-13.5,12.7c-2,4.9-3.3,13-1,18.2c-0.1,0-0.3,0.1-0.4,0.1
		c-1.2-5-2.8-10-3.8-14.8c0.8-0.1,1.5-0.6,1.8-1.5c1.5-5.2-2.1-14-8.3-14.3c-4.6-0.3-8.7,1.9-13.2,2.3c-5.1,0.4-10.8-1.6-15.6,1
		c-2.4,1.4-4.7,3.6-7.3,4.6c-2.1,0.7-4.8-0.1-7,0.3c-5.5,1.1-9.1,4.7-12.5,8.9c-5.7,7-12.7,17.8-12.9,27.1c0,0.3,0.1,0.6,0.2,0.8
		c-6.9,1.2-13.9,2.2-20.7,3.2c-10.6,1.6-22,2.8-31.5,7.9c-0.7-0.2-1.5,0.3-1.8,1c0,0,0,0-0.1,0c-1.3,0.3-1.2,2.7,0.4,2.7
		c1.1,7.8,0.2,15.7,1.3,23.4c1.6,11.1,3.8,22.3,5.9,33.3c4.2,21.8,10.1,43.2,15.6,64.6c5.5,21.3,9.9,42.8,15.3,64.1
		c2.7,10.8,5.4,21.7,8.7,32.3c3.1,10.1,7.6,19.7,9.7,30c0.5,2.2,2.3,2.9,3.9,2.6c0.1,0.1,0.3,0.1,0.4,0.1c5.4-0.5,10.8,0.3,16.3-0.3
		c6.8-0.7,13.5-2.2,20.1-3.5c15.3-3.1,30.7-5.3,46-8.1c15.3-2.8,30.3-6.8,45.3-11.1c7.3-2.1,14.6-4.3,21.9-6.5
		c6.6-1.9,13.5-2.9,20.1-4.9c1.7-0.5,2.4-1.9,2.3-3.2c1.5-0.3,2.6-1.5,2.4-3.5c-1.1-10.4-3.4-20.6-6-30.9c3.7,0.2,7.8-1,11.1-1.8
		c1.8-0.5,3.7-0.9,5.6-1.4c1.4,7.8,5.2,16.7,13.6,17.2c0,0,0,0,0.1,0c1.1,0,2.2-0.3,3-1c3.8,0,7.7-0.8,11.4-1.7
		c5.2-1.2,12.5-3.2,15.4-8c1.9-3.1-1.7-6.1-4.7-4.7c-4.3,2.1-7.9,5-12.4,6.7c-2.9,1.1-6,1.9-9.1,2.6c-1.1-11.3-3.5-22.3-6.2-33.4
		c-3-12.8-5.7-25.9-9.6-38.4c6.1-1.7,11.9-3.7,17.4-5.3c18-5.3,36.1-10.2,53.6-17c-4.7,8.6-8.9,17.6-12.5,26.3
		c-6.8,16.1-13.5,33-15.4,50.6c-1,9.4-0.5,18.8,0.3,28.2c0.8,9.8,1.1,20.2,3.2,29.8c0.1,0.4,0.2,0.7,0.4,1c-0.6,4.3,1.4,9.5,3,13
		c0.6,1.4,2.4,1.7,3.7,1.5c0.6-0.1,1.1-0.5,1.5-0.9c-4.1,24.7-9.3,49.3-10.7,74.2c-1.2,22.3-1.5,44.6,0.9,66.8
		c1,9.4,4.2,19.2,2.6,28.7c-1.3,7.5-6.5,16.9,0.9,22.9c2.2,1.8,6.5,0.2,5.3-3.1c-2.9-8.1,1.8-16.1,2.1-24.4
		c0.4-9.6-2.8-19.7-3.7-29.2c-2.2-22.2-1.5-44.6-0.3-66.8c1.2-21.4,4.7-42.6,7.4-63.9c2.4-18.8,5.4-38.5,1.9-57.3
		c-0.1-0.8-1.3-0.6-1.3,0.2c0,11.1-0.9,22-2.3,33c-2.6-25.8,4.1-50.4,13.9-74.6c5.9-14.6,13.5-28.5,21.6-42
		c4.1-6.8,8.5-13.3,13.5-19.5c2.3-2.9,4.7-6.2,7.4-9.3c0.2,1.2,1.2,2.3,3,2.2c4.7-0.1,9.8-1.4,14.7-3.4c-3.2,6.4-5.9,11.8,0.8,18.4
		c8.8,8.6,24.3,7.6,35.4,6.2c12.7-1.6,25.9-4.4,37.5-9.7c4-1.8,13.8-7.5,16.3-13.4c0.4,0,0.9,0.1,1.4,0c3.7-0.1,3.9-4.8,0.8-6.1
		c-1.6-0.7-3.3-1.3-4.9-1.9c-0.1,0-0.1-0.1-0.2-0.1c-0.5-0.3-0.9-0.5-1.4-0.5c-1.3-0.6-2.7-1.2-4-1.8c-2.2-1.2-4.6-2-7-2.4
		c-0.4-0.7-0.8-1.3-1.2-2c0.1,0.1,0.1,0.1,0.2,0.1c4.9,1.7,10,1.2,15.1,1.3c7.4,0.2,14.8,3.4,21.9,5c7,1.6,14,2.3,21,4.4
		c7.4,2.3,14.3,5.8,20.9,9.8c10.1,6.3,18,14.9,21.7,26.3c3.1,9.5,3.5,20.2,3.8,30.5c-7.9-10.9-16.9-20.9-24.2-32.4
		c-2.9-4.5-6.1-10.3-10.6-13.6c-4.5-3.2-10.4-4-14.8-7.1c1.2-5.4,3.1-12-2.6-14.7c-3-1.4-7-0.1-10.2-0.7c-5.2-1-9.9-3.3-15.2-4
		c-1.8-0.2-2.1,2.4-0.7,3.1c-5.6,4.3-8.1,10.5-10,17.3c-2.9,10.5-5.5,21-6.7,31.8c-2.3,21,1.9,43.1,10,62.5
		c8.1,19.3,15.7,37.9,20.7,58.3c2.4,9.9,4.5,20,6.4,30.1c0.9,4.6,1.6,9.2,2.3,13.9c0,0,0,0.1-0.1,0.1c-7.5,27.6-2,56.3,1,84
		c1.2,11.2,2.4,22.5,5.3,33.5c1.7,6.3,4.2,13.6,8.7,18.9c-9.6,10.7-25.6,13.1-39.1,16c-20.6,4.5-40.5,11-61.5,13.8
		c-22.6,3-45.7,3.2-68.3,0.8c-11-1.2-22.5-3.4-32.8-7.9c-6.5-2.8-12.9-7.3-19.9-8.8c-1.3-0.3-2.1,1.5-0.9,2.2
		c0.7,0.4,1.5,0.8,2.2,1.2c-1.1,7.4-2,14.8-2.7,22.3c-0.7,0-1.5,0-2.2,0.1c-2.8,0.2-4.7,4.5-1.6,5.9c1.1,0.5,2.1,0.8,3.2,1.1
		c-0.7,9.9-0.9,19.9-0.8,29.7c0.1,10.7,1.5,21.3,1.7,31.9c0.2,10.9-0.8,21.8-1.3,32.7c-0.9,22.7-0.4,45.6-0.8,68.4
		c-0.2,11.5-0.1,23,0.6,34.5c0.5,9.9,4.4,19.1,5.8,28.8c0,0,0,0,0,0.1c-2,9.3,9.4,14.1,25.8,15.6c3.7,15.7,2.2,32.1,7.1,47.5
		c1,3.2,2.3,6.4,3.8,9.6c3.1,38.5,21.5,74,32.3,110.8c6.4,21.6,11.5,43.8,15.3,66c1.3,7.4,1.8,14.9,2.7,22.3
		c0.6,5.6,1,12.5,4.3,17.3c2.6,3.7,8.6,0.3,6.1-3.6c-3.3-5.1-3.2-13.1-3.8-18.9c-0.8-7.2-1.6-14.4-2.9-21.6
		c-3.8-21.4-8.9-42.6-15.1-63.4c-9.9-33.8-25.9-65.8-33.7-100.2c4.4,6.3,9.9,11.7,16.6,15c2.4,1.2,4.9-1.8,2.9-3.8
		c-10.7-10.6-19-20.6-23.4-35.3c-4-13.4-2.6-28.8-8.6-41.6c22.9,1.4,53.4-3.1,70.5-10.6c-2.6,25.3-5.2,51.6,2.5,76.2
		c7.6,24.2,21.6,45.8,27.4,70.7c6.6,28.1,6.3,58,6.5,86.7c0.1,13.2-0.1,26.4-0.4,39.7c-0.2,8.7-0.3,18.1,2,26.8
		c-3.3,0-6.8,0.6-9.9,1.1c-9.5,1.3-16.7,2.2-25.1-3c-0.2-0.1-0.4-0.1-0.5-0.1c-0.7-2.3-3.2-3.5-5-5.1c-3.1-2.8-6-5.8-8.9-8.7
		c-1.4-1.3-8.7-9.7-11.3-6.6c-0.5,0.6,0,1.5,0.8,1.3c-0.4,0.1,0.5,1.3,1.4,2.4c-3.7,0.6-6.7,3.4-9.4,6c-0.3,0.3-0.7,0.6-1,0.9
		c-1.9-0.3-3.8,0.9-3.8,3.1c0,0.2,0,0.3,0,0.5c-0.6,0.5-1.1,1.1-1.6,1.6c-0.6-0.6-1.2-1.1-1.9-1.4c-2.6-1.5-5.1,1.4-3.9,3.9
		c0.3,0.6,0.6,1.2,1,1.8c-2,1.6-4.1,3.2-6.5,4.6c-14.9,8.8-31.5,13.3-47.9,17.8c-18.6,5.1-44.2,25.8-27.6,46.4c0.9,1.1,2,1.2,3,0.8
		c5.8,4.9,17.9,2.8,24.2,2.3c16.2-1.3,32.5-1.8,48.8-2.1c16.8-0.4,33.6,0.9,50.5,0.2c6.5-0.3,12.9-1.1,19.5-1.1
		c4.4,0,10,0.4,13.8-2.3c0,0,0,0,0.1,0c1,0.1,2-0.2,2.8-1.1c6.5-7.5,9.1-17.7,10.3-27.3c1.1-8.2,1-20.8-6.1-26.6c0,0,0,0,0,0
		c1.6-0.1,3.3-1.2,3.8-2.9c0.8-1.3,0.8-3.2-0.5-4.3c-5.1-23-2.2-47.6-2.3-71.1c-0.2-28.1-1-56.3-6.5-84c-4.9-24.9-18.8-47-27.4-70.7
		c-4.5-12.4-6.4-24.8-6.4-38c-0.1-12.8,1.7-26.4-1-39c-0.1-0.3-0.2-0.6-0.4-0.8c4.5-2.3,7.8-4.8,9.4-7.6c0.7-1.2,0.5-2.5-0.2-3.5
		c0.5-12.1-0.6-24.3-1.6-36.3c-1.2-13.1-1.4-26.3-1.6-39.5c-0.1-12.7,0.2-25.5-0.3-38.2c0-0.1,0-0.2,0-0.3c0.8-2.4,1.6-4.8,2.3-7.2
		c0.5,2.9,1.1,5.7,1.6,8.6c3.4,18.5,7.3,36.9,11.3,55.3c2.5,11.8,4.3,23.3,5.8,35.2c0.7,5.4,0.9,15.3,4.9,20.4
		c-2,13.5,16.4,16.3,39,13.6c-0.3,0.1-0.6,0.3-0.8,0.6c-7.7,11.1,4,30.4,9.1,40.3c10.4,20.4,21.1,40.4,29.7,61.6
		c10.5,26,17.8,53.5,26,80.3c8.6,28,16.1,56.4,25.2,84.2c0.2,0.8,0.7,1.3,1.1,1.7c-0.6-0.1-1.2,0.2-1.3,0.9
		c-1.6,8.3-2.8,16.6-4.8,24.8c-2.2,8.7-5.6,17.1-7.8,25.8c-2.1,8.2-2.7,16.8-2.5,25.3c0.2,5.7,0.6,13.7,3.4,18.8
		c2.2,4.1,6.7,5.3,11,6.4c7.9,2,16.4,2.2,24.5,2.2c19.8,0.2,40-1.3,59.6-3.4c2.6-0.3,3.8-2.5,3.5-4.4c1.4-0.7,1.9-2.7,1.4-4.1
		c3.2-5.7,0.4-13.1-2-18.7c-4.3-10-9.7-19.1-13.2-29.6c-2.8-8.6-5.7-17.3-8.2-26c-1-3.6-1.7-8.9-3.8-12.7c1-1.1,1.5-2.7,0.6-4.6
		c-5.1-10.4-9.6-20.3-12.3-31.7c-2.9-12.1-3.9-24.5-4.5-36.9c-1-23.4,0.4-46.9-1-70.3c-1.5-24.4-8.3-47.6-19.9-69.1
		c-11.5-21.3-29.4-38.2-42-58.7c-1.8-7.6-3.5-15.4-6.4-22.6c5-2.9,8.6-5.9,10.2-8.6c1.9-3.3-2.3-6-5-3.8
		c-15.2,12.6-37.3,18.5-56.1,23.1c-10.9,2.6-22.2,4.7-33.4,4.5c-5.6-0.1-14.1-0.6-16.1-6.5c2,0.5,4.1-1.1,4.3-3
		c12.1,7,31.7-0.4,43.4-3.9c19.2-5.8,38.7-10.6,57.7-17.1c2.7,0.6,6-2.4,4.4-5.8c-4.7-9.9-5.9-21.7-7.7-32.3
		c-2.6-14.9-5.4-29.8-7.9-44.7c-3.7-22.4-6.8-44.8-9.5-67.4c-1.8-15.5-3.7-31-6.3-46.4c1.7-1,2.3-4,0.1-4.9c-0.3-0.2-0.7-0.3-1-0.4
		c-0.7-4.2-3.5-23.2-9-20.7c-0.8,0.3-0.3,1.3,0.4,1.4c1.6,0.2,2.8,10.5,3,11.7c0.3,2,0.6,4,0.9,6.1c-5.7-1.6-11.6-2.2-17.4-3.3
		c-9.1-1.7-17.6-4.4-26-8.2c5.8-1.4,11.6-2.8,17.4-4.1c12.6-2.7,32-6,39.5-18.1c0.4,0.2,0.8,0.4,1.1,0.6c3.3,1.6,6.4-2.2,3.9-5.1
		c-13.9-16.1-15.2-36.4-17.9-56.6c-0.9-6.8-2-13.6-3.1-20.5c7,6.3,21.9,3.9,29.7,2.7c11.4-1.7,27-2.6,25.9-17.8
		c-0.1-1.5-1-2.5-2.1-3.1c0.5-16.5,0.9-33.1,1-49.7c0.1-9.8-0.4-19.6-1.2-29.4c-0.2-2.3,0.2-6.3-0.1-9.9c7.6,7,16.3,13,24.2,18.9
		c8.2,6.2,16.4,12.2,25.9,16.2c8,3.3,19.9,7.5,29,5.6c0.6,0.6,1.4,1,2.3,1c12,0,18.4-13.3,23.7-22.1c7.6-12.7,12.7-25.6,15.1-40.2
		c2.8-17.3,5-34.7,7.4-52.1c2.2-15.9,6.3-31.7,7.1-47.8c0.7-0.4,1.3-0.7,1.9-1.1c2.9-1.8,7.1-4.8,6.9-8.7c0-0.6-0.4-1-0.9-1.3
		c6.7-0.7,13.2-2.8,16.7-6.6c6.6-3.9,7.3-12.9,1.1-17.5C790.4,308.4,794.6,300.7,789.5,295.4C789.5,295.4,789.5,295.4,789.5,295.4
		 M201.5,185.7c1.1-4.8,3.6-9,7.7-11.3c-0.5,7.3-2.8,13.9,2.8,20c-1.9,0.7-3.8,1.4-5.7,2c-2.1,0.7-4.1,1.2-6.2,1.6
		C200.8,194,200.5,189.8,201.5,185.7 M131.1,193.6c2.1-3.3,4.6-6.3,7.4-9.1c3.7-3.6,8.4-2.5,12.9-3.2c2.7-0.4,5-2.6,6.9-4.2
		c3.8-2.9,10.1-1.4,14.5-1.3c3.1,0.1,6.3-1.2,9.3-2c5.9-1.6,7,4.2,8.2,8.5c-2,3.6-0.5,8.5,0.3,12.3c1,5.2,1.6,10.3,0.3,15.4
		c-0.3,1.4-0.8,2.7-1.4,4c-0.1-1.8-0.2-3.5-0.3-5.2c-0.7-7.4-1.7-15.3-3.3-22.5c-0.4-2-3.6-2-4,0c-1.7,8.9,1.3,18.5,1.6,27.4
		c0.2,5.6-0.2,11.2-5,14.7c-2.7,2-6.3,2.9-9.7,3.2c1.3-0.9,2.4-1.8,2.9-2.4c4.5-4.2,5.4-9.1,5.1-15c-0.4-9.2-2.1-20-4.8-28.7
		c-0.5-1.7-3.4-2-3.7,0c-1,5.5,0.1,11.2,0.8,16.7c0.9,6.3,3.2,14.9-0.1,20.8c-1.8,3.2-5.2,5.2-8.2,7.2c-1.4,0.9-2.9,1.8-4.4,2.6
		c-0.6,0.3-1.3,0.6-1.9,0.9c0,0-0.1,0-0.1,0c-0.1-0.1-0.2-0.2-0.4-0.2c0.3-0.2,0.5-0.5,0.7-0.7c2.1-2,5.9-5.2,6.3-8.3
		c0.7-0.4,1.2-1.1,1.3-2.1c0.1-2.7-1.3-5.5-1.8-8.2c-0.7-3.7-1.2-7.5-1.6-11.3c-0.5-4.8-0.6-12.7-5.2-15.6c-0.6-0.4-1.4,0.3-1.2,0.9
		c1.6,6.9,1.1,13.8,1.4,20.8c0.1,3.5-0.1,9.8,2.2,13.4c-1.8,1.8-2.9,4.5-4.3,6.4c-1,1.4-2.2,2.7-3.4,4c-3.3-4-3.1-7.1-2.8-12.1
		c0.2-3-0.4-5.3-1.5-8c-2.6-6.3-4.3-13-7.4-19.1c-1.2-2.3-4.3-0.6-3.9,1.6c0.8,4,1.7,7.9,2.5,11.8c0.1,0.6,0.3,1.2,0.5,1.8
		c-0.2,0-0.4,0.1-0.6,0.1c-4.9,1.5-9.9,2.6-14.9,3.6C124.6,207,127.2,199.7,131.1,193.6 M274.7,441.5c-8,2.4-16.1,4.8-24.1,7.2
		c-15.8,4.7-31.6,8.7-47.7,11.8c-16.1,3.1-32.3,5.6-48.3,9c-8,1.7-16,3.2-24.2,3.7c-0.9,0.1-1.9,0.2-2.8,0.4
		c-2-9.4-5.7-18.3-8.8-27.4c-3.6-10.4-6-21.4-8.8-32.1c-5.8-22.1-10.4-44.5-16.1-66.6c-5.6-21.5-11.7-42.8-16.3-64.4
		c-2.3-11-4.2-22.1-6.7-33.1c-1.7-7.3-1.1-15-3.5-22.1c10.1-0.9,20.5-3.8,30.5-5.1c12.8-1.6,27-3,39.3-7.2c0.5-0.2,0.8-0.4,1.2-0.7
		c0.5,1.3,0.9,2.5,1,3.9c0.5,3.8-1.4,7.1-0.5,11.2c0.7,3,3.1,5.6,5.2,7.8c1.8,1.8,4,1,5-0.7c1.7-0.5,3.2-1.7,4.5-2.9
		c0,0,0.1,0.1,0.1,0.1c-0.3,0.4-0.5,0.9-0.2,1.4c1.9,3.3,7.5,1,12.1-1.8c6.9,3,17.8,1.4,21.6-5.9c0.6-1.2,1.1-2.4,1.5-3.7
		c1,0.4,2.1,0.3,3-0.6c6.4-6.3,7-13.6,5.7-21.1c6,0.6,13.5-2.1,18.4-3.4c9-2.4,17.9-3.2,27.1-4.2c0,0,0,0,0,0c0,0.2,0.1,0.3,0.3,0.5
		c-1.8,18.7,5,38.2,8.4,56.3c3.9,20.9,7.5,41.8,12.1,62.6c4.5,20.5,9.4,40.8,14.3,61.2c2.4,9.9,4.3,19.8,6.8,29.6
		c2.7,10.7,6,21.3,7.1,32.3c0,0,0,0.1,0,0.1C286.1,437.7,280.1,439.9,274.7,441.5 M316.8,408.9c-1.3-2-2.1-4.2-3-6.5
		c1.4-0.5,2.8-1,4.2-1.6c0.7,3.9,1.3,7.8,1.9,11.6C318.7,411.5,317.7,410.4,316.8,408.9 M313.5,377.9c1.2,5.6,2.3,11.1,3.3,16.7
		c-4.7,1.1-9.3,3.5-13.9,5.1c-3.4,1.2-7.3,2-10.6,3.7c-1.9-7.4-3.9-14.7-5.6-22c-2.7-11.5-5.5-23-8.3-34.4
		c9.4,1.3,19.6-0.5,29.4-3.2C308.3,355.2,311.2,366.8,313.5,377.9 M534,272.6c4.8,1.1,9,3.8,11.8,7.8c2,2.9,2.6,6.9,3.8,10.4
		c-2.2-0.4-4.4-0.8-6.6-1.1c0.1-0.8,0-1.7-0.7-2.4c-6-6.9-23-18.3-31.2-8.4c-0.1-0.3-0.2-0.6-0.3-0.9c-0.5-1.9-0.9-4.4-1.7-6.7
		C517.4,271.6,525.8,270.8,534,272.6 M444.2,297.2c-1.2,0.4-2.3,0.7-3.5,1c0.2-0.4,0.4-0.7,0.6-1.1c3.2-1.4,6.4-1.9,9.7-2
		C448.7,295.8,446.5,296.5,444.2,297.2 M367.3,466.1c0-0.1-0.1-0.2-0.1-0.2c-2.1-3-3.6-6-4.7-9.3c0.2-0.1,0.3-0.3,0.4-0.4
		c0.4,1.5,0.9,2.9,1.4,4.4c0.7,1.8,2.2,2.4,3.5,2.3C367.6,463.9,367.5,465,367.3,466.1 M418,307.6c-5.2,5.3-9.9,11.2-14.3,17.3
		c-10.3,14.4-18.6,30.3-25.7,46.4c-6.3,14.3-11.5,29.1-14.6,44.5c-0.6,3-1.2,6.1-1.6,9.2c-0.6-6.8-1-13.7-0.9-20.5
		c0.3-16,5.7-31.7,11.4-46.5c5.7-14.9,12.6-28.9,20.1-42.9c3.3-6.2,6.6-13.3,12.8-17.3c3-1.9,7.5-1.8,10.9-2.6
		c0.3-0.1,0.5-0.1,0.8-0.2c-2.7,2-5,4.3-6.7,6.7c-1.4,2,1.6,4.2,3.3,2.5c3.5-3.6,8.4-6.4,13-8.3c2.5-1,5.5-2,8.2-1.5
		c2.4,0.5,3,2.9,4.9,4.1c-2.8,0.7-5.7,1.3-8.4,2.1c0.3-0.3,0.7-0.5,1-0.7c1.3-0.9,0.5-2.9-1.1-2.5
		C425.5,298.7,421.7,303.8,418,307.6 M526.6,303.4c1.8,1.6-8.4,7.9-9.1,8.3c-5.1,2.8-10.7,4.5-16.2,6.1c-9.2,2.7-18.8,4.6-28.3,5.4
		c-9.1,0.8-19.8,0.4-26.5-6.7c-2.8-2.9,0.9-9.8,1.5-14.1c3.5-1.7,6.9-3.6,9.9-5.6c0,0,0,0,0,0c0.3,1,1.1,2,2.2,2.2
		c0.6,0.1,1.1,0.2,1.7,0c1.4-0.6,2.1-1.5,2.3-3c0-0.2,0-0.5,0-0.8c2.8,0,2.7-4.2-0.1-4.4c-0.2,0-0.5,0-0.8-0.1c-0.8-2.9-2-6-3.7-7.6
		c15.6,2.7,31.3-3.1,44.9-12c0.5,3.6,1.1,7.3,1.7,10.9c0.9,5.3,3.5,12.9,8.4,15.6c1.3,0.7,2.7,0.4,3.7-0.5
		C520.8,299.3,523.6,301.7,526.6,303.4 M517.6,289.6c-0.6,0-0.9,0.5-0.8,1c-2.1-3.3-4-6.5-5.2-10.2c6.1-2.2,11.3-0.7,16.9,2.2
		c2.7,1.4,4.5,4.1,6.6,6.4C529.2,288.9,523.5,290,517.6,289.6 M420,1233.9c1.9-1.3,3.7-2.7,5.3-4.2c1.1,1.1,2.3,2.2,3.3,3.3
		c2.7,3.1,5.5,5.9,9,8.1c1.6,1,2.8-1.1,1.9-2.4c-2.5-3.2-5-6.5-7.4-9.9c-0.8-1.1-1.6-2.4-2.4-3.7c0.2-0.3,0.4-0.5,0.7-0.8
		c0.6,0.2,1.3,0,1.9-0.3c1.8,1.8,3.4,3.8,4.9,5.6c1.2,1.4,2.3,2.8,3.5,4.2c0.4,0.5,0.8,1,1.3,1.5c0.2,0.2,0.4,0.3,0.6,0.4
		c0.2,0.1,0.3,0.2,0.4,0.2c0.1,0.5,0.8,0.7,1.2,0.3c1.9-2-0.8-6.1-1.8-7.9c-1.9-3.3-4.2-6.9-6.9-9.8c2.6-2.8,5.4-5.3,8.7-7.2
		c2,2.4,4,4.8,6,7.1c2.6,3.1,8.3,12.6,13.1,11.1c0.7-0.2,1.3-0.7,1.7-1.3c3.5,5.1,9.8,6.7,15.8,7c4.2,0.2,8.5-0.3,12.8-0.6
		c3.4-0.2,6.6,0.2,9.9,0.5c0.4,0.7,0.9,1.2,1.5,1.4c-0.7,0.2-1.2,0.7-0.9,1.6c0.5,1.4,0.9,2.9,1.3,4.4c-7.2-1.4-16.8,12.1-20.2,16.4
		c-4.6,5.8-11.3,14.3-12.3,22.4c-3.8-0.1-7.6-0.5-11.5-0.8c-12.1-1-24.4-1-36.6-1.4c-6.8-0.2-13.6,0-20.4,0.4
		c0.2-0.7,0.2-1.4-0.2-2.2c-3.8-7.1-12.8-12.7-19.2-17.3c-2.6-1.8-7.7-5.5-12.3-6.8c3.3-0.9,6.6-1.7,9.9-2.7
		C395.4,1247.1,408.8,1241.3,420,1233.9 M463.4,1288.2c-15.1,0.7-30.2-0.4-45.3-0.2c-15.8,0.2-31.6,1.4-47.3,2.5
		c-8.8,0.6-17.5,2.5-26.3,1c0-0.3-0.1-0.5-0.2-0.8c-2.5-5.6-4.3-10.1-2.3-16.2c1.6-5.1,6.2-9.2,10.4-12.2c4.5-3.3,9.3-5.4,14.3-7
		c0,0,0.1,0.1,0.1,0.1c7,2.7,12.3,5.8,18.1,10.7c5.1,4.3,9.1,9.8,14,14.1c-3.2,0.3-6.4,0.6-9.6,0.9c-8.6,1-17.9,1.4-25.2,6.6
		c-0.8,0.6-0.1,1.7,0.7,1.3c9.6-4.2,20.5-3.4,30.7-4.2c12.4-0.9,24.8-0.2,37.2,0.5c11,0.6,21.9,1,32.9,2.1c1.3,0.1,2.6,0.3,3.9,0.4
		C467.5,1287.9,465.5,1288.1,463.4,1288.2 M496.3,1285.9c-2,0.4-4,0.7-6.1,0.8c0.9-0.3,1.8-0.6,2.6-0.9c3.6-1.5,2.3-7.2-1.7-6
		c-5.2,1.5-10.4,1.9-15.7,1.9c2.2-7,8.6-14.1,12.9-19.2c3-3.5,6.2-6.8,9.7-9.7c2.4-2.1,5.8-3.1,8.2-5
		C508.2,1261.1,504.4,1274.9,496.3,1285.9 M598.1,908.5c0.4,3.7,1.5,7.4,2.2,11c1.3,6.5,2.7,12.8,5,19c0.5,1.3,1.9,1.6,2.8,1.1
		c9.2,17,21.9,32,31.7,48.8c13.5,23.1,19.8,48.6,21.1,75.2c1.1,23.6-0.4,47.1,1,70.7c1.2,20.5,4.2,44.4,15.5,62.4
		c-3.2-1.4-7.2-1.8-10-2.2c-6.8-1-14.1-1.5-20.9-0.3c-4.6,0.8-9.8,2.5-10.5,7.8c-0.7,5.5,1.7,13.5,5.4,17.7c0.6,0.7,1.6,0.3,1.9-0.5
		c1.3-4-1.5-8.9-2-12.8c-0.8-6.4,5.4-6.4,10.1-6.7c9.4-0.6,18.1,1.2,27,4.2c1.6,0.6,3-0.6,3.3-2.1c0.6,0.3,1.3,0.4,1.9,0.3
		c2.1,11.6,4.1,22.9,7.1,34.5c2.1,8.2,4.5,16.2,8,23.9c-9.9-6.2-22.4-7.9-34.2-7.8c-11.5,0.1-32.3,0.8-36.3,14.4
		c-0.2,0.8,1,1.4,1.4,0.6c5.1-11.7,26-10.2,36.4-9.8c6.7,0.3,13.3,0.9,19.6,3.1c7.7,2.6,12.7,9.3,19.6,13c0.2,0.5,0.5,1.1,0.7,1.6
		c1.4,3.6,1.2,6.6,0.8,10.1c-11.6-1.5-22.7-2.6-34.6-2.3c-14.8,0.5-29.6,1.2-44.4,2.2c-0.8,0.1-1.2,1.4-0.2,1.6
		c13.9,1.9,28,1.2,42,1.2c6.9,0,13.8,0,20.7,0.5c1,0.1,1.9,0.2,2.9,0.3c-11.9,0.7-23.9,2.6-35.7,2.8c-7.2,0.1-14.5,0.1-21.7-0.4
		c-4-0.3-14.6-0.5-15.9-5.3c-8.3-30.7,11.1-58.8,8-89.4c0-0.3-0.2-0.6-0.3-0.8c2.4,0.9,5.5-0.9,4.7-4.1
		c-6.9-26.6-15.5-52.8-23.6-79.1c-8-26.1-15.5-52.5-24.9-78.1c-5.4-14.6-11.8-28.9-18.8-42.9c7.3,2.5,15.3-0.3,22-3.1
		c2.8-1.1,1.7-5.6-1.3-4.6c-3.3,1.2-6.6,2.3-10,3.2c-1.3,0.3-10.7,1.5-13.1-0.2c-0.2-0.4-0.4-0.8-0.6-1.1c0-0.2-0.1-0.4-0.3-0.6
		c-2.3-4.4-4.6-8.7-7-13c-4-7.1-8-14.2-11.5-21.6c-3-6.4-7.5-15.2-5-22.3c0.4-1-0.4-1.7-1.3-1.8C558,924.2,583,916.6,598.1,908.5
		 M363,668.3c5.2,3,10.3,6.1,15.6,8.8c4.1,2.1,8.3,3.7,12.7,5c-3.7,1-7.4,2.4-11,3.7c-3.6,1.4-7.2,2.5-11,3.3
		c-2.3,0.5-4.5,0.5-6.8,0.4C362.8,682.5,363,675.4,363,668.3 M414.5,931.9c-10.5,1.2-21.2,1.7-31.7,0.5c-5.1-0.6-10.8-1.6-14.5-4.8
		c1.1-0.4,1.9-1.5,1.9-3.1c0-0.1,0-0.1,0-0.2c6.2,1.3,12.9,1,19.1,1.2c9.6,0.2,19.1,0,28.7-0.6c9.3-0.5,18.7-1.4,28-2.4
		c4.5-0.5,9.6-0.9,14.3-2.1c-3.4,1.7-6.8,3.2-10.7,4.4C438.1,928.4,426.3,930.5,414.5,931.9 M469.7,776.7c0.1,0.4,0.2,0.8,0.3,1.1
		c-0.2,0-0.3,0-0.5,0.1c-0.8,0.4-1.4,1-1.9,1.8c0.5-1.7,1.1-3.4,1.6-5.1C469.3,775.3,469.5,776,469.7,776.7 M471.1,785.7
		c-0.5,1-0.9,2.1-1.4,3.1c-0.2-3.1-0.1-6.1,0.7-8.9c0.4,1.7,0.8,3.4,1.1,5.1C471.4,785.2,471.2,785.4,471.1,785.7 M524.2,679.8
		c7.8,4.9,16.5,7.9,25.4,10.3c7.8,2.1,16.3,4.4,24.6,5.1c0.4,3.2,0.8,6.3,1.1,9.5c1.7,15.9,3.1,31.8,4.4,47.7
		c1.9,23.1,5.7,46.1,9.5,69c2.2,13.2,4.6,26.4,6.9,39.7c1.4,8.4,2.8,17.1,5.9,25.1c-16.2,5.9-33,10.1-49.3,15.8
		c-8.1,2.8-16.2,5.7-24.5,7.7c-7.7,1.9-16.9,3.7-24.5,0.4c-4-6.9-4.3-17.2-5.2-24.8c-1.5-11.7-4.1-23-6.7-34.5
		c-4-17.4-8-34.9-11.8-52.4c-1.9-8.6-3.9-16.9-6.5-25.3c-0.7-2.1-1.2-4.5-1.8-6.9c1-4.5,1.5-9.5-0.8-13.1c-0.1-0.1-0.1-0.2-0.2-0.3
		c8.8,0.2,17.7,0.5,26.5,1.1c3.6,0.3,3.5-5.2,0-5.5c-8.4-0.9-79.3-3.6-78.1,6c0.1,0.5,0.7,1,1.2,0.5c2.1-2.4,10.4-1.9,13.2-2
		c8-0.5,16.1-0.4,24.1-0.3c3.3,0,6.6,0.1,9.8,0.1c-0.3,0.4-0.6,0.9-0.6,1.5c0,0,0,0.1,0,0.1c-0.9-0.6-2.4,0.1-2,1.4
		c0.6,1.8,1.1,3.7,1.6,5.6c-0.2,3.7-0.5,7.2-1.5,11.1c-1.7,6.3-3.5,12.5-5.4,18.7c-4.2,14-10.3,28-20.7,38.6
		c-0.7,0.7,0.4,1.8,1.1,1.1c11.8-10.1,18.6-24.1,23.7-38.6c0.9-2.6,1.8-5.3,2.7-8c-0.5,3.9,0.1,8.5,0.3,11.1c0,0.5,0,1.1,0.1,1.6
		c-3,8.1-5.6,16.3-9.1,24.2c-5.6,12.9-13.2,25.1-23.5,34.8c-1.2,1.2,0.6,2.9,1.8,1.8c13.7-11.6,23.7-27.8,30.8-44.8
		c-0.2,7.1-0.5,14.3-0.6,21.4c-0.3,14.1-0.3,28.1,0.4,42.1c0.4,7,1.3,14,1.3,21.1c0,4.4-0.5,8.9-0.5,13.3c-0.2,0-0.4,0.1-0.6,0.1
		c-8.1,2.4-15.4,4.5-23.8,5.7c-9.1,1.3-18.2,2.2-27.4,2.9c-8.7,0.7-17.5,1.2-26.3,1.4c-6.3,0.2-13-0.4-19.3,0.4
		c-1-8.5-4.6-16.5-5.5-25c-1.2-11.4-0.9-23.1-0.8-34.5c0.2-22.8,0.2-45.7,0.6-68.5c0.2-10.1,1-20.2,1.2-30.3
		c0.2-10.8-1.7-21.2-2.6-31.9c-1-11.4-0.8-22.8-0.4-34.1c12,0.3,24.8-8.5,35.7-13.1c4.5,1,9,1.8,13.5,2.5c8.1,1.2,16.3,1.9,24.5,2.3
		c-0.8,9.2,0.1,19,1.5,28c1.1,7.3,3.4,15.1,7.9,21.1c-5.3,1.4-10.7,2.5-16.3,3.1c-1.3,0.1-1.8,2.2-0.3,2.5c6.9,1,13.9,0.3,20.8-1.3
		c0.3,0.2,0.5,0.4,0.8,0.6c1.8,1.3,3.7-0.1,4.1-1.9c8.3-2.3,16.4-5.7,24-8.6c2.7-1,1.7-5.3-1.2-4.4c-8.7,2.6-16.9,5.6-25.4,8.1
		c-11-13.7-9.7-30.5-12.2-47.2c15.3,0.4,30.7-0.5,45.7-2.6c12.8-1.7,25.3-4.7,37.7-7.8C523.2,678.9,523.6,679.4,524.2,679.8
		 M781,271.2c0,0.1,0,0.2-0.1,0.2c-2.4-0.1-4.7,0.2-6.7,0.4c-8.9,1.2-17.4,3.5-26.4,3.7c-0.8,0-0.8,1-0.2,1.2
		c7.9,3.3,16.9,0.7,25.1-0.1c4.9-0.5,12.2-0.7,15.4,3.8c2.9,4.2-0.3,8.8-3.6,11.3c-0.2,0.2-0.4,0.4-0.5,0.6c-2.5-0.6-5.3-0.6-8-0.5
		c-7.6,0.2-15.7,1.5-23,3.6c-0.1,0-0.2,0.1-0.3,0.2c-1.4,0.1-2.9,0-4.3-0.2c-0.1-0.1-0.2-0.3-0.4-0.4c-1.9-1.5-4.1-1.4-5.4-3.7
		c-1.2-2.2-1.1-5-2-7.3c-0.3-0.8-1.4-0.9-1.7,0c-0.8,3-1.1,6.4-0.2,9.5v0c-0.3-0.1-0.6-0.2-0.9-0.3c-2.7-1-4.3-3.3-4.3-6.2
		c0-3.8,3.4-5.4,6.6-6c0.8-0.2,1.2-0.7,1.3-1.4c1.6,0.4,3.3,0.3,4.6-0.3c1.6-0.7,1.8-2.9,0-3.5c-1.4-0.5-2.8-0.4-4.2-0.7
		c-0.5-0.1-0.9-0.5-1.1-1c-0.8-2.2-0.6-4.7-1.2-6.9c-0.2-0.7-1.3-0.8-1.4,0c-0.4,2.8-1.5,5.9-0.8,8.7c0.1,0.6,0.4,1.1,0.8,1.6
		c-0.6,0.1-1.2,0.3-1.8,0.5c0-0.3-0.1-0.7-0.2-1c-0.7-1.5-2.1-2.3-2.6-4c-0.5-2,0-4.4,0.5-6.3c0.9-3.7,2.9-7.8,6.2-10
		C752.7,257.3,788.9,249.5,781,271.2 M591.9,339.7c7.6,12.4,16.9,23.3,25.2,35.2c6.3,9,12.6,17.7,19.4,26.2
		c-8.9,6.5-17.3,13.7-24.3,22.2c-4.6,5.6-10,13.4-11.8,21.2c-2.1-1.4-4-2.9-6-4.6c-3.2-2.8-6.3-6-10-8c-0.2-0.1-0.3-0.1-0.5-0.1
		c-2.1-13.5-4.4-26.9-6.8-40.3c-2.2-12.4-4.9-24.7-6.2-37.2c-1.2-11.3-0.6-22.5,0.4-33.8c2,1.4,4.3,2.5,6.4,3.6
		C584.5,327.2,588.1,333.6,591.9,339.7 M549.7,421.4c-8.2-19.3-15.3-37-16.5-58.2c-0.6-10.9,0.7-21.5,2.9-32.1
		c2.1-10.1,2.4-22.8,10-30.6c0.1-0.1,0.1-0.1,0.1-0.2c6.5,2.4,11.8,6.3,19.2,6.2c2.7,0,0,9-0.2,10.5c-0.7,5.6-1,11.3-1.4,16.9
		c-1.6,21.7,3.3,43.5,6.9,64.8c3.7,22,6.8,44.2,10,66.3c1.7,11.6,3.1,22.9,2.6,34.6c-0.4,10.6-2.2,21.1-2.5,31.6
		c-1.2,0.1-2.4,0.3-3.7,0.6c-0.4,0.1-0.7,0.2-1.1,0.2c-0.2-9.2-2.3-18.6-3.7-27.6c-1.5-9.4-3.1-18.8-5.2-28.1
		C563,457.5,557.3,439.1,549.7,421.4 M612,565.9c-3.9,1-8,1.9-11.9,2.7c-0.1,0-0.2,0-0.3,0.1c0,0,0,0,0,0c-6.7,0-12.9,0.2-14.8-7.3
		c-1.5-6-0.6-12.3-2.1-18.3c-0.2-0.9-1.4-0.6-1.5,0.2c-0.9,7.2-2.3,15.9,0.3,22.9c0.8,2.2,2.2,3.8,3.8,5c-5.7,0.4-11.2-0.3-14.8-3.8
		c-0.3-0.2-0.5-0.4-0.8-0.5c-0.5-3.7-1-7.5-1.3-11.2c-1-10.7-1.1-21.4-0.7-32.1c0.7,3.3,1.4,6.5,2.3,9.6c0.1,0.2,0.2,0.5,0.3,0.7
		c-0.3,0.8-0.1,1.7,0.4,2.4c2.8,3.6,9.1,1.5,12.7,0.5c0.6-0.2,1.1-0.5,1.4-0.9c1.1-0.2,2.1-1,2.3-2.3c4.2-22.8,5.1-45,1.7-67.9
		c-1.5-10-3-20.1-4.6-30.1c4.5,5.7,9.6,12.1,15.5,16.4c0,0.3,0.1,0.6,0.2,1c0.4,2.3,2.9,2.6,4.5,1.5c2.8,0.2,4.8-3.8,2.4-5.7
		c0.3-1.3,0.6-2.6,0.9-3.9c2.8,6.3,6.9,11.8,11.7,16.8c-1.1,2.6-0.8,7.5-0.9,9c-0.7,10.6,0,21.3-0.2,31.9
		c-0.4,18.5-1.3,37.1-2.3,55.5c-0.1,1.7,0.7,2.9,1.9,3.5C617,563.6,615.6,564.9,612,565.9 M765.2,334.7c-2.5,2.7-5.8,4-9.3,5.2
		c-3,1-6.8,2.2-8.7,5c-0.8,1.1,0,2.7,1.2,3c2.2,0.6,4.6,0.1,6.9-0.8c-7.7,28.3-12,56.9-16.8,85.8c-2.3,13.7-4.6,26.7-10.9,39.1
		c-2.9,5.8-6.5,11.3-9.9,16.9c-3.3,5.4-6.6,8.7-11.9,11.3c-0.2-0.1-0.5-0.3-0.7-0.4c-4.1-1.5-8.7-1.1-13-1.8
		c-4.8-0.7-9.4-2.2-13.9-3.9c-9.6-3.6-17.9-10-26-16.1c-15.3-11.5-30.5-22.2-42.6-37.3c-0.2-0.2-0.3-0.3-0.5-0.4
		c0.2-0.5,0.3-0.9,0.5-1.4c2.3-5.4,5.7-10.2,9.3-14.8c5.8-7.5,12.7-14.2,19.2-21.2c1.6,1.9,3.1,3.7,4.7,5.6
		c4.8,5.4,9.7,10.6,15.3,15.3c2.7,2.3,5.5,4.4,8.3,6.5c2,1.5,4.7,2.8,6.8,4.5c-2.5,8-3.2,16.1,0.6,23.4c1.8,3.4,6.3,0.9,5.8-2.4
		c-0.9-6.2-0.3-12.3,1.2-18.2c1.2-0.9,1.8-2.5,1.2-4.3c3.8-11.6,10.4-22.7,15.2-33.6c4.7-10.7,10.1-21,15.7-31.2
		c4.7-8.5,9.9-17.3,11.3-27c2.2-3.5,0.8-10.2,0.4-13.5c-1.7-14.1-4.2-28.9-3.9-43.1c0.5-24.9,15.4-53,2.9-77.2
		c2.2,0.9,4.4,2.8,6,3.9c3.7,2.6,6,5.2,7.5,9.5c3.5,10.1,1,20.8,2.1,31.1c0.1,0.9,0.5,1.6,1.1,2.1c-0.6,0.3-1.2,0.6-1.8,1
		c-4.8,0.8-8.1,7.2-9.5,11.1c-1.4,3.7-1.5,13.2,3.7,13.9c-3.8,3.7-5.1,10.1-1.1,14.3c1.2,1.2,2.7,2.2,4.5,3
		c-4.9,0.4-4.1,6.6-1.7,9.6c1.2,1.5,3,3.2,5,4.6c-0.2,0.1-0.3,0.2-0.4,0.3c-3.8,8.8,2.6,17.3,10.5,20.6c3.9,1.6,9.9,2.3,15.8,1.8
		C765.3,334.6,765.2,334.6,765.2,334.7 M758,312.5c0.2,0,0.3-0.1,0.4-0.2c5-0.2,9.9,0.9,14.9,0.9c3.4,0,7.8,0,9.3,3.7
		c1.1,2.7-2.3,5.2-3.7,6.9c-0.3,0.4-0.5,0.7-0.7,1.1c-7,1.1-13.7,3.2-21.1,2.9c-3.5-0.2-6.9-1.1-9.6-3.1c-0.3-3-1.3-6.3,0.5-8.4
		C750,313.9,755,312.5,758,312.5 M742.2,316.6c-0.4-1.4-0.9-2.8-1.5-4.1c0.9,0.5,1.9,0.9,2.8,1.2
		C742.8,314.5,742.4,315.5,742.2,316.6 M781.3,306.4c-0.7,0.5-1,1.4-1.1,2.2c-3.2-0.5-6.6,0.2-9.6,0.5c-4.4,0.5-8.8,0-12.9,1.6
		c-1.9-1.1-4.6-1.1-7.1-0.6c-0.1-0.2-0.2-0.4-0.4-0.6c-1.1-1.1-2.3-2.1-3.4-3.2c-1.1-1.1-2-2.5-2.7-3.9c-0.3-0.7-1.2-0.3-1.3,0.4
		c-0.2,1.7,0.2,3.3,0.9,4.7c-1.3-0.5-2.6-1.2-4-2.1c-1.2-0.8-2.3-1.9-3.1-3.2c-0.8-1.2,0.1-2.1,0.9-3.1c0.2-0.3,0.3-0.6,0.2-0.9
		c5.7,2,13.1,1.9,17.5-1.4c6.2,0.7,12.5-0.1,18.8-0.1c3.5,0,9.2-0.3,11.4,3C787.1,302.6,783,305.2,781.3,306.4"/>
	<path class="st1" d="M190,296.8c3.9-5,3.8-13.4,4.5-19.8c0.3,0,0.6-0.2,0.6-0.5c3.3-0.3,6.6-1.4,10-1.6c2.8-0.2,5.6-0.3,8.3-0.9
		c1.8,2.9,3.2,5.8,4.3,8.4c2,4.6,8.9,0.6,6.8-4c-2.7-5.9-7-11.2-11.1-16.2c-3.9-4.8-8.8-10.7-15-12.6c-7-2.1-8.3,5.6-8.3,10.6
		c0.2,11.9-3.4,23.7-2.7,35.7C187.6,296.9,189.2,297.8,190,296.8 M198,257c4.2,2.4,8.3,6.6,11.7,11.4c-2.6,0.7-5.3,1.4-8,2
		c-2.2,0.5-4.6,1.1-6.6,2.3c0.6-3.4,1.4-6.9,1.7-10.3c0.1-1.2,0.1-2.5,0.1-3.7C197.1,256.7,196,255.9,198,257"/>
	<path class="st1" d="M214.9,245.4c2.2-0.4,4.3-0.9,6.5-1.3c0.4,2.6,0.8,5.5,2.3,7.4c1.7,2.3,5.5,1.7,5.6-1.5c0.1-2.2-1-4.6-1.9-6.8
		c2.2-0.3,4.4-0.7,6-2c1.6-1.2,1.4-4.5-1.2-4.3c-2.2,0.2-4.4,1-6.6,1.8c-0.9-2.6-1.7-5.1-2.8-7.6c-0.7-1.6-3-0.7-3.1,0.8
		c-0.1,2.8,0.4,5.6,1,8.3c-2.5,0.8-4.9,1.7-6.7,3.6C213.2,244.5,214,245.5,214.9,245.4"/>
	<path class="st1" d="M155.4,274.1c3-1,2.7-6.3-0.8-5.8c-8.5,1.1-17,3.4-25.3,5.2c-8.3,1.8-16.7,3.7-24.3,7.6
		c-1.7,0.9-0.5,3.3,1.2,2.9c8.2-1.8,16.2-3.8,24.5-5.3C138.9,277.2,147.6,276.6,155.4,274.1"/>
	<path class="st1" d="M155.7,281.9c-10,1-19.7,4.7-29.6,6.8c-6.2,1.3-14.6,2.7-18.7,8c-0.6,0.7,0.4,2,1.2,1.6
		c15.2-6.3,32.3-5.6,47.8-10.8C159.4,286.6,159.1,281.6,155.7,281.9"/>
	<path class="st1" d="M154.4,300.1c3-1.3,0.8-5.8-2.2-5.1c-13.4,3.4-26.2,9.1-39.6,11.9c-0.6,0.1-0.7,1-0.2,1.3
		c4.6,2.7,11.7-0.3,16.5-1.5C137.4,304.8,146.5,303.6,154.4,300.1"/>
	<path class="st1" d="M205.4,321.8c4.6-1.3,9-3.3,13.4-5.1c5.2-2.1,10.4-3.1,15.8-4.6c3.3-0.9,2.4-5.5-0.8-5.7
		c-8.8-0.6-17.7,4.4-25.7,7.5c-10,3.9-21,5.8-31.5,8.1c-10.6,2.3-21.1,4.7-31.8,6.7c-8.8,1.7-18.3,2.4-26,7.4c0,0,0,0,0,0
		c-1.2,0.7-0.7,2.9,1,2.5c18.3-4.4,37.2-6.7,55.8-10.3C185.6,326.4,195.6,324.5,205.4,321.8"/>
	<path class="st1" d="M147.9,353.2c11.6-3.1,23.3-5.7,35.2-7.9c11-2,21.9-4,32.9-6.1c9.7-1.9,21.5-2.4,30.3-7.1
		c3.3-1.7,0.9-6.2-2.4-5.6c-20.9,3.8-41.6,8.7-62.4,12.9c-11,2.2-21.7,4.9-32.4,8.2c-8.3,2.6-17.1,7.2-25.7,8.5
		c-1.6,0.3-1,2.5,0.4,2.6C131.3,359.5,140.7,355.1,147.9,353.2"/>
	<path class="st1" d="M184.3,368.1c10.6-2.5,21.1-4.5,31.9-5.9c9.7-1.3,21.4-2.2,29.6-8.1c2.7-2,1.2-6.9-2.4-5.8
		c-9.7,3-18.9,5.6-29,7.1c-10.8,1.6-21.2,3.7-31.8,6.3c-11.8,2.9-23.4,6.4-35,9.7c-4.9,1.4-9.8,2.7-14.5,4.5c-2.8,1-6.3,1.5-8.8,3
		c0,0,0,0,0,0c-0.9,0.5-0.7,2,0.3,2.3c6,2.2,16-2.6,21.9-4C159.1,374.4,171.7,371,184.3,368.1"/>
	<path class="st1" d="M193,389.7c11.1-2.6,22.2-5.2,33.3-7.9c11.2-2.7,22.8-4.3,33.8-7.4c3.5-1,2.9-6.6-0.9-6.4
		c-10.8,0.6-21.7,4.1-32.1,6.8c-11.1,2.8-22.1,5.7-33.2,8.5c-21.5,5.3-43.2,10.8-64.1,18.3c-1.4,0.3-1.3,2.8,0.3,2.6
		c10.2-0.7,19.9-4,29.8-6.6C170.8,394.7,181.9,392.3,193,389.7"/>
	<path class="st1" d="M261.1,390c-9.8,0.3-19.6,3.5-29,6.2c-10.1,2.8-20.2,5.9-30.2,8.8c-10,2.9-20.1,5.7-30.1,8.6
		c-10.8,3.2-22,4.9-32.9,8c-1.4,0.4-1.1,2.5,0.3,2.5c9.6,0.5,19.5-2.1,28.8-4.2c10.2-2.3,20.3-5.2,30.4-7.6
		c10.2-2.5,20.3-5.4,30.4-8.2c10.9-3,22.3-4.7,33.1-8.2C265,394.9,264.6,389.9,261.1,390"/>
	<path class="st1" d="M213.3,424c-12.2,1.9-24.8,6.7-36.8,10.2c-11.5,3.3-22.3,9.4-34.1,11.6c-1.8,0.3-1.4,3.2,0.4,3.2
		c11.4-0.4,21.7-5.9,32.7-8.6c13-3.1,28-4.9,40-10.8C219,427.9,216.5,423.5,213.3,424"/>
	<path class="st1" d="M435.2,142.9C435.2,142.8,435.2,142.8,435.2,142.9c-1.7,2.8-2,6.5-2.4,9.7c-0.4,3-0.6,8.1,1.7,10.3
		c1.6,1.6,4.5,0.9,5.1-1.3c0.6-2.5-0.5-5.5-0.6-8c-0.2-3.3,0-6.6-0.4-9.8C438.2,141.4,436,141.7,435.2,142.9"/>
	<path class="st1" d="M494.6,159.9c-0.1-5.9-0.5-11.9-1.7-17.7c-0.3-1.5-3-1.6-3.2,0c-0.8,5.9-1.7,11.8-1.7,17.7
		C488,164.1,494.7,164.1,494.6,159.9"/>
	<path class="st1" d="M457.8,199.7c-2.2-2.3-2.2-5.4-3.2-8.3c-0.3-0.9-1.5-0.9-1.8,0c-2.9,8.3,3.4,15.2,11,17.2c3,0.8,4-3.4,1.2-4.5
		C462.5,203,459.8,201.8,457.8,199.7"/>
	<path class="st1" d="M423,115.5c4.8-6.4,11.2-6.7,18.2-9c0.8-0.3,0.8-1.3,0-1.6c-7.2-2.7-18.4,1.6-21.8,8.5
		C418.2,115.8,421.4,117.6,423,115.5"/>
	<path class="st1" d="M448.5,244.5c11.4,3,22.4,3.6,33.5-1c9.2-3.8,17.1-9.6,23-17.5c0.8,0.6,1.6,1.1,2.4,1.2
		c2.4,0.4,4.7-1.9,3.3-4.3c-1.3-2.1-4.2-3-6.3-4.3c-2-1.2-3.7-2.6-5.6-3.9c-0.9-0.6-2.1,0.4-1.8,1.4c0.6,1.9,1.9,3.5,3.2,5
		c-11.8,1.9-22.8,5-34.9,5c-12.4-0.1-22.7-4-34.1-8.4c-1.1-0.4-1.7,1.1-1,1.8c2.9,3.2,6.5,5.6,10.5,7.4c2,3.3,4,6.5,5.4,10.1
		c0.7,1.8,1.5,4.3,2.8,6.1c-0.1,0-0.3,0-0.4,0.1C447.7,243.2,447.8,244.3,448.5,244.5 M479.6,237.9c-8.4,4.3-16.7,3.5-25.4,4.3
		c0,0,0,0,0-0.1c0-0.2-0.1-0.4-0.2-0.6c3.4-2.7,6.7-5.1,10.8-6.8c3.1-1.3,6.4-1.6,9.5-2.6c5.9-0.2,12-0.8,17.7-2.1
		C488.2,233.1,484,235.7,479.6,237.9 M461,231.7c-3.2,1.6-6.7,3.8-9,6.7c0,0,0,0,0-0.1c-1-1.7-1.7-3.5-2.7-5.2
		c-0.7-1.3-1.5-2.7-2.4-4C451.6,230.5,456.4,231.3,461,231.7"/>
	<path class="st1" d="M469.7,65.7c-19.8-8.1-40.3-4.4-60.9-2.1c-1.5,0.2-1.5,2.4,0,2.3c9.3-0.4,18.7-1.2,28-1.4
		c10.9-0.2,21.4,2,31.8,5.1C471.2,70.4,472,66.7,469.7,65.7"/>
	<path class="st1" d="M452.9,49.2c-1-0.1-1.2,1.5-0.2,1.7c9.5,2.8,18.7,6.3,27.2,11.5c8,4.8,14.5,11.6,22.4,16.5
		c1.6,1,4-1.1,2.8-2.8C493.5,61.2,471.4,50.9,452.9,49.2"/>
	<path class="st1" d="M398.2,81.8c8.1-5.7,17.9-14.8,28.5-11.4c2.1,0.7,3.4-2.5,1.5-3.5c-10.8-5.8-23.6,6.9-31.4,13
		C395.7,80.7,397.1,82.6,398.2,81.8"/>
	<path class="st1" d="M389.7,44.6c0.9-10.9,13.4-15.7,22.3-18.6c9.1-2.9,19.1-4.7,28.6-4.9c3.1-0.1,3.1-4.8,0-4.8
		c-11.6-0.2-23.9,2.8-34.5,7.4c-8.6,3.7-20,10.2-18.2,21.2C388.1,45.9,389.6,45.6,389.7,44.6"/>
	<path class="st1" d="M424.7,9.6C436.8,10.7,449,7,461.2,7c12.7,0,24.7,4.9,36.8,8.2c3.5,1,4.6-4,1.4-5.3
		c-11.5-4.6-23.3-7.7-35.7-8.1c-13.1-0.3-26.5,3.5-39.3,5.4C423,7.6,423.5,9.5,424.7,9.6"/>
	<path class="st1" d="M643.3,1224.2c4.8,0.9,9.4,0.8,14.3,0.6c6.7-0.2,11.9,1.2,18.2,3.3c2.3,0.8,3.7-2.2,2.2-3.8
		c-7.9-9-24.1-3.3-34.3-3C642,1221.2,641.5,1223.9,643.3,1224.2"/>
	<path class="st1" d="M647.5,1232.7c-1.6,0.2-1.7,2.5,0,2.6c10.6,0.6,21.5-0.6,32.1-1.3c3.1-0.2,3.1-4.6,0-4.8
		C669,1228.3,658,1231.4,647.5,1232.7"/>
	<path class="st1" d="M513,117.2c-5.7-10.8-16.7-17-28.7-14.1c-0.8,0.2-0.7,1.6,0.2,1.5c5.3-0.4,10.2,0.5,14.6,3.4
		c4.3,2.8,6.8,7.5,9.7,11.6C510.7,122.1,514.5,120,513,117.2"/>
</g>
</svg>
