<?xml version="1.0" encoding="utf-8"?>
<!-- Generator: Adobe Illustrator 19.0.0, SVG Export Plug-In . SVG Version: 6.00 Build 0)  -->
<svg version="1.1" id="Слой_1" xmlns="http://www.w3.org/2000/svg" xmlns:xlink="http://www.w3.org/1999/xlink" x="0px" y="0px"
	 viewBox="0 0 1053.1 1248.8" style="enable-background:new 0 0 1053.1 1248.8;" xml:space="preserve">
<style type="text/css">
	.st0{clip-path:url(#SVGID_2_);fill:#7BAFDE;}
	.st1{clip-path:url(#SVGID_4_);fill:#005BAA;}
</style>
<g>
	<defs>
		<rect id="SVGID_1_" y="0" width="1053.1" height="1248.8"/>
	</defs>
	<clipPath id="SVGID_2_">
		<use xlink:href="#SVGID_1_"  style="overflow:visible;"/>
	</clipPath>
	<path class="st0" d="M307.4,193.2c5.7,6.2,13.3,10.2,19.1,16.2c3.1,3.2,5.6,6.8,7.8,10.6c2,3.4,3.3,7.4,5.8,10.3
		c1.2,1.4,3.2-0.1,2.9-1.7c-0.8-4-3.5-7.9-5.7-11.3c-2.3-3.5-4.9-6.9-7.8-9.9c-6.2-6.2-14.1-10.4-21.2-15.5
		C307.6,191.6,306.9,192.7,307.4,193.2"/>
	<path class="st0" d="M307,166.7c12.4,3.6,21.8,16.8,27.8,27.6c7.1,12.8,9.9,27.4,2.9,40.9c-0.8,1.5,1.2,3.3,2.5,1.9
		c10.6-12.1,5.8-30.6-1.4-43.2c-6.6-11.7-17.5-25.5-31.5-28.2C306.6,165.6,306.4,166.5,307,166.7"/>
	<path class="st0" d="M297.6,196c4.4,1.2-7,18.5-8.2,19.9c-5.8,6.6-13.5,11.4-21.5,14.8c-7.5,3.2-15.4,5.5-22.9,8.6
		c-6.6,2.7-13.8,6.1-18,12.1c-0.8,1.2,0.8,2.7,1.9,1.9c3.9-2.6,7.6-5.5,11.9-7.6c4.5-2.3,9.2-4,13.9-5.7c8.7-3.2,17.7-6.1,25.5-11.4
		c7.2-4.9,13.7-11,17.2-19.2c1.3-3,5.6-13,0.4-14.4C297.3,195,297,195.9,297.6,196"/>
	<path class="st0" d="M285.1,205.6c-8.5,8.4-19,14.6-27.8,22.7c-1.2,1.1,0.6,2.8,1.7,1.7c8.8-8.1,18.9-14.6,26.8-23.7
		C286.2,205.8,285.5,205.1,285.1,205.6"/>
	<path class="st0" d="M249.9,194.8c-12.5,3.7-19.3,17.4-22.7,29c-2,6.9-3.1,14.1-3.1,21.3c0,5.3,0.2,13.2,3.8,17.5
		c1.1,1.3,2.8-0.1,2.6-1.5c-0.4-2.3-1.6-4.5-2.1-6.8c-0.7-3-1-6.1-1.1-9.2c-0.2-6.6,0.6-13.2,2.2-19.5c2.9-11.4,8.6-25.4,20.6-29.8
		C250.8,195.6,250.6,194.6,249.9,194.8"/>
	<path class="st0" d="M227.8,190.9c-11.3,10.1-16.1,26.2-16.2,41c-0.1,7.7,1.2,15.4,4.3,22.5c2.6,5.9,7.2,13.5,13.5,15.8
		c2,0.7,3-1.9,1.9-3.2c-2.1-2.4-4.8-4.2-6.9-6.7c-2.1-2.6-3.8-5.5-5.1-8.5c-2.9-6.6-4-13.9-4.1-21c-0.2-13.8,3.9-28.9,13.4-39.1
		C229,191.1,228.3,190.4,227.8,190.9"/>
	<path class="st0" d="M202.1,250.7c-8,26.7,27.1,42.7,25,68.7c-0.1,1.6,2.5,1.9,2.8,0.4c6.3-26.8-32.7-41.9-26.8-68.8
		C203.2,250.4,202.3,250.1,202.1,250.7"/>
	<path class="st0" d="M303.3,349.5c-5.4,0.5-10.8,0.4-16.1-0.5c-4.9-0.8-9.6-2.6-14.4-3.6c-1.5-0.3-2.5,1.7-1.1,2.6
		c9.1,5.5,21.8,5.1,31.8,3.1C304.3,350.8,304.2,349.4,303.3,349.5"/>
	<path class="st0" d="M286.7,361.7c-5.6-1.2-10.5-4.4-14.2-8.8c-0.9-1-2.7,0.3-1.9,1.5c3.7,5.5,9.3,8.6,15.9,9.2
		C287.5,363.7,287.8,361.9,286.7,361.7"/>
	<path class="st0" d="M276.5,345.6c-1.3,6.8-3.7,13.4-7.4,19.3c-3.5,5.6-9.3,14.2-17,10.8c-1.6-0.7-3.1,1-1.9,2.4
		c5.5,6.5,13.5-0.3,17.2-5.2c6-8,9.5-17.3,10.4-27.2C278,345,276.7,344.8,276.5,345.6"/>
	<path class="st0" d="M241,245.1c-3.7,12.6-1.2,25.9,1.8,38.4c3.1,13.4,7.7,26.3,13.3,38.8c0.8,1.8,3.5,0.2,2.7-1.6
		c-5.2-11.8-9.5-23.9-12.8-36.4c-3.4-12.8-6-25.8-4-39C242.2,244.7,241.2,244.4,241,245.1"/>
	<path class="st0" d="M268.9,487.2c-10.5,18-26.8,32.6-43.7,44.5c-17,11.9-35.5,19.9-55,26.9c-2.2,0.8-1.3,4.1,1,3.5
		c20.7-5.3,40.6-16.1,57.6-28.8c8.4-6.2,16.3-13.1,23.6-20.7c7-7.4,13.8-15.4,17.6-24.9C270.2,487,269.2,486.7,268.9,487.2"/>
	<path class="st0" d="M163.4,529.1c-1.2,7.7-2.2,15.8,1.1,23.1c2.6,5.9,7.5,10.6,14.1,11.3c1.8,0.2,2-2.5,0.4-3
		c-13.7-4.4-15.8-18.7-14.4-31.3C164.6,528.6,163.5,528.4,163.4,529.1"/>
	<path class="st0" d="M173,528.7c-1.4,11.7,4.6,23.1,15,28.6c2.4,1.3,4.6-2.5,2.1-3.7c-9.5-4.7-15.4-14.3-14.9-24.9
		C175.3,527.2,173.2,527.3,173,528.7"/>
	<path class="st0" d="M180.6,531.2c3.9,8.7,11.9,15.6,21.5,16.7c2,0.2,2.2-2.8,0.5-3.4c-8.4-2.5-15.4-6.9-19.6-14.7
		C182.1,528.3,179.9,529.6,180.6,531.2"/>
	<path class="st0" d="M196.7,531.7c4.6,4.9,10.2,8.3,16.8,9.8c2.1,0.5,3-2.7,0.9-3.3c-5.8-1.6-11.2-4.5-15.5-8.7
		C197.4,528.1,195.3,530.3,196.7,531.7"/>
	<path class="st0" d="M221.4,534.8c3.3,0,6.5-0.5,9.7-1.4c2-0.6,1.1-3.5-0.8-3c-2.9,0.7-5.9,1-8.9,1.1
		C219.2,531.4,219.2,534.8,221.4,534.8"/>
	<path class="st0" d="M201.5,448.1c-2,15.8-5.9,30.8-10.2,46.1c-0.6,2.1,2.6,3,3.3,0.9c5.2-14.9,7.7-31.2,8.7-47
		C203.3,447,201.6,447.1,201.5,448.1"/>
	<path class="st0" d="M190.4,409.8c3.2,15,9.1,29,17.8,41.6c1.1,1.6,3.7,0.1,2.6-1.5c-8.7-12.3-15.1-25.9-18.9-40.5
		C191.6,408.4,190.2,408.8,190.4,409.8"/>
	<path class="st0" d="M184.8,415.4c3,16.6,9.2,32.5,18.5,46.5c1.2,1.8,4,0.1,2.9-1.7c-9.2-13.9-16.1-29-20.1-45.2
		C185.8,414.3,184.6,414.6,184.8,415.4"/>
	<path class="st0" d="M196.9,392.8c15.3-9.2,31.5-15,48.4-20.3c1.6-0.5,0.9-2.8-0.7-2.4c-17.2,3.7-33.8,12-48.3,21.7
		C195.7,392.2,196.2,393.2,196.9,392.8"/>
	<path class="st0" d="M233.9,377.1c6.7,11.8,22.5,14.4,34.7,16.3c16.4,2.5,32.9,2.1,49.2-1.2c1.6-0.3,0.9-2.7-0.7-2.5
		c-14.7,2.5-29.8,3.1-44.6,1.4c-12.5-1.4-29.7-3.3-37.5-14.7C234.5,375.8,233.5,376.4,233.9,377.1"/>
	<path class="st0" d="M371.6,391c-6.6-6.9-14.6-11.5-24-13.4c-1.6-0.3-2.3,2.1-0.7,2.4c8.9,1.8,16.9,5.9,23.5,12.1
		C371.2,392.8,372.3,391.7,371.6,391"/>
	<path class="st0" d="M384.5,469.9c16.7,20.5,37.3,37.6,60.8,49.7c5.4,2.8,11,5,17.1,5.5c7,0.6,13.9-1.3,20.6-3.3
		c13.5-4,26.6-9.4,39.3-15.4c15.2-7.2,30-15.3,44.6-23.7c1.6-0.9,0.2-3.3-1.4-2.4c-15.7,8.2-31.2,16.7-47.3,24
		c-8.1,3.7-16.4,7-24.8,10c-8.2,2.9-17.1,6.3-25.8,6.9c-8.9,0.6-17-4.2-24.7-8.3c-6.8-3.7-13.5-7.7-19.9-12.1
		c-13.5-9.3-25.8-20.4-36.7-32.7C385.2,466.9,383.5,468.7,384.5,469.9"/>
	<path class="st0" d="M395.5,435.5c-2.7,11.7-6.1,23.4-8,35.2c-0.3,1.8,2.4,2.7,2.9,0.8c3-11.6,4.5-23.7,6.7-35.5
		C397.3,434.9,395.8,434.4,395.5,435.5"/>
	<path class="st0" d="M402.6,441.7c-2.3,12.4-4.8,24.8-6.3,37.3c-0.2,1.9,3,2.3,3.3,0.4c2-12.4,3.1-25.1,4.3-37.6
		C404,441.2,402.8,441,402.6,441.7"/>
	<path class="st0" d="M410.7,456.5c-2.5,10.4-4.6,21.2-5,31.9c-0.1,2.3,3.2,2.2,3.4,0c1.1-10.5,1.8-20.9,3.7-31.3
		C413.1,455.7,411.1,455.1,410.7,456.5"/>
	<path class="st0" d="M417.7,485.3c-0.1,5.2-0.1,10.3,0,15.5c0,1.9,2.9,1.9,2.9,0c0.1-5.2,0.1-10.3,0-15.5
		C420.7,483.4,417.8,483.4,417.7,485.3"/>
	<path class="st0" d="M545.3,454.1c6.9,5.7,10.5,13.6,10.8,22.5c0.1,2.4,3.8,2.4,3.7,0c-0.4-9.7-5.5-18.3-13.6-23.6
		C545.5,452.5,544.7,453.6,545.3,454.1"/>
	<path class="st0" d="M543.4,465.5c3.4,5.4,4.8,11,5.6,17.2c0.3,2,3.5,1.5,3.4-0.5c-0.1-6.6-2.9-12.9-6.7-18.1
		C544.8,462.7,542.5,463.9,543.4,465.5"/>
	<path class="st0" d="M534.4,472.1c0.9,3.9,1.6,8,1.9,12c0.1,1.8,2.9,1.9,2.8,0c-0.1-4.4-0.7-8.6-1.8-12.8
		C536.8,469.4,533.9,470.2,534.4,472.1"/>
	<path class="st0" d="M508.2,508.1c11.1-5,22-10.5,32.5-16.7c10.1-5.9,20.5-11.9,29.4-19.4c1.5-1.3-0.4-3.7-2.1-2.7
		c-10.1,6.2-19.6,13.4-29.8,19.6c-10.1,6.2-20.5,12-31.1,17.5C506.1,507,507.1,508.6,508.2,508.1"/>
	<path class="st0" d="M619.2,445c-15.7,6.7-32.7,6.9-48.8,1.6c-2-0.7-2.8,2.4-0.9,3.2c16.5,6,34.9,4.3,50.4-3.4
		C620.8,445.8,620,444.6,619.2,445"/>
	<path class="st0" d="M573,434.2c-2.2,8-7.9,14.6-9.5,22.9c-0.4,2.1,2.8,2.9,3.1,0.9c1.3-8.2,6.1-15.2,7.4-23.4
		C574.2,433.8,573.2,433.5,573,434.2"/>
	<path class="st0" d="M576.9,443.7c-2.6,4.4-5,9-6.7,13.8c-0.5,1.5,2,2.6,2.7,1.1c2.1-4.6,4-9.2,6.3-13.6
		C580,443.6,577.8,442.3,576.9,443.7"/>
	<path class="st0" d="M225.8,544.4c10.2,35.9-2,73.8-6.4,109.6c-0.2,1.4,2.1,1.7,2.5,0.3c4.9-18.5,7.8-37.9,9.6-57
		c0.9-9.4,1.4-18.9,1.1-28.4c-0.3-8.5-1.3-17.5-5.7-25C226.6,543.3,225.6,543.7,225.8,544.4"/>
	<path class="st0" d="M284.4,646.7c-26.2-21.5-42.7-51.2-49.3-84.3c-0.4-1.9-3.1-1.1-2.8,0.8c5,33.4,24.1,64.4,50.3,85.4
		C283.9,649.7,285.8,647.8,284.4,646.7"/>
	<path class="st0" d="M284.2,606.8c-11.5-8.2-22-17.8-31.1-28.6c-4.6-5.4-8.9-11.1-12.7-17.1c-3.8-5.8-6.5-12.5-10.6-18.1
		c-0.9-1.3-3.2-0.6-2.7,1.1c1.9,6.6,6.5,13,10.2,18.8c3.9,6,8.2,11.7,12.9,17.2c9.5,11.2,20.5,21,32.6,29.3
		C284.3,610.5,285.7,607.9,284.2,606.8"/>
	<path class="st0" d="M240.3,533.8c-5.9,4.3-10.7,10.2-12.3,17.5c-0.3,1.3,1.5,1.7,2,0.5c2.5-6.5,5.9-12.3,11.2-16.9
		C241.8,534.4,241,533.3,240.3,533.8"/>
	<path class="st0" d="M241.3,544.8c-1.7,3.5-3.3,7-5,10.5c-0.8,1.6,1.6,3,2.4,1.4c1.6-3.5,3.3-7,4.9-10.6
		C244.3,544.6,242.1,543.2,241.3,544.8"/>
	<path class="st0" d="M279.8,478.6c16.3-13.7,36.4-19.7,57.6-17.2c1.3,0.2,1.6-2.1,0.3-2.3c-20.9-3.9-43.9,3.3-58.8,18.6
		C278.3,478.3,279.2,479.2,279.8,478.6"/>
	<path class="st0" d="M357.8,449.5c-3.5,2.1-7,4.2-10.5,6.3c-3.2,1.9-6.8,3.4-9.5,5.9c-1,0.9,0,2.6,1.3,2.2c3.5-1,6.7-3.5,9.7-5.5
		c3.4-2.2,6.8-4.6,10.1-7C360,450.6,359,448.8,357.8,449.5"/>
	<path class="st0" d="M346.1,449c-6.1,3.8-13,7.2-18.4,11.9c-1.3,1.2,0.4,3,1.8,2.3c6.3-3,12.1-8.1,17.8-12.1
		C348.6,450.2,347.5,448.1,346.1,449"/>
	<path class="st0" d="M331.5,451.4c-7.4,2.9-14.8,5.9-22.1,9.1c-1.4,0.6-0.4,3.1,1,2.5c7.4-3,14.7-6.2,22-9.5
		C333.5,453,332.7,450.9,331.5,451.4"/>
	<path class="st0" d="M297.8,462.8c-1.2,0.8-2.5,1.6-3.7,2.5c-1,0.7-0.1,2.4,1,1.7c1.2-0.8,2.5-1.7,3.7-2.5
		C299.8,463.7,298.8,462.1,297.8,462.8"/>
	<path class="st0" d="M171.5,485.5c5.2,5.6,10.3,11.2,15.6,16.6c1.4,1.4,3.6-0.8,2.2-2.2c-5.2-5.5-10.7-10.8-16.2-16.1
		C172.1,482.7,170.5,484.4,171.5,485.5"/>
	<path class="st0" d="M176.3,471c4.4,6.8,9,14.7,15.1,20.1c1,0.8,2.6-0.2,1.9-1.4c-4.3-7-10.2-13.1-14.8-19.9
		C177.5,468.5,175.4,469.7,176.3,471"/>
	<path class="st0" d="M189.3,469.2c0.2,2.5,0.4,5,0.6,7.4c0.1,1.4,2.3,1.4,2.2,0c-0.2-2.5-0.4-5-0.6-7.4
		C191.3,467.8,189.2,467.8,189.3,469.2"/>
	<path class="st0" d="M155.4,519.4c-0.9,17.3,1.8,38.7,18,48.8c1.8,1.1,3.2-1.6,1.6-2.8c-15.1-11-18.7-28.3-18.5-46.1
		C156.4,518.7,155.4,518.7,155.4,519.4"/>
	<path class="st0" d="M224.7,826.2c-6.3-26.8-7-54.8-5.5-82.2c0.7-13.5,2-27,3.5-40.4c1.6-14.2,2.7-28.7,6-42.6
		c0.6-2.6-3.5-3.8-4.1-1.1c-3.2,13.4-4.2,27.4-5.8,41c-1.6,14.3-3,28.7-3.7,43c-1.3,28,0.5,55.6,8.1,82.6
		C223.5,827.6,225,827.2,224.7,826.2"/>
	<path class="st0" d="M223.5,700.1c6.5-5.9,13.4-11.3,20.8-16c3.5-2.2,7.2-4.3,10.9-6.1c3.7-1.9,7.8-3.2,11.3-5.3
		c1.2-0.8,0.4-2.7-1-2.4c-8.1,1.8-16.3,7.6-23,12.2c-7.2,4.9-13.8,10.5-20,16.7C221.9,699.8,222.8,700.7,223.5,700.1"/>
	<path class="st0" d="M224.7,715.6c17.1-18.7,38-32,61.5-41.2c1.4-0.6,0.9-2.9-0.7-2.4c-23.8,8.3-45.1,23.8-61.6,42.8
		C223.4,715.4,224.2,716.2,224.7,715.6"/>
	<path class="st0" d="M255.3,703.1c17.1-11.4,35.4-19.5,54.5-26.9c1.5-0.6,0.9-2.9-0.7-2.5c-19.6,5.6-38.1,15.9-54.8,27.6
		C253.2,702.1,254.2,703.9,255.3,703.1"/>
	<path class="st0" d="M289.7,694.4c11.8-5.3,24-9.9,36.2-14.1c1.8-0.6,1.1-3.5-0.8-2.9c-12.6,4-24.9,9-36.9,14.5
		C286.5,692.6,288,695.1,289.7,694.4"/>
	<path class="st0" d="M234.6,675.9c7-3.6,14.3-6.4,22-8.4c2.2-0.6,1.3-4-0.9-3.4c-8,2-15.5,4.9-22.7,8.9
		C231,674,232.7,676.9,234.6,675.9"/>
	<path class="st0" d="M323.7,722.9c-8.3,9.1-14.6,19.6-18.4,31.3c-0.5,1.5,1.8,2.1,2.3,0.6c4-11.2,9.6-21.7,17-31
		C325.1,723.1,324.3,722.2,323.7,722.9"/>
	<path class="st0" d="M338.2,718.1c-16.3,18.7-28.9,41.9-33.4,66.4c-0.3,1.5,1.9,2.2,2.4,0.7c6.8-24,16.6-46.2,32-66
		C339.8,718.4,338.8,717.4,338.2,718.1"/>
	<path class="st0" d="M329.8,748.5c-12.4,18.3-22,39.4-25.2,61.4c-0.2,1.7,2.2,2.4,2.6,0.7c5.1-21.7,12.3-42.2,24.3-61.1
		C332.2,748.4,330.5,747.4,329.8,748.5"/>
	<path class="st0" d="M320.9,788.3c-7.7,19.9-12.7,40.9-13.4,62.3c-0.1,1.6,2.4,1.6,2.5,0c1.9-21.1,5.7-41.7,13-61.7
		C323.4,787.6,321.4,787.1,320.9,788.3"/>
	<path class="st0" d="M312,733.4c-1.6,55,3.9,110.7,17,164.2c0.5,2,3.5,1.1,3-0.8c-12.3-53.7-18.8-108.2-18.8-163.3
		C313.2,732.6,312,732.6,312,733.4"/>
	<path class="st0" d="M325.1,1004.8c-6.8-24.3-8.4-48.8-4.9-73.8c0.3-1.9-2.6-2.8-2.9-0.8c-4.5,24.8-2.3,51.3,6.2,75
		C323.9,1006.3,325.4,1005.9,325.1,1004.8"/>
	<path class="st0" d="M299.6,1035.8c5.2-19.5,10.9-38.9,17.1-58.2c6.2-19.3,13.4-38.1,20.1-57.2c0.6-1.7-2-2.3-2.7-0.7
		c-7.8,18.6-13.9,38-19.9,57.2c-6,19.3-11.3,38.8-15.9,58.5C298.1,1036.2,299.3,1036.6,299.6,1035.8"/>
	<path class="st0" d="M238.1,977.8c-4.6,51.4-7.8,109.3,24,153.5c1.1,1.5,3.7,0.1,2.6-1.5c-30.7-44.9-27.8-100.2-25.4-152
		C239.3,977,238.1,977,238.1,977.8"/>
	<path class="st0" d="M269.1,1093.3c-2.1,4.8-4.1,9.5-6.2,14.3c-1.8,4.3-4.2,8.6-5.2,13.2c-0.3,1.3,1.5,2.1,2.2,0.9
		c2.4-4,3.7-8.8,5.3-13.1c1.8-4.9,3.6-9.8,5.4-14.7C271,1093.1,269.5,1092.5,269.1,1093.3"/>
	<path class="st0" d="M259.1,1094.1c-0.7,1.3-7.5,13.1-6.4,13.7c-1.4-0.8-3,0.8-2.2,2.2c1.6,2.8,4.1,0.4,5.1-1.5
		c2.2-4.2,4.1-8.6,6.1-12.8C262.6,1093.9,260,1092.4,259.1,1094.1"/>
	<path class="st0" d="M250.9,1082.3c-2.2,4.5-4.7,8.8-7.3,13.1c-1.2,1.9,1.7,3.5,2.9,1.7c2.8-4.2,5.1-8.6,7.2-13.2
		C254.6,1082.1,251.9,1080.5,250.9,1082.3"/>
	<path class="st0" d="M246.1,1063.1c-2.5,6.6-3.9,13.1-4.5,20.1c-0.1,1.1,1.6,1.1,1.7,0c0.8-6.6,2.3-13.3,4.2-19.7
		C247.8,1062.6,246.4,1062.2,246.1,1063.1"/>
	<path class="st0" d="M272.7,1115.6c-3.1,6.5-3.7,13.1-1.5,19.9c0.4,1.3,2.3,0.8,2-0.6c-1.5-6.2-1.3-12.7,1.1-18.7
		C274.7,1115.4,273.1,1114.7,272.7,1115.6"/>
	<path class="st0" d="M280,1143.4c-12.2,3.2-28,1.1-31.9-13c-0.7-2.5-4.4-1.4-3.8,1c3.9,16.4,22.7,18.9,36.4,14.6
		C282.4,1145.5,281.7,1142.9,280,1143.4"/>
	<path class="st0" d="M255.1,1154.4c-2.7-0.9-5.6-1.1-8.5-1.5c-2.3-0.3-2.7,3.1-0.4,3.1c2.9,0,6,0.2,8.9-0.3
		C255.8,1155.7,255.7,1154.6,255.1,1154.4"/>
	<path class="st0" d="M322.7,1141.9c-8.8-3.7-17.1-8.5-24.8-14.3c-1.7-1.3-3.4,1.6-1.7,2.9c8,5.7,16.7,10,26,13
		C323.3,1143.8,323.6,1142.3,322.7,1141.9"/>
	<path class="st0" d="M346.9,1198.8c-18.8-4.2-33.7-15.7-43.9-31.9c-1.2-1.9-4-0.2-3,1.7c9.2,17.1,27.3,29,46.3,32
		C347.6,1200.8,348.2,1199.1,346.9,1198.8"/>
	<path class="st0" d="M312,1152.1c-9.4,9.2-14.3,22.8-14.4,35.8c0,2.2,3.4,2.2,3.4,0c0-13.2,4.5-24.5,12-35.1
		C313.4,1152.3,312.5,1151.7,312,1152.1"/>
	<path class="st0" d="M316.5,1163.8c-6.2,9.7-10.1,20.6-10.6,32.2c-0.1,2.3,3.4,2.3,3.6,0c0.9-11,3.9-21.2,9.6-30.7
		C320.1,1163.7,317.5,1162.2,316.5,1163.8"/>
	<path class="st0" d="M283.8,1166.2c-17.8,4.7-34.8,14.8-47.5,28.1c-1.4,1.4,0.8,3.6,2.2,2.2c13.4-12.9,28.3-22.3,45.7-29
		C284.9,1167.1,284.6,1165.9,283.8,1166.2"/>
	<path class="st0" d="M272.8,1180.7c-5.7,3.6-11.2,7.6-16.5,11.8c-1.5,1.2,0.6,3.4,2.1,2.1c5-4.2,10.2-8.1,15.7-11.7
		C275.5,1182,274.2,1179.8,272.8,1180.7"/>
	<path class="st0" d="M124.2,1225.2c37.2-9,74.3-18.1,111.8-26.3c1.5-0.3,0.9-2.6-0.6-2.3c-37.4,7.7-74.8,16.5-111.4,27.5
		C123.3,1224.4,123.5,1225.4,124.2,1225.2"/>
	<path class="st0" d="M155.8,1201.7c22.3-3.9,44.3-9.6,65.9-16.2c1.7-0.5,1-3.2-0.7-2.7c-21.6,6.6-43.5,12.3-65.4,18
		C155,1201,155.2,1201.8,155.8,1201.7"/>
	<path class="st0" d="M185.6,1180.1c15.7-2.2,31.3-5.1,46.7-8.7c1.9-0.4,1.1-3.4-0.8-2.9c-15.3,3.8-30.8,7.2-46.3,10.1
		C184.2,1178.8,184.6,1180.3,185.6,1180.1"/>
	<path class="st0" d="M180.2,1228.8c11.8-2.1,23.6-4.3,35.4-6.5c1.9-0.4,1.1-3.3-0.8-2.9c-11.8,2.4-23.5,4.7-35.3,7.1
		C178,1226.9,178.7,1229.1,180.2,1228.8"/>
	<path class="st0" d="M304.8,1217.1c12.6-2.7,25.3-4.3,38.1-5.3c1.8-0.1,1.9-3,0-2.9c-13.1,0.6-26,2.7-38.8,5.9
		C302.7,1215.1,303.3,1217.4,304.8,1217.1"/>
	<path class="st0" d="M239,1248.8c52.7-8.1,105.8-16.8,157.8-28.9c1.9-0.4,1.1-3.2-0.8-2.8c-52.5,9.7-104.8,20.7-157.4,30.1
		C237.4,1247.4,237.9,1249,239,1248.8"/>
	<path class="st0" d="M247.9,1200.4c-7.1,2.9-10.8,10.6-7.6,17.8c3.7,8.3,15.2,10.5,23.2,11.1c2.1,0.2,2.1-3.2,0-3.3
		c-6.1-0.4-14-1.8-18.6-6.2c-6-5.6-3.3-14.6,3.6-17.8C249.5,1201.6,248.8,1200,247.9,1200.4"/>
	<path class="st0" d="M334.7,1242.8c22.4-4.6,44.7-9.2,67.1-13.9c2.2-0.5,1.3-3.9-0.9-3.4c-22.3,4.8-44.6,9.7-66.9,14.6
		C332.1,1240.5,332.9,1243.2,334.7,1242.8"/>
	<path class="st0" d="M419,1003c-11.9,13.1-23.7,26.5-34.3,40.8c-1,1.4,1.3,3.3,2.5,1.9c11-13.8,21.8-27.7,33.4-41
		C421.6,1003.5,420,1001.9,419,1003"/>
	<path class="st0" d="M425.9,1016c-8.5,8.8-18.1,18.4-24,29.2c-0.7,1.2,1,2.6,2,1.5c4.2-4.6,7.7-9.9,11.6-14.7
		c3.9-4.9,8-9.6,12.2-14.2C428.7,1016.6,427,1014.9,425.9,1016"/>
	<path class="st0" d="M439.8,1024.4c-6.6,7-13.2,14.2-18.7,22.1c-0.8,1.1,1,2.5,1.9,1.5c6-7.4,11.6-15.2,17.8-22.5
		C441.5,1024.7,440.5,1023.7,439.8,1024.4"/>
	<path class="st0" d="M460.4,1030.1c-2.9,2.7-5.8,5.3-8.7,8c-1.3,1.2,0.7,3.2,2,2c2.9-2.7,5.8-5.4,8.6-8.1
		C463.6,1030.8,461.7,1029,460.4,1030.1"/>
	<path class="st0" d="M396.3,997.2c-12.4,16.4-25.3,32.4-38.4,48.2c-1.4,1.6,1,4,2.4,2.4c13-16.2,25.3-32.8,37.2-49.9
		C397.9,997.2,396.8,996.6,396.3,997.2"/>
	<path class="st0" d="M378.5,998.2c-5.4,9.5-10.8,19-16.1,28.5c-0.8,1.4,1.3,2.6,2.1,1.2c5.4-9.5,10.8-19,16.1-28.5
		C381.4,998.1,379.3,996.8,378.5,998.2"/>
	<path class="st0" d="M62.4,665.8c23.4-12.7,47-25.2,71.1-36.6c1.8-0.8,0.2-3.6-1.6-2.7c-23.6,12.3-47.1,24.8-70.2,38.2
		C61,665.2,61.7,666.2,62.4,665.8"/>
	<path class="st0" d="M95.1,666.7c11.4-6.6,22.9-12.9,34.5-19.1c5.8-3.1,11.6-6.1,17.5-9.1c5.8-2.9,12.2-5.4,17.5-9
		c1.2-0.8,0.5-3.1-1.1-2.5c-5.7,2-11,5.4-16.3,8.3c-6,3.3-12.1,6.6-18,9.9c-11.7,6.6-23.2,13.6-34.6,20.7
		C94,666.2,94.5,667.1,95.1,666.7"/>
	<path class="st0" d="M136.4,663c11-7.1,22.3-13.8,33.7-20.2c5.6-3.1,11.3-6.2,17-9.1c5.8-3,12.5-5.5,17.8-9.4
		c1.4-1,0.6-3.4-1.2-2.9c-5.9,1.7-11.5,5.3-16.9,8.2c-5.9,3.2-11.7,6.5-17.5,9.8c-11.6,6.7-22.9,13.9-34.1,21.3
		C133.7,661.7,135,663.9,136.4,663"/>
	<path class="st0" d="M152.9,676.7c20.6-16.9,42.4-31.9,64.9-46.3c1.9-1.2,0.2-4.2-1.8-3.1c-23,13.7-44.5,30.2-64.9,47.5
		C149.9,676,151.6,677.7,152.9,676.7"/>
	<path class="st0" d="M163.1,702.4c16.8-13.3,33.8-26.2,51-38.9c1.7-1.3,0-4.2-1.7-2.9c-17.3,13-34.1,26.6-50.6,40.6
		C161,701.9,162.2,703.1,163.1,702.4"/>
	<path class="st0" d="M193,703.8c6.4-4.9,12.5-10.2,18.2-15.8c1.4-1.4-0.7-3.4-2.1-2.1c-5.8,5.4-11.9,10.5-18.1,15.4
		C189.7,702.4,191.6,704.9,193,703.8"/>
	<path class="st0" d="M64.9,648.5c11.2-6.1,22.7-11.8,34.3-17c1.4-0.6,0.2-2.7-1.2-2.1c-11.7,5.1-23,11.1-33.9,17.8
		C63.2,647.6,64,648.9,64.9,648.5"/>
	<path class="st0" d="M141.4,605.7c13.3-0.4,26.5-1,39.7-1.7c12.6-0.7,25.8-0.5,38.2-2.8c1.4-0.3,1-2.4-0.3-2.5
		c-12.8-0.4-26,1.6-38.8,2.5c-12.9,0.9-25.9,1.7-38.8,2.5C140.1,603.8,140.1,605.7,141.4,605.7"/>
	<path class="st0" d="M196.4,596.4c10.6-7.9,21.1-16.1,31.6-24.1c1.1-0.8,0.1-2.6-1.1-1.8c-10.9,7.6-21.6,16-31.2,25.1
		C195.4,596,195.9,596.7,196.4,596.4"/>
	<path class="st0" d="M183.3,590.7c11.4-8.7,23.2-16.8,34.9-25.1c1.1-0.8,0.1-2.5-1.1-1.8c-12.1,7.9-23.5,16.8-34.7,25.8
		C181.9,590.1,182.7,591.1,183.3,590.7"/>
	<path class="st0" d="M202.5,563.8c5.1-4.4,11-8,17-11.2c1.2-0.6,0.3-2.6-0.9-2.1c-6.8,2.7-12.6,6.6-17.9,11.5
		C199.4,563.1,201.2,564.8,202.5,563.8"/>
	<path class="st0" d="M455,597.3c-13.7,1.9-27.6,2.8-41.5,2.5c-12.9-0.3-25.9-2.4-38.7,0c-1.8,0.3-1,3.1,0.8,2.7
		c13.6-2.6,27.7-0.4,41.5-0.5c12.8-0.1,25.6-1.3,38.3-3.4C456.2,598.4,455.8,597.1,455,597.3"/>
	<path class="st0" d="M386.1,641.4c4.4-4.2,9.3-7.9,14.6-10.9c1.7-1,0.2-3.5-1.5-2.6c-5.6,3.1-10.6,6.9-15.1,11.5
		C382.9,640.7,384.8,642.6,386.1,641.4"/>
	<path class="st0" d="M388.6,669.1c5.2-9,14.7-15.9,22.6-22.4c8.8-7.2,18.3-13.3,27.3-20.2c1.2-0.9,0.2-2.9-1.2-2.1
		c-10,5.6-19.1,13.2-27.8,20.6c-7.8,6.7-17.5,13.9-21.9,23.5C387.3,669.2,388.2,669.8,388.6,669.1"/>
	<path class="st0" d="M396.4,678.3c20.1-19.4,41.9-36.5,64.6-52.7c1.5-1.1,0.1-3.6-1.5-2.5c-23.3,15.5-44.8,34-64.6,53.8
		C393.9,677.7,395.4,679.2,396.4,678.3"/>
	<path class="st0" d="M453,656.2c9.3-9.5,19.4-18,30.1-25.8c1.7-1.2,0.1-4.1-1.7-2.8c-11,7.9-21,16.9-30.2,26.8
		C450.2,655.6,451.9,657.3,453,656.2"/>
	<path class="st0" d="M45.1,11.5c0.4-0.9,0.4-1.9-0.7-2.3c-1.7-0.7-3.1,1.7-3.9,2.7c-5.3,7.2-8,15.6-8.8,24.5
		c-0.1,1.6,2.3,1.5,2.5,0c0.5-4.4,1.5-8.7,3-12.9c0.8-2.2,1.7-4.3,2.7-6.3c0.5-0.9,1-1.9,1.6-2.8c0.6-1.3,1.5-2.3,2.7-3.2
		C44,11.6,44.9,12,45.1,11.5"/>
	<path class="st0" d="M34.8,290.6c-1.2,79.2-1.1,158.4-0.9,237.7c0,22.3,0,44.6,0.2,66.8c0,1.7,2.6,1.7,2.6,0
		c0.9-79.2,1-158.5,0.3-237.7c-0.2-22.3-0.7-44.6-1-66.8C35.9,289.8,34.8,289.8,34.8,290.6"/>
	<path class="st0" d="M993.6,322.2c-1.1,68.2-1.3,136.4-1.4,204.7c0,19.2-0.8,38.5,0.4,57.7c0.1,2,3.1,2.1,3.2,0
		c1-17,0.4-34.2,0.4-51.2c0-17.1-0.1-34.1-0.1-51.2c-0.1-34.1-0.1-68.2-0.5-102.3c-0.2-19.2-0.5-38.5-0.8-57.7
		C994.7,321.5,993.6,321.5,993.6,322.2"/>
	<path class="st0" d="M954.5,26.6c10.2,0.7,20.3,1.3,30.5,1.9c3.4,0.2,4.9,1,5.8,4.4c0.6,2.3,1.1,4.6,1.6,6.9
		c1.1,5.4,1.7,10.8,2,16.3c0.1,1.9,3.1,1.9,3,0c-0.4-6-1.2-12.1-2.5-18c-0.7-3.2-1.2-9.7-4.5-11.5c-1.6-0.9-3.6-0.6-5.4-0.7
		c-3.4-0.1-6.8-0.2-10.2-0.2c-6.8-0.2-13.6-0.2-20.4-0.3C953.8,25.5,953.8,26.6,954.5,26.6"/>
</g>
<g>
	<defs>
		<rect id="SVGID_3_" y="0" width="1053.1" height="1248.8"/>
	</defs>
	<clipPath id="SVGID_4_">
		<use xlink:href="#SVGID_3_"  style="overflow:visible;"/>
	</clipPath>
	<path class="st1" d="M338.9,230.9c4.3,4.9,4.2,13.6,4.5,19.8c0.4,7.7,0.8,15.3,1.6,22.9c1.9,18.3,2.9,36.9-10.2,51.5
		c-10.5,11.7-27.2,18.1-42.9,16.4c-16-1.7-27.8-13.3-36.1-26.3c-6.1-9.5-10.8-19.8-14.6-30.4c-3.8-10.9-7.9-21.8-9.3-33.3
		c-0.3-2.5-4-2.7-4.1,0c-0.4,11.1,4.4,21.9,7.9,32.2c3.6,10.7,8.1,21.1,13.9,30.7c8.5,14.2,20.6,27.6,37.5,31.1
		c16.2,3.3,34.2-2,46.7-12.7c15.1-13,18.4-31.4,16.7-50.5c-0.9-10.6-2-21.1-2.9-31.6c-0.6-6.9-1.1-16.8-7-21.4
		C339.4,228.3,337.9,229.7,338.9,230.9"/>
	<path class="st1" d="M303.2,178.1c-4.3,12.1-9,24.3-17.6,34.1c-8.5,9.8-19.3,15.9-31.1,21c-2.1,0.9-0.6,4.4,1.6,3.7
		c26.6-8.7,44.1-31.1,48.8-58.3C305.1,177.5,303.6,177,303.2,178.1"/>
	<path class="st1" d="M274.4,207.6c-8.5,10.9-18.9,19.9-29.2,29c-6.4,5.6-18.5,13.3-18.2,23c0.1,2.8,4.3,2.8,4.4,0
		c0.2-5.3,4.8-9.4,8.4-12.9c4-3.8,8.1-7.6,12.1-11.5c8.7-8.3,17.1-16.7,23.7-26.8C276.1,207.9,274.9,207,274.4,207.6"/>
	<path class="st1" d="M258.8,150.8c-25.5-0.4-46.3,20.3-54.5,43.1c-4.9,13.4-5.8,28.2-3.9,42.3c1,7.2,2.6,14.4,5.8,21
		c3.4,7.1,8,14,11.9,20.9c1.1,2,4.2,0.6,3.7-1.6c-1.5-6.4-6.3-11.9-9.5-17.6c-3.5-6-5.5-12.5-6.8-19.4c-2.6-13.8-2-28.7,2.3-42.1
		c3.7-11.5,10.2-22.1,19.1-30.3c9.1-8.4,20.1-12.9,32.2-15.1C259.7,152,259.5,150.8,258.8,150.8"/>
	<path class="st1" d="M237.7,299.1c1.4,8.2,0.7,24.8-11.3,23.1c-2.1-0.3-3.2,2.9-0.9,3.4c15.3,3.2,17.2-16.5,14-27
		C239.1,297.4,237.5,297.9,237.7,299.1"/>
	<path class="st1" d="M230.7,297.9c4.5,10-2.1,23.4-13.6,24c-2.5,0.1-2.5,3.8,0,3.9c14.2,0.2,22-17.3,15.3-28.9
		C231.8,295.7,230.2,296.7,230.7,297.9"/>
	<path class="st1" d="M301.6,194.7c1.5,7.5,12,11.9,17.7,15.9c4.1,2.8,8,6.1,11.3,9.8c4.2,4.6,6.5,9.3,8.9,15
		c0.7,1.8,3.8,1.8,3.7-0.5c-0.7-9.6-9.3-17.9-16.4-23.5c-3.7-2.9-7.7-5.3-11.8-7.7c-4.7-2.7-8.5-6-12.7-9.4
		C302,194.1,301.5,194.3,301.6,194.7"/>
	<path class="st1" d="M257.3,153.6c13.3-2.6,25.6-5.3,38.7-0.4c11.1,4.1,21.4,11.9,29.7,20.2c8.3,8.1,15.3,18,19.1,29
		c2,5.6,3.1,11.5,3.1,17.4c0,6.3-1.7,12-3.2,18.1c-0.5,1.9,2.3,3.2,3.3,1.4c6.1-10.9,5.3-25.2,1.5-36.7
		c-3.9-12.1-11.3-22.9-20.2-31.8c-8.9-8.9-19.8-17-31.6-21.5c-13.9-5.3-27.5-2.5-41,2.7C255.8,152.4,256.1,153.9,257.3,153.6"/>
	<path class="st1" d="M318.9,194.2c8.2,4.2,14.2,10.5,17.3,19.3c1.4,3.8,2.1,7.8,2.6,11.9c0.5,3.9,0,8.2,1.3,11.9
		c0.4,1.2,2.3,1.4,2.6,0c0.9-4.2-0.3-9.3-1.1-13.5c-0.7-4.2-1.8-8.4-3.5-12.3c-3.7-8.5-10.1-14.6-18.4-18.5
		C318.8,192.4,318.1,193.7,318.9,194.2"/>
	<path class="st1" d="M317.3,244.5c-0.4,4.1-0.6,8.2-0.4,12.4c0.2,2.9,4.7,2.9,4.5,0c-0.3-4.3-1.1-8.5-2-12.7
		C319,243.1,317.4,243.4,317.3,244.5"/>
	<path class="st1" d="M274.1,252c0.7,3.7,0.2,7.6,1.1,11.3c0.6,2.7,4.5,1.5,4.1-1.1c-0.6-3.7-1.1-7.7-3-11.1
		C275.6,249.8,273.9,250.7,274.1,252"/>
	<path class="st1" d="M316.3,287.5c-0.3,5.4-4.8,7.9-8.9,10.5c-1.4,0.9-0.5,3.4,1.2,2.8c5.9-2.2,10.9-6.8,9.8-13.5
		C318.2,286,316.4,286.4,316.3,287.5"/>
	<path class="st1" d="M311,219.5c5.5,0,9.8,1.3,13.1,5.9c0.8,1.2,2.6,0.2,1.9-1.1c-2.9-5.5-9.4-7.6-15.2-5.9
		C310.3,218.5,310.4,219.5,311,219.5"/>
	<path class="st1" d="M266.8,228.5c-5.1,1.6-6,6.8-7.2,11.3c-0.4,1.6,2,2.3,2.5,0.7c1.1-3.4,1.6-8.9,5.2-10.7
		C268,229.5,267.5,228.3,266.8,228.5"/>
	<path class="st1" d="M251.8,203.6c-15.3,16.9-28.6,39.3-25.9,62.9c0.3,2.6,4,2.1,3.6-0.5c-3.6-22.5,9.3-44.9,23.2-61.6
		C253.2,203.9,252.4,203,251.8,203.6"/>
	<path class="st1" d="M258.4,150.5c-12.3-4.7-30.3,0.1-33.4,14.3c-0.4,1.9,2.4,3.4,3.3,1.4c2.8-6.2,5.8-10.7,12.6-12.9
		c5.8-1.9,11.3-1.1,17.2-0.9C259.4,152.5,259.4,150.9,258.4,150.5"/>
	<path class="st1" d="M252.7,150.6c-10.9-10.1-25.5-14.8-40.1-11.3c-15.3,3.7-26.8,14.8-33.8,28.5c-15.7,30.5-14.8,66.4-8.5,99.4
		c3.2,16.7,9.1,34.3,22.5,45.5c2,1.7,5-1.1,3-3c-21.1-19.6-23.2-52.7-24.6-79.6c-0.8-16.2,0.8-31.7,6.1-47.1
		c5.1-14.7,13.2-28.9,27.5-36.4c15.4-8.1,33.5-5.6,47.1,4.9C252.4,152,253.3,151.2,252.7,150.6"/>
	<path class="st1" d="M182.5,269.1c-3.6,13.1,1.9,28.4,8.7,39.6c2.8,4.7,6.1,7.9,10.3,11.3c4.1,3.3,11.2,7.9,10.1,13.9
		c-0.4,1.9,2,3,3.2,1.3c5.9-8.5-11.9-17.6-16.4-22c-5.3-5.1-8.8-12.7-11.4-19.5c-3-7.7-4.9-16.2-3.5-24.4
		C183.6,268.8,182.7,268.5,182.5,269.1"/>
	<path class="st1" d="M216.5,273.8c0.7,7.5,4.1,14.6,4.9,22.2c1,9.2-1.3,17.3-7.2,24.5c-1.5,1.8,0.9,4.3,2.6,2.6
		c6.6-6.5,9-15.4,8.3-24.5c-0.6-8.2-3-18.1-7.7-25C217.2,273.1,216.4,273.2,216.5,273.8"/>
	<path class="st1" d="M203.7,294.8c4.5,5.9,8.2,12.6,10.6,19.5c1.3,3.8,2.3,7.9,2.1,12c-0.2,4.2-2.1,6.7-5.1,9.4
		c-1.6,1.5,0.4,3.7,2.2,2.9c8.2-3.6,7.3-15,5.1-22c-2.5-8.2-7-17.2-13.6-22.8C204.3,293.2,203.1,294,203.7,294.8"/>
	<path class="st1" d="M210.3,171c-21.4,26.8-20,64.1-11.6,95.5c0.5,1.7,3,1,2.6-0.7c-7.7-31-9.5-66.7,10.4-93.7
		C212.4,171.2,211,170.1,210.3,171"/>
	<path class="st1" d="M326.6,305.8c-7.6,5.5-15.2,7.2-24.4,8.2c-7,0.7-17,2.6-22.9-2.3c-2.1-1.7-4.9,1-3,3
		c6.3,6.6,18.3,4.4,26.3,3.5c8.8-1,20.8-2.4,24.5-11.9C327.4,306,326.9,305.6,326.6,305.8"/>
	<path class="st1" d="M318.2,312.7c-3.7,3.8-8.9,6.9-14.2,7.8c-6.6,1.1-11.2-1.5-17.2-3.4c-1.8-0.6-3.3,1.9-1.9,3.2
		c5.4,4.8,14.1,5.8,21,4.2c4.9-1.1,13.1-5.7,13.2-11.5C319.1,312.6,318.5,312.4,318.2,312.7"/>
	<path class="st1" d="M280.6,308.5c-1.8,0.3-3.7,1.9-4.9,3.2c-1.6,1.7-2.5,3.7-2,6.1c0.4,2,3.4,1.8,3.9,0c0.4-1.6,0.7-3,1.6-4.5
		c0.8-1.3,2-2.4,2.3-3.9C281.6,308.8,281.2,308.4,280.6,308.5"/>
	<path class="st1" d="M229.1,266.1c-1.8-1.9-4.6-1.3-5.8,0.9c-1.7,2.9-0.6,7.5,0.2,10.5c1.9,7.4,6.9,19.1,16.2,18.5
		c2.8-0.2,3.9-4.8,0.7-5.3c-6-0.9-9.1-6.5-11.1-11.7c-0.8-2.3-1.7-4.6-2.2-7c-0.5-2.4-0.8-3.8,1.6-4.6
		C229.3,267.2,229.5,266.6,229.1,266.1"/>
	<path class="st1" d="M347.8,242.3c1.4-2.6,1.8,3.3,1.9,4.2c0.2,1.9,0.2,3.9,0.1,5.9c-0.3,5.1-1.8,9.8-3.7,14.6
		c-0.8,2,1.9,3.8,3.5,2.7c3.4-2.2,3.7-7.5,4.2-11.2c0.6-4,0.6-7.9-0.2-11.9c-0.5-2.3-1.4-6.5-4-7.4c-2.3-0.9-2.7,0.9-2.7,2.9
		C347,242.5,347.6,242.7,347.8,242.3"/>
	<path class="st1" d="M270.9,335.7c-0.4,5.6-0.5,11.1-1.8,16.5c-1.2,5-4.2,9.6-5,14.6c-0.3,1.5,1.5,2.8,2.7,1.6
		c3.9-3.9,5.2-10.7,6-16c0.9-5.6,1-11.5-0.5-16.9C272.2,334.7,271,334.9,270.9,335.7"/>
	<path class="st1" d="M314.1,339.6c-5.2,7.5-7.4,20.6-6.4,29.6c0.3,2.5,3.9,2.6,4,0c0.3-5,0-9.9,0.6-14.9c0.6-4.9,2.2-9.6,2.8-14.4
		C315.2,339.3,314.4,339.2,314.1,339.6"/>
	<path class="st1" d="M244.8,376.9c13.6,10.2,31.6,14.8,48.4,14.3c7.4-0.2,14.8-1.2,21.6-4.1c5.9-2.4,13.1-6.9,15.8-13
		c0.9-2.1-1.6-4.6-3.4-2.6c-2.3,2.5-4,5.2-6.8,7.3c-2.6,2-5.6,3.5-8.7,4.6c-6.7,2.5-13.9,3.4-20.9,3.5c-16.2,0.3-30.8-4.6-45.2-11.5
		C244.7,375,244,376.3,244.8,376.9"/>
	<path class="st1" d="M311.9,363.6c-0.1,0-0.1-0.1-0.2-0.2c-0.2-0.1-0.4-0.1-0.6,0c-0.1,0.1-0.2,0.1-0.2,0.2c-0.3,0.2-0.5,0.6-0.3,1
		c1.2,2.4,5.2,3.7,7.5,4.9c3.1,1.6,6.6,4.1,10,4.6c1.6,0.2,3.4-1.8,1.8-3.1c-2.4-2.1-5.7-2.9-8.7-4c-1.6-0.6-3.3-1.2-4.9-1.8
		c-0.8-0.3-1.6-0.6-2.5-0.8c-0.4-0.1-0.8-0.3-1.3-0.3c-0.6-0.4-0.9-0.2-0.9,0.5C312.2,364.3,312.2,363.9,311.9,363.6"/>
	<path class="st1" d="M312.9,362.5c11,5.4,22.5,9.7,33.9,14.3c5.6,2.3,11.3,4.5,16.9,6.7c2.9,1.2,6,2.3,8.8,3.8
		c2.6,1.4,4.4,3.4,6.7,5.2c2,1.6,4.5-0.3,3.5-2.7c-1.9-4.3-6.9-6.4-11-8.1c-6.2-2.5-12.5-4.7-18.7-7c-13-4.8-26.1-9.9-39.5-13.7
		C312.7,360.9,312.1,362.1,312.9,362.5"/>
	<path class="st1" d="M264.8,363.4c-6.8,1-18.7,4.9-21.6,11.8c-0.7,1.6,1.6,2.5,2.7,1.6c3-2.6,5.4-5,9-6.8c3.4-1.8,7.2-3.2,10.3-5.6
		C265.7,364,265.4,363.3,264.8,363.4"/>
	<path class="st1" d="M156.8,568.2c8,8.9,23.9,5,33,0.3c6.3-3.2,11.8-7.7,17.4-11.9c5.9-4.5,11.9-8.7,18-12.9
		c22.7-15.8,46.3-32.5,58.7-58c1.5-3-3-5.7-4.5-2.6c-11.6,23.6-33,39.4-54.1,54.1c-10.6,7.4-20.7,15.4-31.3,22.6
		c-5.4,3.7-11.2,6.8-17.7,8.2c-6.7,1.5-12.1,0-18.6-1.5C156.8,566.3,156.1,567.5,156.8,568.2"/>
	<path class="st1" d="M172.6,524.3c-1.3-1.7,8.3-11.1,9.5-12.5c3.2-3.4,6.5-6.7,9.9-9.9c7.3-6.7,15.3-12.7,23.8-17.8
		c16-9.7,34-15.9,48.6-27.9c2.3-1.9-1-5.3-3.3-3.3c-17.3,14.5-39.6,21.1-57.7,34.5c-8.5,6.3-16.3,13.4-23.3,21.3
		c-1.7,1.9-14.3,14.9-8.2,16.5C172.4,525.3,172.9,524.8,172.6,524.3"/>
	<path class="st1" d="M260.3,457.3c6,2.5,10,5.9,12.9,11.8c2.9,5.9,4.1,12.5,7.4,18.2c1.6,2.8,5.7,0.3,4.3-2.5
		c-4.6-9.5-9.6-32.3-24.7-29.6C259.1,455.4,259.4,456.9,260.3,457.3"/>
	<path class="st1" d="M266.5,359.1c-9-0.1-18.8,3.8-27.4,6.3c-9.5,2.8-18.9,5.9-28.2,9.1c-7.4,2.6-15.8,4.8-22.3,9.4
		c-5.9,4.2-9.5,11-11.3,17.9c-0.5,1.9,2.2,3.2,3.3,1.4c4-7.1,6.2-13.7,13.8-17.8c7.3-3.9,15.7-6.2,23.5-8.9
		c8.2-2.8,16.5-5.5,24.8-8.1c7.8-2.4,16.9-4,24-8.2C267.3,359.9,267.1,359.1,266.5,359.1"/>
	<path class="st1" d="M181.3,396.7c-8.4,12.9-13.9,27.6-19.1,42.1c-5.3,14.8-10.4,29.8-14.1,45.1c-3.4,14.4-5.4,29.2-4.5,44
		c0.8,13.2,3.4,28.6,11,39.8c1.7,2.4,6.3,1,5.1-2.1c-2.5-6.5-5.4-12.7-7.1-19.5c-1.7-6.8-2.6-13.7-2.9-20.6
		c-0.6-14.7,1.5-29.2,4.9-43.5c6.9-29,17.2-57.1,28-84.8C182.7,396.5,181.7,396.1,181.3,396.7"/>
	<path class="st1" d="M207.2,449c-1.5,8.5-3.5,16.8-6,25.1c-1.2,3.9-2.4,7.7-3.5,11.6c-0.6,2-2.5,5.4-1.1,7.4
		c0.6,0.8,1.8,1.4,2.7,0.7c0.1-0.1,0.2-0.2,0.3-0.2c0.8-0.6,1.3-1.6,0.7-2.6c0-0.1-0.1-0.2-0.1-0.2c-0.9-1.4-3.6-1-3.4,0.9
		c0,0.1,0,0.2,0,0.3c0.6-0.6,1.3-1.3,1.9-1.9c-0.1,0-0.2,0-0.3,0c0.6,0.5,1.3,1,1.9,1.5c-0.4-1.2,1.1-4.4,1.4-5.7
		c0.4-1.7,0.9-3.4,1.3-5c0.9-3.6,1.8-7.3,2.7-10.9c1.5-6.8,2.7-13.7,2.8-20.7C208.5,448.5,207.4,448.3,207.2,449"/>
	<path class="st1" d="M204.6,442.7c-1,7.9-1.3,15.8-0.9,23.8c0.3,6.7,0.3,14.7,3,20.9c0.7,1.6,3.2,0.7,3.2-0.9
		c-0.1-7.2-2.7-14.6-3.4-21.8c-0.8-7.3-1-14.7-0.9-22C205.5,442.1,204.7,442.1,204.6,442.7"/>
	<path class="st1" d="M216,547.7c2,5.1,4.7,10,5.7,15.5c1.2,6.4-0.5,12.9-1.7,19.2c-1.5,7.9-2.8,15.9-4.1,23.9
		c-1.5,9.2-2.9,18.4-4.4,27.6c-0.7,4.1-1.3,8.2-2,12.3c-0.6,3.4-1.8,7.2-1.1,10.6c0.4,1.9,3,1.9,3.9,0.5c1.9-3,2-7.3,2.6-10.8
		c0.8-4.6,1.5-9.2,2.2-13.8c1.5-9.9,3-19.7,4.5-29.6c1.4-9,3.4-18,4.5-27.1c1.3-10.8-2.4-20.5-9-28.9
		C216.6,546.6,215.7,547.1,216,547.7"/>
	<path class="st1" d="M377.8,511.1c-4.6,11.1-4.1,22.9-4.2,34.7c-0.1,13.7-0.5,27.4-0.6,41.1c-0.1,12.6-0.7,25.5,2.2,37.9
		c1.3,5.8,3.4,11.4,5.2,17.1c1.8,5.8,2.2,12.2,4.1,17.9c0.7,2.1,3.8,2.3,4.4,0c1.4-5-0.3-10.7-1.6-15.6c-1.6-5.7-3.8-11.3-5.4-17
		c-3.6-12.5-3.2-25.5-3.2-38.4c0-13.2-0.1-26.3-0.4-39.5c-0.4-12.8-1.9-25.2,0.6-37.8C379.2,510.6,378.1,510.4,377.8,511.1"/>
	<path class="st1" d="M380.5,390.9c6.2,16.3,17.7,29.3,29.2,42.2c13.2,14.8,26.8,29.3,40.4,43.8c2.5,2.7,6.6-1.4,4-4
		c-13.4-13.4-26.3-27.3-39.1-41.3c-11.9-13-24-26.1-33.3-41.2C381.3,389.8,380.3,390.2,380.5,390.9"/>
	<path class="st1" d="M453.3,474.6c2.3,3.2,6.1,5.3,8.6,8.4c2.9,3.7,4.8,7.9,5.9,12.4c0.6-1,1.2-2.1,1.8-3.2c0,0,0,0,0,0
		c-1.7-0.2-3.4,1.3-2.4,3.1c0.6,1.1,1.2,1.5,2.4,1.9c1.8,0.6,3.7-1.3,3.2-3.2c-1.6-4.9-4-9.4-7.5-13.2c-2.7-3-7.1-7.1-11.4-7.3
		C453.4,473.6,453.1,474.2,453.3,474.6"/>
	<path class="st1" d="M455.9,479.6c2.4-0.8,4.5-2.3,6.9-2.9c3.8-0.9,7.5,0.7,10.7,2.6c4.8,2.8,7.6,6.9,11.3,10.8
		c1.9,2,4.7-0.5,3.6-2.8c-5.3-11-24.2-20.8-33.4-9.1C454.7,478.8,455.1,479.9,455.9,479.6"/>
	<path class="st1" d="M385.3,484.1c3.6,5.7,9.4,10.3,14.4,14.8c5.2,4.7,10.7,9.2,16.3,13.5c5.9,4.5,11.9,8.9,18,13
		c5.3,3.6,10.9,7,17.2,8.4c13.7,2.9,27.6-2.9,39.7-8.7c14.1-6.8,27.5-15,40.9-23.1c7.5-4.5,14.9-9.1,22.3-13.8
		c6.5-4.1,13.5-8,18.4-14.1c2.1-2.6-1.4-6.4-3.8-3.8c-6.3,6.6-14.4,11-22.1,15.8c-7.7,4.8-15.4,9.5-23.1,14.1
		c-15.2,9.1-30.7,18.9-47.5,24.9c-8.4,3-17.5,4.9-26.2,2.1c-7.7-2.5-14.7-7.7-21.4-12.3c-7.4-5-14.5-10.3-21.6-15.8
		c-6.7-5.2-13.1-11.8-20.5-16C385.7,482.8,384.9,483.5,385.3,484.1"/>
	<path class="st1" d="M468,476c13.9-3.8,27.3-9.6,40.8-14.8c13.5-5.3,27-10.6,40.4-16c1.5-0.6,2.2-2,1.4-3.5
		c-0.4-0.9-0.8-1.7-1.3-2.6c-1.1,1.1-2.2,2.2-3.3,3.3c5.4,3.7,10.1,8.3,13.8,13.7c1.6,2.4,3,4.9,4.2,7.5c0.2,0.4,3.3,8.2,3.3,8.2
		c-2.6,1.8-0.4,5.7,2.5,4.3c6.1-3.1-1.2-15.1-3.4-18.9c-4.4-7.7-10.6-14.1-18-19.1c-2.2-1.4-4.3,1.3-3.3,3.3
		c0.4,0.9,0.9,1.7,1.3,2.6c0.5-1.2,1-2.4,1.4-3.5c-13.7,5.7-27.4,11.4-41.1,17c-13.2,5.5-26.7,10.5-39.3,17.2
		C466.7,475.1,467.2,476.2,468,476"/>
	<path class="st1" d="M385.8,435.3c0.9,5.8-1.2,12.6-2.7,18.2c-1.4,5-3.6,9.8-4.9,14.8c-0.5,1.9,2.2,3.1,3.2,1.4
		c2.9-5.4,4.2-11.9,5.3-17.9c1-5.4,2.1-11.5,0.4-16.8C386.8,434.2,385.6,434.5,385.8,435.3"/>
	<path class="st1" d="M277.6,447c-2.3,0.1-4.5,2-6.2,3.5c-1.9,1.6-4.5,3.6-5.2,6c-0.4,1.4,1.2,2.7,2.5,1.9c2-1.2,3.2-3.7,4.8-5.3
		c1.5-1.6,3.8-3.1,4.7-5.1C278.3,447.5,278.1,447,277.6,447"/>
	<path class="st1" d="M289.7,470.9c-3.8,0.3-7.2,4.9-9,7.8c-0.4,0.6-0.5,1.7,0,2.3c0.5,0.7,1,1.1,2,1.1c0.7,0,1.7-0.4,2-1.1
		c0.8-1.7,1.7-3.4,2.8-4.9c1-1.4,2.4-2.6,3-4.2C290.7,471.5,290.2,470.9,289.7,470.9"/>
	<path class="st1" d="M280.8,528.6c19-11.4,38.7-20.2,60.7-24.1c-0.4-1.4-0.8-2.8-1.2-4.2c-16.6,4.9-31.9,13.6-44.6,25.3
		c-1.3,1.2,0.1,3.5,1.7,3c21.3-7.2,43.6-13.5,65.6-5.9c1.9,0.7,3.3-2.5,1.4-3.3c-22.3-9.6-46.3-1.4-68,5.8c0.6,1,1.1,2,1.7,3
		c12.5-11.3,27.1-19.2,43.3-23.6c2.7-0.7,1.6-4.7-1.2-4.2c-21.6,4.4-43.2,13.2-60.5,27.1C279.2,528,280.1,529,280.8,528.6"/>
	<path class="st1" d="M568.4,464.9c0.4,1.9,2.2,1.7,3.6,1c1.4-0.7,2.8-1.5,4.1-2.3c1.4-0.9,3.1-1.6,4.2-2.9c0.8-1.1,0.1-2.9-1.4-2.4
		c-1.9,0.5-3.4,2-4.9,3.2c-0.7,0.5-4.1,3.7-4.7,3C568.9,464.1,568.3,464.4,568.4,464.9"/>
	<path class="st1" d="M210.2,657.1c56.7,18.8,126.2,31.9,181.4,1.8c2.6-1.4,0.3-5.3-2.3-4c-26.3,13.5-55.8,18-85.2,16.7
		c-31.9-1.4-62.4-10-93.4-16.5C209.5,654.9,209,656.7,210.2,657.1"/>
	<path class="st1" d="M303.2,725.2c-2.6,10.7-4.9,21.2-6.3,32.2c-1.5,12.4-2.1,24.9-2.7,37.4c-1.1,26.9-1.2,53.8-2.3,80.6
		c-0.6,14.7-2.3,29.4-2.3,44.1c0,1.8,2.9,2.3,3.3,0.4c3.5-15.7,3.4-32.5,4-48.5c0.6-17.1,0.9-34.3,1.2-51.4
		c0.3-16.5,0.8-33,1.8-49.5c0.9-14.9,1.4-30.3,4-45C304.3,724.8,303.3,724.5,303.2,725.2"/>
	<path class="st1" d="M293.1,899.6c-2,17.4-3.3,34.9-4.3,52.4c-0.9,16,1,31.7,1.9,47.6c1.7,30.3,1.1,60.7,1.4,91
		c0.2,16.4,0.6,32.7,2.1,49c0.3,3.2,5.4,3.3,5.1,0c-2.8-29.5-2.5-59.3-2.7-89c-0.1-15-0.3-30.1-1-45.1c-0.7-15.5-3.1-31-2.9-46.5
		c0.3-19.8,1.5-39.6,1.3-59.4C294.1,898.9,293.2,899,293.1,899.6"/>
	<path class="st1" d="M304.4,723.5c0.2,22.8-2.4,45.5-2.7,68.3c-0.2,12.3,1,24.5,2,36.8c1.1,13.8,2.3,27.7,4.1,41.5
		c0.9,7.2,2,14.4,3.3,21.6c1.3,7.5,2,16.4,5.5,23.2c1,2,4,1,4.1-1.1c0-6.7-2.5-13.8-3.8-20.4c-1.3-6.7-2.4-13.4-3.3-20.2
		c-2-13.7-3.3-27.5-4.6-41.3c-1.1-12.3-2.6-24.6-2.7-36.9c-0.1-11.9,0.4-23.8,0.7-35.6c0.3-12,0.7-24.2-1.1-36
		C305.7,722.4,304.4,722.7,304.4,723.5"/>
	<path class="st1" d="M320.7,916.7c0.1,0.1,0.2,0.2,0.4,0.3c0.2,0.2,0.5,0.1,0.8,0c0.8-0.5,1.2-0.8,1.5-1.6c0.3-0.8-0.3-1.9-1.2-2
		c-4.2-0.7-6.3,3.6-6.9,7.3c-0.8,4.6,0.8,8.6,3.7,12.2c0.2-1.3,0.3-2.6,0.5-3.9c-5.9,3.6-7.4,13.4-9.3,19.5
		c-2.6,8-4.8,16.2-6.7,24.4c-3.8,16.5-6.9,33.1-10,49.8c-0.6,3.2,4.2,4.6,4.9,1.3c3.4-15.1,5.7-30.3,9.1-45.4
		c1.6-7.1,3.3-14.1,5.3-21.1c1-3.6,2.1-7.2,3.3-10.7c1.2-3.7,2.4-11.2,5.9-13.5c1.3-0.8,1.7-2.7,0.5-3.9c-1.8-1.7-2.8-3.7-3-6.2
		c-0.1-0.8,1.5-7.7,1.7-7.6C320.5,915.2,320.2,916.3,320.7,916.7"/>
	<path class="st1" d="M314.3,681.2c-0.5,0.4,0.1,6.2,0,7.1c-0.1,1.7-0.3,3.5-0.5,5.2c-0.4,3.6-0.9,7.2-1.5,10.7
		c-1.1,5.9-2.6,11.7-3.5,17.7c-0.2,1.6,2.1,2.4,2.5,0.7c2.1-7.3,3.9-14.7,4.8-22.3c0.5-4.8,1.1-9.8,0.6-14.7
		c-0.2-2.2-0.1-5.1-2.4-5.9c-0.2-0.1-0.5,0-0.7,0.2c-0.1,0.1-0.2,0.2-0.3,0.3C312.7,680.9,313.6,681.7,314.3,681.2"/>
	<path class="st1" d="M214.6,656.2c-2.5,9.3-1.9,18.7-3.6,28.1c-1.7,9.1-2.9,17.9-3.6,27.1c-1.7,19.9-2.5,40-1.4,60
		c2,34.4,11.8,67.5,15.8,101.7c2.3,20.3,0.3,41.6,6,61.5c0.9,3.1,5.6,1.8,4.8-1.3c-5.1-18.1-3.2-37.5-5.1-56.1
		c-1.7-16.4-4.8-32.6-8-48.7c-3.3-16.6-6.4-33.3-7.8-50.2c-1.6-19.4-1.3-39,0-58.5c0.7-11,1.4-21.8,3.4-32.6
		c1.8-10.1,1-20.4,1.9-30.6C217,655.2,214.9,655,214.6,656.2"/>
	<path class="st1" d="M231.6,931.4c-3.4-0.3-5.9,2.6-6,5.9c-0.1,4.5,4.2,7.2,7.8,8.9c-0.3-1-0.5-2-0.8-3
		c-6.2,12.7-2.6,26.2-2.3,39.6c0.2,13.7-1,27.4-1.9,41c-0.9,12.6-1.8,25.3-1,37.9c1.1,16.5,1.5,33.3,4.7,49.6
		c1,4.8,2.2,9.6,3.8,14.3c1.7,5.3,2.1,8.9,0.4,14.2c-2.9,8.9-2.1,17.8-0.9,27c0.4,3.3,5.7,3.4,5.3,0c-1.1-8.3-2.1-16.7,0.5-24.8
		c0.9-2.9,2-5.8,1.9-8.9c-0.1-4-1.8-7.7-2.9-11.4c-5-16.1-5.8-32.9-6.8-49.6c-0.8-13.3-1.2-26.3-0.4-39.6c0.8-13.5,2-27,2.3-40.6
		c0.2-6.6,0-13.1-0.6-19.7c-0.9-8.8-2-18.4,1.7-26.7c0.6-1.4,0.1-2.7-1.3-3.3c-1.3-0.5-2.7-1-3.7-2c-1.2-1.2-3.6-5.5,0.2-6
		C233.4,933.9,233.4,931.6,231.6,931.4"/>
	<path class="st1" d="M237.9,1168.4c5,13.9,29.1,5.3,38.2,2.1c6.6-2.4,14.5-4.6,19.9-9.3c5.3-4.7,7.2-12.8,5.5-19.6
		c-0.5-1.8-3.6-2-3.9,0c-1,6.3-0.3,12.3-5.9,16.6c-4.8,3.7-11.2,5.5-16.8,7.6c-9.6,3.6-26.9,10.9-35.5,1.7
		C238.8,1166.9,237.6,1167.6,237.9,1168.4"/>
	<path class="st1" d="M241.4,1157.7c15.8,9.1,39.3-1.1,50.8-12.9c1.7-1.8-0.9-4.3-2.7-2.7c-11.7,10.2-31.5,21.2-47.4,14.3
		C241.3,1156,240.5,1157.2,241.4,1157.7"/>
	<path class="st1" d="M240.9,1103.9c7.3,23.3,30.4,38.9,54.9,35.7c2.4-0.3,2.5-4,0-3.8c-23.4,2.4-45.2-10-53.6-32.2
		C241.9,1102.7,240.6,1103,240.9,1103.9"/>
	<path class="st1" d="M252.1,971.6c-18.2-20.7-18-49.7-22.9-75.3c-0.3-1.4-2.6-1.1-2.5,0.3c1,14.5,3.7,29.6,7.5,43.6
		c3.2,12,8.1,23.5,17.3,32C251.9,972.6,252.5,972,252.1,971.6"/>
	<path class="st1" d="M243,981.3c-6.8-16-10.7-32.8-12-50.1c-0.1-1.4-2.3-1.4-2.2,0c0.7,17.7,5.3,34.9,13.4,50.6
		C242.4,982.4,243.3,981.9,243,981.3"/>
	<path class="st1" d="M278.4,965.8c4.5-8.3,7.7-17.2,10.1-26.3c2.3-8.7,5.1-19.1,4.1-28.1c-0.2-1.6-2.5-2.2-3-0.4
		c-2.2,9-2.3,18.5-4.3,27.6c-2,9.1-4.9,18-8,26.8C277.2,966,278.1,966.3,278.4,965.8"/>
	<path class="st1" d="M255.1,1175.9c8.7-2.2,16.9-1.5,25.5,1c2,0.6,2.8-2.4,0.9-3.1c-8.7-3-18.1-2.5-26.8,0.5
		C253.6,1174.6,254,1176.2,255.1,1175.9"/>
	<path class="st1" d="M289.6,1160c-1.5,4,0.7,9.5,1.6,13.5c1.2,5.7,2,11.3,2.2,17c0.3,11.2-0.3,22.4,0.1,33.6c0.1,3.2,4.8,3.2,4.9,0
		c0.4-11.6,0.6-23.6-0.2-35.2c-0.4-5.3-1.2-10.5-2.6-15.7c-1.1-4.1-1.9-10.4-5.2-13.4C290.1,1159.5,289.7,1159.7,289.6,1160"/>
	<path class="st1" d="M242.1,1174.1c-2.8,6.7-3.9,13.9-7.2,20.5c-2.7,5.5-5.9,10.8-7.4,16.8c-2.6,10.8,2.5,20.6,12.1,25.7
		c11.1,5.9,26,5.4,38.1,4.6c10-0.7,24.8-5.2,22.6-18.1c-0.3-1.7-3.3-1.8-3.6,0c-1.9,13.5-17.5,13.5-28.2,13.4
		c-10.6-0.1-23,0.2-31.4-7.4c-9.1-8.2-5-19-0.6-28.5c3.7-8,8.1-17.9,6.5-26.9C243.1,1173.5,242.3,1173.7,242.1,1174.1"/>
	<path class="st1" d="M382.4,660.5c-1.7,16.8,1.1,33.8,0.6,50.7c-0.5,16.9-1.8,33.8-2.8,50.7c-2,33.4,2.2,66.5,3.6,99.8
		c0.6,14.9,1.5,29.7,2,44.6c0.3,9,0.5,17.1-1.8,25.8c-3.8,14.1-8.5,27.9-12.4,41.9c-4.1,14.6-7.9,29.3-11.6,44.1
		c-8.4,33.4-16.4,67-26.1,100.1c-1,3.4,4.3,4.9,5.4,1.5c8.8-29.3,15.9-59,23.3-88.7c7.5-29.9,15.9-59.4,24.8-89
		c2.7-9,4.8-17.4,4.6-26.8c-0.2-13.1-1.1-26.2-1.8-39.3c-0.9-16.8-1.6-33.5-3.1-50.2c-1.5-16.7-2.9-33.4-2.4-50.2
		c0.6-19,2.6-38,2.9-57c0.3-19.4-4.1-38.5-3.9-57.9C383.7,659.7,382.5,659.7,382.4,660.5"/>
	<path class="st1" d="M263.8,670.8c15.5,8.8,33.8,12.5,51.6,12.2c17.5-0.4,36.5-4.3,51.3-14.1c1.6-1,0.2-3.2-1.4-2.5
		c-16.3,7.3-32.6,12.7-50.6,13.1c-17.4,0.4-34.2-3.5-50.3-9.9C263.6,669.3,263.1,670.4,263.8,670.8"/>
	<path class="st1" d="M338.5,999.9c-4.6-11.4-7.2-24-9.2-36.1c-1.1-6.7-2-13.4-2.4-20.2c-0.4-6,0-12-0.5-17.9
		c-0.1-1.7-2.9-2.4-3.2-0.4c-1.1,5.9-0.5,12.4,0.1,18.4c0.6,6.6,1.5,13.2,2.7,19.7c2.4,12.9,6.1,25.2,11.5,37.1
		C337.7,1001,338.8,1000.6,338.5,999.9"/>
	<path class="st1" d="M348.1,953.1c-7.8-4.6-12-16.2-15.8-24c-4.4-9.1-8-18.2-10-28c-0.3-1.5-2.3-1-2.5,0.3
		c-1,10.4,5.8,22,10.4,30.9c4,7.8,8.7,18.5,17.4,21.9C348.3,954.5,348.7,953.5,348.1,953.1"/>
	<path class="st1" d="M298.5,1152.6c5,3.9,15.3,3.4,21.3,3.4c6.6-0.1,16-0.1,21.8-3.7c1.7-1.1,1-3.8-1-3.8c-3.3,0-6.5,1.1-9.7,1.8
		c-3.9,0.8-7.9,1.2-11.9,1.4c-3.4,0.2-6.7,0.1-10.1-0.1c-3.3-0.2-6.9-1.2-10.2-0.4C298,1151.4,298,1152.3,298.5,1152.6"/>
	<path class="st1" d="M299.1,1120.5c5.6,13.4,20.9,16.5,34,16.8c2.5,0.1,2.5-3.9,0-3.9c-12.3-0.3-26.7-0.8-33-13.3
		C299.8,1119.5,298.8,1119.9,299.1,1120.5"/>
	<path class="st1" d="M335.7,1119.1c-4.8,1.4-7,7.1-6.9,11.7c0.1,2.7,1.1,5,2.5,7.3c2.7,4.5,3.9,7.1,2.4,12.4
		c-0.9,3.1,3.5,4.8,5.1,2.2c2.9-4.8,1.9-10.5-1-15.1c-1.7-2.5-3.7-4.8-3.9-8c-0.2-3.4,1.6-5.9,3.1-8.8
		C337.5,1120,336.7,1118.8,335.7,1119.1"/>
	<path class="st1" d="M327.6,1152.2c0.4,5.4,7.4,9.8,11.6,12.4c6.3,3.9,13.4,6.3,20.5,8c8.3,2.1,16.8,3.3,25.1,5.5
		c4,1.1,8.8,2.1,10,6.8c1.1,4.5,0.1,9.2,1.2,13.7c0.5,2.1,4.1,2.3,4.5,0c1-6.3,1-16.4-4.1-21.1c-5.6-5.1-15.7-5.7-22.8-7.1
		c-8.5-1.6-17.3-3.1-25.4-6.4c-3.9-1.6-7.8-3.5-11.3-6c-2.8-2-5.4-5.4-8.7-6.5C328,1151.6,327.6,1151.9,327.6,1152.2"/>
	<path class="st1" d="M297.6,1201.6c5.4-1.6,9.3,5.6,13.5,7.9c3.5,1.9,7.7,2.4,11.5,3c10.1,1.6,20.4,2.3,30.7,2.3
		c9.9,0,19.9-0.4,29.8-1.7c6.3-0.9,15-2.8,17.6-9.3c0.8-2-1.8-3.6-3.5-2.7c-3.5,2-6.1,4.4-10.2,5.5c-4,1.1-8.2,1.4-12.4,1.8
		c-10,0.9-20.1,1.4-30.2,1.1c-9.5-0.2-19.9-0.5-29-3.1c-6.4-1.8-11.1-9.6-18.3-5.8C296.5,1200.9,296.9,1201.8,297.6,1201.6"/>
	<path class="st1" d="M231.3,1220.9c5.8,9.1,16.2,12.3,26.5,13.2c6.4,0.5,12.9,0.3,19.3-0.7c6.4-1,14.1-2.4,19.6-6
		c1.8-1.2,0.7-4.2-1.5-3.6c-5.4,1.3-10.4,3.7-15.9,4.8c-6.1,1.2-12.3,1.7-18.5,1.6c-10.2-0.2-21.2-2.3-28.3-10.2
		C231.9,1219.4,230.9,1220.2,231.3,1220.9"/>
	<path class="st1" d="M295.4,1192.6c5.5,5.2,14,8.5,21,11.1c7.6,2.8,15.5,3.9,23.6,3.8c18.1,0,36.4-1.9,54.3-4.3
		c2.5-0.3,1.9-4.8-0.6-4.5c-17,2-34,3.9-51.1,4.3c-8.4,0.2-16.3-0.7-24.3-3.1c-7.4-2.3-14.7-6.9-22.3-8.3
		C295.5,1191.4,294.9,1192.1,295.4,1192.6"/>
	<path class="st1" d="M326.1,1174.5c2.7-1.8,5.2-4,8-5.6c1.4-0.8,2.9-1.6,4.5-2.2c0.8-0.3,1.7-0.6,2.5-0.9c0.4-0.1,0.7-0.2,1.1-0.3
		c0.9-0.1,0.8-0.5-0.3-1.2c0.1,1,0.9,1.6,1.9,1.5c0.1,0,0.3,0,0.4-0.1c1-0.2,1.6-1.4,1.3-2.3c-0.1-0.2-0.1-0.4-0.2-0.6
		c-0.2-0.7-0.7-1.2-1.4-1.4c-3.2-0.8-7.5,2.2-10,3.8c-3.4,2.1-6.8,4.9-8.8,8.4C324.8,1174.2,325.5,1174.9,326.1,1174.5"/>
	<path class="st1" d="M330.7,1180c2.8-2.6,6-4.9,9.4-6.8c2.8-1.6,6.9-2.2,9-4.6c1-1.1,0.2-2.6-1.2-2.8c-3.4-0.4-7.5,3-10.1,5
		c-3.2,2.4-5.7,5.2-8.1,8.4C329.3,1179.9,330.2,1180.5,330.7,1180"/>
	<path class="st1" d="M252,1186.8c7.4-3.2,14.8-4,22.7-2.4c-0.2-1.2-0.3-2.3-0.5-3.5c-7.6,5.1-16.1,9.3-24.3,13.6
		c-1.5,0.8-0.7,3.1,0.8,3.1c4.2,0.1,8.4,0.3,12.6,0.6c4.2,0.4,8.4,1.4,12.5,1.1c2-0.1,2.3-2.7,0.5-3.4c-7.5-2.8-17.8-2.1-25.6-1.7
		c0.3,1,0.6,2.1,0.8,3.1c8-4.6,16.1-9.5,24.5-13.2c1.5-0.7,1.1-3.2-0.5-3.5c-8.5-1.7-17.4-0.1-24.6,4.7
		C250.3,1186,251,1187.3,252,1186.8"/>
	<path class="st1" d="M575.5,454.8c11.7,9.3,28,3.6,40.6-0.4c7.5-2.3,14.6-5.2,21.7-8.7c8.1-4,16.1-8.1,25.2-9.2
		c2.8-0.3,2.9-4.8,0-4.5c-14.9,1.7-27,10.8-40.9,15.6c-13.6,4.7-31.2,11.6-45.1,5.2C575.8,452.5,574.4,453.9,575.5,454.8"/>
	<path class="st1" d="M632.3,431.8c2.9-0.5,31-3.4,30.3,0.4c-0.3,1.4,1.2,3,2.6,2c0.3-0.2,0.5-0.3,0.8-0.5c0.9-0.6,1.2-1.4,1-2.5
		c-0.8-5.6-8.6-4.8-12.7-4.8c-7.8,0-15,1.5-22.2,4.4C631.4,431.1,631.6,431.9,632.3,431.8"/>
	<path class="st1" d="M587.2,417.8c6.5-1,12.8-3.1,19.2-4.5c6.8-1.5,13.7-2.8,20.6-3.6c6.4-0.7,13-1.4,19.4-0.8
		c6.6,0.6,12.7,4,19.2,4.5c1.6,0.1,2-2.1,0.8-2.9c-4.9-3.3-12.4-4.6-18.1-5.3c-7.3-0.9-14.8-0.1-22.1,0.9c-13,1.7-28,3.9-39.5,10.7
		C586,417.1,586.5,417.9,587.2,417.8"/>
	<path class="st1" d="M623.1,417.2c8.5,1.8,17.1-1.1,25.5-2.2c4.1-0.5,8.3-0.7,12.4,0.1c4.3,0.8,7.2,2.9,10.8,5.1
		c1.3,0.8,3.2-0.9,2.2-2.2c-4.4-6.1-13.7-7.4-20.7-7c-10.2,0.6-20.1,4-30.2,5.3C622.6,416.4,622.7,417.2,623.1,417.2"/>
	<path class="st1" d="M639.7,424.4c5.2-1.7,10.5-2.6,15.9-2.9c2.4-0.1,17.1-0.8,15,4.2c-0.8,1.9,2.2,3,3.2,1.4
		c4-6.2-4.7-8.5-9.1-8.8c-8.9-0.5-17.4,1.4-25.5,5C638.6,423.6,639,424.6,639.7,424.4"/>
	<path class="st1" d="M664.4,430.3c4-0.6,8.6-0.9,12.3-2.8c1.3-0.7,0.8-3.1-0.8-2.9c-4.2,0.5-8.2,2.9-11.9,4.7
		C663.4,429.6,663.9,430.4,664.4,430.3"/>
	<path class="st1" d="M584.3,438.7c3.8,3.8,9.4,2.6,14.1,1.4c8.1-2,14.6-1.4,22.5,1c1.7,0.5,2.8-2.1,1.2-2.9
		c-5.3-2.8-11.7-3.5-17.5-2.9c-6.8,0.8-12.8,3.8-19.8,2.5C584.3,437.7,583.9,438.3,584.3,438.7"/>
	<path class="st1" d="M617.6,417.4c9.4,2.6,15.4,8.9,20.5,16.9c0.9,1.4,3.3,0.5,2.7-1.1c-3.5-9.6-13.3-15.5-23-16.8
		C617.1,416.3,617,417.3,617.6,417.4"/>
	<path class="st1" d="M549.9,439.5c4.3-1.2,9.1-3.5,12.5-6.6c3.5-3.2,3.4-8.8,5.5-13c2.7-5.3,5.3-8.6,10.7-11.3
		c4.2-2.1,8-4.7,11.2-8.1c1.4-1.5,2.7-3.1,3.9-4.7c1-1.4,2.5-5.3,3.9-5.4c4.1-0.2,2.2,8,1.2,9.8c-1.3,2.4-3.3,4.3-5.3,6.1
		c-2.4,2.2-7.6,5.5-7.8,9.2c-0.1,1.3,0.5,2.1,1.3,3.1c2.1,2.7,3.2,4.8,2.8,8.3c-0.2,1.9,2.7,2.1,3.2,0.4c0.7-2.3,0.8-4.3,0-6.6
		c-0.6-1.8-2.9-3.8-2.8-5.4c0.2-2.6,5.2-5.8,7-7.5c1.7-1.7,3.4-3.6,4.6-5.8c1.9-3.5,2.6-8,0.6-11.6c-1.4-2.6-4.9-5.7-7.8-3.4
		c-1.6,1.3-2.5,4-3.6,5.7c-1.9,2.8-4.1,5.3-6.7,7.5c-4.3,3.6-10,5.1-14,8.9c-3.7,3.5-6.3,9.1-7.9,13.9c-1,3-0.7,6.3-2.9,8.6
		c-2.7,2.8-6.8,4.7-10,6.8C548.9,438.8,549.2,439.7,549.9,439.5"/>
	<path class="st1" d="M274.9,450.7c6.4-5.2,11.7-12.2,17.1-18.4c5.2-5.9,10.5-14.2,18.3-16.6c6.9-2,14.5-1.6,21.6-3
		c7.7-1.5,15.2-4.1,22.2-7.5c-0.9-0.2-1.9-0.5-2.8-0.7c5,6.6-6.6,10.6-10.9,12.5c-6.5,2.9-13,5.8-19.6,8.2c-2.3,0.8-0.9,4.1,1.3,3.1
		c9-4.2,19.1-6.8,27.8-11.6c5.1-2.8,8.8-8.9,5-14.3c-0.7-1-1.7-1.3-2.8-0.7c-8.1,3.8-16.5,6.6-25.4,7.9c-7,1.1-14.7,0.5-21.2,3.8
		c-6.7,3.4-11.3,10.8-16,16.4c-5.3,6.5-11.5,12.8-15.6,20.1C273.4,450.5,274.3,451.1,274.9,450.7"/>
	<path class="st1" d="M321.7,428.4c5.9,1.8,12.4,2.1,18.5,2.8c5.3,0.6,11.6,2.3,16.9,1.5c4.3-0.6,7.2-3.8,10.4-6.5
		c3.5-2.8,14.3-10.2,18.2-5.2c1.4,1.8,4.1-0.5,3.1-2.4c-4.8-8.7-19.9,1.1-24.6,5.2c-2.8,2.4-5.2,5-9.2,5c-3.3,0-6.8-0.6-10.1-0.9
		c-7.5-0.6-15.3-1.9-22.8-1.3C320.9,426.7,320.6,428.1,321.7,428.4"/>
	<path class="st1" d="M289.9,473.4c11.8-8.6,29.8-6.3,43.5-4.7c10.7,1.2,29.5,3.3,33.7-10.4c0.6-1.9-2-3.5-3.4-2
		c-2.5,2.8-4.6,5.4-8.2,6.7c-3.7,1.4-7.7,1.7-11.6,1.6c-7.7-0.2-15.3-1.4-22.9-1.5c-10.6-0.1-25.1-0.3-31.8,9.6
		C288.9,473.1,289.5,473.7,289.9,473.4"/>
	<path class="st1" d="M355.4,455.7c4.7,3.2,12-3.1,14.2-6.9c0.9-1.6-1.3-3.4-2.6-2c-1.5,1.6-2.9,3.2-4.6,4.6
		c-1.3,1.1-4.6,4.4-6.6,3.3C355.3,454.5,354.8,455.3,355.4,455.7"/>
	<path class="st1" d="M357.1,446.4c6.6-1.7,12.6-4.8,18.1-8.8c5.1-3.6,10.8-8,14-13.5c1.1-1.9-1.4-3.8-3-2.3
		c-4.7,4.3-8.5,9.3-13.6,13.2c-5,3.9-10.5,7.1-16,10.1C356,445.6,356.4,446.6,357.1,446.4"/>
	<path class="st1" d="M365.6,451.9c5.6-2.7,6.9-10.2,11.6-13.7c0.8-0.6,1-1.6,0.3-2.3c-0.1-0.1-0.2-0.2-0.3-0.4
		c-0.5-0.6-1.6-0.8-2.3-0.3c-2.3,1.6-3.5,4.6-4.9,7c-0.9,1.4-1.7,2.9-2.5,4.4c-0.8,1.4-1.3,3.3-2.5,4.5
		C364.5,451.5,365.1,452.1,365.6,451.9"/>
	<path class="st1" d="M374.4,438.5c-2.2,3.3-4,6.8-6.1,10.2c-2,3.3-4.9,6.5-6.4,10c-0.8,2,1.3,4,3.1,2.4c2.9-2.7,4.8-7,6.5-10.6
		c1.8-3.7,3.4-7.5,4.2-11.5C375.7,438.3,374.8,437.8,374.4,438.5"/>
	<path class="st1" d="M352.5,428.1c-0.5-1.2,5.5-4.5,6.5-4.9c2.6-1.2,4.6-1.5,7.1,0.1c1.6,1.1,3.7-1,2.7-2.7
		c-2.9-4.8-9.8-2.1-13.3,0.4c-1.3,0.9-8.7,7.6-3.4,7.9C352.4,428.9,352.6,428.4,352.5,428.1"/>
	<path class="st1" d="M374.7,436.7c-5,14.6,2.6,28.6,4.2,42.9c1.6,15.4-2.6,29.1-6.5,43.8c-0.6,2.1,2.2,3.1,3.4,1.4
		c8.2-11.7,10.3-27.9,9.4-41.9c-0.5-7.7-2.8-14.5-5.1-21.8c-2.5-8-2.5-16-3.6-24.2C376.4,436,375.1,435.7,374.7,436.7"/>
	<path class="st1" d="M41.5,4c61.9,1.3,123.8,0.9,185.7,1C289.2,5.1,351.1,5.1,413,5.1c123.2,0,246.4,0,369.6,0.1
		c69.5,0,139,0.3,208.5-0.2c2.8,0,2.8-4.3,0-4.3C867.2-0.2,743.4,0.5,619.6,0.5C496.4,0.5,373.2,0.4,250,0.6
		c-69.5,0.1-139-0.4-208.5,1C39.9,1.6,39.9,4,41.5,4"/>
	<path class="st1" d="M26.6,598.4c16,1.4,32.1,1.1,48.1,1.3c16,0.2,32.1,0.1,48.1,0.1c16,0,32.1,0,48.1,0c16,0,32.1,0.5,48.1-0.4
		c2.5-0.1,2.5-3.7,0-3.9c-16-0.9-32.1-0.4-48.1-0.4c-16,0-32.1,0-48.1,0c-16,0-32.1-0.1-48.1,0.1c-16,0.2-32.2-0.1-48.1,1.3
		C25.6,596.8,25.6,598.3,26.6,598.4"/>
	<path class="st1" d="M381.1,590.2c20.3,1.4,40.8,1,61.2,1.1c20.1,0.1,40.2,0.1,60.3,0.2c40.5,0.1,81,0.1,121.5,0.1
		c81,0,162,0,243,0c45.7,0,91.5,0.5,137.3-0.2c2.8,0,2.8-4.2,0-4.3c-81-1.3-162-0.2-243-0.2c-81,0-162-0.1-243,0.1
		c-22.9,0-45.8,0-68.6,0.1c-22.8,0.2-45.8-0.4-68.6,1.2C379.8,588.3,379.8,590.1,381.1,590.2"/>
	<path class="st1" d="M1.5,626.3c36.1,0.9,72.2,1,108.4,1.2c17.9,0.1,35.8,0.1,53.7,0.2c18.2,0,36.5,0.6,54.7-0.5
		c2.3-0.1,2.3-3.4,0-3.5c-17.9-1.1-35.8-0.5-53.7-0.5c-18.2,0-36.4,0-54.7,0.2c-36.1,0.2-72.3,0.3-108.4,1.2
		C0.4,624.7,0.4,626.3,1.5,626.3"/>
	<path class="st1" d="M380.9,625.3c10.6,1.4,21.2,1.2,31.8,1.3c10.9,0.1,21.7,0.1,32.6,0.1c21.7,0.1,43.4,0.1,65.1,0.1
		c43.7,0,87.4,0.1,131.2,0.1c87.4,0,174.9,0,262.3,0c49,0,98,0.3,147-0.2c2.8,0,2.8-4.3,0-4.3c-87.4-1-174.9-0.2-262.3-0.2
		c-87.4,0-174.9,0-262.3,0.1c-24.2,0-48.4,0-72.6,0.1c-12.4,0-24.8,0.1-37.2,0.1c-11.8,0-23.8-0.3-35.6,1.3
		C380.1,623.9,380.1,625.2,380.9,625.3"/>
	<path class="st1" d="M27.9,599.9c-2.5-1.5-5,1.1-6.9,2.6c-2.2,1.6-4.2,3.3-6.9,3.9c-2.5,0.6-4.9,0.2-7.3,1.3
		c-5.8,2.7-8.5,10.3-5.5,16c1.1,2.1,4.7,0.7,3.9-1.6c-1.1-3.1-1-6.4,1.4-8.9c2.7-2.9,6.7-1.8,10.1-3.2c2.4-1,4.4-2.8,6.3-4.6
		c1.7-1.6,4.6-2.7,5.1-5.1C28.1,600.2,28,600,27.9,599.9"/>
	<path class="st1" d="M32.2,614c30.2,0.7,60.5,1.3,90.7,1.4c14.8,0,29.6,0.1,44.4,0.1c15.4,0,30.9,0.7,46.3-0.4
		c2.2-0.2,2.2-3.3,0-3.4c-15-1.1-30.3-0.4-45.4-0.4c-15.1,0-30.2,0.1-45.4,0.1c-30.2,0.1-60.5,0.6-90.7,1.4
		C31.5,612.8,31.5,614,32.2,614"/>
	<path class="st1" d="M382.9,608.5c81.8,2.1,163.8,1.1,245.6,1.1c82.2,0,164.4,0,246.5,0c46.2,0,92.4-0.5,138.6-0.9
		c1.2,0,1.2-1.9,0-1.9c-81.9-0.7-163.7-0.9-245.6-0.9c-82.2,0-164.4-0.1-246.5,0.1c-46.2,0.1-92.4-0.1-138.6,1
		C382,607.1,382,608.5,382.9,608.5"/>
	<path class="st1" d="M1005.9,592c-1.7,8.2,4.3,16.3,12.1,18.4c5.6,1.5,11.4,0,17.1-0.2c3.3-0.1,6.9,0,9.7,1.8
		c3.4,2.1,3.8,5.1,3.9,8.7c0.1,1.8,2.4,2.4,3.3,0.9c2.1-3.3,0.6-7.6-1.8-10.4c-3-3.6-7.5-5-12.1-5.1c-6.6-0.2-13.5,2.5-20,0.6
		c-6.8-1.9-10.2-8-11.2-14.6C1006.9,591.4,1006,591.5,1005.9,592"/>
	<path class="st1" d="M1010,31.3c-2.2,35.8-1.4,71.8-1.6,107.7c-0.1,35.9,0,71.8-0.1,107.7c0,72.1,0,144.2,0,216.3
		c0,40.5-0.5,81.1,0.8,121.6c0.1,2.2,3.4,2.2,3.5,0c1.1-35.9,0.8-71.8,0.8-107.7c0-35.9,0-71.8,0-107.7c0-72.1,0-144.2-0.1-216.3
		c0-40.5,0.8-81.2-1.6-121.6C1011.7,30.2,1010.1,30.2,1010,31.3"/>
	<path class="st1" d="M53.6,30.9c117.8,1.9,235.7,0.7,353.5,0.7c117.2,0,234.4,0,351.7,0c66.4,0,132.7,0.1,199.1-0.2
		c1.8,0,1.8-2.7,0-2.8c-117.8-0.6-235.7-0.2-353.5-0.2c-117.2,0-234.4,0-351.6,0c-66.4,0-132.7-0.4-199.1,0.7
		C52.5,29.3,52.5,30.9,53.6,30.9"/>
	<path class="st1" d="M985.9,34.7c-1.7,70.9-1.2,141.8-1.4,212.7c-0.1,70.6-0.2,141.2-0.1,211.7c0,19.8,0,39.6,0.1,59.4
		c0.1,20-0.8,40.4,0.7,60.4c0.1,1.9,2.8,1.9,2.9,0c1.4-17.5,0.6-35.3,0.7-52.9c0.1-17.6,0.1-35.3,0.1-52.9c0-35.6,0-71.2,0-106.8
		c0-70.6,0.1-141.2-0.3-211.7c-0.3-39.9-0.2-79.9-1.2-119.8C987.5,33.7,985.9,33.7,985.9,34.7"/>
	<path class="st1" d="M54.4,575.2c0.5-70.4,0.8-140.8,0.9-211.2c0.1-70.4,0.2-140.8,0.2-211.2c0-39.7,0.2-79.4,0-119.1
		c0-2.4-3.7-2.4-3.7,0c-0.4,70.4,0,140.8,0,211.2c0,70.4,0.1,140.8,0.4,211.2c0.1,39.7,0.4,79.4,0.7,119.1
		C52.8,576.2,54.4,576.2,54.4,575.2"/>
	<path class="st1" d="M26.9,26.4c-2.6,73.9-1.6,148-1.6,222c0,73.7,0.2,147.4,0.3,221c0.1,41.8-0.2,83.6,0.7,125.4
		c0,1.6,2.5,1.6,2.5,0c1.6-74,0.7-148,0.9-222c0.1-73.7,0.3-147.4,0.2-221c-0.1-41.8-0.1-83.6-1.6-125.4
		C28.2,25.5,26.9,25.5,26.9,26.4"/>
	<path class="st1" d="M43.6,1.4c-5.7-2-10.6,2.9-13.2,7.5c-3.6,6.6-4.8,14.2-3.2,21.6c0.3,1.4,2.5,1.1,2.4-0.3
		C29,20.8,31.2,3.2,43.5,2.5C44.1,2.5,44.2,1.6,43.6,1.4"/>
	<path class="st1" d="M989.1,3.5c6.3-0.4,12.2,0,16.9,4.8c5.2,5.4,5.4,13.5,6.2,20.5c0.1,1.2,2.1,1.8,2.3,0.3c1.4-8-0.5-18-6.5-23.8
		c-4.9-4.7-13.3-7.2-19.5-3.8C987.6,2,988,3.6,989.1,3.5"/>
	<path class="st1" d="M963.8,33.3c6,0.5,12,1.1,18,1.4c1.3,0.1,1.3-1.9,0-2c-6-0.4-12-0.5-18-0.8C962.9,32,962.9,33.2,963.8,33.3"/>
	<path class="st1" d="M43.4,1050.3c30.5,0.4,61.1,0.5,91.6,0.7c15.1,0.1,30.2,0.2,45.4,0.3c15.4,0.1,30.9,0.6,46.3-0.1
		c2-0.1,2-3,0-3.1c-15.4-0.8-30.9-0.2-46.3-0.1c-15.1,0.1-30.2,0.2-45.4,0.3c-30.5,0.2-61.1,0.4-91.6,0.7
		C42.5,1049,42.5,1050.3,43.4,1050.3"/>
	<path class="st1" d="M364.3,1046.6c61.1,1.9,122.4,1.1,183.6,1.2c60.6,0.1,121.2,0.2,181.7,0c34.6-0.2,69.2-0.4,103.9-0.7
		c1.5,0,1.5-2.3,0-2.3c-121.8-0.9-243.6-0.9-365.4-0.5c-34.6,0.1-69.3-0.1-103.9,1C363.5,1045.3,363.5,1046.6,364.3,1046.6"/>
	<path class="st1" d="M284.7,716.5c8.6,4.4,17.2,9.8,27.3,8.7c10.2-1.1,19.1-6.6,28.7-9.9c1.8-0.6,1.1-3.3-0.8-2.8
		c-9,2.1-17.1,7.1-26.2,8.7c-10.3,1.9-18.9-3.3-28.5-6C284.5,715,284,716.1,284.7,716.5"/>
	<path class="st1" d="M215.2,680.8c4.6,5.7,15.3,2.4,21.3,1c4.6-1.1,9.1-2.5,13.4-4.3c3.8-1.6,8.2-3,11.1-6c1.3-1.3,0-3.4-1.7-3
		c-3.4,0.8-6.4,2.9-9.5,4.3c-3.6,1.6-7.3,3-11.1,4.2c-7.3,2.3-15.3,4.6-22.9,2.8C215.2,679.7,214.9,680.3,215.2,680.8"/>
	<path class="st1" d="M362,672.4c5.4,6.5,16,6.2,23.4,9.2c1.8,0.7,2.5-1.9,1.2-2.8c-6.9-5.1-16.4-2.9-23.8-7.4
		C362.1,671,361.5,671.9,362,672.4"/>
	<path class="st1" d="M335.8,659.8c11.2-4.5,20.9-11.7,28.1-21.3c4.3-5.8,7.3-12.2,10.2-18.8c1.5-3.5,6.5-10.3,2.6-13.6
		c-1.1-0.9-2.7,0.2-2,1.6c1,2-1.6,5.8-2.3,7.6c-1.4,3.3-2.8,6.7-4.2,10c-2.3,5.1-5.1,10-8.6,14.4c-6.5,8.1-14.9,14.5-24.3,18.8
		C334.4,658.8,335,660.2,335.8,659.8"/>
	<path class="st1" d="M326.7,636.4c3.2,3.1,7.6,0.8,10.9-0.8c5.7-2.7,11-6,15.9-9.9c5.3-4.1,10-8.7,14.3-13.9
		c3.7-4.5,8.5-10.1,8.7-16.2c0-1.2-1.9-1.9-2.4-0.7c-2.4,5.4-4.7,10.1-8.4,14.7c-3,3.8-6.4,7.3-10,10.6c-3.9,3.6-8.1,6.8-12.5,9.6
		c-3.4,2.2-11.8,8.9-15.8,5.7C326.9,635.2,326.2,635.9,326.7,636.4"/>
	<path class="st1" d="M267.5,778c13.2-17.6,21.5-38.5,36.5-54.8c1-1.1-0.6-2.7-1.6-1.6c-15,16.6-22.8,37.9-36.2,55.6
		C265.6,778,266.9,778.7,267.5,778"/>
	<path class="st1" d="M273,742.8c4.3-4,8.8-7.7,13.7-11c4.4-3.1,9.3-5.4,13.8-8.5c0.9-0.6,0.3-2.2-0.8-1.8
		c-10.3,4.2-19.7,12.8-27.4,20.6C271.9,742.6,272.5,743.3,273,742.8"/>
	<path class="st1" d="M335.3,427.2c7.4-4.1,14.4-9,21.5-13.6c3.5-2.3,7.1-4.7,10.6-7c1.5-1,2.9-2.3,4.5-3c1-1.1,2.1-1.4,3.5-0.8
		c2.2,2.5,2.1,4.7-0.5,6.5c-1.3,0.9-0.6,3.4,1.2,2.8c3.7-1.3,6.1-4.9,4.6-8.9c-1.2-3.1-4.6-5.5-7.8-4.1c-1.4,0.6-4,3.2-5.4,4.2
		c-1.5,1.1-3,2.1-4.5,3.1c-3.5,2.4-7,4.9-10.4,7.3c-6,4.2-12.2,8.2-18,12.7C334,426.7,334.7,427.5,335.3,427.2"/>
	<path class="st1" d="M348.6,430.2c5.8-2.9,11.3-6.2,16.9-9.4c2.7-1.5,5.3-3.1,8-4.6c2-1.1,4.8-2.2,6.3-3.9c0.5-0.6,0.6-1.4,0.3-2.1
		c-0.1-0.2-0.2-0.4-0.3-0.6c-0.5-0.9-1.6-1-2.4-0.6c-0.2,0.1-0.4,0.2-0.6,0.3c-0.7,0.3-1.1,1.4-0.9,2.1c0.1,0.2,0.1,0.4,0.2,0.6
		c0.8,2.2,3.9,1.3,3.5-1c0-0.2-0.1-0.4-0.1-0.6l-0.5,1.8c0.1-0.1,0.3-0.3,0.4-0.4H377c0.1,0.2,0.3,0.3,0.4,0.5
		c-0.1-0.7-0.2-1.4-0.3-2.1c-1.2,1.8-4.8,3.2-6.7,4.4c-2.6,1.7-5.2,3.3-7.7,5c-4.9,3.2-9.8,6.3-14.5,9.8
		C347.7,429.8,348.1,430.5,348.6,430.2"/>
</g>
</svg>
