<?xml version="1.0" encoding="utf-8"?>
<!-- Generator: Adobe Illustrator 19.0.0, SVG Export Plug-In . SVG Version: 6.00 Build 0)  -->
<svg version="1.1" id="Слой_1" xmlns="http://www.w3.org/2000/svg" xmlns:xlink="http://www.w3.org/1999/xlink" x="0px" y="0px"
	 viewBox="-294 386 22 22" style="enable-background:new -294 386 22 22;" xml:space="preserve">
<style type="text/css">
	.st0{fill:#E7004A;}
</style>
<path class="st0" d="M-273.5,401.8c-3.1-2.5-4-1.3-5.5,0.1c-1,1-3.5-1.1-5.7-3.3c-2.2-2.2-4.3-4.7-3.3-5.7c1.4-1.4,2.7-2.3,0.1-5.5
	c-2.5-3.1-4.2-0.7-5.6,0.7c-1.6,1.6-0.1,7.5,5.8,13.4c5.9,5.9,11.8,7.4,13.4,5.8C-272.8,406-270.4,404.3-273.5,401.8z M-290.1,389.2
	c0,0-0.1,0-0.2,0.1c-0.1,0.1-0.3,0.1-0.5,0.2c-0.1,0-0.2,0.1-0.3,0.2c-0.1,0.1-0.2,0.1-0.3,0.2c-0.1,0.1-0.2,0.2-0.3,0.3
	c-0.1,0.1-0.1,0.2-0.2,0.4c-0.1,0.1-0.1,0.3-0.1,0.4c0,0.2,0,0.3-0.1,0.5c0,0.3,0,0.6,0.1,0.9c0,0.3,0.1,0.5,0.1,0.6
	c0,0.2,0.1,0.2,0.1,0.2s0-0.1-0.1-0.2c-0.1-0.1-0.2-0.3-0.3-0.6c-0.1-0.2-0.3-0.5-0.4-0.9c0-0.2-0.1-0.4-0.1-0.6
	c0-0.2-0.1-0.4,0-0.6c0-0.2,0-0.4,0.1-0.6c0.1-0.2,0.1-0.4,0.2-0.6c0.1-0.2,0.2-0.4,0.3-0.5c0.1-0.2,0.2-0.3,0.4-0.4
	c0.2-0.2,0.4-0.4,0.6-0.5c0.1-0.1,0.1-0.1,0.1-0.1c0,0,0,0,0,0L-290.1,389.2C-290,389.2-290,389.2-290.1,389.2z M-273.9,405.3
	c-0.1,0.1-0.3,0.3-0.5,0.6c-0.1,0.1-0.2,0.2-0.4,0.4c-0.1,0.1-0.3,0.2-0.5,0.3c-0.2,0.1-0.4,0.2-0.6,0.3c-0.2,0.1-0.4,0.1-0.6,0.1
	l-0.3,0l-0.3,0c-0.2,0-0.4-0.1-0.6-0.1c-0.2,0-0.3-0.1-0.5-0.1c-0.2,0-0.3-0.1-0.4-0.2c-0.3-0.1-0.4-0.2-0.6-0.3
	c-0.1-0.1-0.2-0.1-0.2-0.1s0.1,0,0.2,0c0.2,0,0.4,0.1,0.6,0.1c0.1,0,0.3,0,0.4,0c0.1,0,0.3,0,0.5,0c0.2,0,0.3,0,0.5-0.1l0.2-0.1
	l0.2-0.1c0.5-0.3,0.8-0.7,1-1.1c0.1-0.2,0.1-0.4,0.2-0.5c0-0.1,0.1-0.2,0.1-0.2l1.7,1C-273.7,405.1-273.8,405.1-273.9,405.3z"/>
</svg>
